<?xml version="1.0" encoding="utf-8" standalone="no"?>
<!DOCTYPE svg PUBLIC "-//W3C//DTD SVG 1.1//EN"
  "http://www.w3.org/Graphics/SVG/1.1/DTD/svg11.dtd">
<svg xmlns:xlink="http://www.w3.org/1999/xlink" width="460.8pt" height="345.6pt" viewBox="0 0 460.8 345.6" xmlns="http://www.w3.org/2000/svg" version="1.1">
 <metadata>
  <rdf:RDF xmlns:dc="http://purl.org/dc/elements/1.1/" xmlns:cc="http://creativecommons.org/ns#" xmlns:rdf="http://www.w3.org/1999/02/22-rdf-syntax-ns#">
   <cc:Work>
    <dc:type rdf:resource="http://purl.org/dc/dcmitype/StillImage"/>
    <dc:date>2024-07-03T19:44:23.004736</dc:date>
    <dc:format>image/svg+xml</dc:format>
    <dc:creator>
     <cc:Agent>
      <dc:title>Matplotlib v3.8.4, https://matplotlib.org/</dc:title>
     </cc:Agent>
    </dc:creator>
   </cc:Work>
  </rdf:RDF>
 </metadata>
 <defs>
  <style type="text/css">*{stroke-linejoin: round; stroke-linecap: butt}</style>
 </defs>
 <g id="figure_1">
  <g id="patch_1">
   <path d="M 0 345.6 
L 460.8 345.6 
L 460.8 0 
L 0 0 
L 0 345.6 
z
" style="fill: none"/>
  </g>
  <g id="axes_1">
   <g id="patch_2">
    <path d="M 57.6 307.584 
L 414.72 307.584 
L 414.72 41.472 
L 57.6 41.472 
L 57.6 307.584 
z
" style="fill: none"/>
   </g>
   <g id="matplotlib.axis_1">
    <g id="xtick_1">
     <g id="line2d_1">
      <defs>
       <path id="m8858c5c9fd" d="M 0 0 
L 0 3.5 
" style="stroke: #000000; stroke-width: 0.8"/>
      </defs>
      <g>
       <use xlink:href="#m8858c5c9fd" x="73.832727" y="307.584" style="stroke: #000000; stroke-width: 0.8"/>
      </g>
     </g>
     <g id="text_1">
      <!-- 0 -->
      <g transform="translate(70.651477 322.182437) scale(0.1 -0.1)">
       <defs>
        <path id="DejaVuSans-30" d="M 2034 4250 
Q 1547 4250 1301 3770 
Q 1056 3291 1056 2328 
Q 1056 1369 1301 889 
Q 1547 409 2034 409 
Q 2525 409 2770 889 
Q 3016 1369 3016 2328 
Q 3016 3291 2770 3770 
Q 2525 4250 2034 4250 
z
M 2034 4750 
Q 2819 4750 3233 4129 
Q 3647 3509 3647 2328 
Q 3647 1150 3233 529 
Q 2819 -91 2034 -91 
Q 1250 -91 836 529 
Q 422 1150 422 2328 
Q 422 3509 836 4129 
Q 1250 4750 2034 4750 
z
" transform="scale(0.015625)"/>
       </defs>
       <use xlink:href="#DejaVuSans-30"/>
      </g>
     </g>
    </g>
    <g id="xtick_2">
     <g id="line2d_2">
      <g>
       <use xlink:href="#m8858c5c9fd" x="138.893758" y="307.584" style="stroke: #000000; stroke-width: 0.8"/>
      </g>
     </g>
     <g id="text_2">
      <!-- 100 -->
      <g transform="translate(129.350008 322.182437) scale(0.1 -0.1)">
       <defs>
        <path id="DejaVuSans-31" d="M 794 531 
L 1825 531 
L 1825 4091 
L 703 3866 
L 703 4441 
L 1819 4666 
L 2450 4666 
L 2450 531 
L 3481 531 
L 3481 0 
L 794 0 
L 794 531 
z
" transform="scale(0.015625)"/>
       </defs>
       <use xlink:href="#DejaVuSans-31"/>
       <use xlink:href="#DejaVuSans-30" x="63.623047"/>
       <use xlink:href="#DejaVuSans-30" x="127.246094"/>
      </g>
     </g>
    </g>
    <g id="xtick_3">
     <g id="line2d_3">
      <g>
       <use xlink:href="#m8858c5c9fd" x="203.95479" y="307.584" style="stroke: #000000; stroke-width: 0.8"/>
      </g>
     </g>
     <g id="text_3">
      <!-- 200 -->
      <g transform="translate(194.41104 322.182437) scale(0.1 -0.1)">
       <defs>
        <path id="DejaVuSans-32" d="M 1228 531 
L 3431 531 
L 3431 0 
L 469 0 
L 469 531 
Q 828 903 1448 1529 
Q 2069 2156 2228 2338 
Q 2531 2678 2651 2914 
Q 2772 3150 2772 3378 
Q 2772 3750 2511 3984 
Q 2250 4219 1831 4219 
Q 1534 4219 1204 4116 
Q 875 4013 500 3803 
L 500 4441 
Q 881 4594 1212 4672 
Q 1544 4750 1819 4750 
Q 2544 4750 2975 4387 
Q 3406 4025 3406 3419 
Q 3406 3131 3298 2873 
Q 3191 2616 2906 2266 
Q 2828 2175 2409 1742 
Q 1991 1309 1228 531 
z
" transform="scale(0.015625)"/>
       </defs>
       <use xlink:href="#DejaVuSans-32"/>
       <use xlink:href="#DejaVuSans-30" x="63.623047"/>
       <use xlink:href="#DejaVuSans-30" x="127.246094"/>
      </g>
     </g>
    </g>
    <g id="xtick_4">
     <g id="line2d_4">
      <g>
       <use xlink:href="#m8858c5c9fd" x="269.015821" y="307.584" style="stroke: #000000; stroke-width: 0.8"/>
      </g>
     </g>
     <g id="text_4">
      <!-- 300 -->
      <g transform="translate(259.472071 322.182437) scale(0.1 -0.1)">
       <defs>
        <path id="DejaVuSans-33" d="M 2597 2516 
Q 3050 2419 3304 2112 
Q 3559 1806 3559 1356 
Q 3559 666 3084 287 
Q 2609 -91 1734 -91 
Q 1441 -91 1130 -33 
Q 819 25 488 141 
L 488 750 
Q 750 597 1062 519 
Q 1375 441 1716 441 
Q 2309 441 2620 675 
Q 2931 909 2931 1356 
Q 2931 1769 2642 2001 
Q 2353 2234 1838 2234 
L 1294 2234 
L 1294 2753 
L 1863 2753 
Q 2328 2753 2575 2939 
Q 2822 3125 2822 3475 
Q 2822 3834 2567 4026 
Q 2313 4219 1838 4219 
Q 1578 4219 1281 4162 
Q 984 4106 628 3988 
L 628 4550 
Q 988 4650 1302 4700 
Q 1616 4750 1894 4750 
Q 2613 4750 3031 4423 
Q 3450 4097 3450 3541 
Q 3450 3153 3228 2886 
Q 3006 2619 2597 2516 
z
" transform="scale(0.015625)"/>
       </defs>
       <use xlink:href="#DejaVuSans-33"/>
       <use xlink:href="#DejaVuSans-30" x="63.623047"/>
       <use xlink:href="#DejaVuSans-30" x="127.246094"/>
      </g>
     </g>
    </g>
    <g id="xtick_5">
     <g id="line2d_5">
      <g>
       <use xlink:href="#m8858c5c9fd" x="334.076852" y="307.584" style="stroke: #000000; stroke-width: 0.8"/>
      </g>
     </g>
     <g id="text_5">
      <!-- 400 -->
      <g transform="translate(324.533102 322.182437) scale(0.1 -0.1)">
       <defs>
        <path id="DejaVuSans-34" d="M 2419 4116 
L 825 1625 
L 2419 1625 
L 2419 4116 
z
M 2253 4666 
L 3047 4666 
L 3047 1625 
L 3713 1625 
L 3713 1100 
L 3047 1100 
L 3047 0 
L 2419 0 
L 2419 1100 
L 313 1100 
L 313 1709 
L 2253 4666 
z
" transform="scale(0.015625)"/>
       </defs>
       <use xlink:href="#DejaVuSans-34"/>
       <use xlink:href="#DejaVuSans-30" x="63.623047"/>
       <use xlink:href="#DejaVuSans-30" x="127.246094"/>
      </g>
     </g>
    </g>
    <g id="xtick_6">
     <g id="line2d_6">
      <g>
       <use xlink:href="#m8858c5c9fd" x="399.137883" y="307.584" style="stroke: #000000; stroke-width: 0.8"/>
      </g>
     </g>
     <g id="text_6">
      <!-- 500 -->
      <g transform="translate(389.594133 322.182437) scale(0.1 -0.1)">
       <defs>
        <path id="DejaVuSans-35" d="M 691 4666 
L 3169 4666 
L 3169 4134 
L 1269 4134 
L 1269 2991 
Q 1406 3038 1543 3061 
Q 1681 3084 1819 3084 
Q 2600 3084 3056 2656 
Q 3513 2228 3513 1497 
Q 3513 744 3044 326 
Q 2575 -91 1722 -91 
Q 1428 -91 1123 -41 
Q 819 9 494 109 
L 494 744 
Q 775 591 1075 516 
Q 1375 441 1709 441 
Q 2250 441 2565 725 
Q 2881 1009 2881 1497 
Q 2881 1984 2565 2268 
Q 2250 2553 1709 2553 
Q 1456 2553 1204 2497 
Q 953 2441 691 2322 
L 691 4666 
z
" transform="scale(0.015625)"/>
       </defs>
       <use xlink:href="#DejaVuSans-35"/>
       <use xlink:href="#DejaVuSans-30" x="63.623047"/>
       <use xlink:href="#DejaVuSans-30" x="127.246094"/>
      </g>
     </g>
    </g>
    <g id="text_7">
     <!-- epoch -->
     <g transform="translate(220.931875 335.860562) scale(0.1 -0.1)">
      <defs>
       <path id="DejaVuSans-65" d="M 3597 1894 
L 3597 1613 
L 953 1613 
Q 991 1019 1311 708 
Q 1631 397 2203 397 
Q 2534 397 2845 478 
Q 3156 559 3463 722 
L 3463 178 
Q 3153 47 2828 -22 
Q 2503 -91 2169 -91 
Q 1331 -91 842 396 
Q 353 884 353 1716 
Q 353 2575 817 3079 
Q 1281 3584 2069 3584 
Q 2775 3584 3186 3129 
Q 3597 2675 3597 1894 
z
M 3022 2063 
Q 3016 2534 2758 2815 
Q 2500 3097 2075 3097 
Q 1594 3097 1305 2825 
Q 1016 2553 972 2059 
L 3022 2063 
z
" transform="scale(0.015625)"/>
       <path id="DejaVuSans-70" d="M 1159 525 
L 1159 -1331 
L 581 -1331 
L 581 3500 
L 1159 3500 
L 1159 2969 
Q 1341 3281 1617 3432 
Q 1894 3584 2278 3584 
Q 2916 3584 3314 3078 
Q 3713 2572 3713 1747 
Q 3713 922 3314 415 
Q 2916 -91 2278 -91 
Q 1894 -91 1617 61 
Q 1341 213 1159 525 
z
M 3116 1747 
Q 3116 2381 2855 2742 
Q 2594 3103 2138 3103 
Q 1681 3103 1420 2742 
Q 1159 2381 1159 1747 
Q 1159 1113 1420 752 
Q 1681 391 2138 391 
Q 2594 391 2855 752 
Q 3116 1113 3116 1747 
z
" transform="scale(0.015625)"/>
       <path id="DejaVuSans-6f" d="M 1959 3097 
Q 1497 3097 1228 2736 
Q 959 2375 959 1747 
Q 959 1119 1226 758 
Q 1494 397 1959 397 
Q 2419 397 2687 759 
Q 2956 1122 2956 1747 
Q 2956 2369 2687 2733 
Q 2419 3097 1959 3097 
z
M 1959 3584 
Q 2709 3584 3137 3096 
Q 3566 2609 3566 1747 
Q 3566 888 3137 398 
Q 2709 -91 1959 -91 
Q 1206 -91 779 398 
Q 353 888 353 1747 
Q 353 2609 779 3096 
Q 1206 3584 1959 3584 
z
" transform="scale(0.015625)"/>
       <path id="DejaVuSans-63" d="M 3122 3366 
L 3122 2828 
Q 2878 2963 2633 3030 
Q 2388 3097 2138 3097 
Q 1578 3097 1268 2742 
Q 959 2388 959 1747 
Q 959 1106 1268 751 
Q 1578 397 2138 397 
Q 2388 397 2633 464 
Q 2878 531 3122 666 
L 3122 134 
Q 2881 22 2623 -34 
Q 2366 -91 2075 -91 
Q 1284 -91 818 406 
Q 353 903 353 1747 
Q 353 2603 823 3093 
Q 1294 3584 2113 3584 
Q 2378 3584 2631 3529 
Q 2884 3475 3122 3366 
z
" transform="scale(0.015625)"/>
       <path id="DejaVuSans-68" d="M 3513 2113 
L 3513 0 
L 2938 0 
L 2938 2094 
Q 2938 2591 2744 2837 
Q 2550 3084 2163 3084 
Q 1697 3084 1428 2787 
Q 1159 2491 1159 1978 
L 1159 0 
L 581 0 
L 581 4863 
L 1159 4863 
L 1159 2956 
Q 1366 3272 1645 3428 
Q 1925 3584 2291 3584 
Q 2894 3584 3203 3211 
Q 3513 2838 3513 2113 
z
" transform="scale(0.015625)"/>
      </defs>
      <use xlink:href="#DejaVuSans-65"/>
      <use xlink:href="#DejaVuSans-70" x="61.523438"/>
      <use xlink:href="#DejaVuSans-6f" x="125"/>
      <use xlink:href="#DejaVuSans-63" x="186.181641"/>
      <use xlink:href="#DejaVuSans-68" x="241.162109"/>
     </g>
    </g>
   </g>
   <g id="matplotlib.axis_2">
    <g id="ytick_1">
     <g id="line2d_7">
      <defs>
       <path id="m941adfa45a" d="M 0 0 
L -3.5 0 
" style="stroke: #000000; stroke-width: 0.8"/>
      </defs>
      <g>
       <use xlink:href="#m941adfa45a" x="57.6" y="307.584" style="stroke: #000000; stroke-width: 0.8"/>
      </g>
     </g>
     <g id="text_8">
      <!-- 0.0 -->
      <g transform="translate(34.696875 311.383219) scale(0.1 -0.1)">
       <defs>
        <path id="DejaVuSans-2e" d="M 684 794 
L 1344 794 
L 1344 0 
L 684 0 
L 684 794 
z
" transform="scale(0.015625)"/>
       </defs>
       <use xlink:href="#DejaVuSans-30"/>
       <use xlink:href="#DejaVuSans-2e" x="63.623047"/>
       <use xlink:href="#DejaVuSans-30" x="95.410156"/>
      </g>
     </g>
    </g>
    <g id="ytick_2">
     <g id="line2d_8">
      <g>
       <use xlink:href="#m941adfa45a" x="57.6" y="254.3616" style="stroke: #000000; stroke-width: 0.8"/>
      </g>
     </g>
     <g id="text_9">
      <!-- 0.2 -->
      <g transform="translate(34.696875 258.160819) scale(0.1 -0.1)">
       <use xlink:href="#DejaVuSans-30"/>
       <use xlink:href="#DejaVuSans-2e" x="63.623047"/>
       <use xlink:href="#DejaVuSans-32" x="95.410156"/>
      </g>
     </g>
    </g>
    <g id="ytick_3">
     <g id="line2d_9">
      <g>
       <use xlink:href="#m941adfa45a" x="57.6" y="201.1392" style="stroke: #000000; stroke-width: 0.8"/>
      </g>
     </g>
     <g id="text_10">
      <!-- 0.4 -->
      <g transform="translate(34.696875 204.938419) scale(0.1 -0.1)">
       <use xlink:href="#DejaVuSans-30"/>
       <use xlink:href="#DejaVuSans-2e" x="63.623047"/>
       <use xlink:href="#DejaVuSans-34" x="95.410156"/>
      </g>
     </g>
    </g>
    <g id="ytick_4">
     <g id="line2d_10">
      <g>
       <use xlink:href="#m941adfa45a" x="57.6" y="147.9168" style="stroke: #000000; stroke-width: 0.8"/>
      </g>
     </g>
     <g id="text_11">
      <!-- 0.6 -->
      <g transform="translate(34.696875 151.716019) scale(0.1 -0.1)">
       <defs>
        <path id="DejaVuSans-36" d="M 2113 2584 
Q 1688 2584 1439 2293 
Q 1191 2003 1191 1497 
Q 1191 994 1439 701 
Q 1688 409 2113 409 
Q 2538 409 2786 701 
Q 3034 994 3034 1497 
Q 3034 2003 2786 2293 
Q 2538 2584 2113 2584 
z
M 3366 4563 
L 3366 3988 
Q 3128 4100 2886 4159 
Q 2644 4219 2406 4219 
Q 1781 4219 1451 3797 
Q 1122 3375 1075 2522 
Q 1259 2794 1537 2939 
Q 1816 3084 2150 3084 
Q 2853 3084 3261 2657 
Q 3669 2231 3669 1497 
Q 3669 778 3244 343 
Q 2819 -91 2113 -91 
Q 1303 -91 875 529 
Q 447 1150 447 2328 
Q 447 3434 972 4092 
Q 1497 4750 2381 4750 
Q 2619 4750 2861 4703 
Q 3103 4656 3366 4563 
z
" transform="scale(0.015625)"/>
       </defs>
       <use xlink:href="#DejaVuSans-30"/>
       <use xlink:href="#DejaVuSans-2e" x="63.623047"/>
       <use xlink:href="#DejaVuSans-36" x="95.410156"/>
      </g>
     </g>
    </g>
    <g id="ytick_5">
     <g id="line2d_11">
      <g>
       <use xlink:href="#m941adfa45a" x="57.6" y="94.6944" style="stroke: #000000; stroke-width: 0.8"/>
      </g>
     </g>
     <g id="text_12">
      <!-- 0.8 -->
      <g transform="translate(34.696875 98.493619) scale(0.1 -0.1)">
       <defs>
        <path id="DejaVuSans-38" d="M 2034 2216 
Q 1584 2216 1326 1975 
Q 1069 1734 1069 1313 
Q 1069 891 1326 650 
Q 1584 409 2034 409 
Q 2484 409 2743 651 
Q 3003 894 3003 1313 
Q 3003 1734 2745 1975 
Q 2488 2216 2034 2216 
z
M 1403 2484 
Q 997 2584 770 2862 
Q 544 3141 544 3541 
Q 544 4100 942 4425 
Q 1341 4750 2034 4750 
Q 2731 4750 3128 4425 
Q 3525 4100 3525 3541 
Q 3525 3141 3298 2862 
Q 3072 2584 2669 2484 
Q 3125 2378 3379 2068 
Q 3634 1759 3634 1313 
Q 3634 634 3220 271 
Q 2806 -91 2034 -91 
Q 1263 -91 848 271 
Q 434 634 434 1313 
Q 434 1759 690 2068 
Q 947 2378 1403 2484 
z
M 1172 3481 
Q 1172 3119 1398 2916 
Q 1625 2713 2034 2713 
Q 2441 2713 2670 2916 
Q 2900 3119 2900 3481 
Q 2900 3844 2670 4047 
Q 2441 4250 2034 4250 
Q 1625 4250 1398 4047 
Q 1172 3844 1172 3481 
z
" transform="scale(0.015625)"/>
       </defs>
       <use xlink:href="#DejaVuSans-30"/>
       <use xlink:href="#DejaVuSans-2e" x="63.623047"/>
       <use xlink:href="#DejaVuSans-38" x="95.410156"/>
      </g>
     </g>
    </g>
    <g id="ytick_6">
     <g id="line2d_12">
      <g>
       <use xlink:href="#m941adfa45a" x="57.6" y="41.472" style="stroke: #000000; stroke-width: 0.8"/>
      </g>
     </g>
     <g id="text_13">
      <!-- 1.0 -->
      <g transform="translate(34.696875 45.271219) scale(0.1 -0.1)">
       <use xlink:href="#DejaVuSans-31"/>
       <use xlink:href="#DejaVuSans-2e" x="63.623047"/>
       <use xlink:href="#DejaVuSans-30" x="95.410156"/>
      </g>
     </g>
    </g>
    <g id="text_14">
     <!-- acc -->
     <g transform="translate(28.617188 183.0905) rotate(-90) scale(0.1 -0.1)">
      <defs>
       <path id="DejaVuSans-61" d="M 2194 1759 
Q 1497 1759 1228 1600 
Q 959 1441 959 1056 
Q 959 750 1161 570 
Q 1363 391 1709 391 
Q 2188 391 2477 730 
Q 2766 1069 2766 1631 
L 2766 1759 
L 2194 1759 
z
M 3341 1997 
L 3341 0 
L 2766 0 
L 2766 531 
Q 2569 213 2275 61 
Q 1981 -91 1556 -91 
Q 1019 -91 701 211 
Q 384 513 384 1019 
Q 384 1609 779 1909 
Q 1175 2209 1959 2209 
L 2766 2209 
L 2766 2266 
Q 2766 2663 2505 2880 
Q 2244 3097 1772 3097 
Q 1472 3097 1187 3025 
Q 903 2953 641 2809 
L 641 3341 
Q 956 3463 1253 3523 
Q 1550 3584 1831 3584 
Q 2591 3584 2966 3190 
Q 3341 2797 3341 1997 
z
" transform="scale(0.015625)"/>
      </defs>
      <use xlink:href="#DejaVuSans-61"/>
      <use xlink:href="#DejaVuSans-63" x="61.279297"/>
      <use xlink:href="#DejaVuSans-63" x="116.259766"/>
     </g>
    </g>
   </g>
   <g id="line2d_13">
    <path d="M 78.566351 -1 
L 79.68822 62.3039 
L 80.33883 95.69125 
L 81.640051 174.740074 
L 82.290661 202.555293 
L 82.941272 221.560042 
L 83.591882 221.620751 
L 84.242492 239.068281 
L 84.893103 247.147504 
L 85.543713 252.580004 
L 86.194323 253.467785 
L 87.495544 263.849107 
L 88.146154 264.290754 
L 88.796764 269.356409 
L 89.447375 270.857422 
L 90.097985 268.681846 
L 90.748595 268.877491 
L 91.399206 274.22836 
L 92.049816 274.668746 
L 92.700426 277.011325 
L 93.351037 278.715835 
L 94.652257 276.75537 
L 95.302868 281.285955 
L 95.953478 280.826512 
L 96.604088 282.627694 
L 97.254698 279.776056 
L 97.905309 281.162728 
L 98.555919 283.608406 
L 99.206529 284.587781 
L 99.85714 284.057487 
L 100.50775 282.797147 
L 101.15836 284.982583 
L 101.808971 285.711925 
L 102.459581 285.716352 
L 103.110191 287.778674 
L 103.760802 287.252938 
L 104.411412 288.718089 
L 105.062022 287.310069 
L 105.712633 288.735035 
L 106.363243 289.877892 
L 107.013853 289.181513 
L 107.664463 288.941343 
L 108.965684 289.943033 
L 109.616294 289.378842 
L 110.266905 289.406314 
L 110.917515 289.570837 
L 111.568125 290.606006 
L 112.869346 288.578197 
L 113.519956 288.5102 
L 114.170567 288.626093 
L 114.821177 289.057255 
L 115.471787 290.013236 
L 116.122398 289.153869 
L 116.773008 291.159763 
L 117.423618 290.328472 
L 118.074228 290.353304 
L 118.724839 289.238112 
L 119.375449 289.40514 
L 120.026059 289.972117 
L 120.67667 288.55883 
L 121.32728 290.997169 
L 121.97789 289.790245 
L 122.628501 291.452438 
L 123.929721 289.331381 
L 124.580332 290.960178 
L 125.230942 290.826042 
L 125.881552 289.95261 
L 126.532163 291.071847 
L 127.182773 289.526359 
L 127.833383 292.56917 
L 128.483993 291.985995 
L 129.134604 290.639334 
L 129.785214 290.46268 
L 130.435824 288.437692 
L 131.086435 290.928837 
L 131.737045 288.716273 
L 132.387655 291.37173 
L 133.038266 289.81121 
L 133.688876 288.881444 
L 134.990097 289.199729 
L 136.291317 287.089915 
L 136.941927 287.837249 
L 137.592538 289.307692 
L 138.243148 286.636727 
L 138.893758 289.026076 
L 139.544369 290.638537 
L 140.194979 290.106207 
L 140.845589 288.237595 
L 141.4962 289.592339 
L 142.79742 287.454284 
L 143.448031 288.631477 
L 144.098641 286.991686 
L 144.749251 286.577284 
L 145.399862 287.503698 
L 146.050472 287.56229 
L 146.701082 287.847549 
L 147.351692 285.128809 
L 148.002303 287.91626 
L 148.652913 287.494606 
L 149.303523 285.704322 
L 149.954134 284.264883 
L 150.604744 285.695892 
L 151.255354 286.159319 
L 151.905965 288.91782 
L 152.556575 288.11069 
L 153.207185 289.282675 
L 153.857796 284.207655 
L 154.508406 286.627449 
L 155.159016 287.157466 
L 155.809627 285.506959 
L 156.460237 281.641091 
L 157.110847 286.945883 
L 157.761457 285.845041 
L 158.412068 287.265853 
L 159.062678 287.344686 
L 159.713288 286.77317 
L 160.363899 288.730072 
L 161.014509 285.770559 
L 161.665119 288.92125 
L 162.31573 286.612026 
L 162.96634 286.541591 
L 163.61695 286.777267 
L 164.267561 289.221213 
L 164.918171 287.349706 
L 165.568781 287.623546 
L 166.219392 286.58728 
L 166.870002 288.619463 
L 167.520612 289.851056 
L 168.171222 284.526779 
L 169.472443 289.6233 
L 170.123053 286.377175 
L 170.773664 286.619883 
L 171.424274 285.738916 
L 172.074884 285.131536 
L 172.725495 287.707556 
L 173.376105 286.70319 
L 174.026715 289.17007 
L 174.677326 285.751344 
L 175.327936 287.568755 
L 175.978546 285.731724 
L 176.629156 288.951621 
L 177.279767 289.541484 
L 177.930377 289.612198 
L 178.580987 288.546432 
L 179.231598 289.295831 
L 179.882208 286.841314 
L 180.532818 289.648285 
L 181.183429 287.935778 
L 181.834039 289.509947 
L 182.484649 288.520712 
L 183.13526 286.361158 
L 183.78587 289.099331 
L 184.43648 287.755129 
L 185.087091 288.285571 
L 185.737701 285.487827 
L 186.388311 288.935437 
L 187.038921 289.29342 
L 187.689532 289.177012 
L 188.340142 285.309285 
L 188.990752 285.788195 
L 189.641363 289.102035 
L 190.291973 289.767294 
L 190.942583 291.008942 
L 191.593194 288.817387 
L 192.243804 292.266897 
L 192.894414 287.02867 
L 193.545025 289.828339 
L 194.195635 288.073648 
L 194.846245 285.965849 
L 195.496856 291.189191 
L 196.147466 289.602881 
L 196.798076 288.567581 
L 197.448686 288.311694 
L 198.099297 287.860326 
L 198.749907 288.096041 
L 199.400517 289.171774 
L 200.051128 286.570772 
L 200.701738 288.466459 
L 201.352348 292.504496 
L 202.002959 288.147142 
L 202.653569 290.203882 
L 203.304179 292.656405 
L 203.95479 290.768184 
L 204.6054 289.52932 
L 205.25601 286.463073 
L 205.906621 287.62225 
L 206.557231 289.208642 
L 207.207841 290.283131 
L 207.858451 287.458523 
L 208.509062 286.696269 
L 209.159672 289.50885 
L 209.810282 288.04913 
L 210.460893 289.116259 
L 211.111503 288.153812 
L 211.762113 287.971801 
L 212.412724 290.205302 
L 213.063334 287.186706 
L 213.713944 290.286185 
L 214.364555 288.18729 
L 215.015165 290.420588 
L 215.665775 288.883497 
L 216.316385 288.033089 
L 216.966996 289.173036 
L 217.617606 289.799705 
L 218.268216 290.791254 
L 218.918827 289.321333 
L 219.569437 289.774416 
L 220.220047 290.448293 
L 220.870658 288.237665 
L 221.521268 288.80533 
L 222.171878 287.871472 
L 222.822489 288.477989 
L 223.473099 287.889769 
L 224.77432 287.748393 
L 225.42493 289.315054 
L 226.07554 289.119569 
L 226.72615 288.308482 
L 227.376761 290.076381 
L 228.027371 290.132241 
L 228.677981 289.916521 
L 229.328592 286.802285 
L 229.979202 289.503162 
L 230.629812 287.250606 
L 231.280423 288.18903 
L 231.931033 291.566922 
L 233.232254 287.151691 
L 233.882864 290.593206 
L 234.533474 292.672787 
L 235.184085 290.757953 
L 235.834695 289.860665 
L 236.485305 290.992777 
L 237.135915 290.274315 
L 237.786526 286.938439 
L 238.437136 290.88131 
L 239.087746 289.982151 
L 239.738357 290.242161 
L 240.388967 291.18677 
L 241.039577 291.393211 
L 241.690188 291.349512 
L 242.340798 290.494346 
L 242.991408 288.325566 
L 243.642019 290.449031 
L 244.292629 290.259358 
L 244.943239 290.886635 
L 245.59385 288.417261 
L 246.24446 289.59248 
L 246.89507 289.9352 
L 247.54568 288.459244 
L 248.196291 289.786707 
L 248.846901 289.377774 
L 249.497511 290.485821 
L 250.148122 287.416579 
L 250.798732 290.079908 
L 251.449342 289.412036 
L 252.099953 289.693388 
L 252.750563 288.835413 
L 253.401173 290.013758 
L 254.051784 290.526847 
L 254.702394 289.668959 
L 255.353004 290.648486 
L 256.003615 288.954061 
L 256.654225 290.164399 
L 257.304835 292.612841 
L 257.955445 288.749491 
L 258.606056 291.013325 
L 259.256666 289.891452 
L 259.907276 291.385685 
L 260.557887 290.077381 
L 261.208497 287.844442 
L 261.859107 287.613566 
L 262.509718 288.43124 
L 263.160328 288.135398 
L 263.810938 288.186537 
L 264.461549 291.661274 
L 265.112159 289.645807 
L 267.06399 290.081701 
L 267.7146 290.627126 
L 268.36521 289.628512 
L 269.015821 289.355731 
L 269.666431 290.022673 
L 270.317041 289.501369 
L 271.618262 292.566438 
L 272.268872 289.394324 
L 272.919483 291.214707 
L 273.570093 290.311963 
L 274.220703 290.491842 
L 274.871314 289.430383 
L 275.521924 289.853687 
L 276.172534 290.797163 
L 276.823144 289.757983 
L 278.124365 292.377734 
L 278.774975 291.495324 
L 279.425586 290.121706 
L 280.076196 290.767831 
L 280.726806 290.108734 
L 281.377417 292.034663 
L 282.028027 290.744393 
L 282.678637 292.033985 
L 283.329248 289.723557 
L 284.630468 292.194813 
L 285.281079 290.353734 
L 285.931689 291.110404 
L 286.582299 290.486396 
L 287.88352 292.311358 
L 288.53413 290.819176 
L 289.18474 289.033108 
L 289.835351 290.028858 
L 290.485961 290.182586 
L 291.136571 290.678381 
L 291.787182 292.16898 
L 292.437792 289.482523 
L 293.088402 291.717268 
L 293.739013 290.541089 
L 294.389623 289.657599 
L 295.040233 290.23464 
L 295.690844 290.158013 
L 296.341454 291.318864 
L 296.992064 292.249039 
L 297.642674 291.729453 
L 298.293285 290.461251 
L 298.943895 291.092656 
L 299.594505 290.923954 
L 300.245116 289.637585 
L 300.895726 286.97156 
L 301.546336 292.052686 
L 302.196947 289.407731 
L 302.847557 290.283797 
L 304.148778 291.263649 
L 304.799388 289.825783 
L 305.449998 291.557819 
L 306.100608 289.945322 
L 306.751219 292.719407 
L 307.401829 292.129982 
L 308.052439 290.822382 
L 308.70305 293.220096 
L 309.35366 291.578913 
L 310.654881 290.363325 
L 311.305491 290.460554 
L 311.956101 289.829176 
L 312.606712 288.365525 
L 313.257322 291.771087 
L 313.907932 290.089039 
L 315.209153 291.638744 
L 315.859763 288.871386 
L 316.510373 287.319639 
L 317.160984 290.352739 
L 317.811594 289.801887 
L 318.462204 287.563943 
L 319.112815 289.798539 
L 319.763425 289.992286 
L 320.414035 289.682192 
L 321.064646 291.291126 
L 321.715256 289.312605 
L 322.365866 288.56802 
L 323.016477 290.973976 
L 323.667087 290.497399 
L 324.317697 289.573744 
L 324.968308 290.478491 
L 326.269528 289.894698 
L 326.920138 292.839574 
L 328.221359 291.25075 
L 328.871969 291.224525 
L 329.52258 290.442566 
L 330.17319 292.458065 
L 330.8238 288.783866 
L 331.474411 292.969328 
L 332.125021 290.341239 
L 332.775631 290.649318 
L 333.426242 293.012589 
L 334.076852 291.683421 
L 334.727462 293.957331 
L 335.378073 292.894928 
L 336.028683 289.36025 
L 336.679293 290.543922 
L 337.329903 290.677964 
L 337.980514 291.147029 
L 338.631124 292.301046 
L 339.281734 290.31132 
L 339.932345 291.803303 
L 340.582955 291.535016 
L 341.233565 292.013688 
L 341.884176 292.03863 
L 342.534786 292.506748 
L 343.185396 290.352919 
L 343.836007 290.868332 
L 344.486617 289.65241 
L 345.137227 292.175449 
L 346.438448 291.64106 
L 347.089058 291.901199 
L 347.739668 291.680413 
L 348.390279 289.599086 
L 349.040889 290.482323 
L 349.691499 292.767496 
L 350.34211 292.777189 
L 350.99272 292.302094 
L 351.64333 290.961134 
L 352.293941 291.141597 
L 352.944551 290.990763 
L 353.595161 291.698289 
L 354.245772 291.471864 
L 354.896382 290.539044 
L 355.546992 289.825801 
L 356.197602 291.792122 
L 356.848213 291.158286 
L 357.498823 293.169927 
L 358.149433 290.548838 
L 358.800044 291.451511 
L 359.450654 289.660294 
L 360.101264 291.644496 
L 360.751875 292.243895 
L 361.402485 293.173812 
L 362.053095 291.622203 
L 362.703706 291.226362 
L 363.354316 293.38906 
L 364.004926 291.552003 
L 364.655537 292.191627 
L 365.306147 292.538774 
L 365.956757 291.706503 
L 366.607367 292.552517 
L 367.257978 290.220054 
L 367.908588 291.992238 
L 368.559198 291.880459 
L 369.209809 292.741253 
L 369.860419 292.943578 
L 370.511029 292.672335 
L 371.16164 292.000329 
L 371.81225 290.96005 
L 372.46286 291.937919 
L 373.113471 293.579996 
L 373.764081 291.836864 
L 374.414691 292.093725 
L 375.065302 293.557365 
L 375.715912 291.487409 
L 376.366522 290.969639 
L 377.017132 291.002463 
L 377.667743 291.285208 
L 378.318353 292.376967 
L 378.968963 292.185796 
L 379.619574 291.541841 
L 380.270184 292.882788 
L 380.920794 291.328372 
L 381.571405 291.976973 
L 382.222015 291.147977 
L 382.872625 292.125765 
L 383.523236 291.261555 
L 384.173846 293.483497 
L 384.824456 291.094147 
L 385.475066 292.700702 
L 386.125677 290.093097 
L 386.776287 291.692693 
L 387.426897 293.768509 
L 388.077508 291.172454 
L 388.728118 291.819353 
L 389.378728 293.186477 
L 390.029339 290.040424 
L 390.679949 292.590833 
L 391.330559 292.286642 
L 391.98117 291.179195 
L 392.63178 290.824669 
L 393.28239 291.726509 
L 393.933001 292.397855 
L 394.583611 290.730828 
L 395.234221 292.954158 
L 395.884831 292.365869 
L 396.535442 292.438431 
L 397.186052 289.86796 
L 397.836662 291.605139 
L 398.487273 291.150987 
L 398.487273 291.150987 
" clip-path="url(#p95477a02e8)" style="fill: none; stroke: #008000; stroke-width: 1.5; stroke-linecap: square"/>
   </g>
   <g id="patch_3">
    <path d="M 57.6 307.584 
L 57.6 41.472 
" style="fill: none; stroke: #000000; stroke-width: 0.8; stroke-linejoin: miter; stroke-linecap: square"/>
   </g>
   <g id="patch_4">
    <path d="M 414.72 307.584 
L 414.72 41.472 
" style="fill: none; stroke: #000000; stroke-width: 0.8; stroke-linejoin: miter; stroke-linecap: square"/>
   </g>
   <g id="patch_5">
    <path d="M 57.6 307.584 
L 414.72 307.584 
" style="fill: none; stroke: #000000; stroke-width: 0.8; stroke-linejoin: miter; stroke-linecap: square"/>
   </g>
   <g id="patch_6">
    <path d="M 57.6 41.472 
L 414.72 41.472 
" style="fill: none; stroke: #000000; stroke-width: 0.8; stroke-linejoin: miter; stroke-linecap: square"/>
   </g>
   <g id="legend_1">
    <g id="patch_7">
     <path d="M 338.77 64.42825 
L 407.72 64.42825 
Q 409.72 64.42825 409.72 62.42825 
L 409.72 48.472 
Q 409.72 46.472 407.72 46.472 
L 338.77 46.472 
Q 336.77 46.472 336.77 48.472 
L 336.77 62.42825 
Q 336.77 64.42825 338.77 64.42825 
z
" style="fill: #ffffff; opacity: 0.8; stroke: #cccccc; stroke-linejoin: miter"/>
    </g>
    <g id="line2d_14">
     <path d="M 340.77 54.570437 
L 350.77 54.570437 
L 360.77 54.570437 
" style="fill: none; stroke: #008000; stroke-width: 1.5; stroke-linecap: square"/>
    </g>
    <g id="text_15">
     <!-- val_acc -->
     <g transform="translate(368.77 58.070437) scale(0.1 -0.1)">
      <defs>
       <path id="DejaVuSans-76" d="M 191 3500 
L 800 3500 
L 1894 563 
L 2988 3500 
L 3597 3500 
L 2284 0 
L 1503 0 
L 191 3500 
z
" transform="scale(0.015625)"/>
       <path id="DejaVuSans-6c" d="M 603 4863 
L 1178 4863 
L 1178 0 
L 603 0 
L 603 4863 
z
" transform="scale(0.015625)"/>
       <path id="DejaVuSans-5f" d="M 3263 -1063 
L 3263 -1509 
L -63 -1509 
L -63 -1063 
L 3263 -1063 
z
" transform="scale(0.015625)"/>
      </defs>
      <use xlink:href="#DejaVuSans-76"/>
      <use xlink:href="#DejaVuSans-61" x="59.179688"/>
      <use xlink:href="#DejaVuSans-6c" x="120.458984"/>
      <use xlink:href="#DejaVuSans-5f" x="148.242188"/>
      <use xlink:href="#DejaVuSans-61" x="198.242188"/>
      <use xlink:href="#DejaVuSans-63" x="259.521484"/>
      <use xlink:href="#DejaVuSans-63" x="314.501953"/>
     </g>
    </g>
   </g>
  </g>
 </g>
 <defs>
  <clipPath id="p95477a02e8">
   <rect x="57.6" y="41.472" width="357.12" height="266.112"/>
  </clipPath>
 </defs>
</svg>
