<?xml version="1.0" encoding="utf-8" standalone="no"?>
<!DOCTYPE svg PUBLIC "-//W3C//DTD SVG 1.1//EN"
  "http://www.w3.org/Graphics/SVG/1.1/DTD/svg11.dtd">
<svg xmlns:xlink="http://www.w3.org/1999/xlink" width="460.8pt" height="345.6pt" viewBox="0 0 460.8 345.6" xmlns="http://www.w3.org/2000/svg" version="1.1">
 <metadata>
  <rdf:RDF xmlns:dc="http://purl.org/dc/elements/1.1/" xmlns:cc="http://creativecommons.org/ns#" xmlns:rdf="http://www.w3.org/1999/02/22-rdf-syntax-ns#">
   <cc:Work>
    <dc:type rdf:resource="http://purl.org/dc/dcmitype/StillImage"/>
    <dc:date>2024-01-31T16:27:00.807752</dc:date>
    <dc:format>image/svg+xml</dc:format>
    <dc:creator>
     <cc:Agent>
      <dc:title>Matplotlib v3.8.2, https://matplotlib.org/</dc:title>
     </cc:Agent>
    </dc:creator>
   </cc:Work>
  </rdf:RDF>
 </metadata>
 <defs>
  <style type="text/css">*{stroke-linejoin: round; stroke-linecap: butt}</style>
 </defs>
 <g id="figure_1">
  <g id="patch_1">
   <path d="M 0 345.6 
L 460.8 345.6 
L 460.8 0 
L 0 0 
L 0 345.6 
z
" style="fill: none"/>
  </g>
  <g id="axes_1">
   <g id="patch_2">
    <path d="M 57.6 307.584 
L 414.72 307.584 
L 414.72 41.472 
L 57.6 41.472 
L 57.6 307.584 
z
" style="fill: none"/>
   </g>
   <g id="matplotlib.axis_1">
    <g id="xtick_1">
     <g id="line2d_1">
      <defs>
       <path id="mc69c724d22" d="M 0 0 
L 0 3.5 
" style="stroke: #000000; stroke-width: 0.8"/>
      </defs>
      <g>
       <use xlink:href="#mc69c724d22" x="73.832727" y="307.584" style="stroke: #000000; stroke-width: 0.8"/>
      </g>
     </g>
     <g id="text_1">
      <!-- 0 -->
      <g transform="translate(70.651477 322.182437) scale(0.1 -0.1)">
       <defs>
        <path id="DejaVuSans-30" d="M 2034 4250 
Q 1547 4250 1301 3770 
Q 1056 3291 1056 2328 
Q 1056 1369 1301 889 
Q 1547 409 2034 409 
Q 2525 409 2770 889 
Q 3016 1369 3016 2328 
Q 3016 3291 2770 3770 
Q 2525 4250 2034 4250 
z
M 2034 4750 
Q 2819 4750 3233 4129 
Q 3647 3509 3647 2328 
Q 3647 1150 3233 529 
Q 2819 -91 2034 -91 
Q 1250 -91 836 529 
Q 422 1150 422 2328 
Q 422 3509 836 4129 
Q 1250 4750 2034 4750 
z
" transform="scale(0.015625)"/>
       </defs>
       <use xlink:href="#DejaVuSans-30"/>
      </g>
     </g>
    </g>
    <g id="xtick_2">
     <g id="line2d_2">
      <g>
       <use xlink:href="#mc69c724d22" x="138.893758" y="307.584" style="stroke: #000000; stroke-width: 0.8"/>
      </g>
     </g>
     <g id="text_2">
      <!-- 100 -->
      <g transform="translate(129.350008 322.182437) scale(0.1 -0.1)">
       <defs>
        <path id="DejaVuSans-31" d="M 794 531 
L 1825 531 
L 1825 4091 
L 703 3866 
L 703 4441 
L 1819 4666 
L 2450 4666 
L 2450 531 
L 3481 531 
L 3481 0 
L 794 0 
L 794 531 
z
" transform="scale(0.015625)"/>
       </defs>
       <use xlink:href="#DejaVuSans-31"/>
       <use xlink:href="#DejaVuSans-30" x="63.623047"/>
       <use xlink:href="#DejaVuSans-30" x="127.246094"/>
      </g>
     </g>
    </g>
    <g id="xtick_3">
     <g id="line2d_3">
      <g>
       <use xlink:href="#mc69c724d22" x="203.95479" y="307.584" style="stroke: #000000; stroke-width: 0.8"/>
      </g>
     </g>
     <g id="text_3">
      <!-- 200 -->
      <g transform="translate(194.41104 322.182437) scale(0.1 -0.1)">
       <defs>
        <path id="DejaVuSans-32" d="M 1228 531 
L 3431 531 
L 3431 0 
L 469 0 
L 469 531 
Q 828 903 1448 1529 
Q 2069 2156 2228 2338 
Q 2531 2678 2651 2914 
Q 2772 3150 2772 3378 
Q 2772 3750 2511 3984 
Q 2250 4219 1831 4219 
Q 1534 4219 1204 4116 
Q 875 4013 500 3803 
L 500 4441 
Q 881 4594 1212 4672 
Q 1544 4750 1819 4750 
Q 2544 4750 2975 4387 
Q 3406 4025 3406 3419 
Q 3406 3131 3298 2873 
Q 3191 2616 2906 2266 
Q 2828 2175 2409 1742 
Q 1991 1309 1228 531 
z
" transform="scale(0.015625)"/>
       </defs>
       <use xlink:href="#DejaVuSans-32"/>
       <use xlink:href="#DejaVuSans-30" x="63.623047"/>
       <use xlink:href="#DejaVuSans-30" x="127.246094"/>
      </g>
     </g>
    </g>
    <g id="xtick_4">
     <g id="line2d_4">
      <g>
       <use xlink:href="#mc69c724d22" x="269.015821" y="307.584" style="stroke: #000000; stroke-width: 0.8"/>
      </g>
     </g>
     <g id="text_4">
      <!-- 300 -->
      <g transform="translate(259.472071 322.182437) scale(0.1 -0.1)">
       <defs>
        <path id="DejaVuSans-33" d="M 2597 2516 
Q 3050 2419 3304 2112 
Q 3559 1806 3559 1356 
Q 3559 666 3084 287 
Q 2609 -91 1734 -91 
Q 1441 -91 1130 -33 
Q 819 25 488 141 
L 488 750 
Q 750 597 1062 519 
Q 1375 441 1716 441 
Q 2309 441 2620 675 
Q 2931 909 2931 1356 
Q 2931 1769 2642 2001 
Q 2353 2234 1838 2234 
L 1294 2234 
L 1294 2753 
L 1863 2753 
Q 2328 2753 2575 2939 
Q 2822 3125 2822 3475 
Q 2822 3834 2567 4026 
Q 2313 4219 1838 4219 
Q 1578 4219 1281 4162 
Q 984 4106 628 3988 
L 628 4550 
Q 988 4650 1302 4700 
Q 1616 4750 1894 4750 
Q 2613 4750 3031 4423 
Q 3450 4097 3450 3541 
Q 3450 3153 3228 2886 
Q 3006 2619 2597 2516 
z
" transform="scale(0.015625)"/>
       </defs>
       <use xlink:href="#DejaVuSans-33"/>
       <use xlink:href="#DejaVuSans-30" x="63.623047"/>
       <use xlink:href="#DejaVuSans-30" x="127.246094"/>
      </g>
     </g>
    </g>
    <g id="xtick_5">
     <g id="line2d_5">
      <g>
       <use xlink:href="#mc69c724d22" x="334.076852" y="307.584" style="stroke: #000000; stroke-width: 0.8"/>
      </g>
     </g>
     <g id="text_5">
      <!-- 400 -->
      <g transform="translate(324.533102 322.182437) scale(0.1 -0.1)">
       <defs>
        <path id="DejaVuSans-34" d="M 2419 4116 
L 825 1625 
L 2419 1625 
L 2419 4116 
z
M 2253 4666 
L 3047 4666 
L 3047 1625 
L 3713 1625 
L 3713 1100 
L 3047 1100 
L 3047 0 
L 2419 0 
L 2419 1100 
L 313 1100 
L 313 1709 
L 2253 4666 
z
" transform="scale(0.015625)"/>
       </defs>
       <use xlink:href="#DejaVuSans-34"/>
       <use xlink:href="#DejaVuSans-30" x="63.623047"/>
       <use xlink:href="#DejaVuSans-30" x="127.246094"/>
      </g>
     </g>
    </g>
    <g id="xtick_6">
     <g id="line2d_6">
      <g>
       <use xlink:href="#mc69c724d22" x="399.137883" y="307.584" style="stroke: #000000; stroke-width: 0.8"/>
      </g>
     </g>
     <g id="text_6">
      <!-- 500 -->
      <g transform="translate(389.594133 322.182437) scale(0.1 -0.1)">
       <defs>
        <path id="DejaVuSans-35" d="M 691 4666 
L 3169 4666 
L 3169 4134 
L 1269 4134 
L 1269 2991 
Q 1406 3038 1543 3061 
Q 1681 3084 1819 3084 
Q 2600 3084 3056 2656 
Q 3513 2228 3513 1497 
Q 3513 744 3044 326 
Q 2575 -91 1722 -91 
Q 1428 -91 1123 -41 
Q 819 9 494 109 
L 494 744 
Q 775 591 1075 516 
Q 1375 441 1709 441 
Q 2250 441 2565 725 
Q 2881 1009 2881 1497 
Q 2881 1984 2565 2268 
Q 2250 2553 1709 2553 
Q 1456 2553 1204 2497 
Q 953 2441 691 2322 
L 691 4666 
z
" transform="scale(0.015625)"/>
       </defs>
       <use xlink:href="#DejaVuSans-35"/>
       <use xlink:href="#DejaVuSans-30" x="63.623047"/>
       <use xlink:href="#DejaVuSans-30" x="127.246094"/>
      </g>
     </g>
    </g>
    <g id="text_7">
     <!-- epoch -->
     <g transform="translate(220.931875 335.860562) scale(0.1 -0.1)">
      <defs>
       <path id="DejaVuSans-65" d="M 3597 1894 
L 3597 1613 
L 953 1613 
Q 991 1019 1311 708 
Q 1631 397 2203 397 
Q 2534 397 2845 478 
Q 3156 559 3463 722 
L 3463 178 
Q 3153 47 2828 -22 
Q 2503 -91 2169 -91 
Q 1331 -91 842 396 
Q 353 884 353 1716 
Q 353 2575 817 3079 
Q 1281 3584 2069 3584 
Q 2775 3584 3186 3129 
Q 3597 2675 3597 1894 
z
M 3022 2063 
Q 3016 2534 2758 2815 
Q 2500 3097 2075 3097 
Q 1594 3097 1305 2825 
Q 1016 2553 972 2059 
L 3022 2063 
z
" transform="scale(0.015625)"/>
       <path id="DejaVuSans-70" d="M 1159 525 
L 1159 -1331 
L 581 -1331 
L 581 3500 
L 1159 3500 
L 1159 2969 
Q 1341 3281 1617 3432 
Q 1894 3584 2278 3584 
Q 2916 3584 3314 3078 
Q 3713 2572 3713 1747 
Q 3713 922 3314 415 
Q 2916 -91 2278 -91 
Q 1894 -91 1617 61 
Q 1341 213 1159 525 
z
M 3116 1747 
Q 3116 2381 2855 2742 
Q 2594 3103 2138 3103 
Q 1681 3103 1420 2742 
Q 1159 2381 1159 1747 
Q 1159 1113 1420 752 
Q 1681 391 2138 391 
Q 2594 391 2855 752 
Q 3116 1113 3116 1747 
z
" transform="scale(0.015625)"/>
       <path id="DejaVuSans-6f" d="M 1959 3097 
Q 1497 3097 1228 2736 
Q 959 2375 959 1747 
Q 959 1119 1226 758 
Q 1494 397 1959 397 
Q 2419 397 2687 759 
Q 2956 1122 2956 1747 
Q 2956 2369 2687 2733 
Q 2419 3097 1959 3097 
z
M 1959 3584 
Q 2709 3584 3137 3096 
Q 3566 2609 3566 1747 
Q 3566 888 3137 398 
Q 2709 -91 1959 -91 
Q 1206 -91 779 398 
Q 353 888 353 1747 
Q 353 2609 779 3096 
Q 1206 3584 1959 3584 
z
" transform="scale(0.015625)"/>
       <path id="DejaVuSans-63" d="M 3122 3366 
L 3122 2828 
Q 2878 2963 2633 3030 
Q 2388 3097 2138 3097 
Q 1578 3097 1268 2742 
Q 959 2388 959 1747 
Q 959 1106 1268 751 
Q 1578 397 2138 397 
Q 2388 397 2633 464 
Q 2878 531 3122 666 
L 3122 134 
Q 2881 22 2623 -34 
Q 2366 -91 2075 -91 
Q 1284 -91 818 406 
Q 353 903 353 1747 
Q 353 2603 823 3093 
Q 1294 3584 2113 3584 
Q 2378 3584 2631 3529 
Q 2884 3475 3122 3366 
z
" transform="scale(0.015625)"/>
       <path id="DejaVuSans-68" d="M 3513 2113 
L 3513 0 
L 2938 0 
L 2938 2094 
Q 2938 2591 2744 2837 
Q 2550 3084 2163 3084 
Q 1697 3084 1428 2787 
Q 1159 2491 1159 1978 
L 1159 0 
L 581 0 
L 581 4863 
L 1159 4863 
L 1159 2956 
Q 1366 3272 1645 3428 
Q 1925 3584 2291 3584 
Q 2894 3584 3203 3211 
Q 3513 2838 3513 2113 
z
" transform="scale(0.015625)"/>
      </defs>
      <use xlink:href="#DejaVuSans-65"/>
      <use xlink:href="#DejaVuSans-70" x="61.523438"/>
      <use xlink:href="#DejaVuSans-6f" x="125"/>
      <use xlink:href="#DejaVuSans-63" x="186.181641"/>
      <use xlink:href="#DejaVuSans-68" x="241.162109"/>
     </g>
    </g>
   </g>
   <g id="matplotlib.axis_2">
    <g id="ytick_1">
     <g id="line2d_7">
      <defs>
       <path id="m9b5f738be2" d="M 0 0 
L -3.5 0 
" style="stroke: #000000; stroke-width: 0.8"/>
      </defs>
      <g>
       <use xlink:href="#m9b5f738be2" x="57.6" y="307.584" style="stroke: #000000; stroke-width: 0.8"/>
      </g>
     </g>
     <g id="text_8">
      <!-- 0.0 -->
      <g transform="translate(34.696875 311.383219) scale(0.1 -0.1)">
       <defs>
        <path id="DejaVuSans-2e" d="M 684 794 
L 1344 794 
L 1344 0 
L 684 0 
L 684 794 
z
" transform="scale(0.015625)"/>
       </defs>
       <use xlink:href="#DejaVuSans-30"/>
       <use xlink:href="#DejaVuSans-2e" x="63.623047"/>
       <use xlink:href="#DejaVuSans-30" x="95.410156"/>
      </g>
     </g>
    </g>
    <g id="ytick_2">
     <g id="line2d_8">
      <g>
       <use xlink:href="#m9b5f738be2" x="57.6" y="254.3616" style="stroke: #000000; stroke-width: 0.8"/>
      </g>
     </g>
     <g id="text_9">
      <!-- 0.2 -->
      <g transform="translate(34.696875 258.160819) scale(0.1 -0.1)">
       <use xlink:href="#DejaVuSans-30"/>
       <use xlink:href="#DejaVuSans-2e" x="63.623047"/>
       <use xlink:href="#DejaVuSans-32" x="95.410156"/>
      </g>
     </g>
    </g>
    <g id="ytick_3">
     <g id="line2d_9">
      <g>
       <use xlink:href="#m9b5f738be2" x="57.6" y="201.1392" style="stroke: #000000; stroke-width: 0.8"/>
      </g>
     </g>
     <g id="text_10">
      <!-- 0.4 -->
      <g transform="translate(34.696875 204.938419) scale(0.1 -0.1)">
       <use xlink:href="#DejaVuSans-30"/>
       <use xlink:href="#DejaVuSans-2e" x="63.623047"/>
       <use xlink:href="#DejaVuSans-34" x="95.410156"/>
      </g>
     </g>
    </g>
    <g id="ytick_4">
     <g id="line2d_10">
      <g>
       <use xlink:href="#m9b5f738be2" x="57.6" y="147.9168" style="stroke: #000000; stroke-width: 0.8"/>
      </g>
     </g>
     <g id="text_11">
      <!-- 0.6 -->
      <g transform="translate(34.696875 151.716019) scale(0.1 -0.1)">
       <defs>
        <path id="DejaVuSans-36" d="M 2113 2584 
Q 1688 2584 1439 2293 
Q 1191 2003 1191 1497 
Q 1191 994 1439 701 
Q 1688 409 2113 409 
Q 2538 409 2786 701 
Q 3034 994 3034 1497 
Q 3034 2003 2786 2293 
Q 2538 2584 2113 2584 
z
M 3366 4563 
L 3366 3988 
Q 3128 4100 2886 4159 
Q 2644 4219 2406 4219 
Q 1781 4219 1451 3797 
Q 1122 3375 1075 2522 
Q 1259 2794 1537 2939 
Q 1816 3084 2150 3084 
Q 2853 3084 3261 2657 
Q 3669 2231 3669 1497 
Q 3669 778 3244 343 
Q 2819 -91 2113 -91 
Q 1303 -91 875 529 
Q 447 1150 447 2328 
Q 447 3434 972 4092 
Q 1497 4750 2381 4750 
Q 2619 4750 2861 4703 
Q 3103 4656 3366 4563 
z
" transform="scale(0.015625)"/>
       </defs>
       <use xlink:href="#DejaVuSans-30"/>
       <use xlink:href="#DejaVuSans-2e" x="63.623047"/>
       <use xlink:href="#DejaVuSans-36" x="95.410156"/>
      </g>
     </g>
    </g>
    <g id="ytick_5">
     <g id="line2d_11">
      <g>
       <use xlink:href="#m9b5f738be2" x="57.6" y="94.6944" style="stroke: #000000; stroke-width: 0.8"/>
      </g>
     </g>
     <g id="text_12">
      <!-- 0.8 -->
      <g transform="translate(34.696875 98.493619) scale(0.1 -0.1)">
       <defs>
        <path id="DejaVuSans-38" d="M 2034 2216 
Q 1584 2216 1326 1975 
Q 1069 1734 1069 1313 
Q 1069 891 1326 650 
Q 1584 409 2034 409 
Q 2484 409 2743 651 
Q 3003 894 3003 1313 
Q 3003 1734 2745 1975 
Q 2488 2216 2034 2216 
z
M 1403 2484 
Q 997 2584 770 2862 
Q 544 3141 544 3541 
Q 544 4100 942 4425 
Q 1341 4750 2034 4750 
Q 2731 4750 3128 4425 
Q 3525 4100 3525 3541 
Q 3525 3141 3298 2862 
Q 3072 2584 2669 2484 
Q 3125 2378 3379 2068 
Q 3634 1759 3634 1313 
Q 3634 634 3220 271 
Q 2806 -91 2034 -91 
Q 1263 -91 848 271 
Q 434 634 434 1313 
Q 434 1759 690 2068 
Q 947 2378 1403 2484 
z
M 1172 3481 
Q 1172 3119 1398 2916 
Q 1625 2713 2034 2713 
Q 2441 2713 2670 2916 
Q 2900 3119 2900 3481 
Q 2900 3844 2670 4047 
Q 2441 4250 2034 4250 
Q 1625 4250 1398 4047 
Q 1172 3844 1172 3481 
z
" transform="scale(0.015625)"/>
       </defs>
       <use xlink:href="#DejaVuSans-30"/>
       <use xlink:href="#DejaVuSans-2e" x="63.623047"/>
       <use xlink:href="#DejaVuSans-38" x="95.410156"/>
      </g>
     </g>
    </g>
    <g id="ytick_6">
     <g id="line2d_12">
      <g>
       <use xlink:href="#m9b5f738be2" x="57.6" y="41.472" style="stroke: #000000; stroke-width: 0.8"/>
      </g>
     </g>
     <g id="text_13">
      <!-- 1.0 -->
      <g transform="translate(34.696875 45.271219) scale(0.1 -0.1)">
       <use xlink:href="#DejaVuSans-31"/>
       <use xlink:href="#DejaVuSans-2e" x="63.623047"/>
       <use xlink:href="#DejaVuSans-30" x="95.410156"/>
      </g>
     </g>
    </g>
    <g id="text_14">
     <!-- acc -->
     <g transform="translate(28.617188 183.0905) rotate(-90) scale(0.1 -0.1)">
      <defs>
       <path id="DejaVuSans-61" d="M 2194 1759 
Q 1497 1759 1228 1600 
Q 959 1441 959 1056 
Q 959 750 1161 570 
Q 1363 391 1709 391 
Q 2188 391 2477 730 
Q 2766 1069 2766 1631 
L 2766 1759 
L 2194 1759 
z
M 3341 1997 
L 3341 0 
L 2766 0 
L 2766 531 
Q 2569 213 2275 61 
Q 1981 -91 1556 -91 
Q 1019 -91 701 211 
Q 384 513 384 1019 
Q 384 1609 779 1909 
Q 1175 2209 1959 2209 
L 2766 2209 
L 2766 2266 
Q 2766 2663 2505 2880 
Q 2244 3097 1772 3097 
Q 1472 3097 1187 3025 
Q 903 2953 641 2809 
L 641 3341 
Q 956 3463 1253 3523 
Q 1550 3584 1831 3584 
Q 2591 3584 2966 3190 
Q 3341 2797 3341 1997 
z
" transform="scale(0.015625)"/>
      </defs>
      <use xlink:href="#DejaVuSans-61"/>
      <use xlink:href="#DejaVuSans-63" x="61.279297"/>
      <use xlink:href="#DejaVuSans-63" x="116.259766"/>
     </g>
    </g>
   </g>
   <g id="line2d_13">
    <path d="M 76.927636 -1 
L 77.736389 79.691489 
L 78.386999 89.246282 
L 79.03761 126.233736 
L 79.68822 172.15896 
L 80.33883 132.097578 
L 80.989441 134.5889 
L 81.640051 174.294945 
L 82.290661 183.766597 
L 82.941272 175.01014 
L 83.591882 183.163501 
L 84.242492 198.682284 
L 84.893103 182.952166 
L 85.543713 183.95467 
L 86.194323 188.558573 
L 86.844934 195.905501 
L 87.495544 208.647429 
L 88.146154 204.562906 
L 88.796764 190.958223 
L 89.447375 209.357928 
L 90.097985 200.605444 
L 91.399206 203.927002 
L 92.049816 169.578771 
L 92.700426 192.116671 
L 93.351037 188.159919 
L 94.001647 179.763907 
L 94.652257 118.294654 
L 95.302868 118.973732 
L 95.953478 173.844518 
L 96.604088 157.529921 
L 97.254698 138.393041 
L 97.905309 105.408233 
L 98.555919 129.451595 
L 99.206529 184.232528 
L 99.85714 192.080302 
L 100.50775 172.573176 
L 101.15836 178.473339 
L 101.808971 165.335939 
L 102.459581 176.082827 
L 103.110191 211.466061 
L 103.760802 197.361016 
L 104.411412 207.695884 
L 105.062022 192.759438 
L 105.712633 203.178022 
L 106.363243 192.712927 
L 107.013853 164.999422 
L 107.664463 183.510002 
L 108.315074 213.904365 
L 108.965684 161.645732 
L 109.616294 119.065114 
L 110.266905 146.928789 
L 110.917515 199.335294 
L 111.568125 187.694429 
L 112.218736 156.860107 
L 112.869346 198.076591 
L 113.519956 154.713129 
L 114.170567 122.100409 
L 114.821177 183.262695 
L 115.471787 200.790497 
L 116.122398 188.759902 
L 116.773008 193.441422 
L 117.423618 205.445745 
L 118.074228 211.930109 
L 118.724839 205.238948 
L 119.375449 216.893185 
L 120.026059 213.96675 
L 120.67667 184.806916 
L 121.32728 169.250944 
L 121.97789 185.388942 
L 122.628501 182.370329 
L 123.279111 191.774334 
L 123.929721 172.307085 
L 124.580332 198.629817 
L 125.230942 155.324975 
L 125.881552 157.428309 
L 126.532163 158.453762 
L 127.182773 176.664899 
L 127.833383 179.885103 
L 128.483993 114.649583 
L 129.134604 91.482022 
L 129.785214 154.995636 
L 130.435824 180.082135 
L 131.086435 200.578027 
L 131.737045 186.871835 
L 132.387655 207.582784 
L 133.038266 201.126937 
L 133.688876 221.401055 
L 134.339486 220.893627 
L 134.990097 218.808705 
L 136.291317 207.079953 
L 136.941927 204.466293 
L 137.592538 188.269258 
L 138.243148 220.756958 
L 138.893758 207.081212 
L 139.544369 208.292907 
L 140.194979 204.97402 
L 141.4962 188.102101 
L 142.14681 205.72871 
L 142.79742 214.155762 
L 144.098641 161.80075 
L 144.749251 190.450494 
L 145.399862 204.278085 
L 146.050472 200.998178 
L 146.701082 183.883316 
L 147.351692 180.437303 
L 148.002303 156.346155 
L 148.652913 164.313589 
L 149.303523 162.172728 
L 149.954134 191.02569 
L 150.604744 212.021696 
L 151.255354 213.458684 
L 151.905965 216.004973 
L 152.556575 208.943431 
L 153.207185 223.010923 
L 153.857796 223.064075 
L 154.508406 219.22443 
L 155.159016 200.663266 
L 155.809627 215.084385 
L 156.460237 218.806819 
L 157.761457 166.05764 
L 158.412068 169.935032 
L 159.062678 216.61882 
L 159.713288 214.245657 
L 160.363899 208.263261 
L 161.014509 206.015308 
L 161.665119 210.674049 
L 162.31573 221.553211 
L 162.96634 201.501203 
L 163.61695 223.304552 
L 164.267561 205.933581 
L 164.918171 206.822391 
L 165.568781 172.190052 
L 166.219392 173.049341 
L 166.870002 133.032348 
L 167.520612 172.530951 
L 168.171222 94.783015 
L 168.821833 91.398669 
L 169.472443 153.250063 
L 170.123053 202.75271 
L 170.773664 206.798745 
L 171.424274 220.827355 
L 172.074884 215.837538 
L 172.725495 217.743689 
L 173.376105 200.422186 
L 174.026715 200.395314 
L 174.677326 207.111527 
L 175.327936 224.19441 
L 175.978546 217.682897 
L 176.629156 224.967266 
L 177.279767 206.962589 
L 177.930377 217.993298 
L 178.580987 219.620747 
L 179.231598 210.745827 
L 179.882208 213.398316 
L 180.532818 203.396224 
L 181.183429 175.897217 
L 181.834039 199.980693 
L 182.484649 205.797505 
L 183.13526 214.495193 
L 183.78587 211.784393 
L 184.43648 203.024577 
L 185.087091 215.183093 
L 185.737701 205.150224 
L 186.388311 203.017023 
L 187.689532 215.232646 
L 188.340142 215.113973 
L 188.990752 223.838607 
L 189.641363 229.833711 
L 190.291973 210.162424 
L 190.942583 214.113386 
L 191.593194 225.860666 
L 192.243804 200.785204 
L 192.894414 210.455606 
L 193.545025 211.268908 
L 194.195635 202.436728 
L 194.846245 230.203078 
L 195.496856 220.830764 
L 196.147466 221.477871 
L 196.798076 211.739645 
L 197.448686 214.361093 
L 198.099297 223.061143 
L 198.749907 212.756699 
L 199.400517 213.160558 
L 200.051128 224.308764 
L 200.701738 220.562257 
L 201.352348 225.337358 
L 202.002959 228.551095 
L 202.653569 230.238169 
L 203.304179 207.708542 
L 203.95479 205.666411 
L 204.6054 210.418436 
L 205.25601 229.037072 
L 205.906621 235.94532 
L 206.557231 229.985939 
L 207.207841 216.029847 
L 207.858451 237.140879 
L 208.509062 225.792867 
L 209.159672 232.564295 
L 209.810282 223.833141 
L 210.460893 208.554521 
L 211.111503 203.283747 
L 211.762113 221.154394 
L 212.412724 232.199829 
L 213.063334 228.367068 
L 213.713944 238.930509 
L 214.364555 234.222054 
L 215.015165 236.582367 
L 215.665775 237.431867 
L 216.316385 236.243709 
L 216.966996 236.639722 
L 217.617606 228.556334 
L 218.268216 223.456871 
L 218.918827 223.679601 
L 219.569437 225.020182 
L 220.220047 230.122682 
L 221.521268 227.748872 
L 222.171878 228.348405 
L 222.822489 228.061588 
L 223.473099 228.312822 
L 224.77432 224.297265 
L 225.42493 240.595883 
L 226.07554 231.776529 
L 226.72615 208.312096 
L 227.376761 191.492912 
L 228.027371 216.536604 
L 228.677981 229.890441 
L 229.328592 221.716845 
L 229.979202 221.744994 
L 230.629812 218.931333 
L 231.280423 233.832713 
L 231.931033 232.908165 
L 232.581643 227.751923 
L 233.232254 223.889586 
L 233.882864 222.520877 
L 234.533474 211.516813 
L 235.184085 217.759494 
L 235.834695 225.73945 
L 236.485305 235.114434 
L 237.135915 233.098663 
L 237.786526 232.485535 
L 238.437136 228.322207 
L 239.087746 231.975017 
L 239.738357 231.064959 
L 240.388967 224.928048 
L 241.039577 226.289774 
L 241.690188 231.094054 
L 242.340798 229.975225 
L 242.991408 236.357891 
L 243.642019 236.588136 
L 244.292629 230.272494 
L 244.943239 228.141729 
L 245.59385 230.468447 
L 246.24446 230.616862 
L 246.89507 229.691843 
L 248.196291 232.332366 
L 248.846901 230.475007 
L 249.497511 234.610283 
L 250.148122 232.607163 
L 250.798732 229.564217 
L 251.449342 221.313877 
L 252.099953 217.101973 
L 252.750563 234.153352 
L 253.401173 231.725142 
L 254.051784 223.223081 
L 254.702394 228.759523 
L 255.353004 226.591026 
L 256.003615 232.707716 
L 256.654225 225.572177 
L 257.304835 223.671358 
L 257.955445 227.360882 
L 258.606056 238.128885 
L 259.907276 233.017488 
L 260.557887 231.317339 
L 261.208497 232.480288 
L 261.859107 223.671272 
L 262.509718 229.649848 
L 263.160328 226.267138 
L 263.810938 231.796485 
L 264.461549 236.280344 
L 265.112159 235.757944 
L 265.762769 237.002112 
L 266.413379 235.949641 
L 267.06399 227.682513 
L 267.7146 221.441882 
L 269.015821 234.212327 
L 269.666431 235.337424 
L 270.317041 228.717022 
L 270.967652 230.313084 
L 271.618262 231.264247 
L 272.268872 236.069773 
L 272.919483 235.889979 
L 273.570093 234.482934 
L 274.871314 233.755694 
L 275.521924 234.074931 
L 276.172534 231.619436 
L 276.823144 236.678441 
L 277.473755 235.050268 
L 278.124365 234.744393 
L 278.774975 235.119871 
L 279.425586 239.450536 
L 280.076196 238.29195 
L 280.726806 234.402834 
L 281.377417 235.946582 
L 282.678637 226.701913 
L 283.329248 232.035308 
L 283.979858 228.855622 
L 284.630468 229.4418 
L 285.281079 234.266605 
L 285.931689 233.362983 
L 286.582299 233.284489 
L 287.232909 234.170117 
L 287.88352 233.440411 
L 288.53413 229.187163 
L 289.18474 235.927685 
L 289.835351 230.802599 
L 290.485961 234.974352 
L 291.136571 240.213545 
L 291.787182 234.685221 
L 292.437792 233.095913 
L 293.088402 228.808202 
L 293.739013 232.948023 
L 295.040233 238.96503 
L 295.690844 238.339002 
L 296.341454 238.680898 
L 296.992064 238.030227 
L 297.642674 237.083007 
L 298.293285 234.386419 
L 298.943895 235.915648 
L 299.594505 235.998431 
L 300.245116 234.105134 
L 300.895726 239.974709 
L 301.546336 237.303034 
L 302.196947 238.440221 
L 302.847557 240.610416 
L 303.498167 234.830222 
L 304.148778 236.792246 
L 304.799388 233.383283 
L 305.449998 231.738116 
L 306.100608 235.974339 
L 306.751219 236.900932 
L 307.401829 236.30347 
L 308.052439 240.531056 
L 308.70305 235.374671 
L 309.35366 224.784413 
L 310.00427 224.525686 
L 310.654881 224.509607 
L 311.305491 234.12198 
L 311.956101 229.186849 
L 312.606712 232.497806 
L 313.907932 227.206111 
L 314.558543 229.843413 
L 315.209153 230.202312 
L 315.859763 233.105593 
L 316.510373 232.786701 
L 317.160984 230.315722 
L 317.811594 226.53226 
L 318.462204 232.151648 
L 319.112815 235.493303 
L 319.763425 233.563665 
L 320.414035 232.943784 
L 321.064646 234.923044 
L 321.715256 234.934392 
L 322.365866 231.923013 
L 323.016477 231.826513 
L 323.667087 231.885793 
L 324.317697 236.060768 
L 324.968308 233.284659 
L 325.618918 229.349737 
L 326.269528 229.129459 
L 326.920138 232.561567 
L 327.570749 224.722868 
L 328.221359 228.257382 
L 329.52258 233.083563 
L 330.17319 232.834833 
L 330.8238 233.132942 
L 331.474411 231.77689 
L 332.125021 234.449248 
L 332.775631 234.985832 
L 333.426242 231.21774 
L 334.076852 231.849515 
L 334.727462 230.782566 
L 335.378073 233.19974 
L 336.028683 234.147474 
L 336.679293 230.169915 
L 337.329903 230.389823 
L 337.980514 231.499032 
L 338.631124 229.952656 
L 339.281734 232.603962 
L 339.932345 230.740988 
L 340.582955 231.70376 
L 341.233565 229.395237 
L 341.884176 229.87701 
L 342.534786 231.210977 
L 343.185396 228.512586 
L 343.836007 233.286015 
L 344.486617 226.286261 
L 345.137227 232.896121 
L 345.787837 225.371743 
L 346.438448 227.183362 
L 347.089058 229.50784 
L 347.739668 230.201395 
L 348.390279 230.271135 
L 349.040889 227.448785 
L 349.691499 227.871969 
L 350.34211 225.883532 
L 350.99272 227.869386 
L 351.64333 227.915498 
L 352.293941 225.288502 
L 352.944551 228.045674 
L 353.595161 228.342747 
L 354.245772 229.032845 
L 354.896382 227.09885 
L 355.546992 226.103577 
L 356.197602 227.70076 
L 356.848213 224.416524 
L 357.498823 227.541448 
L 358.149433 226.707285 
L 359.450654 231.043734 
L 360.101264 223.667452 
L 360.751875 225.032515 
L 361.402485 226.055219 
L 362.053095 223.038745 
L 362.703706 216.903178 
L 363.354316 219.165289 
L 364.004926 226.565857 
L 364.655537 226.340105 
L 365.306147 227.319407 
L 365.956757 216.361762 
L 366.607367 216.395236 
L 367.257978 211.705464 
L 367.908588 214.159556 
L 368.559198 215.042934 
L 369.209809 217.354975 
L 369.860419 214.912014 
L 370.511029 216.382553 
L 371.16164 215.921781 
L 371.81225 217.782294 
L 372.46286 221.045897 
L 373.113471 218.316793 
L 373.764081 218.407731 
L 374.414691 218.976689 
L 375.065302 223.010597 
L 375.715912 223.712352 
L 376.366522 221.009517 
L 377.017132 215.509402 
L 377.667743 214.860383 
L 378.968963 221.210813 
L 379.619574 223.193148 
L 380.270184 216.053562 
L 380.920794 214.884806 
L 381.571405 211.2044 
L 382.222015 219.717176 
L 382.872625 224.133399 
L 384.173846 221.49312 
L 384.824456 210.421897 
L 386.125677 213.793785 
L 386.776287 221.864008 
L 387.426897 225.640689 
L 388.077508 212.80933 
L 388.728118 211.280269 
L 390.029339 222.431006 
L 390.679949 221.315461 
L 391.330559 212.989105 
L 391.98117 213.857533 
L 392.63178 212.686771 
L 393.28239 215.339784 
L 394.583611 217.770663 
L 395.234221 214.460417 
L 395.884831 211.741072 
L 396.535442 208.233048 
L 397.186052 214.823843 
L 397.836662 206.987949 
L 398.487273 215.716283 
L 398.487273 215.716283 
" clip-path="url(#pb326a0e06c)" style="fill: none; stroke: #008000; stroke-width: 1.5; stroke-linecap: square"/>
   </g>
   <g id="patch_3">
    <path d="M 57.6 307.584 
L 57.6 41.472 
" style="fill: none; stroke: #000000; stroke-width: 0.8; stroke-linejoin: miter; stroke-linecap: square"/>
   </g>
   <g id="patch_4">
    <path d="M 414.72 307.584 
L 414.72 41.472 
" style="fill: none; stroke: #000000; stroke-width: 0.8; stroke-linejoin: miter; stroke-linecap: square"/>
   </g>
   <g id="patch_5">
    <path d="M 57.6 307.584 
L 414.72 307.584 
" style="fill: none; stroke: #000000; stroke-width: 0.8; stroke-linejoin: miter; stroke-linecap: square"/>
   </g>
   <g id="patch_6">
    <path d="M 57.6 41.472 
L 414.72 41.472 
" style="fill: none; stroke: #000000; stroke-width: 0.8; stroke-linejoin: miter; stroke-linecap: square"/>
   </g>
   <g id="legend_1">
    <g id="patch_7">
     <path d="M 338.77 64.42825 
L 407.72 64.42825 
Q 409.72 64.42825 409.72 62.42825 
L 409.72 48.472 
Q 409.72 46.472 407.72 46.472 
L 338.77 46.472 
Q 336.77 46.472 336.77 48.472 
L 336.77 62.42825 
Q 336.77 64.42825 338.77 64.42825 
z
" style="fill: #ffffff; opacity: 0.8; stroke: #cccccc; stroke-linejoin: miter"/>
    </g>
    <g id="line2d_14">
     <path d="M 340.77 54.570437 
L 350.77 54.570437 
L 360.77 54.570437 
" style="fill: none; stroke: #008000; stroke-width: 1.5; stroke-linecap: square"/>
    </g>
    <g id="text_15">
     <!-- val_acc -->
     <g transform="translate(368.77 58.070437) scale(0.1 -0.1)">
      <defs>
       <path id="DejaVuSans-76" d="M 191 3500 
L 800 3500 
L 1894 563 
L 2988 3500 
L 3597 3500 
L 2284 0 
L 1503 0 
L 191 3500 
z
" transform="scale(0.015625)"/>
       <path id="DejaVuSans-6c" d="M 603 4863 
L 1178 4863 
L 1178 0 
L 603 0 
L 603 4863 
z
" transform="scale(0.015625)"/>
       <path id="DejaVuSans-5f" d="M 3263 -1063 
L 3263 -1509 
L -63 -1509 
L -63 -1063 
L 3263 -1063 
z
" transform="scale(0.015625)"/>
      </defs>
      <use xlink:href="#DejaVuSans-76"/>
      <use xlink:href="#DejaVuSans-61" x="59.179688"/>
      <use xlink:href="#DejaVuSans-6c" x="120.458984"/>
      <use xlink:href="#DejaVuSans-5f" x="148.242188"/>
      <use xlink:href="#DejaVuSans-61" x="198.242188"/>
      <use xlink:href="#DejaVuSans-63" x="259.521484"/>
      <use xlink:href="#DejaVuSans-63" x="314.501953"/>
     </g>
    </g>
   </g>
  </g>
 </g>
 <defs>
  <clipPath id="pb326a0e06c">
   <rect x="57.6" y="41.472" width="357.12" height="266.112"/>
  </clipPath>
 </defs>
</svg>
