<?xml version="1.0" encoding="utf-8" standalone="no"?>
<!DOCTYPE svg PUBLIC "-//W3C//DTD SVG 1.1//EN"
  "http://www.w3.org/Graphics/SVG/1.1/DTD/svg11.dtd">
<svg xmlns:xlink="http://www.w3.org/1999/xlink" width="360pt" height="288pt" viewBox="0 0 360 288" xmlns="http://www.w3.org/2000/svg" version="1.1">
 <metadata>
  <rdf:RDF xmlns:dc="http://purl.org/dc/elements/1.1/" xmlns:cc="http://creativecommons.org/ns#" xmlns:rdf="http://www.w3.org/1999/02/22-rdf-syntax-ns#">
   <cc:Work>
    <dc:type rdf:resource="http://purl.org/dc/dcmitype/StillImage"/>
    <dc:date>2025-08-01T18:05:01.740528</dc:date>
    <dc:format>image/svg+xml</dc:format>
    <dc:creator>
     <cc:Agent>
      <dc:title>Matplotlib v3.10.5, https://matplotlib.org/</dc:title>
     </cc:Agent>
    </dc:creator>
   </cc:Work>
  </rdf:RDF>
 </metadata>
 <defs>
  <style type="text/css">*{stroke-linejoin: round; stroke-linecap: butt}</style>
 </defs>
 <g id="figure_1">
  <g id="patch_1">
   <path d="M 0 288 
L 360 288 
L 360 0 
L 0 0 
L 0 288 
z
" style="fill: none"/>
  </g>
  <g id="axes_1">
   <g id="patch_2">
    <path d="M 104.805692 227.94 
L 340.56 227.94 
L 340.56 19.44 
L 104.805692 19.44 
L 104.805692 227.94 
z
" style="fill: none"/>
   </g>
   <g id="matplotlib.axis_1">
    <g id="xtick_1">
     <g id="line2d_1">
      <defs>
       <path id="macde7b7f15" d="M 0 0 
L 0 -3.5 
" style="stroke: #000000; stroke-width: 0.8"/>
      </defs>
      <g>
       <use xlink:href="#macde7b7f15" x="115.521797" y="227.94" style="stroke: #000000; stroke-width: 0.8"/>
      </g>
     </g>
     <g id="text_1">
      <!-- 0 -->
      <g transform="translate(110.516953 244.324062) scale(0.18 -0.18)">
       <defs>
        <path id="ArialMT-30" d="M 266 2259 
Q 266 3072 433 3567 
Q 600 4063 929 4331 
Q 1259 4600 1759 4600 
Q 2128 4600 2406 4451 
Q 2684 4303 2865 4023 
Q 3047 3744 3150 3342 
Q 3253 2941 3253 2259 
Q 3253 1453 3087 958 
Q 2922 463 2592 192 
Q 2263 -78 1759 -78 
Q 1097 -78 719 397 
Q 266 969 266 2259 
z
M 844 2259 
Q 844 1131 1108 757 
Q 1372 384 1759 384 
Q 2147 384 2411 759 
Q 2675 1134 2675 2259 
Q 2675 3391 2411 3762 
Q 2147 4134 1753 4134 
Q 1366 4134 1134 3806 
Q 844 3388 844 2259 
z
" transform="scale(0.015625)"/>
       </defs>
       <use xlink:href="#ArialMT-30"/>
      </g>
     </g>
    </g>
    <g id="xtick_2">
     <g id="line2d_2">
      <g>
       <use xlink:href="#macde7b7f15" x="201.267785" y="227.94" style="stroke: #000000; stroke-width: 0.8"/>
      </g>
     </g>
     <g id="text_2">
      <!-- 2000 -->
      <g transform="translate(181.24841 244.324062) scale(0.18 -0.18)">
       <defs>
        <path id="ArialMT-32" d="M 3222 541 
L 3222 0 
L 194 0 
Q 188 203 259 391 
Q 375 700 629 1000 
Q 884 1300 1366 1694 
Q 2113 2306 2375 2664 
Q 2638 3022 2638 3341 
Q 2638 3675 2398 3904 
Q 2159 4134 1775 4134 
Q 1369 4134 1125 3890 
Q 881 3647 878 3216 
L 300 3275 
Q 359 3922 746 4261 
Q 1134 4600 1788 4600 
Q 2447 4600 2831 4234 
Q 3216 3869 3216 3328 
Q 3216 3053 3103 2787 
Q 2991 2522 2730 2228 
Q 2469 1934 1863 1422 
Q 1356 997 1212 845 
Q 1069 694 975 541 
L 3222 541 
z
" transform="scale(0.015625)"/>
       </defs>
       <use xlink:href="#ArialMT-32"/>
       <use xlink:href="#ArialMT-30" transform="translate(55.615234 0)"/>
       <use xlink:href="#ArialMT-30" transform="translate(111.230469 0)"/>
       <use xlink:href="#ArialMT-30" transform="translate(166.845703 0)"/>
      </g>
     </g>
    </g>
    <g id="xtick_3">
     <g id="line2d_3">
      <g>
       <use xlink:href="#macde7b7f15" x="287.013774" y="227.94" style="stroke: #000000; stroke-width: 0.8"/>
      </g>
     </g>
     <g id="text_3">
      <!-- 4000 -->
      <g transform="translate(266.994399 244.324062) scale(0.18 -0.18)">
       <defs>
        <path id="ArialMT-34" d="M 2069 0 
L 2069 1097 
L 81 1097 
L 81 1613 
L 2172 4581 
L 2631 4581 
L 2631 1613 
L 3250 1613 
L 3250 1097 
L 2631 1097 
L 2631 0 
L 2069 0 
z
M 2069 1613 
L 2069 3678 
L 634 1613 
L 2069 1613 
z
" transform="scale(0.015625)"/>
       </defs>
       <use xlink:href="#ArialMT-34"/>
       <use xlink:href="#ArialMT-30" transform="translate(55.615234 0)"/>
       <use xlink:href="#ArialMT-30" transform="translate(111.230469 0)"/>
       <use xlink:href="#ArialMT-30" transform="translate(166.845703 0)"/>
      </g>
     </g>
    </g>
    <g id="text_4">
     <!-- iteration -->
     <g transform="translate(190.666752 264.785625) scale(0.18 -0.18)">
      <defs>
       <path id="ArialMT-69" d="M 425 3934 
L 425 4581 
L 988 4581 
L 988 3934 
L 425 3934 
z
M 425 0 
L 425 3319 
L 988 3319 
L 988 0 
L 425 0 
z
" transform="scale(0.015625)"/>
       <path id="ArialMT-74" d="M 1650 503 
L 1731 6 
Q 1494 -44 1306 -44 
Q 1000 -44 831 53 
Q 663 150 594 308 
Q 525 466 525 972 
L 525 2881 
L 113 2881 
L 113 3319 
L 525 3319 
L 525 4141 
L 1084 4478 
L 1084 3319 
L 1650 3319 
L 1650 2881 
L 1084 2881 
L 1084 941 
Q 1084 700 1114 631 
Q 1144 563 1211 522 
Q 1278 481 1403 481 
Q 1497 481 1650 503 
z
" transform="scale(0.015625)"/>
       <path id="ArialMT-65" d="M 2694 1069 
L 3275 997 
Q 3138 488 2766 206 
Q 2394 -75 1816 -75 
Q 1088 -75 661 373 
Q 234 822 234 1631 
Q 234 2469 665 2931 
Q 1097 3394 1784 3394 
Q 2450 3394 2872 2941 
Q 3294 2488 3294 1666 
Q 3294 1616 3291 1516 
L 816 1516 
Q 847 969 1125 678 
Q 1403 388 1819 388 
Q 2128 388 2347 550 
Q 2566 713 2694 1069 
z
M 847 1978 
L 2700 1978 
Q 2663 2397 2488 2606 
Q 2219 2931 1791 2931 
Q 1403 2931 1139 2672 
Q 875 2413 847 1978 
z
" transform="scale(0.015625)"/>
       <path id="ArialMT-72" d="M 416 0 
L 416 3319 
L 922 3319 
L 922 2816 
Q 1116 3169 1280 3281 
Q 1444 3394 1641 3394 
Q 1925 3394 2219 3213 
L 2025 2691 
Q 1819 2813 1613 2813 
Q 1428 2813 1281 2702 
Q 1134 2591 1072 2394 
Q 978 2094 978 1738 
L 978 0 
L 416 0 
z
" transform="scale(0.015625)"/>
       <path id="ArialMT-61" d="M 2588 409 
Q 2275 144 1986 34 
Q 1697 -75 1366 -75 
Q 819 -75 525 192 
Q 231 459 231 875 
Q 231 1119 342 1320 
Q 453 1522 633 1644 
Q 813 1766 1038 1828 
Q 1203 1872 1538 1913 
Q 2219 1994 2541 2106 
Q 2544 2222 2544 2253 
Q 2544 2597 2384 2738 
Q 2169 2928 1744 2928 
Q 1347 2928 1158 2789 
Q 969 2650 878 2297 
L 328 2372 
Q 403 2725 575 2942 
Q 747 3159 1072 3276 
Q 1397 3394 1825 3394 
Q 2250 3394 2515 3294 
Q 2781 3194 2906 3042 
Q 3031 2891 3081 2659 
Q 3109 2516 3109 2141 
L 3109 1391 
Q 3109 606 3145 398 
Q 3181 191 3288 0 
L 2700 0 
Q 2613 175 2588 409 
z
M 2541 1666 
Q 2234 1541 1622 1453 
Q 1275 1403 1131 1340 
Q 988 1278 909 1158 
Q 831 1038 831 891 
Q 831 666 1001 516 
Q 1172 366 1500 366 
Q 1825 366 2078 508 
Q 2331 650 2450 897 
Q 2541 1088 2541 1459 
L 2541 1666 
z
" transform="scale(0.015625)"/>
       <path id="ArialMT-6f" d="M 213 1659 
Q 213 2581 725 3025 
Q 1153 3394 1769 3394 
Q 2453 3394 2887 2945 
Q 3322 2497 3322 1706 
Q 3322 1066 3130 698 
Q 2938 331 2570 128 
Q 2203 -75 1769 -75 
Q 1072 -75 642 372 
Q 213 819 213 1659 
z
M 791 1659 
Q 791 1022 1069 705 
Q 1347 388 1769 388 
Q 2188 388 2466 706 
Q 2744 1025 2744 1678 
Q 2744 2294 2464 2611 
Q 2184 2928 1769 2928 
Q 1347 2928 1069 2612 
Q 791 2297 791 1659 
z
" transform="scale(0.015625)"/>
       <path id="ArialMT-6e" d="M 422 0 
L 422 3319 
L 928 3319 
L 928 2847 
Q 1294 3394 1984 3394 
Q 2284 3394 2536 3286 
Q 2788 3178 2913 3003 
Q 3038 2828 3088 2588 
Q 3119 2431 3119 2041 
L 3119 0 
L 2556 0 
L 2556 2019 
Q 2556 2363 2490 2533 
Q 2425 2703 2258 2804 
Q 2091 2906 1866 2906 
Q 1506 2906 1245 2678 
Q 984 2450 984 1813 
L 984 0 
L 422 0 
z
" transform="scale(0.015625)"/>
      </defs>
      <use xlink:href="#ArialMT-69"/>
      <use xlink:href="#ArialMT-74" transform="translate(22.216797 0)"/>
      <use xlink:href="#ArialMT-65" transform="translate(50 0)"/>
      <use xlink:href="#ArialMT-72" transform="translate(105.615234 0)"/>
      <use xlink:href="#ArialMT-61" transform="translate(138.916016 0)"/>
      <use xlink:href="#ArialMT-74" transform="translate(194.53125 0)"/>
      <use xlink:href="#ArialMT-69" transform="translate(222.314453 0)"/>
      <use xlink:href="#ArialMT-6f" transform="translate(244.53125 0)"/>
      <use xlink:href="#ArialMT-6e" transform="translate(300.146484 0)"/>
     </g>
    </g>
   </g>
   <g id="matplotlib.axis_2">
    <g id="ytick_1">
     <g id="line2d_4">
      <defs>
       <path id="m4190d2afa9" d="M 0 0 
L 3.5 0 
" style="stroke: #000000; stroke-width: 0.8"/>
      </defs>
      <g>
       <use xlink:href="#m4190d2afa9" x="104.805692" y="92.153631" style="stroke: #000000; stroke-width: 0.8"/>
      </g>
     </g>
     <g id="text_5">
      <!-- $\mathdefault{10^{0}}$ -->
      <g transform="translate(73.045692 101.434881) scale(0.18 -0.18)">
       <defs>
        <path id="ArialMT-31" d="M 2384 0 
L 1822 0 
L 1822 3584 
Q 1619 3391 1289 3197 
Q 959 3003 697 2906 
L 697 3450 
Q 1169 3672 1522 3987 
Q 1875 4303 2022 4600 
L 2384 4600 
L 2384 0 
z
" transform="scale(0.015625)"/>
       </defs>
       <use xlink:href="#ArialMT-31" transform="translate(0 0.99375)"/>
       <use xlink:href="#ArialMT-30" transform="translate(55.615234 0.99375)"/>
       <use xlink:href="#ArialMT-30" transform="translate(112.972813 70.6875) scale(0.7)"/>
      </g>
     </g>
    </g>
    <g id="ytick_2">
     <g id="line2d_5">
      <defs>
       <path id="mafd6b8a852" d="M 0 0 
L 2 0 
" style="stroke: #000000; stroke-width: 0.6"/>
      </defs>
      <g>
       <use xlink:href="#mafd6b8a852" x="104.805692" y="218.624304" style="stroke: #000000; stroke-width: 0.6"/>
      </g>
     </g>
     <g id="text_6">
      <!-- $\mathdefault{4\times10^{-1}}$ -->
      <g transform="translate(38.225692 227.905554) scale(0.18 -0.18)">
       <defs>
        <path id="ArialMT-d7" d="M 503 1278 
L 1488 2263 
L 506 3244 
L 888 3625 
L 1869 2644 
L 2847 3622 
L 3222 3244 
L 2247 2266 
L 3228 1284 
L 2847 903 
L 1866 1884 
L 881 900 
L 503 1278 
z
" transform="scale(0.015625)"/>
        <path id="ArialMT-2212" d="M 3381 1997 
L 356 1997 
L 356 2522 
L 3381 2522 
L 3381 1997 
z
" transform="scale(0.015625)"/>
       </defs>
       <use xlink:href="#ArialMT-34" transform="translate(0 0.99375)"/>
       <use xlink:href="#ArialMT-d7" transform="translate(75.097656 0.99375)"/>
       <use xlink:href="#ArialMT-31" transform="translate(152.978516 0.99375)"/>
       <use xlink:href="#ArialMT-30" transform="translate(208.59375 0.99375)"/>
       <use xlink:href="#ArialMT-2212" transform="translate(265.951328 70.6875) scale(0.7)"/>
       <use xlink:href="#ArialMT-31" transform="translate(306.830234 70.6875) scale(0.7)"/>
      </g>
     </g>
    </g>
    <g id="ytick_3">
     <g id="line2d_6">
      <g>
       <use xlink:href="#mafd6b8a852" x="104.805692" y="187.825002" style="stroke: #000000; stroke-width: 0.6"/>
      </g>
     </g>
    </g>
    <g id="ytick_4">
     <g id="line2d_7">
      <g>
       <use xlink:href="#mafd6b8a852" x="104.805692" y="162.660139" style="stroke: #000000; stroke-width: 0.6"/>
      </g>
     </g>
     <g id="text_7">
      <!-- $\mathdefault{6\times10^{-1}}$ -->
      <g transform="translate(38.225692 171.941389) scale(0.18 -0.18)">
       <defs>
        <path id="ArialMT-36" d="M 3184 3459 
L 2625 3416 
Q 2550 3747 2413 3897 
Q 2184 4138 1850 4138 
Q 1581 4138 1378 3988 
Q 1113 3794 959 3422 
Q 806 3050 800 2363 
Q 1003 2672 1297 2822 
Q 1591 2972 1913 2972 
Q 2475 2972 2870 2558 
Q 3266 2144 3266 1488 
Q 3266 1056 3080 686 
Q 2894 316 2569 119 
Q 2244 -78 1831 -78 
Q 1128 -78 684 439 
Q 241 956 241 2144 
Q 241 3472 731 4075 
Q 1159 4600 1884 4600 
Q 2425 4600 2770 4297 
Q 3116 3994 3184 3459 
z
M 888 1484 
Q 888 1194 1011 928 
Q 1134 663 1356 523 
Q 1578 384 1822 384 
Q 2178 384 2434 671 
Q 2691 959 2691 1453 
Q 2691 1928 2437 2201 
Q 2184 2475 1800 2475 
Q 1419 2475 1153 2201 
Q 888 1928 888 1484 
z
" transform="scale(0.015625)"/>
       </defs>
       <use xlink:href="#ArialMT-36" transform="translate(0 0.99375)"/>
       <use xlink:href="#ArialMT-d7" transform="translate(75.097656 0.99375)"/>
       <use xlink:href="#ArialMT-31" transform="translate(152.978516 0.99375)"/>
       <use xlink:href="#ArialMT-30" transform="translate(208.59375 0.99375)"/>
       <use xlink:href="#ArialMT-2212" transform="translate(265.951328 70.6875) scale(0.7)"/>
       <use xlink:href="#ArialMT-31" transform="translate(306.830234 70.6875) scale(0.7)"/>
      </g>
     </g>
    </g>
    <g id="ytick_5">
     <g id="line2d_8">
      <g>
       <use xlink:href="#mafd6b8a852" x="104.805692" y="141.383552" style="stroke: #000000; stroke-width: 0.6"/>
      </g>
     </g>
    </g>
    <g id="ytick_6">
     <g id="line2d_9">
      <g>
       <use xlink:href="#mafd6b8a852" x="104.805692" y="122.952933" style="stroke: #000000; stroke-width: 0.6"/>
      </g>
     </g>
    </g>
    <g id="ytick_7">
     <g id="line2d_10">
      <g>
       <use xlink:href="#mafd6b8a852" x="104.805692" y="106.695975" style="stroke: #000000; stroke-width: 0.6"/>
      </g>
     </g>
    </g>
    <g id="text_8">
     <!-- loss -->
     <g transform="translate(30.648192 139.694531) rotate(-90) scale(0.18 -0.18)">
      <defs>
       <path id="ArialMT-6c" d="M 409 0 
L 409 4581 
L 972 4581 
L 972 0 
L 409 0 
z
" transform="scale(0.015625)"/>
       <path id="ArialMT-73" d="M 197 991 
L 753 1078 
Q 800 744 1014 566 
Q 1228 388 1613 388 
Q 2000 388 2187 545 
Q 2375 703 2375 916 
Q 2375 1106 2209 1216 
Q 2094 1291 1634 1406 
Q 1016 1563 777 1677 
Q 538 1791 414 1992 
Q 291 2194 291 2438 
Q 291 2659 392 2848 
Q 494 3038 669 3163 
Q 800 3259 1026 3326 
Q 1253 3394 1513 3394 
Q 1903 3394 2198 3281 
Q 2494 3169 2634 2976 
Q 2775 2784 2828 2463 
L 2278 2388 
Q 2241 2644 2061 2787 
Q 1881 2931 1553 2931 
Q 1166 2931 1000 2803 
Q 834 2675 834 2503 
Q 834 2394 903 2306 
Q 972 2216 1119 2156 
Q 1203 2125 1616 2013 
Q 2213 1853 2448 1751 
Q 2684 1650 2818 1456 
Q 2953 1263 2953 975 
Q 2953 694 2789 445 
Q 2625 197 2315 61 
Q 2006 -75 1616 -75 
Q 969 -75 630 194 
Q 291 463 197 991 
z
" transform="scale(0.015625)"/>
      </defs>
      <use xlink:href="#ArialMT-6c"/>
      <use xlink:href="#ArialMT-6f" transform="translate(22.216797 0)"/>
      <use xlink:href="#ArialMT-73" transform="translate(77.832031 0)"/>
      <use xlink:href="#ArialMT-73" transform="translate(127.832031 0)"/>
     </g>
    </g>
   </g>
   <g id="line2d_11">
    <path d="M 115.521797 58.979038 
L 115.56467 59.125683 
L 115.607543 67.045472 
L 115.650416 59.428812 
L 115.693289 58.965673 
L 115.736162 67.552097 
L 115.779035 59.260918 
L 115.864781 60.167583 
L 115.907654 68.224544 
L 115.950527 60.470737 
L 115.9934 59.987749 
L 116.079146 60.908388 
L 116.122019 69.06293 
L 116.164892 61.211478 
L 116.293511 61.651238 
L 116.336384 69.903933 
L 116.379257 61.954326 
L 116.465003 62.247469 
L 116.507876 70.579339 
L 116.550749 62.550437 
L 116.679368 62.990267 
L 116.722241 71.420769 
L 116.765114 63.293217 
L 116.893733 63.732987 
L 116.936606 72.262445 
L 116.979479 63.341055 
L 117.108098 64.473558 
L 117.150971 73.102019 
L 117.193844 64.776357 
L 117.236717 64.922961 
L 117.322463 73.789551 
L 117.365336 65.381881 
L 117.408209 74.133313 
L 117.451082 65.684603 
L 117.536828 74.654712 
L 117.579701 65.407905 
L 117.665447 66.434547 
L 117.70832 66.581146 
L 117.751193 65.981008 
L 117.794066 66.872278 
L 117.836939 67.018863 
L 117.879812 66.410213 
L 117.922685 66.551934 
L 118.008431 67.601146 
L 118.051304 66.981195 
L 118.094177 67.122913 
L 118.13705 68.036809 
L 118.265669 77.490614 
L 118.308542 68.641852 
L 118.351415 28.917273 
L 118.394288 68.788468 
L 118.437161 68.935045 
L 118.480034 68.289099 
L 118.522907 69.226187 
L 118.608653 69.519382 
L 118.694399 79.008769 
L 118.737272 69.977573 
L 118.780145 79.352928 
L 118.823018 70.279967 
L 118.865891 69.607657 
L 118.908764 70.57112 
L 118.951637 70.717744 
L 118.99451 80.194527 
L 119.037383 70.189424 
L 119.208875 71.604405 
L 119.251748 71.750953 
L 119.294621 71.049766 
L 119.337494 72.042214 
L 119.380367 72.188744 
L 119.42324 28.917273 
L 119.466113 81.867571 
L 119.551859 82.211946 
L 119.594732 71.92754 
L 119.637605 82.554096 
L 119.680478 28.917273 
L 119.723351 82.731683 
L 119.766224 72.37419 
L 119.85197 72.659598 
L 119.894842 72.801308 
L 119.937715 28.917273 
L 119.980588 73.829254 
L 120.023461 83.736627 
L 120.066334 74.131277 
L 120.109207 73.382776 
L 120.15208 74.422458 
L 120.194953 28.917273 
L 120.237826 74.569018 
L 120.409318 75.155408 
L 120.452191 85.247378 
L 120.495064 75.45739 
L 120.537937 28.917273 
L 120.58081 75.603945 
L 120.623683 74.826058 
L 120.666556 75.895196 
L 120.709429 76.041806 
L 120.752302 75.255136 
L 120.838048 86.60022 
L 120.880921 76.643514 
L 120.923794 76.790156 
L 120.966667 87.111999 
L 121.00954 28.917273 
L 121.052413 76.140566 
L 121.181032 77.529798 
L 121.223905 87.955966 
L 121.266778 77.831583 
L 121.352524 78.124754 
L 121.395397 77.296161 
L 121.43827 88.800179 
L 121.481143 77.589883 
L 121.524016 78.715716 
L 121.566889 89.310122 
L 121.609762 79.01743 
L 121.652635 79.164012 
L 121.695508 78.314395 
L 121.738381 79.455272 
L 121.867 90.499704 
L 121.909873 80.058724 
L 121.995619 80.378741 
L 122.038492 80.538725 
L 122.081365 91.384652 
L 122.124238 80.862374 
L 122.167111 28.917273 
L 122.209984 81.022328 
L 122.29573 81.342307 
L 122.424349 92.632039 
L 122.467222 81.989482 
L 122.552968 82.309446 
L 122.595841 82.469415 
L 122.638714 28.917273 
L 122.681587 81.566975 
L 122.72446 82.787389 
L 122.767333 28.917273 
L 122.810206 82.947374 
L 122.981698 83.587353 
L 123.024571 94.758124 
L 123.067444 83.910829 
L 123.281809 84.710724 
L 123.324682 28.917273 
L 123.367555 84.87074 
L 123.539047 85.511221 
L 123.58192 84.547733 
L 123.624793 85.829498 
L 123.882031 86.790247 
L 123.924904 98.328714 
L 123.967777 87.115299 
L 124.01065 87.275428 
L 124.053523 98.871747 
L 124.096396 87.6004 
L 124.139269 28.917273 
L 124.182142 99.235976 
L 124.225015 99.420975 
L 124.267888 88.090247 
L 124.353634 88.410484 
L 124.396507 87.387715 
L 124.43938 88.728816 
L 124.482253 87.699489 
L 124.567999 100.861715 
L 124.610872 89.37661 
L 124.696618 89.696907 
L 124.953856 90.657609 
L 124.996729 89.588492 
L 125.039602 90.97592 
L 125.082475 91.13607 
L 125.125348 103.19677 
L 125.168221 91.460775 
L 125.211094 91.620866 
L 125.29684 103.925694 
L 125.382586 91.010902 
L 125.425459 92.428477 
L 125.468332 91.322604 
L 125.554078 91.630323 
L 125.639824 93.220628 
L 125.682697 105.539844 
L 125.72557 93.547596 
L 125.939935 94.344693 
L 126.068554 107.152082 
L 126.1543 107.504313 
L 126.197173 93.96341 
L 126.282919 95.594023 
L 126.325792 108.202177 
L 126.368665 95.907808 
L 126.411538 94.723856 
L 126.454411 96.215808 
L 126.58303 96.680721 
L 126.625903 95.48028 
L 126.668776 95.630263 
L 126.797395 97.45178 
L 126.840268 97.606867 
L 126.883141 96.386765 
L 126.926014 97.914886 
L 126.968887 98.069833 
L 127.01176 96.840066 
L 127.054633 98.377968 
L 127.397616 99.617181 
L 127.440489 112.720178 
L 127.483362 99.93043 
L 127.654854 100.547546 
L 127.697727 28.917273 
L 127.7406 113.774477 
L 127.783473 113.95523 
L 127.826346 101.019683 
L 127.869219 101.173519 
L 127.912092 114.483524 
L 127.954965 101.484048 
L 127.997838 101.637055 
L 128.040711 100.32764 
L 128.083584 101.932972 
L 128.126457 102.078733 
L 128.16933 100.753924 
L 128.212203 100.895123 
L 128.297949 102.659397 
L 128.340822 116.167481 
L 128.383695 102.965168 
L 128.512314 103.415408 
L 128.555187 117.03225 
L 128.59806 103.721195 
L 128.769552 104.331854 
L 128.812425 102.965435 
L 128.855298 104.637142 
L 128.898171 104.790125 
L 128.941044 103.41239 
L 128.983917 105.092607 
L 129.02679 118.930521 
L 129.069663 105.400118 
L 129.112536 104.00905 
L 129.155409 105.70258 
L 129.198282 105.854632 
L 129.241155 119.791493 
L 129.284028 104.605626 
L 129.412647 106.616676 
L 129.45552 105.198932 
L 129.498393 106.91909 
L 129.541266 105.494827 
L 129.669885 107.525738 
L 129.712758 106.088253 
L 129.755631 121.848906 
L 129.798504 107.98348 
L 129.841377 108.135675 
L 129.88425 122.368885 
L 129.927123 108.442827 
L 130.012869 108.746963 
L 130.055742 28.917273 
L 130.098615 108.899018 
L 130.184361 109.203101 
L 130.227234 123.57628 
L 130.270107 109.510318 
L 130.31298 109.662367 
L 130.355853 28.917273 
L 130.398726 124.096568 
L 130.441599 109.969393 
L 130.484472 110.121564 
L 130.527345 28.917273 
L 130.570218 110.273538 
L 130.613091 108.77519 
L 130.655964 110.576042 
L 130.698837 109.07102 
L 130.74171 110.878588 
L 130.784583 125.472993 
L 130.827456 111.185425 
L 130.870329 28.917273 
L 130.913202 111.336855 
L 130.956075 109.814228 
L 130.998948 111.637977 
L 131.041821 110.108783 
L 131.084694 126.498656 
L 131.127567 112.092978 
L 131.17044 110.553536 
L 131.213313 112.394223 
L 131.299059 112.696938 
L 131.341932 111.144127 
L 131.384805 112.998414 
L 131.427678 111.43813 
L 131.513424 113.448272 
L 131.556297 128.371958 
L 131.59917 112.026522 
L 131.642043 112.171906 
L 131.770662 129.22468 
L 131.813535 129.398214 
L 131.856408 114.656328 
L 131.942154 114.955666 
L 131.985027 115.104889 
L 132.0279 113.495595 
L 132.070773 130.417719 
L 132.113646 115.553606 
L 132.199392 115.852202 
L 132.242265 131.101917 
L 132.285138 114.374568 
L 132.370884 116.448778 
L 132.413757 114.808524 
L 132.45663 116.747334 
L 132.499503 116.90271 
L 132.542376 132.280586 
L 132.585249 117.211404 
L 132.842487 118.14291 
L 132.88536 116.467596 
L 132.928233 116.608435 
L 132.971106 118.582111 
L 133.013979 134.114441 
L 133.056852 117.029373 
L 133.142598 119.158061 
L 133.185471 134.74215 
L 133.228344 119.444755 
L 133.31409 119.73522 
L 133.356963 118.019488 
L 133.399836 120.028915 
L 133.442709 118.309332 
L 133.528455 120.474047 
L 133.614201 136.333281 
L 133.657074 119.024763 
L 133.699947 119.161693 
L 133.828566 137.08292 
L 133.871439 137.221496 
L 133.914312 119.809233 
L 134.000058 121.975955 
L 134.042931 137.786926 
L 134.085804 120.321602 
L 134.128677 122.367421 
L 134.17155 120.579749 
L 134.214423 138.351038 
L 134.257296 122.758717 
L 134.514534 123.537362 
L 134.557407 139.461003 
L 134.60028 123.777721 
L 134.686025 124.023029 
L 134.728898 139.985979 
L 134.771771 124.263219 
L 134.986136 124.876186 
L 135.029009 140.907064 
L 135.071882 125.114012 
L 135.114755 28.917273 
L 135.157628 125.234119 
L 135.200501 125.353975 
L 135.32912 141.621846 
L 135.371993 125.753685 
L 135.457739 125.951963 
L 135.500612 126.047738 
L 135.543485 124.13689 
L 135.586358 126.229272 
L 135.75785 126.591644 
L 135.800723 124.66816 
L 135.843596 126.772934 
L 135.929342 126.955235 
L 136.057961 143.304491 
L 136.100834 125.279209 
L 136.143707 125.367621 
L 136.18658 143.593756 
L 136.229453 127.575697 
L 136.272326 127.666647 
L 136.315199 125.719215 
L 136.358072 143.981067 
L 136.400945 28.917273 
L 136.443818 144.076633 
L 136.486691 128.023269 
L 136.572437 128.206108 
L 136.61531 128.29756 
L 136.658183 126.336453 
L 136.701056 128.480581 
L 136.915421 128.938941 
L 136.958294 126.963143 
L 137.001167 129.121772 
L 137.04404 145.448801 
L 137.086913 129.30112 
L 137.129786 127.316463 
L 137.172659 127.405246 
L 137.301278 129.75633 
L 137.387024 129.939101 
L 137.429897 146.323456 
L 137.47277 130.117316 
L 137.515643 128.114375 
L 137.558516 130.299731 
L 137.687135 130.573719 
L 137.730008 128.561922 
L 137.772881 128.653803 
L 137.9015 131.042835 
L 137.944373 131.137823 
L 137.987246 147.610831 
L 138.030119 131.322117 
L 138.115865 131.520947 
L 138.158738 148.035074 
L 138.201611 129.594614 
L 138.244484 131.825159 
L 138.287357 148.369467 
L 138.33023 132.027857 
L 138.587468 132.647185 
L 138.630341 149.264929 
L 138.673214 132.849868 
L 138.75896 133.056368 
L 138.801833 28.917273 
L 138.844706 133.159208 
L 138.887579 133.262711 
L 138.930452 131.198277 
L 138.973325 131.298616 
L 139.101944 133.776193 
L 139.144817 131.701097 
L 139.18769 133.981689 
L 139.230563 134.085655 
L 139.273436 132.00171 
L 139.316309 28.917273 
L 139.359182 134.291077 
L 139.402055 134.393624 
L 139.444928 132.303716 
L 139.487801 134.599281 
L 139.745039 135.191195 
L 139.787912 133.071926 
L 139.830785 135.376214 
L 139.959404 135.654209 
L 140.002277 152.541715 
L 140.04515 133.612411 
L 140.130896 136.022225 
L 140.173769 133.882676 
L 140.216642 136.205635 
L 140.259515 136.297312 
L 140.388134 153.449486 
L 140.47388 134.50111 
L 140.516753 136.83874 
L 140.559626 136.930168 
L 140.602499 134.767633 
L 140.688245 134.94485 
L 140.816864 137.475311 
L 141.288467 138.354142 
L 141.33134 136.13729 
L 141.374213 138.475944 
L 141.459959 155.670147 
L 141.502832 136.336069 
L 141.588578 138.729669 
L 141.76007 138.932035 
L 141.845816 156.196998 
L 141.888689 139.082929 
L 141.974435 139.187422 
L 142.017308 139.236094 
L 142.06018 136.980304 
L 142.145926 156.605228 
L 142.188799 137.129511 
L 142.274545 139.542054 
L 142.403164 139.694847 
L 142.446037 28.917273 
L 142.48891 139.746265 
L 142.703275 140.000686 
L 142.746148 137.724398 
L 142.789021 140.100672 
L 143.132005 140.507413 
L 143.174878 28.917273 
L 143.217751 140.558352 
L 143.34637 140.71093 
L 143.389243 158.159948 
L 143.432116 140.810706 
L 143.560735 140.963892 
L 143.603608 138.665975 
L 143.646481 141.066899 
L 143.860846 141.320809 
L 143.903719 139.012151 
L 143.946592 141.420803 
L 143.989465 141.473327 
L 144.032338 139.164486 
L 144.075211 141.579364 
L 144.118084 141.63349 
L 144.160957 159.205605 
L 144.20383 141.742101 
L 144.246703 141.795007 
L 144.289576 159.387284 
L 144.332449 141.899262 
L 144.375322 141.951567 
L 144.418195 159.568586 
L 144.461068 28.917273 
L 144.503941 142.05274 
L 144.589687 142.155359 
L 144.675433 159.861603 
L 144.761179 139.973776 
L 144.804052 160.036143 
L 144.846925 140.073136 
L 144.889798 140.122739 
L 144.975544 142.609669 
L 145.018417 140.269904 
L 145.06129 142.711872 
L 145.104163 142.763227 
L 145.147036 140.418091 
L 145.189909 142.862788 
L 145.232782 142.912274 
L 145.275655 28.917273 
L 145.318528 142.961766 
L 145.361401 140.611658 
L 145.404274 143.059198 
L 145.49002 160.898376 
L 145.575766 140.849311 
L 145.618639 161.068513 
L 145.661512 140.946305 
L 145.747258 143.451774 
L 145.790131 141.088406 
L 145.833004 143.549373 
L 145.875877 143.59882 
L 145.91875 141.23279 
L 145.961623 143.696631 
L 146.090242 143.84334 
L 146.133115 141.471128 
L 146.175988 143.941707 
L 146.304607 144.088066 
L 146.34748 141.709831 
L 146.390353 144.186836 
L 146.561845 144.381634 
L 146.604718 141.995687 
L 146.647591 144.477814 
L 146.733337 144.574987 
L 146.819083 162.63503 
L 146.861956 142.278055 
L 146.947702 144.8124 
L 146.990575 142.403963 
L 147.033448 144.888989 
L 147.376432 145.199997 
L 147.419305 28.917273 
L 147.462178 142.786294 
L 147.505051 145.278119 
L 147.547924 142.862788 
L 147.590797 163.431846 
L 147.63367 145.398542 
L 147.676543 142.978529 
L 147.719416 145.476558 
L 147.762289 143.055713 
L 147.890908 145.633475 
L 148.0624 145.792863 
L 148.105273 143.361027 
L 148.148146 28.917273 
L 148.191019 164.039415 
L 148.233892 145.909838 
L 148.319638 145.990246 
L 148.448257 146.107778 
L 148.49113 164.367283 
L 148.534003 146.185356 
L 148.576876 143.745317 
L 148.619749 146.262966 
L 148.662622 146.301374 
L 148.705495 164.598392 
L 148.748368 146.377574 
L 148.791241 146.418232 
L 148.91986 164.836881 
L 148.962733 144.081079 
L 149.005606 146.611092 
L 149.091352 165.028642 
L 149.134225 144.233536 
L 149.219971 144.304714 
L 149.262844 144.34222 
L 149.305717 165.258236 
L 149.34859 146.913776 
L 149.391463 146.951643 
L 149.434336 165.399523 
L 149.477208 28.917273 
L 149.520081 147.027371 
L 149.562954 144.561625 
L 149.605827 144.596615 
L 149.6487 147.138769 
L 149.691573 165.629427 
L 149.734446 147.213913 
L 149.905938 147.360398 
L 149.948811 165.906606 
L 149.991684 144.926413 
L 150.034557 144.960337 
L 150.07743 147.513082 
L 150.120303 166.087757 
L 150.163176 145.071212 
L 150.291795 147.699938 
L 150.334668 145.213699 
L 150.463287 166.468335 
L 150.50616 147.88951 
L 150.591906 147.96276 
L 150.634779 166.655716 
L 150.677652 148.041191 
L 150.806271 148.146547 
L 150.849144 145.650396 
L 150.892017 145.685529 
L 150.977763 148.290306 
L 151.020636 28.917273 
L 151.063509 148.323844 
L 151.106382 148.360604 
L 151.149255 167.138886 
L 151.192128 148.432372 
L 151.235001 145.929975 
L 151.277874 148.504796 
L 151.36362 148.577407 
L 151.406493 146.066518 
L 151.449366 148.647777 
L 151.492239 146.136884 
L 151.535112 167.535246 
L 151.577985 28.917273 
L 151.620858 148.756436 
L 151.749477 167.722147 
L 151.878096 167.870224 
L 151.963842 146.497669 
L 152.049588 168.056311 
L 152.092461 149.163516 
L 152.178207 149.2337 
L 152.306826 149.341788 
L 152.349699 28.917273 
L 152.392572 146.812425 
L 152.478318 149.449251 
L 152.521191 168.495963 
L 152.564064 149.520653 
L 152.821302 149.729137 
L 152.864175 147.186932 
L 152.907048 149.795587 
L 152.949921 168.925727 
L 152.992794 149.864156 
L 153.07854 149.934535 
L 153.121413 147.38659 
L 153.164286 169.140861 
L 153.207159 147.457141 
L 153.250032 147.488807 
L 153.335778 150.142844 
L 153.378651 28.917273 
L 153.421524 150.178713 
L 153.464397 147.628205 
L 153.50727 150.248188 
L 153.550143 147.697047 
L 153.678762 150.390779 
L 153.721635 147.83237 
L 153.764508 150.462104 
L 153.850254 150.531809 
L 153.893127 169.849469 
L 153.936 150.603987 
L 153.978873 150.641372 
L 154.021746 28.917273 
L 154.064619 150.675197 
L 154.278984 150.851683 
L 154.321857 28.917273 
L 154.36473 150.888291 
L 154.407603 148.317874 
L 154.450476 148.350603 
L 154.493349 150.994092 
L 154.536222 148.41737 
L 154.579095 170.475168 
L 154.621968 148.488994 
L 154.664841 148.52206 
L 154.79346 170.702528 
L 154.836333 151.269998 
L 154.879206 151.304065 
L 154.922079 170.823186 
L 154.964952 151.367627 
L 155.007825 151.399747 
L 155.050698 170.948433 
L 155.093571 28.917273 
L 155.136444 148.843978 
L 155.179317 171.030868 
L 155.22219 151.528253 
L 155.307936 151.590234 
L 155.393682 171.239053 
L 155.479428 149.094946 
L 155.522301 151.750651 
L 155.608047 171.446705 
L 155.693793 149.250856 
L 155.736666 151.911825 
L 155.779539 171.608899 
L 155.822412 151.978966 
L 155.865285 152.007548 
L 155.993904 171.817885 
L 156.036777 149.500259 
L 156.122523 152.201241 
L 156.165396 152.231814 
L 156.208269 149.620258 
L 156.251142 152.294456 
L 156.336888 152.357266 
L 156.379761 172.175669 
L 156.422634 152.421569 
L 156.465507 152.452344 
L 156.594126 172.3835 
L 156.636999 152.581987 
L 156.679872 152.614085 
L 156.722745 172.510865 
L 156.765618 152.678929 
L 156.937109 152.802618 
L 156.979982 172.75258 
L 157.022855 152.866375 
L 157.065728 152.900137 
L 157.108601 150.268003 
L 157.151474 152.961779 
L 157.194347 172.953083 
L 157.23722 153.025239 
L 157.365839 153.120535 
L 157.408712 150.481762 
L 157.451585 153.182558 
L 157.66595 153.338159 
L 157.708823 28.917273 
L 157.751696 150.697475 
L 157.837442 153.433723 
L 157.880315 150.789692 
L 157.923188 173.588161 
L 157.966061 150.854288 
L 158.09468 153.624806 
L 158.137553 150.976667 
L 158.180426 173.826048 
L 158.223299 153.720632 
L 158.480537 153.907467 
L 158.566283 174.190156 
L 158.609156 154.004224 
L 158.694902 154.065447 
L 158.737775 151.402351 
L 158.780648 154.126362 
L 158.866394 154.187291 
L 158.909267 174.503002 
L 158.95214 154.252517 
L 159.037886 154.313463 
L 159.080759 151.644078 
L 159.123632 174.69875 
L 159.166505 154.406902 
L 159.295124 154.501697 
L 159.337997 174.901368 
L 159.38087 154.567485 
L 159.423743 154.59635 
L 159.466616 151.921947 
L 159.509489 154.659026 
L 159.552362 151.981733 
L 159.680981 154.780968 
L 159.8096 175.330191 
L 159.852473 154.902292 
L 159.895346 154.935647 
L 159.938219 175.444525 
L 159.981092 154.996091 
L 160.066838 155.056225 
L 160.109711 152.366759 
L 160.152584 155.115865 
L 160.195457 28.917273 
L 160.23833 155.146441 
L 160.281203 175.711601 
L 160.324076 155.208913 
L 160.452695 155.296539 
L 160.538441 175.945269 
L 160.581314 155.388812 
L 160.624187 155.422233 
L 160.66706 176.059147 
L 160.709933 152.751332 
L 160.795679 155.542351 
L 160.838552 152.838509 
L 160.881425 155.601941 
L 160.924298 176.287577 
L 160.967171 155.662365 
L 161.010044 155.694315 
L 161.052917 152.984736 
L 161.09579 155.753944 
L 161.138663 155.782092 
L 161.181536 153.073621 
L 161.224409 153.101177 
L 161.267282 176.587791 
L 161.310155 155.890617 
L 161.481647 155.972642 
L 161.610266 176.799674 
L 161.653139 156.053878 
L 161.738885 156.096155 
L 161.781758 156.118881 
L 161.824631 176.92516 
L 161.867504 156.159674 
L 161.996123 156.21342 
L 162.038996 153.481851 
L 162.081869 156.248429 
L 162.167615 156.283944 
L 162.210488 153.550364 
L 162.253361 156.319626 
L 162.553472 156.445115 
L 162.596345 28.917273 
L 162.639218 153.705674 
L 162.767837 156.515863 
L 162.896456 156.572005 
L 162.939329 153.82522 
L 162.982202 156.607223 
L 163.025075 177.551328 
L 163.067948 156.643763 
L 163.196567 156.696109 
L 163.23944 177.672868 
L 163.282313 156.734997 
L 163.368059 156.770414 
L 163.410932 154.020348 
L 163.453805 156.805657 
L 163.582424 156.859853 
L 163.625297 154.106771 
L 163.66817 177.906039 
L 163.711043 156.915069 
L 163.753916 154.160278 
L 163.796789 156.950335 
L 163.925408 157.003561 
L 163.968281 154.247576 
L 164.011154 157.039508 
L 164.0969 157.075781 
L 164.139773 178.158442 
L 164.182646 154.335716 
L 164.225519 28.917273 
L 164.268391 157.1297 
L 164.654248 157.288882 
L 164.697121 154.522791 
L 164.739994 157.32468 
L 164.82574 157.360499 
L 164.868613 178.534068 
L 164.911486 157.396157 
L 164.997232 157.43181 
L 165.125851 178.683561 
L 165.211597 154.734094 
L 165.25447 157.540134 
L 165.340216 157.575984 
L 165.383089 178.82594 
L 165.425962 157.61216 
L 165.640327 157.697542 
L 165.6832 178.995227 
L 165.726073 157.733736 
L 165.811819 157.769279 
L 165.854692 179.093238 
L 165.897565 157.805479 
L 165.940438 155.02764 
L 165.983311 179.170377 
L 166.026184 157.862214 
L 166.069057 157.876398 
L 166.11193 179.24592 
L 166.154803 155.113061 
L 166.197676 157.933493 
L 166.240549 28.917273 
L 166.283422 157.948016 
L 166.326295 157.967205 
L 166.369168 155.180817 
L 166.412041 157.999268 
L 166.454914 158.0158 
L 166.497787 155.228583 
L 166.54066 158.049359 
L 166.583533 155.259834 
L 166.712152 158.1145 
L 166.797898 158.146743 
L 166.840771 155.3564 
L 166.883644 158.178662 
L 166.926517 158.196529 
L 166.96939 179.666918 
L 167.012263 158.230797 
L 167.140882 158.278926 
L 167.183755 155.487082 
L 167.226628 158.311182 
L 167.312374 158.344614 
L 167.355247 179.872851 
L 167.39812 158.378732 
L 167.483866 158.411994 
L 167.526739 155.613198 
L 167.569612 158.445118 
L 167.612485 155.643494 
L 167.655358 28.917273 
L 167.698231 158.476894 
L 167.783977 158.507998 
L 167.82685 155.706909 
L 167.869723 158.538789 
L 167.955469 158.569401 
L 167.998342 155.768513 
L 168.041215 158.601525 
L 168.169834 158.649558 
L 168.212707 155.846706 
L 168.25558 180.298963 
L 168.298453 28.917273 
L 168.341326 158.701111 
L 168.384199 158.715168 
L 168.512818 180.421715 
L 168.555691 158.78097 
L 168.641437 158.815303 
L 168.68431 156.007459 
L 168.727183 156.021048 
L 168.770056 158.864544 
L 168.898675 180.620611 
L 168.941548 156.104288 
L 168.984421 28.917273 
L 169.027294 180.665189 
L 169.070167 158.966563 
L 169.155913 28.917273 
L 169.198786 180.713938 
L 169.284532 159.016339 
L 169.413151 159.065772 
L 169.456024 180.848292 
L 169.498897 156.265197 
L 169.627516 159.145415 
L 169.670389 159.16318 
L 169.713262 156.34269 
L 169.756135 159.194533 
L 169.799008 159.212145 
L 169.841881 156.388672 
L 169.884754 181.063657 
L 169.927627 159.258771 
L 169.9705 159.278906 
L 170.013373 156.452757 
L 170.056246 159.310272 
L 170.184865 159.359101 
L 170.227738 181.233767 
L 170.270611 159.392654 
L 170.356357 159.426229 
L 170.39923 181.327134 
L 170.442103 159.458793 
L 170.484976 159.474228 
L 170.527849 181.397632 
L 170.570722 28.917273 
L 170.613595 181.422715 
L 170.699341 156.696949 
L 170.742214 156.711237 
L 170.870833 159.6062 
L 171.213817 159.737239 
L 171.25669 181.743847 
L 171.299563 159.771179 
L 171.342436 156.931708 
L 171.385309 156.949335 
L 171.513928 159.850841 
L 171.599674 159.884299 
L 171.642546 181.933873 
L 171.685419 159.917079 
L 171.771165 159.946009 
L 171.814038 182.02 
L 171.856911 159.976773 
L 172.114149 160.060711 
L 172.157022 28.917273 
L 172.199895 157.214613 
L 172.242768 160.091151 
L 172.328514 182.234628 
L 172.371387 157.273558 
L 172.457133 157.300198 
L 172.585752 160.208453 
L 172.714371 160.252386 
L 172.757244 157.396817 
L 172.800117 160.279823 
L 172.928736 160.323765 
L 173.014482 182.540473 
L 173.100228 157.512471 
L 173.143101 160.396017 
L 173.400339 160.483949 
L 173.443212 157.622828 
L 173.486085 160.511243 
L 173.571831 160.53888 
L 173.614704 157.679528 
L 173.657577 160.568872 
L 173.70045 182.836968 
L 173.743323 160.59887 
L 173.786196 160.61269 
L 173.829069 28.917273 
L 173.871942 160.628875 
L 173.914815 160.640509 
L 173.957688 157.777286 
L 174.000561 160.67051 
L 174.172053 160.72565 
L 174.214926 157.860545 
L 174.257799 160.752639 
L 174.343545 160.782651 
L 174.386418 157.912785 
L 174.429291 160.810653 
L 174.472164 160.823818 
L 174.515037 157.954019 
L 174.55791 157.96922 
L 174.686529 160.895005 
L 174.729402 160.906824 
L 174.772275 158.036669 
L 174.815148 160.936178 
L 174.858021 158.062727 
L 174.900894 160.965214 
L 174.943767 183.35074 
L 174.98664 160.994919 
L 175.029513 161.006056 
L 175.072386 28.917273 
L 175.115259 161.021921 
L 175.158132 158.146743 
L 175.201005 161.04859 
L 175.243878 28.917273 
L 175.286751 158.174308 
L 175.41537 161.10685 
L 175.458243 158.226614 
L 175.501116 161.133698 
L 175.629735 161.176258 
L 175.672608 158.29581 
L 175.715481 161.202943 
L 175.801227 183.684745 
L 175.8441 161.246189 
L 175.886973 183.721762 
L 175.929846 183.746329 
L 175.972719 161.288091 
L 176.058465 161.312082 
L 176.144211 161.337435 
L 176.27283 183.884356 
L 176.358576 183.930017 
L 176.401449 161.417381 
L 176.444322 161.431921 
L 176.572941 184.028331 
L 176.615814 161.487217 
L 176.70156 161.510209 
L 176.744433 158.618768 
L 176.787306 161.532198 
L 176.830179 161.545391 
L 176.873052 184.146693 
L 176.915925 161.570759 
L 177.044544 161.605943 
L 177.087417 158.709652 
L 177.13029 161.627594 
L 177.173163 161.640795 
L 177.216036 158.742967 
L 177.258909 161.662792 
L 177.301782 161.675983 
L 177.387528 184.350311 
L 177.430401 161.713209 
L 177.516147 161.735217 
L 177.55902 161.748593 
L 177.601893 158.849471 
L 177.644766 184.446934 
L 177.687639 161.785988 
L 177.859131 161.830344 
L 177.902004 28.917273 
L 177.944877 161.843552 
L 177.98775 184.568596 
L 178.030623 161.868948 
L 178.202115 161.91434 
L 178.244988 184.667511 
L 178.287861 28.917273 
L 178.330734 159.023711 
L 178.459353 161.974291 
L 178.502226 159.068297 
L 178.545099 161.999029 
L 178.630845 162.020714 
L 178.716591 184.839677 
L 178.759464 159.138865 
L 178.84521 162.083742 
L 178.888083 162.09289 
L 178.930956 159.184304 
L 178.973829 162.118319 
L 179.016701 162.127292 
L 179.059574 159.218189 
L 179.102447 162.152208 
L 179.231066 185.039741 
L 179.273939 162.203064 
L 179.316812 185.080818 
L 179.359685 162.226804 
L 179.445431 162.24884 
L 179.57405 185.185428 
L 179.616923 159.370347 
L 179.659796 162.308539 
L 179.702669 28.917273 
L 179.745542 162.321765 
L 179.788415 185.256923 
L 179.831288 28.917273 
L 179.874161 162.346866 
L 179.959907 162.367224 
L 180.00278 28.917273 
L 180.045653 162.380456 
L 180.088526 185.341142 
L 180.131399 162.400477 
L 180.174272 28.917273 
L 180.217145 162.416764 
L 180.43151 162.472072 
L 180.474383 185.468544 
L 180.517256 162.498542 
L 180.560129 162.50839 
L 180.603002 159.587734 
L 180.645875 162.534703 
L 180.688748 162.543361 
L 180.774494 185.591207 
L 180.817367 159.647527 
L 180.903113 162.603448 
L 180.945986 162.616689 
L 181.031732 185.695103 
L 181.074605 162.655925 
L 181.117478 185.731643 
L 181.160351 162.680538 
L 181.246097 162.701604 
L 181.374716 185.838175 
L 181.417589 162.752388 
L 181.503335 162.774645 
L 181.546208 159.845628 
L 181.589081 185.924615 
L 181.631954 159.869343 
L 181.760573 162.846338 
L 181.803446 159.912039 
L 181.846319 162.868088 
L 181.889192 186.041561 
L 181.932065 162.891545 
L 181.974938 162.904456 
L 182.017811 186.094603 
L 182.060684 162.928427 
L 182.103557 159.994767 
L 182.189303 160.014284 
L 182.275049 162.986731 
L 182.317922 160.04809 
L 182.360795 163.00952 
L 182.446541 163.029921 
L 182.489414 186.268591 
L 182.532287 163.056444 
L 182.57516 163.068009 
L 182.618033 28.917273 
L 182.660906 163.080937 
L 182.703779 163.09183 
L 182.832398 186.389395 
L 182.875271 160.18825 
L 182.918144 186.431397 
L 182.961017 163.165986 
L 183.00389 163.176542 
L 183.046763 186.478039 
L 183.089636 160.247832 
L 183.132509 160.257426 
L 183.261128 163.248004 
L 183.304001 28.917273 
L 183.346874 163.256844 
L 183.43262 163.28016 
L 183.518366 163.289692 
L 183.561239 28.917273 
L 183.689858 163.323911 
L 183.732731 163.337014 
L 183.818477 186.719124 
L 183.86135 163.371397 
L 183.904223 186.75174 
L 183.947096 28.917273 
L 183.989969 160.437446 
L 184.032842 160.445866 
L 184.075715 163.419589 
L 184.204334 186.857722 
L 184.247207 163.467273 
L 184.332953 163.487204 
L 184.547318 163.545799 
L 184.590191 160.590441 
L 184.633064 163.566914 
L 184.675937 163.579695 
L 184.71881 160.620782 
L 184.761683 163.599463 
L 184.804556 163.612413 
L 184.847429 160.655509 
L 184.890302 163.633538 
L 184.933175 160.678606 
L 185.061794 163.679211 
L 185.104667 160.721269 
L 185.14754 163.700346 
L 185.276159 28.917273 
L 185.404778 163.745695 
L 185.447651 187.263556 
L 185.490524 163.770241 
L 185.790635 163.848691 
L 185.833508 28.917273 
L 185.876381 163.858912 
L 185.919254 187.413759 
L 185.962127 163.882109 
L 186.005 160.917276 
L 186.047873 163.905309 
L 186.090746 163.917928 
L 186.176492 187.517034 
L 186.305111 160.998293 
L 186.390857 163.997099 
L 186.433729 161.031542 
L 186.476602 187.624641 
L 186.519475 164.0331 
L 186.605221 164.054443 
L 186.648094 161.087084 
L 186.690967 164.075262 
L 186.73384 164.087037 
L 186.776713 187.733565 
L 186.819586 164.109566 
L 186.862459 161.140451 
L 186.905332 164.135174 
L 186.948205 161.162232 
L 187.076824 187.843299 
L 187.119697 164.194253 
L 187.16257 187.883474 
L 187.205443 164.217132 
L 187.419808 164.268547 
L 187.462681 161.294174 
L 187.505554 164.292798 
L 187.548427 161.313779 
L 187.634173 164.324061 
L 187.677046 161.343859 
L 187.719919 161.355865 
L 187.805665 164.365923 
L 187.848538 161.38594 
L 187.891411 164.387789 
L 187.977157 164.40795 
L 188.02003 161.429557 
L 188.105776 188.21258 
L 188.148649 164.454782 
L 188.191522 28.917273 
L 188.234395 164.464353 
L 188.320141 164.488972 
L 188.363014 161.503791 
L 188.405887 164.509482 
L 188.534506 164.5406 
L 188.577379 161.558067 
L 188.620252 161.567372 
L 188.663125 28.917273 
L 188.705998 164.57171 
L 188.834617 164.604372 
L 188.87749 161.619986 
L 188.920363 164.62832 
L 189.048982 164.660299 
L 189.091855 188.527158 
L 189.134728 164.683227 
L 189.177601 164.692286 
L 189.220474 188.56893 
L 189.263347 164.716068 
L 189.349093 164.735234 
L 189.391966 161.746045 
L 189.434839 161.757215 
L 189.563458 164.787928 
L 189.606331 161.797161 
L 189.649204 164.810515 
L 189.863569 164.861177 
L 189.906442 161.86828 
L 189.949315 164.883943 
L 189.992188 188.833503 
L 190.035061 164.905863 
L 190.206553 164.947289 
L 190.249426 188.923117 
L 190.292299 164.96664 
L 190.378045 164.990958 
L 190.420918 161.993939 
L 190.463791 162.001731 
L 190.506664 189.009031 
L 190.549537 165.034292 
L 190.59241 162.033585 
L 190.635283 165.054324 
L 190.721029 165.075574 
L 190.763902 189.096467 
L 190.806775 162.086964 
L 190.849648 162.096277 
L 190.978267 165.139817 
L 191.149759 165.18162 
L 191.192632 162.176281 
L 191.235505 165.199957 
L 191.278378 165.21127 
L 191.321251 162.20782 
L 191.364124 189.301331 
L 191.406997 165.24418 
L 191.492743 165.264747 
L 191.535616 162.258341 
L 191.621362 189.39521 
L 191.664235 162.292251 
L 191.749981 165.328183 
L 191.792854 165.339507 
L 191.835727 162.331942 
L 191.8786 165.361961 
L 192.178711 165.434172 
L 192.264457 189.613027 
L 192.393076 162.465116 
L 192.435949 189.674063 
L 192.478822 165.510158 
L 192.564568 165.531786 
L 192.607441 189.737729 
L 192.650314 165.549805 
L 192.778933 165.585836 
L 192.864679 28.917273 
L 192.993298 189.838884 
L 193.036171 162.59972 
L 193.121917 165.650709 
L 193.16479 162.633331 
L 193.293409 189.949446 
L 193.336282 165.705997 
L 193.379155 165.717674 
L 193.422028 189.995553 
L 193.464901 162.708393 
L 193.507774 162.7196 
L 193.550647 165.759736 
L 193.59352 190.053674 
L 193.636393 165.783605 
L 193.722139 165.803537 
L 193.765012 190.117808 
L 193.807884 165.824832 
L 193.850757 162.80267 
L 193.89363 165.847506 
L 194.022249 165.879123 
L 194.065122 28.917273 
L 194.107995 190.219092 
L 194.150868 190.242356 
L 194.193741 28.917273 
L 194.236614 165.91451 
L 194.279487 162.890021 
L 194.32236 165.935134 
L 194.365233 190.297155 
L 194.408106 162.921462 
L 194.493852 165.978611 
L 194.536725 162.952059 
L 194.579598 190.37673 
L 194.622471 166.011439 
L 194.879709 166.077792 
L 194.922582 163.047946 
L 194.965455 166.097386 
L 195.008328 190.52094 
L 195.051201 166.120779 
L 195.351312 166.196272 
L 195.394185 163.163261 
L 195.437058 166.217431 
L 195.479931 166.227576 
L 195.522804 163.193884 
L 195.565677 166.250456 
L 195.60855 166.258365 
L 195.694296 190.755247 
L 195.780042 190.786822 
L 195.822915 163.263317 
L 195.951534 166.339242 
L 196.080153 166.366775 
L 196.123026 163.327314 
L 196.165899 166.385016 
L 196.208772 190.9224 
L 196.251645 166.406021 
L 196.294518 163.365443 
L 196.337391 166.423224 
L 196.380264 166.433553 
L 196.423137 163.392169 
L 196.46601 163.399833 
L 196.594629 166.480387 
L 196.637502 166.490368 
L 196.680375 191.076303 
L 196.723248 166.510697 
L 196.766121 166.518791 
L 196.808994 163.472376 
L 196.851867 166.536868 
L 197.151978 166.601288 
L 197.194851 163.554659 
L 197.237724 166.621958 
L 197.366343 166.649336 
L 197.494962 191.343664 
L 197.580708 163.638827 
L 197.623581 163.64888 
L 197.7522 166.734976 
L 197.795073 191.442769 
L 197.837946 166.758421 
L 197.880819 166.765314 
L 197.923692 163.713651 
L 197.966565 191.50609 
L 198.009438 163.729154 
L 198.138057 166.825303 
L 198.309549 166.862192 
L 198.395295 191.651266 
L 198.438168 166.889773 
L 198.481041 28.917273 
L 198.523914 166.901508 
L 198.60966 166.922195 
L 198.652533 163.861982 
L 198.695406 166.939449 
L 198.781152 166.958417 
L 198.866898 191.79557 
L 198.909771 166.988776 
L 198.952644 166.998949 
L 198.995517 191.842934 
L 199.03839 167.016368 
L 199.081263 167.028099 
L 199.124136 191.887848 
L 199.167009 167.048806 
L 199.209882 163.9872 
L 199.252755 167.068652 
L 199.295628 164.005974 
L 199.338501 28.917273 
L 199.381374 167.084692 
L 199.595739 167.132838 
L 199.638612 164.069458 
L 199.681485 192.056269 
L 199.724358 167.162527 
L 199.938723 167.210687 
L 199.981596 164.143199 
L 200.024469 164.150032 
L 200.067342 192.177918 
L 200.110215 167.247976 
L 200.153088 167.256268 
L 200.281707 192.251619 
L 200.32458 167.298051 
L 200.410326 167.315323 
L 200.624691 167.364713 
L 200.667564 164.294504 
L 200.710437 167.386137 
L 201.010548 167.45385 
L 201.053421 164.380958 
L 201.096294 167.473896 
L 201.353531 167.532306 
L 201.396404 164.456824 
L 201.439277 167.553742 
L 201.525023 167.572069 
L 201.567896 164.495461 
L 201.610769 167.592815 
L 201.653642 28.917273 
L 201.696515 167.599721 
L 201.739388 192.708984 
L 201.782261 167.623925 
L 201.868007 167.642077 
L 201.91088 192.772223 
L 201.953753 167.663345 
L 202.082372 167.694129 
L 202.125245 28.917273 
L 202.168118 167.704852 
L 202.296737 167.732872 
L 202.33961 164.65141 
L 202.382483 167.752931 
L 202.425356 164.669022 
L 202.468229 192.942308 
L 202.511102 167.78338 
L 202.596848 167.803104 
L 202.682594 193.022278 
L 202.811213 164.758843 
L 202.854086 193.080277 
L 202.896959 167.87733 
L 203.025578 167.907607 
L 203.068451 28.917273 
L 203.111324 193.157248 
L 203.154197 164.830028 
L 203.19707 193.190054 
L 203.239943 167.94413 
L 203.368562 193.258905 
L 203.411435 167.990696 
L 203.454308 168.00177 
L 203.582927 193.335548 
L 203.6258 168.046273 
L 203.711546 168.063939 
L 203.797292 168.085928 
L 203.840165 28.917273 
L 203.883038 168.093202 
L 204.011657 168.124895 
L 204.05453 165.029326 
L 204.097403 165.038225 
L 204.226022 168.17392 
L 204.268895 168.181883 
L 204.397514 193.597889 
L 204.48326 165.128329 
L 204.526133 168.247032 
L 204.611879 168.264009 
L 204.654752 193.683175 
L 204.697625 168.288615 
L 204.740498 168.296242 
L 204.783371 165.195683 
L 204.826244 168.316354 
L 204.869117 168.32744 
L 204.91199 165.22602 
L 204.954863 165.234415 
L 204.997736 168.356558 
L 205.040609 193.815615 
L 205.083482 168.375636 
L 205.126355 165.273326 
L 205.169228 165.283947 
L 205.212101 168.407537 
L 205.254974 165.302464 
L 205.297847 193.898878 
L 205.34072 168.438746 
L 205.640831 168.504288 
L 205.683704 194.030285 
L 205.726577 165.405006 
L 205.855196 168.552689 
L 206.026688 168.589813 
L 206.069561 194.156806 
L 206.112434 168.608378 
L 206.155307 165.499702 
L 206.19818 168.630068 
L 206.241053 168.640133 
L 206.326799 28.917273 
L 206.455418 168.668072 
L 206.584037 168.695672 
L 206.62691 194.312515 
L 206.669783 165.593553 
L 206.712656 168.725169 
L 206.755529 194.351746 
L 206.798402 165.622226 
L 206.841275 168.756249 
L 206.884148 194.400116 
L 206.927021 165.651396 
L 207.012767 168.792883 
L 207.05564 194.46184 
L 207.098513 165.688308 
L 207.227132 168.843751 
L 207.270005 194.536908 
L 207.312878 168.864244 
L 207.355751 28.917273 
L 207.398624 165.743597 
L 207.441497 194.578457 
L 207.48437 28.917273 
L 207.527243 168.89395 
L 207.570116 194.616381 
L 207.612989 168.914608 
L 207.655862 168.922599 
L 207.698735 165.800956 
L 207.741608 168.941368 
L 207.784481 165.821746 
L 207.827354 194.702749 
L 207.870227 165.841669 
L 207.998846 168.999397 
L 208.084592 169.017285 
L 208.213211 194.840456 
L 208.256084 169.061945 
L 208.34183 169.080718 
L 208.556195 169.126951 
L 208.599067 165.998023 
L 208.64194 169.144684 
L 208.899178 169.199621 
L 208.942051 195.075203 
L 208.984924 166.083287 
L 209.027797 169.230577 
L 209.156416 195.154258 
L 209.199289 166.136246 
L 209.285035 166.156538 
L 209.370781 169.320324 
L 209.413654 195.251294 
L 209.456527 169.3445 
L 209.628019 169.388517 
L 209.670892 195.356017 
L 209.713765 169.409048 
L 209.756638 166.277633 
L 209.799511 169.435155 
L 209.842384 195.423681 
L 209.885257 169.459164 
L 210.013876 169.490842 
L 210.056749 195.504945 
L 210.099622 169.515221 
L 210.142495 166.376762 
L 210.185368 169.5375 
L 210.228241 195.573604 
L 210.271114 166.406021 
L 210.399733 169.590431 
L 210.485479 169.610632 
L 210.528352 166.468335 
L 210.571225 195.69012 
L 210.614098 169.641623 
L 210.656971 166.49588 
L 210.699844 169.660432 
L 210.742717 195.749252 
L 210.78559 169.682028 
L 210.828463 169.692315 
L 210.871336 166.547883 
L 210.914209 169.711289 
L 211.042828 169.738651 
L 211.085701 28.917273 
L 211.128574 195.862202 
L 211.171447 169.761992 
L 211.257193 169.781683 
L 211.300066 195.926929 
L 211.342939 166.645892 
L 211.428685 169.822807 
L 211.471558 195.986311 
L 211.514431 166.684836 
L 211.64305 169.873002 
L 211.728796 169.893388 
L 211.771669 28.917273 
L 211.814542 169.902983 
L 211.857415 166.750313 
L 211.900288 166.759452 
L 212.028907 169.951096 
L 212.200399 169.991027 
L 212.243272 28.917273 
L 212.286145 170.001323 
L 212.414764 170.029741 
L 212.457637 166.875296 
L 212.50051 170.048747 
L 212.714875 170.09898 
L 212.757748 28.917273 
L 212.800621 170.108401 
L 212.843494 196.394644 
L 212.886367 170.128996 
L 212.972113 170.149406 
L 213.014986 196.453737 
L 213.057859 170.169819 
L 213.100732 170.178723 
L 213.186478 196.519759 
L 213.229351 170.213101 
L 213.315097 170.232292 
L 213.443716 170.260743 
L 213.486589 196.619005 
L 213.529462 28.917273 
L 213.572335 196.641471 
L 213.658081 196.681027 
L 213.700954 170.317822 
L 213.7867 170.337027 
L 214.043938 170.396748 
L 214.086811 196.823945 
L 214.129684 167.237614 
L 214.258303 170.446006 
L 214.429795 170.484426 
L 214.472668 167.315664 
L 214.515541 170.503815 
L 214.558414 196.978088 
L 214.601287 170.524439 
L 214.687033 170.543122 
L 214.815652 197.065392 
L 214.858525 167.403066 
L 214.944271 167.422069 
L 214.987144 170.613201 
L 215.115763 197.179258 
L 215.158636 197.199658 
L 215.201509 28.917273 
L 215.244382 167.482884 
L 215.373001 170.695886 
L 215.415874 170.705842 
L 215.458747 28.917273 
L 215.50162 170.716162 
L 215.544493 197.298953 
L 215.587366 28.917273 
L 215.630239 167.551326 
L 215.673112 170.747635 
L 215.715985 167.566016 
L 215.801731 170.76581 
L 215.844604 28.917273 
L 215.973223 170.797295 
L 216.016095 197.413117 
L 216.058968 167.624962 
L 216.101841 170.827724 
L 216.144714 167.647791 
L 216.187587 167.657473 
L 216.316206 170.878097 
L 216.359079 167.695864 
L 216.401952 167.704511 
L 216.530571 170.921136 
L 216.573444 167.739089 
L 216.616317 170.942143 
L 216.65919 170.951767 
L 216.744936 197.649096 
L 216.787809 167.786496 
L 216.873555 171.000583 
L 217.08792 171.047142 
L 217.130793 167.859674 
L 217.259412 197.817775 
L 217.302285 171.097216 
L 217.345158 171.104562 
L 217.388031 197.860404 
L 217.430904 171.129257 
L 217.51665 171.150092 
L 217.559523 197.923278 
L 217.602396 171.166191 
L 217.645269 167.979267 
L 217.688142 171.190722 
L 217.816761 171.220845 
L 217.859634 168.029308 
L 217.902507 171.241154 
L 217.988253 171.259029 
L 218.031126 168.067575 
L 218.073999 171.28057 
L 218.116872 168.086442 
L 218.245491 171.320347 
L 218.288364 198.163368 
L 218.331237 171.341723 
L 218.459856 171.371513 
L 218.502729 168.174961 
L 218.545602 171.391844 
L 218.588475 168.195056 
L 218.631348 198.278463 
L 218.674221 171.423034 
L 218.717094 171.433554 
L 218.759967 198.326374 
L 218.80284 171.453894 
L 218.845713 171.46126 
L 218.888586 168.264709 
L 218.931459 171.484571 
L 218.974332 171.49492 
L 219.060078 198.431103 
L 219.102951 171.527698 
L 219.145824 28.917273 
L 219.188697 171.537173 
L 219.23157 171.547175 
L 219.274443 28.917273 
L 219.317316 171.557689 
L 219.445935 198.543603 
L 219.574554 168.40718 
L 219.703173 171.65205 
L 219.831792 171.683986 
L 219.874665 168.477412 
L 219.917538 171.704334 
L 220.08903 171.746621 
L 220.131903 198.778042 
L 220.174776 171.769615 
L 220.346268 171.811028 
L 220.389141 198.867455 
L 220.432014 171.832802 
L 220.474887 171.84369 
L 220.51776 168.633361 
L 220.560633 168.643083 
L 220.689252 171.896003 
L 221.032236 171.979593 
L 221.075109 168.764231 
L 221.117982 168.772558 
L 221.246601 172.031414 
L 221.37522 172.062851 
L 221.418093 199.220363 
L 221.460966 168.857475 
L 221.589585 172.115747 
L 221.675331 172.138053 
L 221.718204 168.917391 
L 221.761077 199.34017 
L 221.80395 172.170572 
L 221.846823 168.95005 
L 221.932569 168.969855 
L 221.975442 172.210122 
L 222.018315 199.430539 
L 222.061188 169.001823 
L 222.104061 28.917273 
L 222.146934 199.464297 
L 222.189807 199.485637 
L 222.23268 172.266911 
L 222.318426 172.289403 
L 222.361299 199.546946 
L 222.404172 169.076898 
L 222.447045 172.321943 
L 222.489918 169.096707 
L 222.532791 169.107137 
L 222.66141 172.375056 
L 222.704283 199.66961 
L 222.747156 169.15894 
L 222.790029 172.403717 
L 222.832902 199.713872 
L 222.875775 172.429587 
L 222.918648 172.440493 
L 222.961521 199.765917 
L 223.004394 172.458436 
L 223.047267 172.472509 
L 223.09014 199.812724 
L 223.133013 172.495212 
L 223.518869 172.589891 
L 223.604615 169.366593 
L 223.647488 200.011879 
L 223.776107 169.409394 
L 223.81898 200.073701 
L 223.861853 172.67722 
L 223.904726 172.687777 
L 223.947599 169.451171 
L 223.990472 200.137286 
L 224.033345 172.717358 
L 224.161964 172.752226 
L 224.204837 200.213131 
L 224.24771 172.773898 
L 224.290583 172.784816 
L 224.333456 169.545153 
L 224.376329 172.806301 
L 224.419202 169.563963 
L 224.462075 169.573708 
L 224.590694 172.857401 
L 224.719313 172.889115 
L 224.762186 200.407133 
L 224.805059 172.911665 
L 224.847932 172.922772 
L 224.890805 200.456573 
L 224.933678 172.939522 
L 224.976551 172.954324 
L 225.019424 200.503696 
L 225.062297 172.977239 
L 225.10517 172.988336 
L 225.148043 200.552773 
L 225.190916 169.749621 
L 225.319535 173.041765 
L 225.405281 173.062211 
L 225.448154 169.814099 
L 225.491027 173.083724 
L 225.5339 173.093602 
L 225.576773 200.702767 
L 225.619646 173.115816 
L 225.662519 169.863236 
L 225.705392 173.136983 
L 225.791138 173.157976 
L 225.834011 200.79359 
L 225.876884 173.181073 
L 226.091249 173.230476 
L 226.219868 200.934356 
L 226.262741 200.954251 
L 226.305614 173.289581 
L 226.39136 173.307057 
L 226.434233 170.051539 
L 226.477106 173.330712 
L 226.519979 173.340593 
L 226.605725 201.077149 
L 226.648598 170.10597 
L 226.734344 173.395834 
L 226.82009 201.156384 
L 226.862963 173.428502 
L 226.905836 173.439443 
L 226.948709 201.205377 
L 226.991582 173.462053 
L 227.034455 173.47264 
L 227.077328 170.207163 
L 227.120201 173.491014 
L 227.205947 173.51344 
L 227.291693 201.32644 
L 227.334566 173.543644 
L 227.420312 173.562547 
L 227.548931 201.412971 
L 227.591804 201.431338 
L 227.634677 173.612532 
L 227.720423 173.632142 
L 227.806169 173.651577 
L 227.849042 201.511449 
L 227.891915 173.669782 
L 227.934788 173.679687 
L 227.977661 201.552099 
L 228.020534 173.700362 
L 228.063407 173.710433 
L 228.10628 28.917273 
L 228.149153 170.440754 
L 228.277772 173.748792 
L 228.363518 201.66549 
L 228.406391 173.777249 
L 228.492137 173.79828 
L 228.577883 173.816846 
L 228.620756 201.744499 
L 228.663629 173.837184 
L 228.706502 173.846908 
L 228.749375 170.573176 
L 228.792248 173.865644 
L 228.835121 173.875028 
L 228.877994 170.598691 
L 228.920867 173.894646 
L 229.006613 173.913404 
L 229.049486 28.917273 
L 229.092359 173.923312 
L 229.135232 173.933027 
L 229.178105 170.65655 
L 229.220978 173.95179 
L 229.306724 201.943292 
L 229.435343 28.917273 
L 229.563962 174.020242 
L 229.649708 174.039002 
L 229.692581 202.046663 
L 229.735454 174.059 
L 229.778327 28.917273 
L 229.8212 174.06874 
L 230.164184 174.143076 
L 230.207057 202.188466 
L 230.24993 174.164669 
L 230.335676 174.183792 
L 230.378549 202.24528 
L 230.421422 174.203259 
L 230.464295 170.918515 
L 230.507168 28.917273 
L 230.550041 174.223088 
L 230.635787 174.241681 
L 230.67866 170.954039 
L 230.721533 170.96314 
L 230.764406 202.348767 
L 230.807278 174.280472 
L 230.850151 170.993242 
L 230.893024 202.391301 
L 230.935897 174.308442 
L 231.107389 174.348132 
L 231.150262 202.470325 
L 231.193135 174.366907 
L 231.321754 174.396492 
L 231.364627 171.105786 
L 231.4075 171.114372 
L 231.450373 202.565257 
L 231.493246 174.434594 
L 231.664738 174.473215 
L 231.707611 171.179506 
L 231.750484 174.492186 
L 231.793357 28.917273 
L 231.83623 174.501927 
L 231.879103 174.511504 
L 231.921976 202.694766 
L 231.964849 174.530644 
L 232.007722 171.235901 
L 232.136341 202.76189 
L 232.179214 174.579935 
L 232.222087 202.797629 
L 232.26496 174.600146 
L 232.436452 174.63844 
L 232.479325 171.340146 
L 232.522198 174.657598 
L 232.650817 174.685615 
L 232.69369 28.917273 
L 232.736563 171.386236 
L 232.865182 174.723932 
L 232.993801 174.752321 
L 233.036674 171.450738 
L 233.079547 174.771825 
L 233.208166 174.800224 
L 233.251039 171.497376 
L 233.293912 171.506835 
L 233.379658 174.838198 
L 233.422531 171.53261 
L 233.465404 203.15087 
L 233.508277 174.868004 
L 233.594023 174.887524 
L 233.636896 171.581544 
L 233.679769 174.906882 
L 233.894134 174.955692 
L 233.937007 171.648186 
L 233.97988 174.97452 
L 234.40861 175.071291 
L 234.451483 203.451432 
L 234.494356 175.091725 
L 234.537229 171.780146 
L 234.580102 203.496105 
L 234.622975 175.121916 
L 234.665848 171.808933 
L 234.708721 175.14003 
L 234.751594 175.149802 
L 234.794467 203.564809 
L 234.83734 175.172018 
L 235.137451 175.244518 
L 235.223197 203.710148 
L 235.26607 175.27668 
L 235.308943 203.742458 
L 235.351816 203.760389 
L 235.394689 175.308505 
L 235.480435 175.328763 
L 235.566181 203.838621 
L 235.609054 175.360765 
L 235.6948 175.382459 
L 235.737673 172.061457 
L 235.780546 172.071291 
L 235.909165 175.433138 
L 236.037784 175.464261 
L 236.080657 172.141578 
L 236.12353 175.48543 
L 236.166403 28.917273 
L 236.209276 172.161964 
L 236.252149 204.043462 
L 236.295022 175.515136 
L 236.337895 172.191315 
L 236.380768 175.537201 
L 236.423641 175.548234 
L 236.466514 172.221716 
L 236.509387 175.568152 
L 236.595133 175.588794 
L 236.638006 172.262163 
L 236.680879 175.609621 
L 236.723752 172.282905 
L 236.766625 204.203858 
L 236.809498 175.640408 
L 236.938117 175.67209 
L 236.98099 28.917273 
L 237.023863 175.68205 
L 237.152482 175.713033 
L 237.195355 204.331762 
L 237.238228 172.393343 
L 237.366847 175.765025 
L 237.452593 175.786556 
L 237.495466 172.453858 
L 237.538339 28.917273 
L 237.581212 175.806689 
L 237.881323 175.878995 
L 237.924196 172.544311 
L 237.967069 175.900378 
L 238.009942 175.909811 
L 238.052815 172.574053 
L 238.095688 175.9312 
L 238.181433 175.951323 
L 238.310052 204.681836 
L 238.352925 175.992304 
L 238.438671 176.015835 
L 238.481544 172.676335 
L 238.524417 176.036152 
L 238.56729 176.047196 
L 238.610163 172.707329 
L 238.695909 172.727047 
L 238.738782 28.917273 
L 238.781655 176.089263 
L 238.824528 176.099253 
L 238.910274 204.865741 
L 238.953147 176.131343 
L 239.038893 176.153098 
L 239.081766 176.163077 
L 239.124639 204.93894 
L 239.167512 176.182343 
L 239.253258 176.205528 
L 239.296131 172.860929 
L 239.339004 176.226039 
L 239.42475 176.247795 
L 239.467623 205.048578 
L 239.510496 172.910971 
L 239.596242 176.289893 
L 239.639115 172.942683 
L 239.681988 176.31022 
L 239.724861 176.321104 
L 239.767734 172.973013 
L 239.810607 176.342162 
L 239.896353 176.363224 
L 239.939226 173.013902 
L 239.982099 176.383562 
L 240.024972 205.230752 
L 240.067845 176.405342 
L 240.496575 176.510292 
L 240.539448 205.396197 
L 240.582321 176.531001 
L 240.625194 176.542069 
L 240.668067 205.441587 
L 240.71094 173.197484 
L 240.753813 173.207888 
L 240.882432 176.605826 
L 241.011051 176.637078 
L 241.13967 205.595644 
L 241.268289 173.330357 
L 241.396908 205.693838 
L 241.525527 173.391788 
L 241.611273 176.78573 
L 241.654146 173.422854 
L 241.697019 28.917273 
L 241.739892 176.806115 
L 241.954257 176.856514 
L 241.99713 205.867302 
L 242.040003 176.869918 
L 242.082876 28.917273 
L 242.125749 205.892722 
L 242.168622 205.912576 
L 242.211495 173.52421 
L 242.254368 28.917273 
L 242.297241 205.936203 
L 242.340114 205.95626 
L 242.382987 176.93071 
L 242.42586 205.985853 
L 242.468733 176.94806 
L 242.597352 176.978097 
L 242.725971 206.08101 
L 242.811717 206.108827 
L 242.85459 173.651933 
L 242.897463 206.133859 
L 242.940336 28.917273 
L 242.983209 177.05251 
L 243.068955 177.072189 
L 243.197574 206.214163 
L 243.240447 173.725629 
L 243.28332 177.118346 
L 243.326193 206.257501 
L 243.369066 177.137668 
L 243.583431 177.184197 
L 243.626304 28.917273 
L 243.669177 173.807124 
L 243.754923 177.212122 
L 243.797796 173.834879 
L 243.840669 177.230011 
L 244.055034 177.277638 
L 244.097907 206.462746 
L 244.14078 28.917273 
L 244.183653 177.289802 
L 244.312272 177.325983 
L 244.355145 173.946835 
L 244.398018 177.345853 
L 244.655256 177.407465 
L 244.698129 174.025557 
L 244.741002 177.427347 
L 244.955367 177.479302 
L 244.99824 174.095282 
L 245.041113 177.496141 
L 245.212605 177.539507 
L 245.255478 174.154044 
L 245.298351 177.560645 
L 245.341224 206.821502 
L 245.384097 174.179886 
L 245.469843 174.203081 
L 245.512716 206.876496 
L 245.555589 177.621956 
L 245.941445 177.701549 
L 245.984318 207.004851 
L 246.027191 177.71895 
L 246.241556 177.761622 
L 246.284429 207.085199 
L 246.327302 177.780821 
L 246.413048 177.797682 
L 246.455921 174.403046 
L 246.541667 174.419708 
L 246.670286 177.850418 
L 246.756032 177.85723 
L 246.798905 28.917273 
L 246.884651 207.214638 
L 246.927524 177.884143 
L 247.01327 177.901368 
L 247.056143 174.503346 
L 247.099016 177.919132 
L 247.356254 177.96902 
L 247.399127 174.568933 
L 247.442 207.355126 
L 247.484873 177.996843 
L 247.570619 178.013546 
L 247.613492 207.403839 
L 247.656365 174.619643 
L 247.742111 174.637737 
L 247.87073 178.074399 
L 247.913603 174.671075 
L 247.956476 174.678883 
L 248.085095 178.116414 
L 248.170841 178.133484 
L 248.256587 207.572376 
L 248.342333 174.753025 
L 248.385206 207.608338 
L 248.428079 178.178923 
L 248.513825 178.201188 
L 248.556698 174.794534 
L 248.599571 178.218791 
L 248.642444 178.226158 
L 248.72819 207.703451 
L 248.856809 174.846705 
L 248.899682 174.853101 
L 248.942555 178.275205 
L 248.985428 207.749027 
L 249.028301 178.288502 
L 249.242666 178.319062 
L 249.285539 174.90351 
L 249.328412 178.328401 
L 249.371285 178.337033 
L 249.414158 207.838388 
L 249.457031 178.348355 
L 249.58565 178.366867 
L 249.714269 207.905978 
L 249.757142 28.917273 
L 249.800015 174.969543 
L 249.928634 178.408572 
L 249.971507 207.941779 
L 250.01438 178.422942 
L 250.057253 178.428875 
L 250.100126 175.012152 
L 250.142999 178.441649 
L 250.44311 178.483714 
L 250.485983 175.063655 
L 250.528856 178.493064 
L 250.571729 208.059021 
L 250.614602 178.507459 
L 250.657475 175.087809 
L 250.700348 178.519317 
L 250.828967 178.536052 
L 250.87184 28.917273 
L 250.914713 208.112662 
L 250.957586 175.123702 
L 251.000459 178.555652 
L 251.086205 208.158297 
L 251.129078 175.146439 
L 251.214824 178.586949 
L 251.257697 178.589472 
L 251.30057 208.195937 
L 251.343443 28.917273 
L 251.386316 178.604585 
L 251.429189 178.611419 
L 251.557808 208.247589 
L 251.686427 28.917273 
L 251.7293 208.272822 
L 251.815046 175.229228 
L 251.857919 175.235806 
L 251.986538 178.68159 
L 252.029411 208.330106 
L 252.072284 175.263715 
L 252.200903 178.714702 
L 252.329522 178.731801 
L 252.372395 208.395817 
L 252.415268 178.743493 
L 252.458141 28.917273 
L 252.501014 175.317567 
L 252.543887 175.324149 
L 252.629633 178.765818 
L 252.672506 208.4423 
L 252.715379 175.346725 
L 252.758252 178.785974 
L 252.801125 208.476769 
L 252.843998 178.797317 
L 252.886871 178.80416 
L 252.929744 175.376235 
L 252.972616 178.815859 
L 253.058362 208.529684 
L 253.144108 175.405586 
L 253.186981 178.846999 
L 253.272727 178.856543 
L 253.401346 208.59504 
L 253.444219 208.610677 
L 253.572838 175.464096 
L 253.701457 178.919219 
L 253.74433 208.666025 
L 253.787203 178.930742 
L 253.830076 178.937577 
L 253.872949 208.697717 
L 253.915822 178.942992 
L 254.044441 178.968204 
L 254.087314 208.737429 
L 254.130187 178.976306 
L 254.17306 178.984238 
L 254.215933 208.764312 
L 254.258806 178.998468 
L 254.301679 179.004225 
L 254.344552 208.792608 
L 254.387425 179.015401 
L 254.558917 179.039731 
L 254.60179 175.601429 
L 254.644663 208.846583 
L 254.687536 175.614606 
L 254.773282 179.070535 
L 254.816155 208.884315 
L 254.859028 175.632936 
L 254.987647 179.100095 
L 255.03052 179.105502 
L 255.073393 208.92687 
L 255.116266 179.117396 
L 255.202012 179.129291 
L 255.330631 208.980667 
L 255.373504 175.708753 
L 255.45925 179.166065 
L 255.544996 179.17832 
L 255.587869 175.735461 
L 255.630742 179.187331 
L 255.673615 175.748998 
L 255.802234 179.21401 
L 255.88798 175.777841 
L 255.930853 209.101962 
L 255.973726 175.788879 
L 256.059472 179.249538 
L 256.102345 209.133304 
L 256.145218 175.812209 
L 256.188091 175.8188 
L 256.230964 28.917273 
L 256.273837 179.274234 
L 256.31671 209.171076 
L 256.359583 175.836071 
L 256.445329 179.298038 
L 256.488202 175.853707 
L 256.573948 175.862608 
L 256.616821 209.226535 
L 256.659694 179.327616 
L 256.702567 175.881847 
L 256.74544 179.339529 
L 257.002678 179.374518 
L 257.045551 209.309341 
L 257.088424 179.387317 
L 257.131297 28.917273 
L 257.17417 209.330644 
L 257.217043 175.938506 
L 257.259916 179.404468 
L 257.302789 209.355979 
L 257.345662 179.416017 
L 257.645773 179.459681 
L 257.688646 176.010125 
L 257.731519 179.468524 
L 257.860138 179.488194 
L 257.903011 176.038297 
L 257.945884 176.044884 
L 258.074503 179.515629 
L 258.117376 209.503188 
L 258.160249 179.529154 
L 258.245995 179.542697 
L 258.288868 209.540407 
L 258.331741 179.548833 
L 258.374614 176.101399 
L 258.417487 179.566345 
L 258.546106 179.584572 
L 258.588979 28.917273 
L 258.631852 209.598557 
L 258.674725 209.605801 
L 258.717598 179.602631 
L 258.803344 179.612025 
L 258.846217 179.618165 
L 258.88909 176.166283 
L 258.931963 179.631515 
L 259.017709 179.644881 
L 259.060582 28.917273 
L 259.103455 179.649037 
L 259.146328 179.654092 
L 259.274947 209.723347 
L 259.31782 209.734619 
L 259.360693 179.684616 
L 259.403566 209.754955 
L 259.446439 179.696529 
L 259.575058 209.79341 
L 259.617931 209.802671 
L 259.660804 176.262774 
L 259.703677 209.818184 
L 259.74655 179.739149 
L 259.832296 179.75144 
L 259.875169 176.29292 
L 259.918042 179.764445 
L 259.960915 179.770048 
L 260.003788 176.30969 
L 260.046661 179.779625 
L 260.132407 179.793347 
L 260.17528 209.909426 
L 260.218153 179.806357 
L 260.346771 179.822442 
L 260.389644 209.950126 
L 260.432517 179.836712 
L 260.604009 179.860208 
L 260.646882 176.398011 
L 260.689755 179.872494 
L 260.775501 179.884424 
L 260.818374 176.422475 
L 260.861247 179.896898 
L 261.161358 179.937917 
L 261.204231 176.473871 
L 261.247104 179.950583 
L 261.504342 179.985649 
L 261.547215 28.917273 
L 261.590088 179.992163 
L 261.675834 180.001553 
L 261.718707 176.536899 
L 261.76158 180.014939 
L 261.804453 176.547967 
L 261.847326 176.554396 
L 261.975945 180.045325 
L 262.061691 180.055263 
L 262.104564 176.586714 
L 262.147437 180.068639 
L 262.19031 180.073897 
L 262.233183 176.605826 
L 262.276056 180.086917 
L 262.318929 180.091973 
L 262.361802 176.623514 
L 262.447548 210.321105 
L 262.490421 180.114767 
L 262.576167 180.128149 
L 262.61904 210.355 
L 262.661913 176.663527 
L 262.747659 180.153112 
L 262.790532 176.679417 
L 262.833405 180.162528 
L 262.876278 176.693183 
L 262.919151 180.175915 
L 262.962024 176.704249 
L 263.004897 210.427245 
L 263.04777 180.194721 
L 263.4765 180.250998 
L 263.519373 176.779472 
L 263.562246 180.264939 
L 263.647992 180.277604 
L 263.690865 176.80253 
L 263.733738 210.562913 
L 263.776611 176.812723 
L 263.819484 180.298246 
L 263.862357 210.586331 
L 263.90523 180.312363 
L 263.948103 176.835771 
L 263.990976 180.325032 
L 264.119595 180.343126 
L 264.162468 28.917273 
L 264.205341 210.644506 
L 264.291087 176.876529 
L 264.33396 176.883506 
L 264.376833 180.372274 
L 264.462579 210.701473 
L 264.505452 180.388207 
L 264.548325 180.394552 
L 264.591198 210.726527 
L 264.634071 176.922484 
L 264.676944 28.917273 
L 264.719817 180.413372 
L 264.76269 210.751575 
L 264.805563 180.426051 
L 264.848436 180.432928 
L 264.891309 176.952698 
L 264.934182 180.444532 
L 264.977055 176.965214 
L 265.019928 210.802503 
L 265.062801 180.458835 
L 265.105674 176.980606 
L 265.148547 210.829179 
L 265.19142 180.481112 
L 265.234293 176.99956 
L 265.277166 180.491971 
L 265.320039 180.495591 
L 265.362912 28.917273 
L 265.405785 180.50411 
L 265.577277 180.527658 
L 265.62015 177.045708 
L 265.663023 180.54016 
L 265.705896 210.927025 
L 265.748769 177.062524 
L 265.877388 180.569693 
L 265.920261 180.575485 
L 265.963134 177.089176 
L 266.006007 180.587085 
L 266.04888 177.102055 
L 266.091753 180.598858 
L 266.134626 211.006099 
L 266.177499 177.117813 
L 266.306118 180.628935 
L 266.348991 180.634011 
L 266.391864 177.148755 
L 266.434737 180.646881 
L 266.47761 177.159857 
L 266.520483 180.6583 
L 266.649102 211.098949 
L 266.691975 180.682046 
L 266.777721 180.694733 
L 266.863467 180.705062 
L 266.90634 211.149537 
L 266.949213 177.223931 
L 267.077832 180.736428 
L 267.120705 211.19952 
L 267.163578 180.74168 
L 267.377943 180.777932 
L 267.420816 177.287668 
L 267.463689 180.787001 
L 267.635181 180.812396 
L 267.678054 177.321866 
L 267.720927 177.326699 
L 267.849545 180.842128 
L 267.935291 180.851201 
L 268.021037 211.368984 
L 268.06391 177.368594 
L 268.149656 177.384001 
L 268.192529 177.390088 
L 268.321148 180.907434 
L 268.878497 180.983449 
L 268.92137 177.48521 
L 269.007116 177.497927 
L 269.092862 181.012654 
L 269.135735 28.917273 
L 269.178608 211.568737 
L 269.221481 211.580287 
L 269.264354 177.526786 
L 269.307227 211.599139 
L 269.3501 181.039328 
L 269.564465 181.072557 
L 269.607338 211.655083 
L 269.650211 181.08072 
L 269.77883 181.101233 
L 269.907449 211.720371 
L 269.950322 177.616929 
L 269.993195 181.129366 
L 270.036068 211.747137 
L 270.078941 181.143521 
L 270.250433 181.167319 
L 270.293306 211.798248 
L 270.336179 177.669994 
L 270.421925 177.682545 
L 270.507671 181.20108 
L 270.550544 211.844501 
L 270.593417 177.705861 
L 270.63629 177.71051 
L 270.722036 181.233767 
L 270.764909 177.726123 
L 270.893528 211.914297 
L 270.936401 181.263559 
L 270.979274 28.917273 
L 271.022147 211.924446 
L 271.06502 181.274276 
L 271.150766 181.287175 
L 271.193639 181.292447 
L 271.236512 211.975386 
L 271.279385 28.917273 
L 271.322258 211.98452 
L 271.408004 212.008063 
L 271.49375 177.811484 
L 271.536623 177.818477 
L 271.579496 177.823864 
L 271.708115 212.066125 
L 271.750988 212.079119 
L 271.793861 28.917273 
L 271.836734 181.364922 
L 272.008226 181.389104 
L 272.051099 212.123387 
L 272.093972 181.394365 
L 272.222591 181.417265 
L 272.265464 28.917273 
L 272.308337 181.424538 
L 272.35121 177.912501 
L 272.394083 181.436162 
L 272.436956 28.917273 
L 272.479829 212.179436 
L 272.522702 177.926851 
L 272.608448 181.457607 
L 272.651321 212.211533 
L 272.694194 181.470146 
L 272.737067 181.475065 
L 272.822813 181.481963 
L 272.865686 28.917273 
L 272.951432 181.493231 
L 272.994305 177.976741 
L 273.122924 181.515047 
L 273.165797 212.284668 
L 273.20867 28.917273 
L 273.251543 181.524683 
L 273.423035 181.549962 
L 273.508781 212.343602 
L 273.551654 178.04495 
L 273.594527 212.354176 
L 273.6374 181.577967 
L 273.680273 181.583046 
L 273.723146 178.068113 
L 273.766019 181.594684 
L 273.851765 178.079428 
L 273.894638 212.41373 
L 273.937511 178.094516 
L 274.023257 181.62888 
L 274.06613 178.112473 
L 274.109003 181.640522 
L 274.151876 181.647429 
L 274.194749 178.127917 
L 274.237622 181.655799 
L 274.409114 181.680898 
L 274.537733 212.523725 
L 274.580606 178.178202 
L 274.623479 212.545698 
L 274.666352 181.713825 
L 274.709225 181.720925 
L 274.752098 178.200298 
L 274.794971 178.206575 
L 274.92359 181.74676 
L 275.137954 181.777324 
L 275.180827 178.256705 
L 275.2237 181.788978 
L 275.266573 181.79553 
L 275.309446 28.917273 
L 275.352319 181.800618 
L 275.523811 181.821001 
L 275.65243 212.718015 
L 275.695303 178.31295 
L 275.781049 181.857775 
L 275.866795 181.869783 
L 275.909668 212.762587 
L 275.952541 181.880341 
L 276.166906 181.909296 
L 276.209779 178.3834 
L 276.252652 181.920757 
L 276.338398 181.932045 
L 276.424144 178.408572 
L 276.467017 212.85705 
L 276.552763 178.427446 
L 276.595636 181.966104 
L 276.681382 181.977932 
L 276.724255 212.907951 
L 276.767128 181.985029 
L 276.810001 181.993593 
L 276.852874 178.466816 
L 276.93862 212.952762 
L 276.981493 182.016182 
L 277.024366 182.020552 
L 277.110112 212.988613 
L 277.195858 178.507459 
L 277.238731 213.008576 
L 277.281604 182.056432 
L 277.581715 182.095589 
L 277.624588 28.917273 
L 277.667461 182.102881 
L 277.753207 182.114547 
L 277.79608 178.58264 
L 277.838953 178.588026 
L 277.924699 182.137867 
L 277.967572 213.128386 
L 278.010445 182.148794 
L 278.267683 182.183048 
L 278.310556 213.18873 
L 278.353429 182.195258 
L 278.567794 182.223521 
L 278.610667 28.917273 
L 278.65354 213.2401 
L 278.696413 182.234454 
L 278.739286 213.258457 
L 278.782159 182.241375 
L 278.825032 178.707864 
L 278.867905 182.256688 
L 278.953651 182.267987 
L 278.996524 28.917273 
L 279.039397 213.302293 
L 279.08227 182.278925 
L 279.168016 182.290416 
L 279.253762 213.342066 
L 279.296635 178.763291 
L 279.382381 178.771936 
L 279.425254 182.322872 
L 279.468127 178.784171 
L 279.511 178.788856 
L 279.639619 213.413465 
L 279.725365 178.810094 
L 279.768238 182.360064 
L 279.93973 182.378489 
L 279.982603 178.837101 
L 280.025476 182.3876 
L 280.068349 182.391792 
L 280.111222 178.850067 
L 280.154095 182.401284 
L 280.196968 178.858347 
L 280.239841 182.409479 
L 280.282714 178.866982 
L 280.325587 178.871485 
L 280.36846 213.511417 
L 280.411333 182.426629 
L 280.539952 182.441583 
L 280.582825 178.897779 
L 280.625698 182.450524 
L 280.668571 182.455082 
L 280.711444 213.558357 
L 280.754317 28.917273 
L 280.79719 182.46366 
L 280.882936 182.472966 
L 280.925809 213.588169 
L 280.968682 182.481355 
L 281.140174 182.499971 
L 281.183047 178.954517 
L 281.22592 178.958483 
L 281.311666 182.51802 
L 281.354539 213.65044 
L 281.397412 182.523688 
L 281.611777 182.549405 
L 281.65465 213.693528 
L 281.697523 179.005676 
L 281.826142 182.572038 
L 281.869015 182.574968 
L 281.997634 213.748064 
L 282.040507 182.594119 
L 282.126253 182.602516 
L 282.469237 182.639387 
L 282.51211 213.820181 
L 282.554982 182.647786 
L 282.640728 182.656725 
L 282.683601 179.106583 
L 282.726474 179.111078 
L 282.855093 182.679914 
L 282.897966 182.684844 
L 282.940839 213.882299 
L 282.983712 182.693785 
L 283.026585 182.698351 
L 283.069458 213.897422 
L 283.112331 28.917273 
L 283.155204 213.911733 
L 283.283823 179.163902 
L 283.412442 182.734328 
L 283.455315 179.180839 
L 283.498188 182.742717 
L 283.66968 182.761353 
L 283.712553 28.917273 
L 283.755426 179.207517 
L 283.841172 182.774677 
L 283.884045 28.917273 
L 283.926918 182.779436 
L 283.969791 179.225372 
L 284.055537 214.031732 
L 284.09841 179.237818 
L 284.184156 182.805914 
L 284.441394 182.832953 
L 284.484267 179.277126 
L 284.52714 182.841713 
L 284.570013 214.102285 
L 284.612886 182.850489 
L 284.827251 182.870219 
L 284.870124 179.312826 
L 284.912997 182.878616 
L 284.998743 182.887205 
L 285.084489 214.176748 
L 285.170235 179.341324 
L 285.213108 214.19762 
L 285.255981 182.909671 
L 285.3846 182.924295 
L 285.427473 214.226465 
L 285.470346 182.933426 
L 285.556092 182.940748 
L 285.598965 214.249178 
L 285.641838 182.949324 
L 285.684711 179.389314 
L 285.727584 182.957917 
L 285.770457 179.397781 
L 285.856203 179.406094 
L 285.899076 182.974739 
L 285.941949 214.302389 
L 285.984822 182.979854 
L 286.070568 182.991181 
L 286.113441 179.429718 
L 286.156314 182.999777 
L 286.199187 28.917273 
L 286.24206 179.438203 
L 286.284933 214.345382 
L 286.327806 183.01055 
L 286.542171 183.033036 
L 286.585044 179.470506 
L 286.627917 183.041077 
L 286.67079 214.396147 
L 286.713663 183.047292 
L 286.756536 183.053332 
L 286.799409 214.415397 
L 286.842282 183.062106 
L 286.885155 183.066127 
L 286.928028 179.502445 
L 287.013774 214.452259 
L 287.142393 179.522306 
L 287.228139 183.098846 
L 287.271012 214.487893 
L 287.313885 179.53873 
L 287.442504 183.120249 
L 287.485377 183.124638 
L 287.52825 179.557852 
L 287.571123 179.562005 
L 287.656869 183.140733 
L 287.699742 214.546888 
L 287.742615 183.149146 
L 287.828361 183.157911 
L 287.871234 179.59071 
L 287.914107 179.594151 
L 288.042726 183.177859 
L 288.171345 183.19011 
L 288.257091 214.626595 
L 288.38571 179.637112 
L 288.514329 183.221934 
L 288.600075 214.677624 
L 288.642948 183.23438 
L 288.685821 214.691966 
L 288.728694 183.239489 
L 288.771567 214.701391 
L 288.81444 179.676302 
L 288.900186 183.258526 
L 288.943059 214.73255 
L 288.985932 183.264002 
L 289.114551 183.278282 
L 289.157424 28.917273 
L 289.200297 183.28231 
L 289.328916 214.784628 
L 289.371789 183.298948 
L 289.457535 183.306464 
L 289.6719 183.326944 
L 289.714773 28.917273 
L 289.757646 179.754683 
L 289.886265 183.343062 
L 289.929137 183.347267 
L 289.97201 214.860501 
L 290.014883 179.773835 
L 290.143502 183.366845 
L 290.229248 183.375082 
L 290.272121 179.801296 
L 290.314994 183.383318 
L 290.357867 183.387525 
L 290.443613 214.925321 
L 290.572232 179.828591 
L 290.615105 179.832379 
L 290.743724 183.423411 
L 290.786597 183.426519 
L 290.915216 214.990152 
L 290.958089 179.863641 
L 291.043835 183.451416 
L 291.086708 183.454524 
L 291.215327 215.036526 
L 291.2582 215.050073 
L 291.301073 183.470084 
L 291.343946 215.059513 
L 291.386819 183.484002 
L 291.429692 215.079016 
L 291.472565 179.907556 
L 291.558311 179.917313 
L 291.68693 183.511828 
L 291.815549 183.524284 
L 291.901295 183.528319 
L 291.944168 28.917273 
L 292.072787 215.154348 
L 292.244279 28.917273 
L 292.372898 215.192542 
L 292.415771 183.568246 
L 292.458644 183.572634 
L 292.501517 215.209997 
L 292.54439 183.580691 
L 292.715882 183.596807 
L 292.758755 180.015297 
L 292.801628 183.604866 
L 292.844501 215.257027 
L 292.887374 183.611106 
L 293.101739 183.632716 
L 293.187485 215.308379 
L 293.230358 183.645534 
L 293.316104 183.653228 
L 293.487596 183.66881 
L 293.530469 28.917273 
L 293.573342 183.673025 
L 293.616215 183.677048 
L 293.659088 180.093062 
L 293.701961 180.097045 
L 293.787707 183.693543 
L 293.83058 180.108979 
L 293.873453 183.701783 
L 293.916326 183.705999 
L 293.959199 215.399186 
L 294.002072 183.712228 
L 294.087818 183.721395 
L 294.130691 180.135743 
L 294.173564 215.428162 
L 294.216437 183.733311 
L 294.302183 183.741553 
L 294.345056 215.455496 
L 294.387929 183.745595 
L 294.430802 180.161797 
L 294.473675 183.756585 
L 294.516548 183.760803 
L 294.559421 180.174094 
L 294.602294 183.769047 
L 295.031024 183.808821 
L 295.073897 215.542458 
L 295.11677 183.816332 
L 295.245389 183.829167 
L 295.288262 215.575558 
L 295.331135 183.831741 
L 295.374008 183.839989 
L 295.416881 180.250827 
L 295.459754 215.596945 
L 295.502627 183.852634 
L 295.588373 183.860708 
L 295.631246 215.619563 
L 295.674119 183.867311 
L 295.845611 183.881606 
L 295.888484 180.289366 
L 295.931357 180.293525 
L 295.97423 183.891872 
L 296.017103 28.917273 
L 296.059976 183.895182 
L 296.102849 183.898476 
L 296.145722 180.306208 
L 296.188595 183.903978 
L 296.231468 183.906553 
L 296.274341 215.687852 
L 296.317214 180.315791 
L 296.445833 183.916821 
L 296.617325 183.927826 
L 296.660198 180.332995 
L 296.703071 215.71994 
L 296.745944 183.93424 
L 296.960309 183.944142 
L 297.003182 180.350015 
L 297.046055 183.949645 
L 297.088928 215.762329 
L 297.131801 183.955325 
L 297.174674 183.957165 
L 297.217547 180.3625 
L 297.26042 180.364854 
L 297.389038 183.969085 
L 297.431911 183.971469 
L 297.474784 180.376078 
L 297.517657 183.975869 
L 297.56053 215.802656 
L 297.603403 183.981006 
L 297.646276 180.385135 
L 297.689149 183.985598 
L 297.98926 184.001185 
L 298.032133 180.404874 
L 298.075006 184.006131 
L 298.160752 184.008147 
L 298.246498 215.872224 
L 298.41799 28.917273 
L 298.503736 184.026683 
L 298.546609 180.42931 
L 298.589482 180.431493 
L 298.632355 184.033838 
L 298.675228 28.917273 
L 298.718101 184.036399 
L 298.760974 215.914015 
L 298.803847 28.917273 
L 298.84672 184.04117 
L 298.889593 180.443081 
L 298.975339 215.936866 
L 299.018212 28.917273 
L 299.061085 180.450319 
L 299.103958 180.452861 
L 299.146831 215.953135 
L 299.189704 184.058428 
L 299.232577 184.060814 
L 299.27545 215.967751 
L 299.318323 184.060622 
L 299.361196 184.066866 
L 299.404069 215.97908 
L 299.446942 184.073095 
L 299.618434 184.081182 
L 299.661307 180.481658 
L 299.70418 184.08613 
L 299.789926 184.091079 
L 299.832799 180.490894 
L 299.875672 184.095851 
L 300.004291 184.101729 
L 300.047164 28.917273 
L 300.090037 180.501754 
L 300.13291 180.503923 
L 300.175783 216.046225 
L 300.218656 184.112187 
L 300.390148 184.120805 
L 300.433021 180.519512 
L 300.475894 216.076084 
L 300.518767 184.127789 
L 300.647386 184.134757 
L 300.690259 180.53309 
L 300.733132 184.139531 
L 300.947497 184.149256 
L 300.99037 216.118522 
L 301.033243 184.155873 
L 301.076116 180.553209 
L 301.204735 216.147367 
L 301.290481 216.165095 
L 301.376227 180.568788 
L 301.504846 216.193535 
L 301.547719 184.181751 
L 301.633465 184.18946 
L 301.676338 184.191848 
L 301.719211 216.212906 
L 301.762084 28.917273 
L 301.804957 184.197713 
L 301.890703 216.234746 
L 301.933576 180.596141 
L 302.019322 180.602121 
L 302.147941 184.216258 
L 302.319433 184.225988 
L 302.362306 216.279275 
L 302.405179 184.230573 
L 302.533798 184.237562 
L 302.576671 180.63184 
L 302.619544 184.242147 
L 302.748163 184.248576 
L 302.791036 180.642351 
L 302.876782 180.647069 
L 303.005401 184.25996 
L 303.176893 184.270784 
L 303.219766 180.663924 
L 303.262639 184.275386 
L 303.519877 184.288232 
L 303.605623 216.392477 
L 303.691369 180.687655 
L 303.819988 216.419901 
L 303.862861 28.917273 
L 303.905734 216.423615 
L 303.948607 184.311376 
L 303.99148 216.439911 
L 304.077226 216.455176 
L 304.162972 216.464044 
L 304.205845 28.917273 
L 304.291591 216.480132 
L 304.334464 184.331572 
L 304.377337 180.722471 
L 304.42021 216.494369 
L 304.463083 184.338551 
L 304.505956 184.340749 
L 304.548829 180.730989 
L 304.591702 184.34553 
L 304.634575 180.735522 
L 304.677448 28.917273 
L 304.72032 184.350311 
L 304.763193 180.740226 
L 304.891812 216.535224 
L 304.934685 184.36464 
L 305.020431 184.368667 
L 305.063304 216.559364 
L 305.106177 184.37621 
L 305.234796 184.383367 
L 305.277669 216.58826 
L 305.320542 184.387042 
L 305.363415 180.776854 
L 305.406288 184.394024 
L 305.449161 216.609308 
L 305.492034 180.785922 
L 305.534907 184.402466 
L 305.57778 180.791363 
L 305.663526 216.642331 
L 305.706399 180.799698 
L 305.792145 180.806219 
L 305.835018 180.806594 
L 305.877891 216.661532 
L 305.920764 180.813835 
L 306.049383 184.436097 
L 306.092256 184.439404 
L 306.135129 216.697447 
L 306.178002 184.436835 
L 306.220875 184.446934 
L 306.306621 216.722223 
L 306.349494 184.456857 
L 306.392367 216.728624 
L 306.43524 184.461996 
L 306.520986 184.467873 
L 306.563859 180.853016 
L 306.606732 184.47155 
L 306.735351 184.481106 
L 306.778224 216.769518 
L 306.821097 180.869161 
L 306.86397 180.870975 
L 306.949716 216.798844 
L 306.992589 184.495817 
L 307.035462 216.809378 
L 307.078335 184.504266 
L 307.335573 184.519334 
L 307.378446 216.844692 
L 307.421319 28.917273 
L 307.464192 184.525583 
L 307.507065 180.907794 
L 307.549938 184.528523 
L 307.592811 180.912332 
L 307.635684 180.915415 
L 307.72143 184.541199 
L 307.764303 180.922114 
L 307.807176 184.545071 
L 307.850049 184.548012 
L 307.892922 180.930284 
L 307.935795 184.550583 
L 308.107287 184.558119 
L 308.15016 180.938627 
L 308.193033 216.914941 
L 308.235906 180.942619 
L 308.278779 180.944074 
L 308.364525 184.569142 
L 308.450271 180.950242 
L 308.536017 216.951308 
L 308.57889 184.578158 
L 308.664636 184.580537 
L 308.750382 184.585326 
L 308.793255 216.972381 
L 308.836128 184.584217 
L 308.921874 184.593218 
L 309.00762 216.99553 
L 309.093366 180.978548 
L 309.136239 184.602782 
L 309.179112 184.603151 
L 309.221985 180.982541 
L 309.264858 184.607202 
L 309.307731 217.01909 
L 309.350604 184.607202 
L 309.43635 184.614918 
L 309.479223 217.036046 
L 309.522096 180.9956 
L 309.564969 180.997056 
L 309.693588 184.625207 
L 309.736461 184.627425 
L 309.779334 217.059613 
L 309.822207 184.631091 
L 309.86508 181.00794 
L 309.907953 184.63294 
L 309.950826 181.011746 
L 310.079445 184.639194 
L 310.122318 181.017744 
L 310.165191 217.088553 
L 310.208064 184.64323 
L 310.250937 184.647089 
L 310.29381 217.102202 
L 310.336683 184.648375 
L 310.379556 184.652797 
L 310.422429 181.030807 
L 310.465302 184.656833 
L 310.508175 184.656833 
L 310.551048 181.034801 
L 310.593921 184.661433 
L 310.765413 184.667688 
L 310.894032 217.158031 
L 310.936905 181.050764 
L 311.022651 181.053678 
L 311.108397 184.68332 
L 311.15127 181.059302 
L 311.194143 184.685154 
L 311.237016 184.687357 
L 311.279889 181.064018 
L 311.322762 184.691781 
L 311.408508 184.693614 
L 311.451381 28.917273 
L 311.494254 184.695818 
L 311.58 184.699501 
L 311.622873 28.917273 
L 311.665746 181.073998 
L 311.708619 217.206431 
L 311.751492 184.703909 
L 311.794365 184.705566 
L 311.837238 217.220081 
L 311.880111 181.082538 
L 311.922984 184.711276 
L 311.965857 181.086706 
L 312.00873 217.237041 
L 312.051603 184.714574 
L 312.137348 184.720655 
L 312.180221 181.095779 
L 312.223094 184.723036 
L 312.265967 184.724517 
L 312.30884 181.099415 
L 312.351713 28.917273 
L 312.394586 184.728925 
L 312.480332 184.730582 
L 312.523205 181.105229 
L 312.566078 217.271386 
L 312.608951 28.917273 
L 312.651824 184.735184 
L 312.823316 184.743647 
L 312.951935 217.302835 
L 313.123427 28.917273 
L 313.252046 184.759095 
L 313.337792 184.760752 
L 313.380665 181.134444 
L 313.423538 184.764985 
L 313.466411 181.13863 
L 313.59503 184.771052 
L 313.637903 184.77308 
L 313.680776 28.917273 
L 313.723649 217.34877 
L 313.766522 217.353946 
L 313.852268 181.150607 
L 313.895141 184.781899 
L 313.980887 184.785762 
L 314.02376 217.36864 
L 314.066633 184.789255 
L 314.195252 184.793118 
L 314.238125 217.390164 
L 314.280998 184.795694 
L 314.538236 184.806559 
L 314.581109 181.178389 
L 314.623982 181.180381 
L 314.666855 217.422864 
L 314.709728 184.813916 
L 314.752601 184.816122 
L 314.795474 28.917273 
L 314.838347 184.815929 
L 314.924093 184.820163 
L 314.966966 28.917273 
L 315.009839 184.822368 
L 315.095585 181.194556 
L 315.138458 217.454746 
L 315.224204 181.199998 
L 315.267077 184.833043 
L 315.524315 184.840965 
L 315.567188 217.480832 
L 315.610061 184.845924 
L 315.652934 184.846295 
L 315.695807 28.917273 
L 315.73868 184.848501 
L 315.910172 184.854394 
L 315.953045 217.506505 
L 315.995918 181.226332 
L 316.081664 184.861754 
L 316.124537 28.917273 
L 316.16741 184.86396 
L 316.253156 181.233767 
L 316.381775 217.541294 
L 316.424648 184.874638 
L 316.510394 184.876474 
L 316.59614 184.88071 
L 316.639013 181.24958 
L 316.681886 184.884012 
L 316.767632 181.254475 
L 316.810505 217.575673 
L 316.853378 181.257754 
L 316.896251 217.584164 
L 316.939124 184.891019 
L 317.110616 184.900394 
L 317.153489 28.917273 
L 317.196362 184.9026 
L 317.239235 184.904807 
L 317.282108 217.609856 
L 317.324981 184.903712 
L 317.410727 184.91217 
L 317.4536 217.62373 
L 317.496473 181.280992 
L 317.625092 184.919532 
L 317.667965 217.638851 
L 317.710838 28.917273 
L 317.753711 184.921933 
L 318.010949 184.932792 
L 318.053822 181.299714 
L 318.096695 184.937207 
L 318.139568 184.937207 
L 318.182441 181.303527 
L 318.225314 184.940881 
L 318.268187 184.943089 
L 318.31106 181.309146 
L 318.353933 184.944942 
L 318.396806 28.917273 
L 318.439679 184.947149 
L 318.482552 184.949357 
L 318.525425 181.315518 
L 318.568298 184.951935 
L 318.782663 184.9593 
L 318.825536 181.324952 
L 318.868409 181.327134 
L 318.954155 184.966842 
L 318.997028 217.716135 
L 319.039901 181.334229 
L 319.16852 184.974756 
L 319.211393 28.917273 
L 319.254266 217.737274 
L 319.297139 217.745561 
L 319.382885 181.344574 
L 319.425758 184.983218 
L 319.682995 184.993534 
L 319.725868 181.358202 
L 319.768741 181.359474 
L 319.89736 185.001643 
L 319.983106 185.004206 
L 320.025979 28.917273 
L 320.068852 185.005689 
L 320.111725 185.007897 
L 320.154598 217.798625 
L 320.197471 185.008994 
L 320.240344 181.374736 
L 320.283217 217.810023 
L 320.32609 181.376196 
L 320.411836 185.020408 
L 320.454709 181.383828 
L 320.497582 185.022617 
L 320.540455 185.0241 
L 320.583328 217.830962 
L 320.626201 185.028147 
L 320.669074 185.02926 
L 320.711947 181.392544 
L 320.797693 181.396721 
L 320.840566 185.035694 
L 320.883439 181.39837 
L 320.926312 217.855841 
L 320.969185 185.041031 
L 321.054931 185.044724 
L 321.097804 181.407448 
L 321.140677 185.048949 
L 321.18355 185.048771 
L 321.226423 217.876991 
L 321.269296 181.414532 
L 321.397915 185.058351 
L 321.440788 181.420359 
L 321.483661 185.061657 
L 321.655153 185.068656 
L 321.698026 181.428528 
L 321.740899 185.070318 
L 321.869518 185.076398 
L 321.912391 217.921981 
L 321.955264 185.079705 
L 322.04101 185.081544 
L 322.126756 217.949568 
L 322.169629 181.442336 
L 322.212502 28.917273 
L 322.255375 185.090206 
L 322.426867 185.096287 
L 322.46974 28.917273 
L 322.512613 217.969474 
L 322.555486 185.097755 
L 322.598359 185.101433 
L 322.641232 217.980262 
L 322.684105 181.461614 
L 322.726978 181.464521 
L 322.769851 217.990221 
L 322.812724 185.109177 
L 322.855597 185.111016 
L 322.89847 218.000172 
L 322.941343 185.114695 
L 322.984216 185.116179 
L 323.069962 218.020085 
L 323.112835 185.122246 
L 323.198581 185.125005 
L 323.241454 185.126295 
L 323.284327 181.485609 
L 323.3272 185.130539 
L 323.370073 185.132572 
L 323.412946 181.489239 
L 323.455819 185.134218 
L 323.498692 218.045817 
L 323.541565 185.137171 
L 323.75593 185.145094 
L 323.798803 218.065316 
L 323.841676 185.150065 
L 323.927422 185.151904 
L 323.970295 28.917273 
L 324.013168 181.510331 
L 324.056041 181.512327 
L 324.18466 185.159828 
L 324.313279 185.165719 
L 324.356152 218.097685 
L 324.399025 181.52451 
L 324.527644 185.172724 
L 324.61339 185.176953 
L 324.742009 218.132551 
L 324.784882 181.535058 
L 324.870628 185.186913 
L 324.913501 185.188753 
L 324.956374 181.543783 
L 324.999247 185.190964 
L 325.04212 218.152053 
L 325.084993 185.193176 
L 325.213612 185.199795 
L 325.256485 28.917273 
L 325.299358 185.201651 
L 325.342231 181.556141 
L 325.385104 218.171147 
L 325.427977 185.206801 
L 325.47085 181.560874 
L 325.513723 185.208464 
L 325.685215 185.214535 
L 325.728088 181.570513 
L 325.770961 185.218588 
L 325.985326 185.226515 
L 326.028199 218.215988 
L 326.071072 185.225966 
L 326.285437 185.237028 
L 326.32831 181.592514 
L 326.371183 185.241258 
L 326.414056 185.24163 
L 326.456929 181.595958 
L 326.499802 218.243808 
L 326.542675 185.246975 
L 326.585548 185.247702 
L 326.628421 218.254186 
L 326.671294 185.252498 
L 326.714167 185.252498 
L 326.75704 28.917273 
L 326.799913 218.264987 
L 326.928531 181.611781 
L 326.971404 185.26172 
L 327.100023 218.289903 
L 327.142896 218.300285 
L 327.228642 181.624161 
L 327.271515 28.917273 
L 327.314388 185.274238 
L 327.357261 218.31233 
L 327.400134 185.277194 
L 327.571626 185.282347 
L 327.614499 181.635787 
L 327.657372 185.286401 
L 327.743118 185.289358 
L 327.785991 218.33393 
L 327.828864 185.293218 
L 327.957483 185.297096 
L 328.000356 181.649978 
L 328.043229 185.301151 
L 328.128975 185.302815 
L 328.171848 218.360932 
L 328.214721 185.305949 
L 328.257594 185.30687 
L 328.300467 181.659261 
L 328.34334 181.661259 
L 328.386213 185.312945 
L 328.429086 218.37983 
L 328.471959 185.312395 
L 328.514832 185.317 
L 328.557705 218.386687 
L 328.600578 181.671802 
L 328.643451 181.671991 
L 328.686324 185.322898 
L 328.77207 181.677814 
L 328.814943 218.411194 
L 328.857816 218.415773 
L 328.900689 185.329167 
L 328.986435 185.335243 
L 329.029308 181.686548 
L 329.072181 185.3393 
L 329.115054 28.917273 
L 329.157927 181.690357 
L 329.243673 185.342806 
L 329.286546 181.693993 
L 329.329419 185.346863 
L 329.372292 181.697644 
L 329.500911 185.352584 
L 329.672403 185.358289 
L 329.715276 218.462727 
L 329.758149 181.707466 
L 329.801022 181.71074 
L 329.843895 185.364188 
L 329.843895 185.364188 
" clip-path="url(#pf386fd9ed6)" style="fill: none; stroke: #1f77b4; stroke-width: 1.5; stroke-linecap: square"/>
   </g>
   <g id="patch_3">
    <path d="M 104.805692 227.94 
L 104.805692 19.44 
" style="fill: none; stroke: #000000; stroke-width: 0.8; stroke-linejoin: miter; stroke-linecap: square"/>
   </g>
   <g id="patch_4">
    <path d="M 340.56 227.94 
L 340.56 19.44 
" style="fill: none; stroke: #000000; stroke-width: 0.8; stroke-linejoin: miter; stroke-linecap: square"/>
   </g>
   <g id="patch_5">
    <path d="M 104.805692 227.94 
L 340.56 227.94 
" style="fill: none; stroke: #000000; stroke-width: 0.8; stroke-linejoin: miter; stroke-linecap: square"/>
   </g>
   <g id="patch_6">
    <path d="M 104.805692 19.44 
L 340.56 19.44 
" style="fill: none; stroke: #000000; stroke-width: 0.8; stroke-linejoin: miter; stroke-linecap: square"/>
   </g>
  </g>
 </g>
 <defs>
  <clipPath id="pf386fd9ed6">
   <rect x="104.805692" y="19.44" width="235.754308" height="208.5"/>
  </clipPath>
 </defs>
</svg>
