<?xml version="1.0" encoding="utf-8" standalone="no"?>
<!DOCTYPE svg PUBLIC "-//W3C//DTD SVG 1.1//EN"
  "http://www.w3.org/Graphics/SVG/1.1/DTD/svg11.dtd">
<svg xmlns:xlink="http://www.w3.org/1999/xlink" width="360pt" height="288pt" viewBox="0 0 360 288" xmlns="http://www.w3.org/2000/svg" version="1.1">
 <metadata>
  <rdf:RDF xmlns:dc="http://purl.org/dc/elements/1.1/" xmlns:cc="http://creativecommons.org/ns#" xmlns:rdf="http://www.w3.org/1999/02/22-rdf-syntax-ns#">
   <cc:Work>
    <dc:type rdf:resource="http://purl.org/dc/dcmitype/StillImage"/>
    <dc:date>2025-08-01T17:17:02.588089</dc:date>
    <dc:format>image/svg+xml</dc:format>
    <dc:creator>
     <cc:Agent>
      <dc:title>Matplotlib v3.10.5, https://matplotlib.org/</dc:title>
     </cc:Agent>
    </dc:creator>
   </cc:Work>
  </rdf:RDF>
 </metadata>
 <defs>
  <style type="text/css">*{stroke-linejoin: round; stroke-linecap: butt}</style>
 </defs>
 <g id="figure_1">
  <g id="patch_1">
   <path d="M 0 288 
L 360 288 
L 360 0 
L 0 0 
L 0 288 
z
" style="fill: none"/>
  </g>
  <g id="axes_1">
   <g id="patch_2">
    <path d="M 71.721356 227.94 
L 340.56 227.94 
L 340.56 19.44 
L 71.721356 19.44 
L 71.721356 227.94 
z
" style="fill: none"/>
   </g>
   <g id="matplotlib.axis_1">
    <g id="xtick_1">
     <g id="line2d_1">
      <defs>
       <path id="m3372dacdac" d="M 0 0 
L 0 -3.5 
" style="stroke: #000000; stroke-width: 0.8"/>
      </defs>
      <g>
       <use xlink:href="#m3372dacdac" x="83.941295" y="227.94" style="stroke: #000000; stroke-width: 0.8"/>
      </g>
     </g>
     <g id="text_1">
      <!-- 0 -->
      <g transform="translate(78.936451 244.324062) scale(0.18 -0.18)">
       <defs>
        <path id="ArialMT-30" d="M 266 2259 
Q 266 3072 433 3567 
Q 600 4063 929 4331 
Q 1259 4600 1759 4600 
Q 2128 4600 2406 4451 
Q 2684 4303 2865 4023 
Q 3047 3744 3150 3342 
Q 3253 2941 3253 2259 
Q 3253 1453 3087 958 
Q 2922 463 2592 192 
Q 2263 -78 1759 -78 
Q 1097 -78 719 397 
Q 266 969 266 2259 
z
M 844 2259 
Q 844 1131 1108 757 
Q 1372 384 1759 384 
Q 2147 384 2411 759 
Q 2675 1134 2675 2259 
Q 2675 3391 2411 3762 
Q 2147 4134 1753 4134 
Q 1366 4134 1134 3806 
Q 844 3388 844 2259 
z
" transform="scale(0.015625)"/>
       </defs>
       <use xlink:href="#ArialMT-30"/>
      </g>
     </g>
    </g>
    <g id="xtick_2">
     <g id="line2d_2">
      <g>
       <use xlink:href="#m3372dacdac" x="181.720357" y="227.94" style="stroke: #000000; stroke-width: 0.8"/>
      </g>
     </g>
     <g id="text_2">
      <!-- 2000 -->
      <g transform="translate(161.700982 244.324062) scale(0.18 -0.18)">
       <defs>
        <path id="ArialMT-32" d="M 3222 541 
L 3222 0 
L 194 0 
Q 188 203 259 391 
Q 375 700 629 1000 
Q 884 1300 1366 1694 
Q 2113 2306 2375 2664 
Q 2638 3022 2638 3341 
Q 2638 3675 2398 3904 
Q 2159 4134 1775 4134 
Q 1369 4134 1125 3890 
Q 881 3647 878 3216 
L 300 3275 
Q 359 3922 746 4261 
Q 1134 4600 1788 4600 
Q 2447 4600 2831 4234 
Q 3216 3869 3216 3328 
Q 3216 3053 3103 2787 
Q 2991 2522 2730 2228 
Q 2469 1934 1863 1422 
Q 1356 997 1212 845 
Q 1069 694 975 541 
L 3222 541 
z
" transform="scale(0.015625)"/>
       </defs>
       <use xlink:href="#ArialMT-32"/>
       <use xlink:href="#ArialMT-30" transform="translate(55.615234 0)"/>
       <use xlink:href="#ArialMT-30" transform="translate(111.230469 0)"/>
       <use xlink:href="#ArialMT-30" transform="translate(166.845703 0)"/>
      </g>
     </g>
    </g>
    <g id="xtick_3">
     <g id="line2d_3">
      <g>
       <use xlink:href="#m3372dacdac" x="279.49942" y="227.94" style="stroke: #000000; stroke-width: 0.8"/>
      </g>
     </g>
     <g id="text_3">
      <!-- 4000 -->
      <g transform="translate(259.480045 244.324062) scale(0.18 -0.18)">
       <defs>
        <path id="ArialMT-34" d="M 2069 0 
L 2069 1097 
L 81 1097 
L 81 1613 
L 2172 4581 
L 2631 4581 
L 2631 1613 
L 3250 1613 
L 3250 1097 
L 2631 1097 
L 2631 0 
L 2069 0 
z
M 2069 1613 
L 2069 3678 
L 634 1613 
L 2069 1613 
z
" transform="scale(0.015625)"/>
       </defs>
       <use xlink:href="#ArialMT-34"/>
       <use xlink:href="#ArialMT-30" transform="translate(55.615234 0)"/>
       <use xlink:href="#ArialMT-30" transform="translate(111.230469 0)"/>
       <use xlink:href="#ArialMT-30" transform="translate(166.845703 0)"/>
      </g>
     </g>
    </g>
    <g id="text_4">
     <!-- iteration -->
     <g transform="translate(174.124584 264.785625) scale(0.18 -0.18)">
      <defs>
       <path id="ArialMT-69" d="M 425 3934 
L 425 4581 
L 988 4581 
L 988 3934 
L 425 3934 
z
M 425 0 
L 425 3319 
L 988 3319 
L 988 0 
L 425 0 
z
" transform="scale(0.015625)"/>
       <path id="ArialMT-74" d="M 1650 503 
L 1731 6 
Q 1494 -44 1306 -44 
Q 1000 -44 831 53 
Q 663 150 594 308 
Q 525 466 525 972 
L 525 2881 
L 113 2881 
L 113 3319 
L 525 3319 
L 525 4141 
L 1084 4478 
L 1084 3319 
L 1650 3319 
L 1650 2881 
L 1084 2881 
L 1084 941 
Q 1084 700 1114 631 
Q 1144 563 1211 522 
Q 1278 481 1403 481 
Q 1497 481 1650 503 
z
" transform="scale(0.015625)"/>
       <path id="ArialMT-65" d="M 2694 1069 
L 3275 997 
Q 3138 488 2766 206 
Q 2394 -75 1816 -75 
Q 1088 -75 661 373 
Q 234 822 234 1631 
Q 234 2469 665 2931 
Q 1097 3394 1784 3394 
Q 2450 3394 2872 2941 
Q 3294 2488 3294 1666 
Q 3294 1616 3291 1516 
L 816 1516 
Q 847 969 1125 678 
Q 1403 388 1819 388 
Q 2128 388 2347 550 
Q 2566 713 2694 1069 
z
M 847 1978 
L 2700 1978 
Q 2663 2397 2488 2606 
Q 2219 2931 1791 2931 
Q 1403 2931 1139 2672 
Q 875 2413 847 1978 
z
" transform="scale(0.015625)"/>
       <path id="ArialMT-72" d="M 416 0 
L 416 3319 
L 922 3319 
L 922 2816 
Q 1116 3169 1280 3281 
Q 1444 3394 1641 3394 
Q 1925 3394 2219 3213 
L 2025 2691 
Q 1819 2813 1613 2813 
Q 1428 2813 1281 2702 
Q 1134 2591 1072 2394 
Q 978 2094 978 1738 
L 978 0 
L 416 0 
z
" transform="scale(0.015625)"/>
       <path id="ArialMT-61" d="M 2588 409 
Q 2275 144 1986 34 
Q 1697 -75 1366 -75 
Q 819 -75 525 192 
Q 231 459 231 875 
Q 231 1119 342 1320 
Q 453 1522 633 1644 
Q 813 1766 1038 1828 
Q 1203 1872 1538 1913 
Q 2219 1994 2541 2106 
Q 2544 2222 2544 2253 
Q 2544 2597 2384 2738 
Q 2169 2928 1744 2928 
Q 1347 2928 1158 2789 
Q 969 2650 878 2297 
L 328 2372 
Q 403 2725 575 2942 
Q 747 3159 1072 3276 
Q 1397 3394 1825 3394 
Q 2250 3394 2515 3294 
Q 2781 3194 2906 3042 
Q 3031 2891 3081 2659 
Q 3109 2516 3109 2141 
L 3109 1391 
Q 3109 606 3145 398 
Q 3181 191 3288 0 
L 2700 0 
Q 2613 175 2588 409 
z
M 2541 1666 
Q 2234 1541 1622 1453 
Q 1275 1403 1131 1340 
Q 988 1278 909 1158 
Q 831 1038 831 891 
Q 831 666 1001 516 
Q 1172 366 1500 366 
Q 1825 366 2078 508 
Q 2331 650 2450 897 
Q 2541 1088 2541 1459 
L 2541 1666 
z
" transform="scale(0.015625)"/>
       <path id="ArialMT-6f" d="M 213 1659 
Q 213 2581 725 3025 
Q 1153 3394 1769 3394 
Q 2453 3394 2887 2945 
Q 3322 2497 3322 1706 
Q 3322 1066 3130 698 
Q 2938 331 2570 128 
Q 2203 -75 1769 -75 
Q 1072 -75 642 372 
Q 213 819 213 1659 
z
M 791 1659 
Q 791 1022 1069 705 
Q 1347 388 1769 388 
Q 2188 388 2466 706 
Q 2744 1025 2744 1678 
Q 2744 2294 2464 2611 
Q 2184 2928 1769 2928 
Q 1347 2928 1069 2612 
Q 791 2297 791 1659 
z
" transform="scale(0.015625)"/>
       <path id="ArialMT-6e" d="M 422 0 
L 422 3319 
L 928 3319 
L 928 2847 
Q 1294 3394 1984 3394 
Q 2284 3394 2536 3286 
Q 2788 3178 2913 3003 
Q 3038 2828 3088 2588 
Q 3119 2431 3119 2041 
L 3119 0 
L 2556 0 
L 2556 2019 
Q 2556 2363 2490 2533 
Q 2425 2703 2258 2804 
Q 2091 2906 1866 2906 
Q 1506 2906 1245 2678 
Q 984 2450 984 1813 
L 984 0 
L 422 0 
z
" transform="scale(0.015625)"/>
      </defs>
      <use xlink:href="#ArialMT-69"/>
      <use xlink:href="#ArialMT-74" transform="translate(22.216797 0)"/>
      <use xlink:href="#ArialMT-65" transform="translate(50 0)"/>
      <use xlink:href="#ArialMT-72" transform="translate(105.615234 0)"/>
      <use xlink:href="#ArialMT-61" transform="translate(138.916016 0)"/>
      <use xlink:href="#ArialMT-74" transform="translate(194.53125 0)"/>
      <use xlink:href="#ArialMT-69" transform="translate(222.314453 0)"/>
      <use xlink:href="#ArialMT-6f" transform="translate(244.53125 0)"/>
      <use xlink:href="#ArialMT-6e" transform="translate(300.146484 0)"/>
     </g>
    </g>
   </g>
   <g id="matplotlib.axis_2">
    <g id="ytick_1">
     <g id="line2d_4">
      <defs>
       <path id="m09884dd59d" d="M 0 0 
L 3.5 0 
" style="stroke: #000000; stroke-width: 0.8"/>
      </defs>
      <g>
       <use xlink:href="#m09884dd59d" x="71.721356" y="74.094819" style="stroke: #000000; stroke-width: 0.8"/>
      </g>
     </g>
     <g id="text_5">
      <!-- $\mathdefault{10^{0}}$ -->
      <g transform="translate(39.961356 83.376069) scale(0.18 -0.18)">
       <defs>
        <path id="ArialMT-31" d="M 2384 0 
L 1822 0 
L 1822 3584 
Q 1619 3391 1289 3197 
Q 959 3003 697 2906 
L 697 3450 
Q 1169 3672 1522 3987 
Q 1875 4303 2022 4600 
L 2384 4600 
L 2384 0 
z
" transform="scale(0.015625)"/>
       </defs>
       <use xlink:href="#ArialMT-31" transform="translate(0 0.99375)"/>
       <use xlink:href="#ArialMT-30" transform="translate(55.615234 0.99375)"/>
       <use xlink:href="#ArialMT-30" transform="translate(112.972813 70.6875) scale(0.7)"/>
      </g>
     </g>
    </g>
    <g id="ytick_2">
     <g id="line2d_5">
      <defs>
       <path id="mf459535977" d="M 0 0 
L 2 0 
" style="stroke: #000000; stroke-width: 0.6"/>
      </defs>
      <g>
       <use xlink:href="#mf459535977" x="71.721356" y="203.027957" style="stroke: #000000; stroke-width: 0.6"/>
      </g>
     </g>
    </g>
    <g id="ytick_3">
     <g id="line2d_6">
      <g>
       <use xlink:href="#mf459535977" x="71.721356" y="170.545878" style="stroke: #000000; stroke-width: 0.6"/>
      </g>
     </g>
    </g>
    <g id="ytick_4">
     <g id="line2d_7">
      <g>
       <use xlink:href="#mf459535977" x="71.721356" y="147.499477" style="stroke: #000000; stroke-width: 0.6"/>
      </g>
     </g>
    </g>
    <g id="ytick_5">
     <g id="line2d_8">
      <g>
       <use xlink:href="#mf459535977" x="71.721356" y="129.623299" style="stroke: #000000; stroke-width: 0.6"/>
      </g>
     </g>
    </g>
    <g id="ytick_6">
     <g id="line2d_9">
      <g>
       <use xlink:href="#mf459535977" x="71.721356" y="115.017398" style="stroke: #000000; stroke-width: 0.6"/>
      </g>
     </g>
    </g>
    <g id="ytick_7">
     <g id="line2d_10">
      <g>
       <use xlink:href="#mf459535977" x="71.721356" y="102.668285" style="stroke: #000000; stroke-width: 0.6"/>
      </g>
     </g>
    </g>
    <g id="ytick_8">
     <g id="line2d_11">
      <g>
       <use xlink:href="#mf459535977" x="71.721356" y="91.970997" style="stroke: #000000; stroke-width: 0.6"/>
      </g>
     </g>
    </g>
    <g id="ytick_9">
     <g id="line2d_12">
      <g>
       <use xlink:href="#mf459535977" x="71.721356" y="82.53532" style="stroke: #000000; stroke-width: 0.6"/>
      </g>
     </g>
    </g>
    <g id="text_6">
     <!-- loss -->
     <g transform="translate(32.383856 139.694531) rotate(-90) scale(0.18 -0.18)">
      <defs>
       <path id="ArialMT-6c" d="M 409 0 
L 409 4581 
L 972 4581 
L 972 0 
L 409 0 
z
" transform="scale(0.015625)"/>
       <path id="ArialMT-73" d="M 197 991 
L 753 1078 
Q 800 744 1014 566 
Q 1228 388 1613 388 
Q 2000 388 2187 545 
Q 2375 703 2375 916 
Q 2375 1106 2209 1216 
Q 2094 1291 1634 1406 
Q 1016 1563 777 1677 
Q 538 1791 414 1992 
Q 291 2194 291 2438 
Q 291 2659 392 2848 
Q 494 3038 669 3163 
Q 800 3259 1026 3326 
Q 1253 3394 1513 3394 
Q 1903 3394 2198 3281 
Q 2494 3169 2634 2976 
Q 2775 2784 2828 2463 
L 2278 2388 
Q 2241 2644 2061 2787 
Q 1881 2931 1553 2931 
Q 1166 2931 1000 2803 
Q 834 2675 834 2503 
Q 834 2394 903 2306 
Q 972 2216 1119 2156 
Q 1203 2125 1616 2013 
Q 2213 1853 2448 1751 
Q 2684 1650 2818 1456 
Q 2953 1263 2953 975 
Q 2953 694 2789 445 
Q 2625 197 2315 61 
Q 2006 -75 1616 -75 
Q 969 -75 630 194 
Q 291 463 197 991 
z
" transform="scale(0.015625)"/>
      </defs>
      <use xlink:href="#ArialMT-6c"/>
      <use xlink:href="#ArialMT-6f" transform="translate(22.216797 0)"/>
      <use xlink:href="#ArialMT-73" transform="translate(77.832031 0)"/>
      <use xlink:href="#ArialMT-73" transform="translate(127.832031 0)"/>
     </g>
    </g>
   </g>
   <g id="line2d_13">
    <path d="M 83.941295 31.230637 
L 83.990184 30.432097 
L 84.039074 31.244424 
L 84.185742 31.28617 
L 84.234632 28.917273 
L 84.283521 31.30084 
L 84.479079 31.358881 
L 84.576859 31.373878 
L 84.674638 28.921821 
L 84.723527 31.391826 
L 84.772417 30.430586 
L 84.821306 30.430614 
L 84.870196 28.922685 
L 84.919085 30.430641 
L 85.065754 31.445721 
L 85.163533 31.485529 
L 85.212422 30.429888 
L 85.261312 31.507587 
L 85.359091 31.559881 
L 85.45687 31.590471 
L 85.50576 28.933021 
L 85.701318 31.691787 
L 85.799097 31.730637 
L 85.847986 28.940075 
L 85.994655 31.870068 
L 86.239103 32.175921 
L 86.287992 28.962047 
L 86.336882 32.249036 
L 86.385771 28.965532 
L 86.581329 32.406693 
L 86.923556 32.916253 
L 86.972446 29.008445 
L 87.021335 33.004821 
L 87.119114 33.16151 
L 87.216893 33.243388 
L 87.265783 29.061228 
L 87.412451 33.51827 
L 87.461341 33.609132 
L 87.55912 29.119967 
L 87.656899 33.814046 
L 87.705789 30.428493 
L 87.754678 33.918586 
L 87.803568 34.018027 
L 87.852457 29.185673 
L 87.901347 34.138229 
L 87.950236 34.24328 
L 87.999126 29.222099 
L 88.048015 34.369015 
L 88.096905 30.474269 
L 88.145794 30.475433 
L 88.292463 34.7336 
L 88.5858 35.462127 
L 88.63469 30.606335 
L 88.683579 35.612619 
L 89.319143 37.351724 
L 89.368033 30.937192 
L 89.416922 37.494581 
L 89.514701 37.724223 
L 89.563591 31.031475 
L 89.61248 37.872867 
L 89.66137 37.990231 
L 89.710259 31.097913 
L 89.759149 38.138998 
L 89.808038 38.256221 
L 89.905817 30.921301 
L 90.003596 38.542213 
L 90.052486 29.967705 
L 90.101376 38.689444 
L 90.150265 38.809031 
L 90.199155 30.023207 
L 90.248044 31.435891 
L 90.394713 39.24826 
L 90.443602 39.367837 
L 90.492492 30.138479 
L 90.541381 39.514933 
L 90.590271 39.634275 
L 90.63916 30.194104 
L 90.68805 39.781121 
L 91.176945 40.976485 
L 91.274724 41.151966 
L 91.323614 30.507446 
L 91.421393 41.421664 
L 91.470282 30.921301 
L 91.519172 41.54312 
L 91.568061 32.554965 
L 91.71473 41.964171 
L 91.812509 42.20615 
L 91.861399 30.724417 
L 91.959178 30.742087 
L 92.105846 42.682111 
L 92.154736 42.802231 
L 92.203625 30.847945 
L 92.252515 42.951031 
L 92.301404 43.071036 
L 92.350294 33.191697 
L 92.399184 43.248793 
L 92.448073 43.369811 
L 92.545852 43.548246 
L 92.594742 31.001048 
L 92.74141 43.849457 
L 93.083637 44.700871 
L 93.132526 31.237734 
L 93.181416 33.879978 
L 93.230306 44.910276 
L 93.279195 33.955008 
L 93.328085 33.979516 
L 93.376974 45.148232 
L 93.425864 31.327663 
L 93.474753 30.921301 
L 93.523643 31.334181 
L 93.670311 45.573143 
L 93.719201 31.415074 
L 93.76809 34.240481 
L 93.914759 46.016509 
L 94.256986 46.828783 
L 94.305875 31.66004 
L 94.354765 46.971604 
L 94.452544 47.202957 
L 94.501433 31.734796 
L 94.550323 47.346502 
L 94.648102 47.578756 
L 94.696991 30.921301 
L 94.745881 47.695057 
L 94.794771 35.130503 
L 94.84366 30.921301 
L 94.941439 47.985771 
L 94.990329 30.921301 
L 95.039218 48.102209 
L 95.136997 48.335165 
L 95.185887 30.921301 
L 95.283666 35.427105 
L 95.430334 48.799622 
L 95.479224 32.049166 
L 95.528114 35.611118 
L 95.674782 49.231121 
L 95.723672 35.781186 
L 95.772561 49.402814 
L 95.821451 49.517206 
L 95.91923 49.631615 
L 95.968119 30.921301 
L 96.212567 50.032976 
L 96.310346 50.205228 
L 96.359236 30.921301 
L 96.408125 36.19268 
L 96.457015 32.340187 
L 96.554794 32.353304 
L 96.652573 50.577318 
L 96.701462 36.349619 
L 96.750352 50.749633 
L 96.848131 50.979234 
L 96.89702 36.518814 
L 96.94591 51.151786 
L 96.994799 51.267125 
L 97.043689 32.541331 
L 97.092579 36.652142 
L 97.141468 51.469174 
L 97.190358 32.582177 
L 97.288137 36.749147 
L 97.337026 32.606924 
L 97.483695 51.873502 
L 98.02148 53.143797 
L 98.070369 32.914979 
L 98.119259 37.438255 
L 98.265927 53.578182 
L 98.314817 33.000985 
L 98.363706 53.722868 
L 98.705933 54.526647 
L 98.754823 33.188029 
L 98.803712 54.6703 
L 98.852602 54.784481 
L 98.901491 38.108199 
L 98.950381 54.957042 
L 99.097049 55.299221 
L 99.145939 33.341081 
L 99.194828 55.442921 
L 99.243718 33.370112 
L 99.390386 55.815033 
L 99.634834 56.390197 
L 99.732613 56.505369 
L 99.781503 30.921301 
L 99.830392 30.921301 
L 99.928171 56.735582 
L 100.02595 30.921301 
L 100.07484 56.880612 
L 100.123729 38.974987 
L 100.172619 33.664015 
L 100.221509 57.084942 
L 100.270398 39.059207 
L 100.319288 39.08365 
L 100.368177 30.921301 
L 100.465956 57.434576 
L 100.563735 33.772285 
L 100.612625 57.639617 
L 100.661514 30.921301 
L 100.710404 33.80119 
L 100.759293 57.785251 
L 100.808183 39.347218 
L 100.905962 39.396381 
L 100.954852 30.921301 
L 101.003741 33.864747 
L 101.15041 58.343597 
L 101.199299 33.938102 
L 101.248189 39.588542 
L 101.394857 58.781406 
L 101.443747 58.897298 
L 101.492636 34.044988 
L 101.541526 34.051586 
L 101.639305 59.190963 
L 101.737084 34.113991 
L 101.883753 59.632795 
L 102.225979 60.449864 
L 102.274869 40.435509 
L 102.323758 60.627393 
L 102.372648 40.507596 
L 102.519317 61.038099 
L 103.057101 62.313394 
L 103.105991 41.189538 
L 103.15488 41.214089 
L 103.301549 62.781618 
L 103.350439 41.378353 
L 103.399328 62.958079 
L 103.497107 63.189253 
L 103.545997 30.921301 
L 103.594886 41.542433 
L 103.741555 63.596895 
L 103.790444 63.712665 
L 103.839334 41.752993 
L 103.888223 63.890267 
L 103.937113 64.006504 
L 103.986002 41.87089 
L 104.034892 64.184101 
L 104.083782 64.300301 
L 104.181561 64.447718 
L 104.23045 30.921301 
L 104.27934 35.095973 
L 104.426008 64.827023 
L 104.474898 42.199557 
L 104.523787 65.005027 
L 104.572677 65.121349 
L 104.621566 42.31706 
L 104.670456 65.298853 
L 104.866014 65.760765 
L 104.914904 42.571829 
L 104.963793 42.596375 
L 105.061572 66.115132 
L 105.110462 30.921301 
L 105.159351 66.230775 
L 105.208241 66.346386 
L 105.25713 35.450612 
L 105.30602 42.817521 
L 105.452688 66.786653 
L 105.794915 67.59582 
L 105.843805 35.682691 
L 105.892694 67.743223 
L 105.990473 67.97534 
L 106.039363 35.753245 
L 106.088252 35.759825 
L 106.234921 68.387324 
L 106.3327 68.61923 
L 106.381589 35.872833 
L 106.430479 35.879448 
L 106.528258 68.915388 
L 106.626037 35.940073 
L 106.674927 35.946598 
L 106.772706 35.959714 
L 106.870485 43.921768 
L 107.017153 30.921301 
L 107.114932 69.496373 
L 107.163822 44.050411 
L 107.212712 69.675212 
L 107.261601 69.791363 
L 107.310491 36.092126 
L 107.35938 69.939792 
L 107.40827 44.224442 
L 107.457159 70.118862 
L 107.506049 36.152378 
L 107.554938 70.267481 
L 107.603828 36.180001 
L 107.701607 70.532484 
L 107.799386 36.240104 
L 107.946054 70.892976 
L 108.043834 71.125571 
L 108.092723 36.337225 
L 108.141613 71.274329 
L 108.190502 36.364728 
L 108.337171 44.7968 
L 108.38606 36.40071 
L 108.43495 44.834212 
L 108.581618 71.910722 
L 108.679397 72.090578 
L 108.728287 36.513772 
L 108.874956 72.419486 
L 108.923845 30.921301 
L 108.972735 72.535903 
L 109.217182 73.119609 
L 109.314961 36.709912 
L 109.363851 45.502067 
L 109.46163 45.55168 
L 109.510519 36.750777 
L 109.657188 73.708255 
L 109.706078 36.805386 
L 109.754967 73.858064 
L 109.803857 45.750371 
L 109.901636 45.799996 
L 110.048304 74.401423 
L 110.243862 74.869341 
L 110.292752 37.011602 
L 110.341642 46.153158 
L 110.439421 75.201371 
L 110.48831 37.07081 
L 110.5372 75.351769 
L 110.683868 75.70337 
L 110.732758 46.460908 
L 110.781647 75.885324 
L 110.928316 76.237632 
L 110.977205 37.253107 
L 111.026095 46.678504 
L 111.074984 76.453629 
L 111.123874 30.921301 
L 111.172764 37.291505 
L 111.319432 76.787094 
L 111.368322 76.904511 
L 111.466101 37.382132 
L 111.51499 46.958461 
L 111.661659 77.42098 
L 111.759438 77.655889 
L 111.808327 37.501935 
L 111.857217 77.806959 
L 111.954996 78.042122 
L 112.052775 78.225571 
L 112.101665 37.601126 
L 112.248333 78.61247 
L 112.346112 78.848031 
L 112.443891 37.720299 
L 112.54167 79.183281 
L 112.59056 37.767235 
L 112.639449 79.334928 
L 112.688339 47.844545 
L 112.786118 79.636286 
L 112.883897 79.787969 
L 112.932787 30.921301 
L 113.079455 80.141024 
L 113.177234 80.376378 
L 113.226124 48.237652 
L 113.323903 48.28757 
L 113.372792 48.312485 
L 113.470572 80.876444 
L 113.519461 38.058426 
L 113.568351 81.028188 
L 113.66613 81.26317 
L 113.715019 48.571098 
L 113.763909 81.446738 
L 113.812798 81.564095 
L 113.861688 48.683989 
L 113.910577 48.70893 
L 113.959467 81.814346 
L 114.008356 38.219091 
L 114.057246 81.966099 
L 114.106135 38.245635 
L 114.203914 38.258694 
L 114.350583 82.370792 
L 114.448362 82.554748 
L 114.497252 30.921301 
L 114.546141 82.672268 
L 114.595031 49.098917 
L 114.64392 49.123855 
L 114.790589 83.158394 
L 114.839478 83.275958 
L 114.888368 49.324039 
L 114.937257 83.460467 
L 114.986147 49.392745 
L 115.035037 49.417698 
L 115.132816 83.829469 
L 115.181705 30.921301 
L 115.230595 83.94704 
L 115.279484 38.58254 
L 115.377263 84.216795 
L 115.475042 38.639885 
L 115.523932 49.711847 
L 115.572821 84.503685 
L 115.621711 38.67742 
L 115.6706 84.656041 
L 115.71949 38.703546 
L 115.768379 38.710066 
L 115.915048 85.078194 
L 115.963938 85.195616 
L 116.012827 38.795157 
L 116.061717 85.348054 
L 116.355054 86.05276 
L 116.452833 86.237688 
L 116.501722 38.969529 
L 116.599502 86.458005 
L 116.648391 30.921301 
L 116.697281 39.006867 
L 116.79506 86.728044 
L 116.843949 30.921301 
L 116.892839 86.845359 
L 116.990618 87.080073 
L 117.039507 30.921301 
L 117.088397 87.197472 
L 117.137286 39.130158 
L 117.283955 87.584872 
L 117.332844 39.194815 
L 117.381734 87.737774 
L 117.430624 87.855155 
L 117.528403 88.040505 
L 117.577292 30.921301 
L 117.675071 39.277188 
L 117.82174 88.414267 
L 118.212856 89.352531 
L 118.261746 39.487437 
L 118.310635 89.505687 
L 118.359525 89.622947 
L 118.457304 39.543536 
L 118.506193 39.550088 
L 118.555083 39.556547 
L 118.652862 90.033675 
L 118.701751 39.601343 
L 118.750641 39.607838 
L 118.897309 90.376054 
L 119.337315 91.431455 
L 119.386205 52.314642 
L 119.435094 91.618086 
L 119.581763 91.970417 
L 119.630652 30.921301 
L 119.679542 92.087781 
L 119.728432 52.551064 
L 119.777321 92.274572 
L 119.8751 92.5094 
L 119.92399 52.702679 
L 119.972879 52.727653 
L 120.119548 92.952625 
L 120.217327 40.086884 
L 120.266216 52.899853 
L 120.315106 40.104538 
L 120.461774 93.517123 
L 120.510664 93.634497 
L 120.559554 40.186265 
L 120.608443 93.788517 
L 120.90178 94.492391 
L 120.95067 40.323946 
L 120.999559 53.425405 
L 121.146228 94.950944 
L 121.244007 95.185535 
L 121.292897 40.435045 
L 121.341786 95.340266 
L 121.390676 53.714063 
L 121.439565 95.52826 
L 121.488455 53.780838 
L 121.537344 53.80575 
L 121.586234 95.786657 
L 121.635123 53.87249 
L 121.684013 40.542039 
L 121.830681 96.16663 
L 122.172908 96.989883 
L 122.221798 30.921301 
L 122.270687 97.10744 
L 122.368466 97.342908 
L 122.417356 40.777108 
L 122.466245 97.498055 
L 122.759582 98.205449 
L 122.808472 40.91247 
L 122.857362 98.361159 
L 122.906251 98.479194 
L 122.955141 54.822169 
L 123.00403 98.66868 
L 123.05292 98.78676 
L 123.101809 41.003397 
L 123.150699 98.942505 
L 123.199588 41.028232 
L 123.248478 41.034755 
L 123.395146 99.291905 
L 123.541815 99.646186 
L 123.639594 99.836067 
L 123.688484 30.921301 
L 123.932931 100.380271 
L 123.981821 100.498453 
L 124.03071 41.270357 
L 124.0796 100.654511 
L 124.128489 100.772618 
L 124.226268 100.96284 
L 124.275158 41.342387 
L 124.421827 101.355253 
L 124.470716 41.403089 
L 124.519606 101.511599 
L 124.568495 55.879315 
L 124.715164 101.938195 
L 125.05739 102.762866 
L 125.10628 41.618764 
L 125.15517 41.625246 
L 125.252949 103.075451 
L 125.301838 41.667563 
L 125.350728 103.231285 
L 125.448507 103.465919 
L 125.595175 30.921301 
L 125.741844 103.836681 
L 125.790733 103.917288 
L 125.839623 41.790114 
L 125.888512 104.023851 
L 125.937402 41.806488 
L 125.986292 56.741372 
L 126.035181 41.818315 
L 126.084071 41.822745 
L 126.13296 30.921301 
L 126.279629 104.393321 
L 126.426297 104.635093 
L 126.524076 41.906072 
L 126.621855 104.872248 
L 126.670745 41.93432 
L 126.719635 104.978797 
L 126.768524 105.059151 
L 126.817414 41.962579 
L 126.866303 105.16628 
L 126.915193 105.247653 
L 126.964082 41.991033 
L 127.012972 105.355473 
L 127.15964 105.599626 
L 127.20853 30.921301 
L 127.257419 105.68103 
L 127.355198 105.843873 
L 127.452977 30.921301 
L 127.550757 106.0574 
L 127.599646 42.110415 
L 127.648536 106.165297 
L 127.697425 57.46377 
L 127.746315 106.297496 
L 127.844094 106.405367 
L 127.892983 30.921301 
L 127.990762 106.568201 
L 128.088541 42.19374 
L 128.137431 57.62681 
L 128.18632 42.205714 
L 128.23521 57.65301 
L 128.2841 57.670084 
L 128.381879 57.68724 
L 128.430768 30.921301 
L 128.479658 106.955544 
L 128.528547 42.24431 
L 128.626326 42.253262 
L 128.772995 107.277508 
L 128.968553 107.600975 
L 129.017442 30.921301 
L 129.066332 107.681985 
L 129.164111 107.844228 
L 129.213001 42.375877 
L 129.26189 107.95201 
L 129.653006 108.600418 
L 129.701896 58.286966 
L 129.750785 108.731322 
L 129.799675 108.811488 
L 129.848565 42.517324 
L 129.897454 108.9185 
L 130.239681 109.479439 
L 130.28857 58.582246 
L 130.33746 109.610487 
L 130.435239 109.770784 
L 130.484128 42.658022 
L 130.581907 58.705935 
L 130.728576 110.140149 
L 130.777466 30.921301 
L 130.826355 58.803528 
L 130.875245 110.271352 
L 130.924134 42.731582 
L 130.973024 110.378771 
L 131.070803 110.539162 
L 131.119692 42.771065 
L 131.168582 110.646662 
L 131.217471 58.972752 
L 131.266361 58.989802 
L 131.31525 110.828985 
L 131.36414 42.813753 
L 131.41303 110.936482 
L 131.461919 59.069436 
L 131.608588 111.227119 
L 131.706367 111.386435 
L 131.755256 42.895362 
L 131.804146 111.493343 
L 131.853035 111.572777 
L 131.950814 42.930485 
L 131.999704 42.935068 
L 132.146372 111.864947 
L 132.195262 111.944467 
L 132.244152 30.921301 
L 132.293041 112.023936 
L 132.39082 42.99798 
L 132.488599 112.261402 
L 132.537489 59.509856 
L 132.635268 59.543647 
L 132.781936 112.652819 
L 132.830826 59.639596 
L 132.879715 112.78347 
L 132.977495 112.942495 
L 133.026384 59.735356 
L 133.075274 113.073084 
L 133.124163 59.778539 
L 133.173053 43.151019 
L 133.221942 113.231323 
L 133.270832 59.830815 
L 133.319721 59.847785 
L 133.368611 43.182073 
L 133.4175 59.873857 
L 133.515279 113.57157 
L 133.564169 30.921301 
L 133.613058 43.217069 
L 133.710837 30.921301 
L 133.759727 113.758409 
L 133.808617 60.004797 
L 133.857506 60.021715 
L 134.004175 114.099671 
L 134.053064 43.294005 
L 134.101954 114.207026 
L 134.150843 114.28654 
L 134.199733 43.32159 
L 134.297512 60.197124 
L 134.44418 114.632361 
L 134.54196 114.790857 
L 134.590849 43.395456 
L 134.639739 43.400059 
L 134.786407 115.084113 
L 134.933076 30.921301 
L 134.981965 115.266215 
L 135.030855 30.921301 
L 135.128634 43.470055 
L 135.275302 115.560434 
L 135.324192 60.596635 
L 135.373082 115.691392 
L 135.51975 115.92959 
L 135.56864 43.562472 
L 135.617529 116.037275 
L 135.666419 60.752528 
L 135.715308 116.168426 
L 135.764198 60.795357 
L 135.813087 43.605023 
L 135.910866 43.614266 
L 136.057535 116.543645 
L 136.106425 116.623127 
L 136.155314 60.943744 
L 136.204204 60.960724 
L 136.253093 116.806583 
L 136.301983 30.921301 
L 136.350872 43.691147 
L 136.399762 116.914566 
L 136.448651 43.707209 
L 136.497541 30.921301 
L 136.741988 117.262288 
L 136.790878 43.7582 
L 136.839767 117.370281 
L 136.888657 117.449767 
L 136.937547 30.921301 
L 136.986436 117.529398 
L 137.377552 118.165455 
L 137.426442 30.921301 
L 137.475331 118.245039 
L 137.768669 118.722058 
L 137.817558 43.967231 
L 137.866448 118.830319 
L 138.306453 119.545804 
L 138.355343 61.890013 
L 138.404232 119.678024 
L 138.453122 119.757546 
L 138.502012 44.114711 
L 138.550901 44.119329 
L 138.69757 120.053899 
L 138.844238 120.292434 
L 138.893128 44.191351 
L 138.990907 62.156197 
L 139.137575 120.639089 
L 139.382023 121.037131 
L 139.430913 62.368383 
L 139.479802 121.169663 
L 139.822029 121.726711 
L 139.870918 44.393652 
L 139.968697 62.607199 
L 140.017587 121.917098 
L 140.066477 44.421493 
L 140.115366 122.024963 
L 140.164256 44.437188 
L 140.310924 122.290632 
L 140.604261 122.763179 
L 140.653151 44.541491 
L 140.70204 122.871199 
L 140.897599 123.186281 
L 140.995378 44.608752 
L 141.093157 123.426087 
L 141.142046 44.635385 
L 141.190936 44.640019 
L 141.288715 123.642573 
L 141.337604 44.666696 
L 141.386494 123.750774 
L 141.435383 44.68226 
L 141.582052 123.990898 
L 141.630942 124.069671 
L 141.679831 44.727303 
L 141.728721 124.177942 
L 141.875389 124.414224 
L 141.924279 30.921301 
L 141.973168 63.440715 
L 142.022058 63.457531 
L 142.119837 124.678217 
L 142.168726 63.523948 
L 142.217616 124.810432 
L 142.608732 125.440259 
L 142.657622 63.763419 
L 142.706511 125.571942 
L 142.80429 125.728653 
L 142.85318 44.958435 
L 142.902069 63.86324 
L 143.048738 126.047062 
L 143.293186 126.438443 
L 143.342075 64.076117 
L 143.390965 126.570095 
L 143.439854 126.648226 
L 143.488744 30.921301 
L 143.537633 126.726406 
L 143.782081 127.117629 
L 143.83097 64.288099 
L 143.87986 64.30478 
L 144.026529 127.458246 
L 144.075418 30.921301 
L 144.124308 127.536076 
L 144.173197 45.209657 
L 144.222087 45.214339 
L 144.515424 127.990474 
L 144.564313 128.068336 
L 144.613203 64.583882 
L 144.662092 64.600489 
L 144.808761 128.409369 
L 144.857651 128.487225 
L 144.95543 128.618857 
L 145.004319 45.360386 
L 145.053209 64.764065 
L 145.199877 128.912461 
L 145.297656 129.068378 
L 145.395435 30.921301 
L 145.444325 45.427543 
L 145.493215 45.432203 
L 145.542104 64.922286 
L 145.639883 129.370549 
L 145.786552 45.480643 
L 145.835441 65.030224 
L 145.98211 129.79867 
L 146.030999 129.877089 
L 146.177668 30.921301 
L 146.275447 130.064617 
L 146.324337 30.921301 
L 146.373226 65.201415 
L 146.422116 65.218091 
L 146.568784 130.40839 
L 146.617674 65.307153 
L 146.666563 130.541274 
L 146.813232 130.776443 
L 146.911011 45.666238 
L 147.05768 131.049554 
L 147.106569 30.921301 
L 147.155459 45.696984 
L 147.204348 65.513499 
L 147.253238 131.213315 
L 147.302127 45.719712 
L 147.351017 65.563732 
L 147.448796 131.455681 
L 147.497685 45.753086 
L 147.595464 45.762452 
L 147.742133 131.783873 
L 147.791023 45.798943 
L 147.839912 131.893311 
L 147.888802 131.971664 
L 147.937691 65.786304 
L 147.986581 132.104859 
L 148.03547 65.826915 
L 148.08436 30.921301 
L 148.133249 45.850216 
L 148.231028 132.347471 
L 148.279918 65.900948 
L 148.328807 132.480427 
L 148.377697 132.558297 
L 148.426586 45.90468 
L 148.475476 45.909482 
L 148.573255 132.776543 
L 148.671034 132.854453 
L 148.719924 30.921301 
L 148.866592 133.08829 
L 148.915482 45.977599 
L 148.964371 133.197623 
L 149.013261 45.992936 
L 149.06215 45.997643 
L 149.159929 133.417179 
L 149.208819 66.226628 
L 149.306598 66.260266 
L 149.355488 46.046292 
L 149.453267 133.772494 
L 149.502156 66.334432 
L 149.551046 133.906629 
L 149.599935 66.375035 
L 149.648825 46.098 
L 149.697714 134.072551 
L 149.746604 46.113414 
L 149.795493 66.435029 
L 149.844383 134.238857 
L 149.893272 46.136295 
L 149.942162 66.485297 
L 149.991051 134.404784 
L 150.039941 46.159215 
L 150.08883 134.515352 
L 150.18661 134.648551 
L 150.284389 134.736819 
L 150.333278 30.921301 
L 150.479947 134.928864 
L 150.528836 134.992893 
L 150.577726 66.698587 
L 150.626615 135.101638 
L 150.675505 66.731265 
L 150.724394 46.250917 
L 150.773284 66.752035 
L 150.871063 135.342553 
L 150.919953 46.275679 
L 151.017732 46.282353 
L 151.115511 135.5418 
L 151.1644 66.863506 
L 151.21329 135.650242 
L 151.457737 135.967708 
L 151.555516 46.360035 
L 151.653295 30.921301 
L 151.702185 136.163808 
L 151.799964 136.272329 
L 151.848854 46.392643 
L 151.995522 136.486898 
L 152.093301 46.42523 
L 152.142191 46.42857 
L 152.19108 46.431842 
L 152.23997 136.668095 
L 152.288859 67.200904 
L 152.337749 30.921301 
L 152.386638 67.214356 
L 152.484418 136.884879 
L 152.533307 46.469965 
L 152.582197 136.97258 
L 152.679976 137.099473 
L 152.728865 67.329658 
L 152.777755 137.207952 
L 152.973313 137.461877 
L 153.022202 67.437657 
L 153.071092 137.57071 
L 153.559987 138.205149 
L 153.657766 30.921301 
L 153.706656 46.636703 
L 153.804435 138.381356 
L 153.853324 46.655706 
L 153.902214 46.659083 
L 153.951103 138.493885 
L 153.999993 67.744291 
L 154.048883 46.675832 
L 154.146662 138.691029 
L 154.195551 46.694811 
L 154.29333 67.823394 
L 154.391109 138.933035 
L 154.439999 67.874319 
L 154.488888 139.041723 
L 154.537778 67.906499 
L 154.586667 67.919937 
L 154.635557 46.749749 
L 154.782225 139.308623 
L 154.831115 46.772079 
L 154.880005 139.396505 
L 154.928894 139.459581 
L 155.026673 139.568397 
L 155.075563 30.921301 
L 155.124452 30.921301 
L 155.222231 68.069321 
L 155.271121 139.701715 
L 155.32001 30.921301 
L 155.417789 46.82457 
L 155.466679 30.921301 
L 155.613348 139.940644 
L 155.808906 140.193162 
L 155.857795 68.246144 
L 155.906685 140.301785 
L 155.955574 140.364988 
L 156.004464 46.903379 
L 156.053353 140.452873 
L 156.102243 140.515671 
L 156.151132 46.922289 
L 156.200022 140.602944 
L 156.493359 140.977823 
L 156.542249 46.979658 
L 156.591138 141.065233 
L 156.982254 141.507272 
L 157.080033 30.921301 
L 157.177813 141.605641 
L 157.226702 47.050844 
L 157.275592 141.672496 
L 157.568929 141.96844 
L 157.617818 47.090912 
L 157.666708 142.035442 
L 157.715597 47.098493 
L 157.862266 142.201202 
L 157.911155 142.250475 
L 158.008935 47.126192 
L 158.155603 142.452271 
L 158.204493 142.501739 
L 158.302272 30.921301 
L 158.400051 142.636213 
L 158.44894 47.164634 
L 158.546719 68.971904 
L 158.693388 142.87696 
L 158.791167 142.978279 
L 158.840057 47.201994 
L 158.888946 143.04699 
L 158.937836 69.075907 
L 159.084504 30.921301 
L 159.182283 143.190358 
L 159.231173 69.117583 
L 159.280062 30.921301 
L 159.328952 69.12838 
L 159.377841 47.233417 
L 159.47562 143.38512 
L 159.52451 69.173874 
L 159.5734 69.184526 
L 159.671179 143.560495 
L 159.720068 47.26563 
L 159.768958 143.629338 
L 159.915626 143.781342 
L 159.964516 47.28971 
L 160.013405 143.850158 
L 160.062295 69.308288 
L 160.111184 143.937962 
L 160.160074 47.306818 
L 160.208963 144.006964 
L 160.257853 47.314536 
L 160.355632 144.126552 
L 160.404522 47.327608 
L 160.453411 47.329775 
L 160.55119 144.264632 
L 160.60008 30.921301 
L 160.648969 144.315249 
L 160.942306 144.619986 
L 160.991196 47.381286 
L 161.040085 144.689042 
L 161.137865 144.790557 
L 161.186754 30.921301 
L 161.235644 144.841334 
L 161.284533 144.892016 
L 161.333423 69.60858 
L 161.382312 144.98015 
L 161.528981 145.132006 
L 161.57787 69.677589 
L 161.62676 145.22027 
L 161.724539 145.322119 
L 161.773428 47.457268 
L 161.822318 145.391481 
L 161.871208 69.752157 
L 161.968987 145.530881 
L 162.017876 47.479987 
L 162.066766 145.600331 
L 162.164545 145.702185 
L 162.213434 30.921301 
L 162.262324 145.753012 
L 162.408992 145.905482 
L 162.555661 30.921301 
L 162.70233 146.114405 
L 162.848998 47.55127 
L 162.897888 69.986112 
L 163.044556 146.400562 
L 163.093446 146.452335 
L 163.142335 47.579757 
L 163.191225 146.523255 
L 163.240114 146.574824 
L 163.289004 47.592982 
L 163.337893 146.645682 
L 163.484562 146.800435 
L 163.533452 47.617271 
L 163.582341 146.871155 
L 163.68012 146.974289 
L 163.72901 70.204921 
L 163.777899 147.064288 
L 163.826789 147.115909 
L 163.875678 70.245205 
L 163.924568 147.205865 
L 163.973457 147.257411 
L 164.022347 47.666288 
L 164.071236 147.328089 
L 164.120126 47.67402 
L 164.169015 47.676286 
L 164.217905 147.417925 
L 164.266795 70.331182 
L 164.315684 30.921301 
L 164.462353 147.578594 
L 164.511242 70.376836 
L 164.560132 147.668569 
L 164.609021 70.402476 
L 164.657911 70.413512 
L 164.804579 147.901269 
L 164.853469 47.735545 
L 164.951248 70.484925 
L 165.097917 148.15375 
L 165.195696 148.224947 
L 165.244585 30.921301 
L 165.391254 148.367668 
L 165.440143 148.419588 
L 165.489033 30.921301 
L 165.537922 148.471039 
L 165.586812 47.796346 
L 165.684591 148.593377 
L 165.73348 30.921301 
L 165.78237 148.645 
L 166.271265 149.160369 
L 166.320155 70.82471 
L 166.369044 149.250376 
L 166.417934 149.302095 
L 166.466823 47.885102 
L 166.515713 149.373067 
L 166.613492 149.474159 
L 166.662382 70.909953 
L 166.711271 149.543618 
L 166.955719 149.74242 
L 167.004608 47.929144 
L 167.053498 149.796246 
L 167.102387 47.934752 
L 167.249056 149.904325 
L 167.346835 149.974214 
L 167.395725 47.953094 
L 167.444614 71.054624 
L 167.493504 150.058318 
L 167.542393 71.074311 
L 167.591283 71.082699 
L 167.689062 150.198513 
L 167.737951 47.975982 
L 167.786841 150.252979 
L 167.83573 150.293019 
L 167.88462 30.921301 
L 167.933509 150.333066 
L 167.982399 71.151333 
L 168.031288 150.403269 
L 168.226847 150.56277 
L 168.275736 30.921301 
L 168.324626 150.602512 
L 168.471294 150.721571 
L 168.520184 30.921301 
L 168.569073 150.76123 
L 168.666852 150.840588 
L 168.715742 48.041285 
L 168.764631 150.894908 
L 169.009079 151.093407 
L 169.057969 30.921301 
L 169.106858 151.13267 
L 169.155748 48.071161 
L 169.302416 151.262834 
L 169.400195 151.33911 
L 169.449085 48.092606 
L 169.497974 151.391745 
L 169.693533 151.544081 
L 169.742422 71.489719 
L 169.791312 151.61098 
L 169.93798 151.725224 
L 169.98687 48.132902 
L 170.035759 151.777616 
L 170.280207 151.968048 
L 170.329096 30.921301 
L 170.377986 152.005917 
L 170.426875 152.044285 
L 170.475765 48.166233 
L 170.524655 48.167919 
L 170.671323 152.190552 
L 170.915771 152.385319 
L 170.96466 71.724417 
L 171.01355 152.453934 
L 171.111329 152.531893 
L 171.160218 48.217005 
L 171.209108 71.769192 
L 171.306887 152.654238 
L 171.355777 48.229831 
L 171.453556 71.807468 
L 171.600224 152.832029 
L 171.649114 48.248469 
L 171.698003 152.886401 
L 171.746893 152.925851 
L 171.795782 71.874756 
L 171.844672 71.88307 
L 171.991341 153.104311 
L 172.04023 153.143695 
L 172.08912 48.28072 
L 172.138009 153.198292 
L 172.186899 71.950236 
L 172.235788 48.289556 
L 172.382457 153.337245 
L 172.578015 153.494925 
L 172.626904 48.317296 
L 172.724683 48.322038 
L 172.773573 72.049113 
L 172.871352 153.663764 
L 172.920242 30.921301 
L 172.969131 153.70316 
L 173.06691 153.784094 
L 173.1158 48.347414 
L 173.213579 72.125652 
L 173.311358 153.94322 
L 173.409137 154.014879 
L 173.458026 30.921301 
L 173.555806 154.096103 
L 173.604695 48.37949 
L 173.653585 154.152028 
L 173.702474 154.19254 
L 173.751364 48.389501 
L 173.849143 48.393014 
L 173.995811 154.361108 
L 174.044701 72.272033 
L 174.09359 72.280743 
L 174.14248 154.465118 
L 174.191369 72.300958 
L 174.240259 72.309784 
L 174.289148 154.57071 
L 174.338038 30.921301 
L 174.386928 154.612211 
L 174.435817 154.653844 
L 174.484707 72.352944 
L 174.533596 154.727462 
L 174.680265 154.852241 
L 174.729154 30.921301 
L 174.778044 72.407628 
L 174.924712 154.999811 
L 174.973602 155.041292 
L 175.071381 48.479492 
L 175.21805 155.214411 
L 175.266939 72.507118 
L 175.315829 72.515919 
L 175.364718 155.320233 
L 175.413608 48.504731 
L 175.462497 155.377724 
L 175.511387 72.551808 
L 175.609166 155.492387 
L 175.658055 72.583356 
L 175.755834 72.600892 
L 175.853613 155.671178 
L 175.902503 72.632336 
L 175.951393 155.744367 
L 176.000282 155.785666 
L 176.049172 48.552524 
L 176.098061 155.843068 
L 176.146951 155.884385 
L 176.19584 48.562703 
L 176.24473 155.941825 
L 176.293619 48.568793 
L 176.440288 156.082016 
L 176.635846 156.247355 
L 176.684736 48.600062 
L 176.733625 156.304796 
L 176.782515 48.606085 
L 176.929183 156.445044 
L 176.978073 156.486392 
L 177.026962 72.85542 
L 177.075852 156.559702 
L 177.27141 156.72502 
L 177.320299 48.649052 
L 177.369189 156.782502 
L 177.515858 156.906586 
L 177.613637 30.921301 
L 177.760305 157.030505 
L 177.906974 157.15465 
L 177.955863 48.692842 
L 178.004753 157.212159 
L 178.151421 157.336317 
L 178.200311 30.921301 
L 178.249201 157.377763 
L 178.29809 48.715671 
L 178.444759 157.518822 
L 178.786985 157.81119 
L 178.835875 48.759846 
L 178.884764 48.76167 
L 178.982543 157.92772 
L 179.031433 73.248029 
L 179.080323 158.003096 
L 179.129212 158.04587 
L 179.178102 48.784017 
L 179.275881 73.293986 
L 179.32477 73.303101 
L 179.471439 158.291319 
L 179.666997 158.462285 
L 179.715886 48.826446 
L 179.764776 158.521939 
L 179.813666 158.564724 
L 179.862555 73.420915 
L 179.911445 73.429959 
L 180.058113 158.759847 
L 180.155892 48.86015 
L 180.204782 48.862039 
L 180.253671 48.8639 
L 180.40034 158.972789 
L 180.449229 159.01556 
L 180.498119 73.542782 
L 180.547008 159.091968 
L 180.595898 159.134643 
L 180.644788 73.574902 
L 180.693677 159.210978 
L 180.742567 159.25369 
L 180.791456 73.607073 
L 180.840346 159.329944 
L 180.938125 159.415441 
L 180.987014 73.650739 
L 181.035904 159.491773 
L 181.084793 159.534559 
L 181.182572 159.610693 
L 181.231462 30.921301 
L 181.329241 159.695551 
L 181.378131 48.951809 
L 181.42702 159.755011 
L 181.622578 159.925063 
L 181.720357 30.921301 
L 181.769247 73.796872 
L 181.818136 73.805854 
L 181.964805 160.143966 
L 182.160363 160.31313 
L 182.209253 73.892035 
L 182.258142 160.388584 
L 182.307032 160.430561 
L 182.355921 73.923657 
L 182.404811 160.506596 
L 182.600369 160.676395 
L 182.698148 160.752545 
L 182.747037 30.921301 
L 182.795927 30.921301 
L 182.844816 49.058761 
L 182.991485 160.896976 
L 183.089264 160.981337 
L 183.187043 161.056851 
L 183.235933 49.089774 
L 183.382601 161.19172 
L 183.52927 161.318057 
L 183.578159 49.116478 
L 183.675938 49.120394 
L 183.773718 161.454333 
L 183.822607 30.921301 
L 183.871497 74.197781 
L 183.920386 161.529803 
L 183.969276 49.138519 
L 184.018165 74.222594 
L 184.164834 161.706334 
L 184.213723 49.156642 
L 184.262613 161.765744 
L 184.311502 49.162882 
L 184.409281 161.866877 
L 184.458171 74.307975 
L 184.507061 161.942273 
L 185.142624 162.48714 
L 185.191514 30.921301 
L 185.240403 162.529136 
L 185.338183 162.612907 
L 185.387072 30.921301 
L 185.435962 49.249061 
L 185.58263 162.756625 
L 186.071526 163.18617 
L 186.120415 74.659059 
L 186.169305 74.668244 
L 186.218194 163.297881 
L 186.267084 49.318221 
L 186.315973 163.358942 
L 186.364863 49.324495 
L 186.511531 163.505457 
L 186.560421 163.548385 
L 186.60931 74.755089 
L 186.6582 163.625899 
L 186.804868 163.754682 
L 186.853758 49.364258 
L 186.902648 163.815653 
L 187.000427 163.901689 
L 187.049316 74.848414 
L 187.098206 163.978835 
L 187.147095 74.868806 
L 187.293764 164.141519 
L 187.342653 49.403242 
L 187.391543 164.202234 
L 187.440432 74.92784 
L 187.538211 164.321999 
L 187.587101 49.421495 
L 187.635991 49.42346 
L 187.73377 164.443587 
L 187.782659 49.434023 
L 187.880438 75.001014 
L 187.929328 75.010142 
L 188.027107 164.634166 
L 188.075996 30.921301 
L 188.124886 164.676727 
L 188.173775 164.719569 
L 188.222665 75.06424 
L 188.271554 164.796841 
L 188.320444 75.08458 
L 188.418223 30.921301 
L 188.662671 165.046867 
L 188.71156 165.089536 
L 188.76045 75.161589 
L 188.809339 165.166852 
L 188.907118 165.252401 
L 189.004897 165.329793 
L 189.053787 30.921301 
L 189.102676 49.523193 
L 189.249345 165.476218 
L 189.347124 165.561663 
L 189.493793 49.553445 
L 189.591572 165.734432 
L 189.640461 49.56392 
L 189.689351 165.795482 
L 189.73824 49.570108 
L 189.884909 165.941792 
L 190.422694 166.419121 
L 190.471583 75.510386 
L 190.520473 166.498837 
L 190.81381 166.762218 
L 190.8627 75.59992 
L 190.911589 166.841828 
L 191.107147 167.018015 
L 191.156037 75.666698 
L 191.253816 75.685341 
L 191.302705 167.169919 
L 191.351595 30.921301 
L 191.400484 167.214108 
L 191.449374 75.717933 
L 191.498263 167.295842 
L 191.596043 167.385386 
L 191.693822 49.730171 
L 191.791601 167.52837 
L 191.84049 49.740888 
L 191.88938 167.591056 
L 191.987159 167.679664 
L 192.036048 49.7558 
L 192.084938 167.734493 
L 192.133827 167.765326 
L 192.182717 49.762686 
L 192.231606 75.860796 
L 192.378275 167.895677 
L 192.720502 168.111842 
L 192.769391 49.794523 
L 192.818281 168.155326 
L 192.86717 49.798619 
L 192.91606 75.961788 
L 192.964949 168.223723 
L 193.013839 75.9763 
L 193.062728 49.807343 
L 193.209397 168.348279 
L 193.258287 76.008565 
L 193.307176 168.404567 
L 193.453845 168.49733 
L 193.551624 30.921301 
L 193.649403 168.571494 
L 193.698292 76.066249 
L 193.747182 168.627581 
L 193.844961 168.689462 
L 193.893851 76.096754 
L 193.94274 168.745593 
L 193.99163 168.776475 
L 194.040519 76.119234 
L 194.138298 76.132212 
L 194.284967 168.945163 
L 194.382746 169.007024 
L 194.431635 49.876676 
L 194.480525 169.050473 
L 194.529414 169.081419 
L 194.578304 76.197823 
L 194.627194 169.137825 
L 194.676083 76.212432 
L 194.724973 49.891048 
L 194.871641 169.250147 
L 194.920531 49.89928 
L 194.96942 169.293665 
L 195.01831 169.324517 
L 195.116089 30.921301 
L 195.164978 76.267088 
L 195.213868 169.406371 
L 195.262757 49.913621 
L 195.311647 169.449786 
L 195.360536 76.292688 
L 195.507205 169.56812 
L 195.556095 169.599164 
L 195.604984 49.931242 
L 195.653874 169.642636 
L 195.751653 169.704354 
L 195.800542 49.940856 
L 195.849432 169.747994 
L 195.947211 169.809745 
L 195.9961 76.385288 
L 196.04499 169.866264 
L 196.142769 169.928336 
L 196.191659 49.961338 
L 196.240548 169.972035 
L 196.289438 49.965471 
L 196.436106 170.079678 
L 196.582775 170.174378 
L 196.631664 49.983754 
L 196.680554 170.218695 
L 196.729443 76.490328 
L 196.778333 49.990193 
L 196.827222 76.500394 
L 196.876112 76.507057 
L 197.022781 170.399291 
L 197.267228 170.558984 
L 197.316118 50.018521 
L 197.365007 76.581028 
L 197.462786 170.662437 
L 197.511676 50.027912 
L 197.609455 50.031589 
L 197.658344 76.617603 
L 197.707234 170.773176 
L 197.756124 76.632481 
L 197.805013 30.921301 
L 197.902792 170.86369 
L 197.951682 50.046209 
L 198.000571 50.047517 
L 198.09835 170.953419 
L 198.14724 30.921301 
L 198.196129 170.985709 
L 198.342798 171.082745 
L 198.391687 76.71163 
L 198.440577 76.718533 
L 198.489466 171.16883 
L 198.538356 50.073729 
L 198.636135 50.07639 
L 198.685025 171.240187 
L 198.733914 50.080628 
L 198.782804 30.921301 
L 198.880583 171.317851 
L 198.978362 30.921301 
L 199.027251 171.376997 
L 199.076141 50.092914 
L 199.12503 76.790121 
L 199.271699 171.512382 
L 199.369478 171.576073 
L 199.418368 76.837371 
L 199.467257 171.634329 
L 199.516147 76.85227 
L 199.613926 171.724489 
L 199.662815 50.124189 
L 199.711705 171.769373 
L 199.760594 50.128423 
L 199.809484 50.12974 
L 199.907263 171.859047 
L 200.005042 171.917412 
L 200.053931 50.141927 
L 200.102821 171.962356 
L 200.151711 50.146169 
L 200.2006 50.147514 
L 200.347269 172.083376 
L 200.396158 50.157345 
L 200.445048 172.127666 
L 200.493937 76.977657 
L 200.591716 172.216832 
L 200.640606 77.000495 
L 200.689495 172.275044 
L 200.787274 172.338473 
L 200.836164 50.180575 
L 200.885054 172.383247 
L 200.933943 77.042756 
L 200.982833 77.049518 
L 201.129501 172.531145 
L 201.178391 50.198098 
L 201.22728 172.57583 
L 201.27617 50.202301 
L 201.422838 172.665251 
L 201.471728 172.697037 
L 201.618396 50.218313 
L 201.765065 172.857605 
L 201.911734 30.921301 
L 201.960623 172.928729 
L 202.009513 77.18112 
L 202.058402 77.187889 
L 202.107292 30.921301 
L 202.156181 173.013407 
L 202.205071 50.242481 
L 202.25396 77.205932 
L 202.400629 173.148053 
L 202.449519 77.23658 
L 202.498408 173.205901 
L 202.547298 173.237507 
L 202.596187 50.262863 
L 202.645077 173.28225 
L 202.693966 173.313878 
L 202.742856 77.278594 
L 202.791745 173.37192 
L 202.840635 77.293222 
L 202.889524 173.429979 
L 202.938414 77.307933 
L 202.987303 50.28276 
L 203.085082 50.285591 
L 203.231751 173.590718 
L 203.280641 30.921301 
L 203.37842 50.296808 
L 203.427309 77.355335 
L 203.476199 173.675322 
L 203.525088 50.30345 
L 203.573978 173.720046 
L 203.622867 77.38126 
L 203.671757 173.778374 
L 203.720646 50.312824 
L 203.769536 173.822982 
L 203.818425 173.854434 
L 203.867315 30.921301 
L 203.916204 50.3199 
L 203.965094 173.899491 
L 204.013984 50.324109 
L 204.062873 77.429855 
L 204.209542 174.02906 
L 204.258431 174.060411 
L 204.35621 174.11858 
L 204.4051 50.344014 
L 204.453989 50.345427 
L 204.600658 174.234837 
L 204.698437 174.297895 
L 204.747326 50.360495 
L 204.796216 174.343076 
L 204.942885 174.437033 
L 204.991774 50.373264 
L 205.040664 174.481683 
L 205.089553 174.512826 
L 205.138443 50.380302 
L 205.187332 50.381751 
L 205.334001 174.633359 
L 205.38289 174.664679 
L 205.480669 30.921301 
L 205.627338 174.784895 
L 205.676228 174.816098 
L 205.725117 77.657291 
L 205.774007 174.87397 
L 205.822896 174.905905 
L 205.871786 50.41628 
L 205.920675 174.951254 
L 205.969565 50.420593 
L 206.116233 175.060837 
L 206.311791 175.188632 
L 206.409571 30.921301 
L 206.556239 175.306512 
L 206.605129 30.921301 
L 206.654018 175.338536 
L 206.751797 175.402317 
L 206.800687 77.804384 
L 206.898466 77.817968 
L 206.996245 175.547412 
L 207.045134 50.47396 
L 207.094024 175.592803 
L 207.142914 50.478241 
L 207.289582 175.69737 
L 207.48514 175.811896 
L 207.53403 50.496975 
L 207.582919 175.843451 
L 208.071815 176.063172 
L 208.120704 50.519236 
L 208.169594 176.094339 
L 208.316262 176.160432 
L 208.365152 30.921301 
L 208.414041 50.527967 
L 208.56071 176.222812 
L 208.609599 50.533831 
L 208.658489 176.254153 
L 208.707379 78.014919 
L 208.756268 78.019532 
L 208.854047 176.335407 
L 208.951826 50.545524 
L 209.000716 50.546549 
L 209.147384 176.438875 
L 209.245163 176.482786 
L 209.342942 176.523395 
L 209.391832 50.560743 
L 209.440721 50.561733 
L 209.538501 176.586058 
L 209.58739 50.566609 
L 209.63628 176.617327 
L 209.685169 78.105465 
L 209.782948 176.680021 
L 209.831838 50.575046 
L 209.880727 176.711163 
L 209.929617 176.733083 
L 210.027396 50.581533 
L 210.076285 50.582487 
L 210.222954 176.833201 
L 210.271844 50.588982 
L 210.320733 176.864514 
L 210.418512 176.908393 
L 210.467402 78.177908 
L 210.565181 78.1873 
L 210.61407 176.986803 
L 210.66296 50.602656 
L 210.711849 177.018004 
L 210.760739 177.039965 
L 210.809628 78.21062 
L 210.858518 177.080857 
L 210.907407 177.102827 
L 210.956297 78.226194 
L 211.005186 177.143449 
L 211.054076 78.236371 
L 211.200745 177.228335 
L 211.347413 177.294315 
L 211.396303 78.273795 
L 211.445192 177.334982 
L 211.542971 177.379136 
L 211.591861 78.294781 
L 211.64075 78.299401 
L 211.68964 177.438509 
L 211.738529 30.921301 
L 211.787419 177.460525 
L 211.836309 177.482694 
L 211.885198 50.646131 
L 211.934088 78.322814 
L 212.080756 177.576603 
L 212.129646 50.65447 
L 212.178535 78.346078 
L 212.325204 177.670857 
L 212.422983 177.714666 
L 212.471872 50.666765 
L 212.520762 177.746004 
L 212.569651 177.767921 
L 212.618541 78.391282 
L 212.667431 177.808856 
L 212.71632 177.830921 
L 212.76521 30.921301 
L 212.814099 177.852845 
L 212.862989 50.678927 
L 213.009657 177.928084 
L 213.058547 78.430936 
L 213.107436 177.968769 
L 213.400774 178.101204 
L 213.449663 50.700689 
L 213.498553 178.132615 
L 213.547442 78.481494 
L 213.596332 178.173499 
L 213.645221 50.707158 
L 213.694111 178.20493 
L 213.889669 178.292852 
L 213.938558 50.717842 
L 213.987448 178.324302 
L 214.036337 178.3463 
L 214.085227 78.534264 
L 214.134116 178.386934 
L 214.183006 78.544459 
L 214.329675 78.558342 
L 214.476343 178.528468 
L 214.574122 178.572221 
L 214.671901 178.603729 
L 214.720791 30.921301 
L 214.867459 178.666465 
L 215.209686 178.82022 
L 215.258576 50.764313 
L 215.307465 178.851632 
L 215.356355 178.873545 
L 215.405244 78.664422 
L 215.454134 178.914324 
L 215.551913 178.958173 
L 215.600802 78.685378 
L 215.649692 178.999119 
L 215.747471 179.042997 
L 215.796361 78.706184 
L 215.89414 78.71545 
L 216.040808 179.162695 
L 216.138587 30.921301 
L 216.187477 78.737984 
L 216.334145 179.256998 
L 216.627483 179.388738 
L 216.676372 30.921301 
L 216.725262 179.41087 
L 216.87193 179.476715 
L 216.92082 50.821951 
L 216.969709 179.508252 
L 217.018599 78.820609 
L 217.067488 50.826501 
L 217.116378 50.827494 
L 217.263046 179.609513 
L 217.458605 179.697465 
L 217.507494 50.841652 
L 217.556384 179.729044 
L 217.605273 179.751082 
L 217.654163 50.845745 
L 217.703052 179.771653 
L 217.751942 50.847624 
L 217.849721 50.84891 
L 217.996389 179.832201 
L 218.045279 50.853104 
L 218.094169 179.85249 
L 218.143058 179.866605 
L 218.191948 50.856077 
L 218.240837 50.85677 
L 218.338616 179.907186 
L 218.436395 30.921301 
L 218.485285 179.93381 
L 218.534174 50.861886 
L 218.583064 30.921301 
L 218.631953 50.862644 
L 218.729732 179.974264 
L 218.778622 50.865616 
L 218.827512 179.99457 
L 218.876401 180.008988 
L 218.925291 30.921301 
L 218.97418 78.941722 
L 219.071959 180.049901 
L 219.120849 50.871984 
L 219.218628 50.87327 
L 219.365296 180.110561 
L 219.414186 78.966648 
L 219.463075 78.969637 
L 219.609744 180.178304 
L 219.658634 180.192889 
L 219.707523 50.884198 
L 219.756413 50.884892 
L 219.903081 180.239007 
L 220.00086 180.267745 
L 220.04975 50.890803 
L 220.098639 180.287946 
L 220.245308 180.330989 
L 220.294197 50.896179 
L 220.343087 180.351341 
L 220.391977 50.898031 
L 220.440866 79.027051 
L 220.587535 180.413436 
L 220.734203 180.456817 
L 220.783093 50.906846 
L 220.831982 180.477327 
L 220.880872 50.908698 
L 220.929761 30.921301 
L 221.02754 180.512306 
L 221.07643 50.911729 
L 221.125319 180.532677 
L 221.174209 79.069932 
L 221.320878 180.588499 
L 221.418657 180.617588 
L 221.467546 30.921301 
L 221.516436 180.632065 
L 221.614215 50.922763 
L 221.711994 180.679637 
L 221.760883 79.105817 
L 221.809773 180.706682 
L 221.858662 180.721165 
L 221.907552 79.115968 
L 221.956442 180.748215 
L 222.054221 180.7772 
L 222.10311 50.933755 
L 222.152 180.797458 
L 222.200889 79.134547 
L 222.249779 50.936695 
L 222.298668 50.937388 
L 222.347558 79.140527 
L 222.494226 180.877181 
L 222.836453 180.977369 
L 222.885343 79.178397 
L 222.934232 181.004015 
L 222.983122 181.018235 
L 223.032011 50.954528 
L 223.080901 181.038518 
L 223.12979 50.956381 
L 223.276459 79.200919 
L 223.325348 79.203911 
L 223.472017 181.137182 
L 223.520907 181.151407 
L 223.569796 50.966025 
L 223.618686 181.17186 
L 223.814244 181.229083 
L 223.863133 50.97273 
L 223.912023 181.249692 
L 223.960912 79.244866 
L 224.009802 30.921301 
L 224.107581 181.290925 
L 224.20536 181.317622 
L 224.254249 30.921301 
L 224.400918 181.360794 
L 224.449808 79.271965 
L 224.498697 181.387805 
L 224.547587 79.278506 
L 224.645366 181.428918 
L 224.694255 50.989769 
L 224.743145 181.449706 
L 224.938703 181.507174 
L 224.987592 50.996512 
L 225.036482 181.527818 
L 225.085372 181.54193 
L 225.134261 30.921301 
L 225.183151 79.316094 
L 225.23204 181.568976 
L 225.28093 51.001894 
L 225.329819 51.002553 
L 225.427598 181.610136 
L 225.476488 51.00566 
L 225.525377 51.006354 
L 225.672046 181.657552 
L 225.720935 181.671825 
L 225.769825 79.347694 
L 225.818714 79.350768 
L 225.965383 181.738146 
L 226.014273 79.363858 
L 226.063162 181.765368 
L 226.160941 181.793779 
L 226.209831 51.021718 
L 226.25872 181.814461 
L 226.356499 181.84333 
L 226.454278 51.027103 
L 226.600947 181.903475 
L 226.698726 181.931917 
L 226.747616 30.921301 
L 226.796505 181.946505 
L 226.845395 181.960957 
L 226.894284 79.417942 
L 226.943174 181.987768 
L 227.040953 182.016516 
L 227.089842 51.040716 
L 227.187621 51.042471 
L 227.236511 79.437581 
L 227.33429 182.082985 
L 227.383179 79.447596 
L 227.432069 182.109809 
L 227.480959 79.454141 
L 227.529848 51.050034 
L 227.676517 182.171838 
L 227.725406 51.054296 
L 227.774296 182.192277 
L 227.872075 182.221062 
L 227.969854 51.059719 
L 228.018743 79.485693 
L 228.116522 182.281343 
L 228.165412 79.495714 
L 228.214302 79.498789 
L 228.263191 182.320742 
L 228.312081 30.921301 
L 228.36097 182.335078 
L 228.40986 182.349407 
L 228.507639 182.376579 
L 228.556528 51.071883 
L 228.605418 51.072607 
L 228.654307 79.521907 
L 228.800976 182.443043 
L 228.849865 30.921301 
L 228.898755 182.457382 
L 228.996534 51.08018 
L 229.094313 182.505044 
L 229.143203 51.083254 
L 229.192092 79.551502 
L 229.338761 182.567232 
L 229.485429 182.610435 
L 229.534319 51.092305 
L 229.583208 182.630931 
L 229.632098 51.094225 
L 229.680987 30.921301 
L 229.827656 182.680585 
L 229.974325 182.723831 
L 230.023214 30.921301 
L 230.072104 182.738044 
L 230.120993 51.103449 
L 230.267662 182.787589 
L 230.365441 51.108832 
L 230.41433 182.820828 
L 230.46322 79.626493 
L 230.512109 51.111814 
L 230.560999 182.854071 
L 230.609889 51.113692 
L 230.658778 79.636051 
L 230.707668 182.887467 
L 230.756557 51.116703 
L 230.854336 51.118093 
L 231.001005 182.949349 
L 231.098784 182.978119 
L 231.196563 51.125929 
L 231.245452 79.669139 
L 231.343232 183.038229 
L 231.441011 183.065523 
L 231.4899 51.13241 
L 231.53879 51.133135 
L 231.685458 183.121919 
L 231.734348 51.137465 
L 231.783237 183.14262 
L 231.832127 183.157169 
L 231.881016 30.921301 
L 231.929906 183.171879 
L 231.978795 183.186284 
L 232.027685 79.714952 
L 232.076574 183.213601 
L 232.125464 79.721591 
L 232.223243 183.255475 
L 232.272133 79.731626 
L 232.321022 183.282807 
L 232.369912 79.738184 
L 232.418801 183.309989 
L 232.467691 79.744896 
L 232.51658 79.747899 
L 232.663249 183.379241 
L 233.005476 183.480841 
L 233.054365 51.167824 
L 233.103255 79.787574 
L 233.152144 183.514518 
L 233.201034 79.794131 
L 233.249923 51.171955 
L 233.298813 79.798797 
L 233.347702 51.173742 
L 233.494371 183.65683 
L 233.641039 183.700784 
L 233.689929 51.186906 
L 233.738819 183.72187 
L 233.787708 80.02605 
L 233.836598 51.195172 
L 233.885487 183.818261 
L 233.934377 51.19716 
L 233.983266 80.171364 
L 234.081045 183.929477 
L 234.129935 80.318954 
L 234.178824 80.425331 
L 234.325493 184.184768 
L 234.814388 184.331897 
L 234.863278 80.886952 
L 234.912167 184.422154 
L 235.058836 184.466313 
L 235.156615 51.258393 
L 235.303284 184.592515 
L 235.352173 51.262759 
L 235.401063 81.264684 
L 235.449952 184.689277 
L 235.498842 51.271169 
L 235.547731 184.710482 
L 235.596621 184.725327 
L 235.64551 81.443226 
L 235.6944 184.815497 
L 235.743289 184.830201 
L 235.841068 184.920423 
L 235.889958 30.921301 
L 235.987737 184.949852 
L 236.036627 51.293337 
L 236.085516 51.29407 
L 236.232185 185.067774 
L 236.329964 185.097382 
L 236.378853 51.306047 
L 236.427743 185.118648 
L 236.476632 81.999747 
L 236.623301 185.23821 
L 237.063307 185.370183 
L 237.161086 185.460708 
L 237.209975 51.3368 
L 237.258865 51.337562 
L 237.307754 185.488256 
L 237.356644 82.522988 
L 237.405533 30.921301 
L 237.552202 185.605965 
L 237.601092 51.34951 
L 237.649981 82.699308 
L 237.74776 185.71461 
L 237.79665 30.921301 
L 237.894429 51.359741 
L 238.041097 185.769644 
L 238.089987 185.783672 
L 238.187766 185.86955 
L 238.236655 51.372721 
L 238.383324 185.976082 
L 238.432214 83.214744 
L 238.481103 186.06206 
L 238.725551 186.132341 
L 238.77444 83.436533 
L 238.82333 186.218404 
L 238.872219 83.558585 
L 239.018888 186.332356 
L 239.165557 186.373673 
L 239.214446 51.416335 
L 239.263336 186.394184 
L 239.312225 186.407807 
L 239.361115 51.419486 
L 239.410004 186.428167 
L 239.458894 186.441947 
L 239.507783 51.422595 
L 239.556673 186.46201 
L 239.605562 83.905191 
L 239.654452 84.00545 
L 239.703341 186.617051 
L 239.752231 51.438168 
L 239.80112 186.63744 
L 239.85001 186.651237 
L 239.898899 51.441343 
L 239.947789 186.671323 
L 239.996679 186.685276 
L 240.045568 84.222478 
L 240.143347 84.423212 
L 240.290016 186.938031 
L 240.387795 186.965677 
L 240.436684 51.469109 
L 240.485574 84.631034 
L 240.534463 187.056484 
L 240.583353 51.477195 
L 240.632242 187.076623 
L 240.730022 187.104443 
L 240.778911 84.819223 
L 240.827801 84.919561 
L 240.974469 187.343381 
L 241.121138 187.385262 
L 241.170027 51.506119 
L 241.218917 51.506883 
L 241.365585 187.440562 
L 241.463365 187.46845 
L 241.512254 51.513676 
L 241.610033 85.357792 
L 241.756702 187.595468 
L 241.805591 187.609347 
L 241.854481 85.540118 
L 241.95226 85.744964 
L 242.050039 187.853042 
L 242.147818 30.921301 
L 242.245597 187.887794 
L 242.392266 30.921301 
L 242.538934 188.001227 
L 242.734492 188.057509 
L 242.783382 51.566312 
L 242.832271 51.567076 
L 242.93005 188.098958 
L 242.97894 86.239333 
L 243.02783 188.18483 
L 243.076719 86.361888 
L 243.174498 188.284379 
L 243.223388 51.586536 
L 243.272277 188.305286 
L 243.321167 51.588562 
L 243.370056 188.326198 
L 243.418946 86.56415 
L 243.467835 86.666577 
L 243.516725 51.603086 
L 243.565614 86.778806 
L 243.712283 188.590523 
L 243.810062 188.620933 
L 243.907841 30.921301 
L 243.956731 51.617346 
L 244.00562 51.618075 
L 244.05451 30.921301 
L 244.201178 188.688142 
L 244.250068 188.703359 
L 244.347847 188.796543 
L 244.396736 51.63207 
L 244.543405 188.849682 
L 244.592295 51.636782 
L 244.641184 188.872062 
L 244.690074 188.88745 
L 244.738963 87.369058 
L 244.787853 188.980583 
L 245.325637 189.148641 
L 245.423417 189.171221 
L 245.472306 30.921301 
L 245.521196 51.664608 
L 245.570085 189.193797 
L 245.618975 51.666702 
L 245.716754 189.293965 
L 245.765643 51.675486 
L 245.814533 189.316721 
L 245.863422 87.983775 
L 245.912312 189.409479 
L 245.961201 88.116988 
L 246.010091 88.228239 
L 246.05898 30.921301 
L 246.10787 88.339479 
L 246.15676 88.450713 
L 246.254539 189.750409 
L 246.352318 189.843103 
L 246.401207 51.722667 
L 246.498986 189.8811 
L 246.547876 51.726055 
L 246.596765 189.903623 
L 246.645655 189.918952 
L 246.694544 51.729407 
L 246.743434 189.941481 
L 246.792323 189.956817 
L 246.841213 51.732758 
L 246.890102 189.979189 
L 246.938992 189.994842 
L 247.036771 190.087362 
L 247.085661 51.744079 
L 247.232329 190.140612 
L 247.330108 190.171159 
L 247.427887 190.264093 
L 247.476777 51.759275 
L 247.525666 190.286516 
L 247.574556 51.76137 
L 247.672335 51.762931 
L 247.819004 190.416539 
L 247.965672 190.462365 
L 248.014562 89.629248 
L 248.063451 89.742051 
L 248.112341 190.635108 
L 248.16123 51.791474 
L 248.21012 190.65805 
L 248.454567 190.736486 
L 248.503457 51.800142 
L 248.552347 190.759441 
L 248.699015 51.815913 
L 248.747905 190.946039 
L 248.796794 90.327014 
L 248.845684 51.825148 
L 248.992352 191.090934 
L 249.090131 191.125128 
L 249.139021 90.584535 
L 249.18791 191.228071 
L 249.2368 191.244943 
L 249.28569 51.842709 
L 249.334579 191.269869 
L 249.383469 191.286905 
L 249.432358 90.817578 
L 249.481248 191.389793 
L 249.579027 191.423892 
L 249.627916 51.857453 
L 249.676806 91.026209 
L 249.725695 91.149842 
L 249.774585 51.872301 
L 249.823474 91.284855 
L 249.970143 191.748046 
L 250.165701 191.817034 
L 250.214591 51.889844 
L 250.26348 191.842522 
L 250.31237 191.859618 
L 250.361259 30.921301 
L 250.459038 51.89426 
L 250.605707 191.927703 
L 250.703486 191.962397 
L 250.752375 51.90207 
L 250.801265 191.987583 
L 250.996823 192.056996 
L 251.045713 30.921301 
L 251.094602 51.909911 
L 251.241271 192.117076 
L 251.29016 192.134361 
L 251.33905 92.039665 
L 251.387939 192.238745 
L 251.436829 192.255884 
L 251.485718 51.926188 
L 251.534608 51.926984 
L 251.681277 192.323978 
L 251.827945 192.375904 
L 251.876835 51.93629 
L 251.925724 192.401314 
L 251.974614 51.938448 
L 252.121282 192.461529 
L 252.267951 192.513177 
L 252.31684 51.94769 
L 252.36573 192.53893 
L 252.41462 92.623989 
L 252.463509 92.749878 
L 252.512399 192.730931 
L 252.561288 92.90168 
L 252.610178 51.972749 
L 252.756846 192.877427 
L 253.001294 192.962679 
L 253.050183 51.984777 
L 253.099073 192.987708 
L 253.4413 193.111298 
L 253.490189 93.45283 
L 253.539079 193.219024 
L 253.587968 93.60848 
L 253.734637 193.361808 
L 253.783526 193.379548 
L 253.832416 93.841294 
L 253.881305 193.487127 
L 254.027974 193.542468 
L 254.125753 52.039262 
L 254.223532 30.921301 
L 254.272422 193.686016 
L 254.321311 193.705391 
L 254.370201 52.044585 
L 254.41909 94.327491 
L 254.565759 193.945271 
L 254.712427 194.003009 
L 254.761317 52.067766 
L 254.810207 52.068658 
L 254.956875 194.078264 
L 255.299102 194.21297 
L 255.396881 52.091679 
L 255.44577 52.092542 
L 255.690218 194.485939 
L 255.739108 30.921301 
L 255.787997 52.106077 
L 255.885776 194.530674 
L 255.934666 30.921301 
L 255.983555 194.548702 
L 256.032445 52.111201 
L 256.081334 30.921301 
L 256.228003 194.685251 
L 256.276892 95.735418 
L 256.325782 194.795314 
L 256.472451 194.850613 
L 256.52134 52.135323 
L 256.57023 95.988291 
L 256.716898 195.005652 
L 256.814677 52.155081 
L 256.863567 52.155981 
L 257.010235 195.168924 
L 257.108015 195.205603 
L 257.156904 96.492252 
L 257.205794 195.315051 
L 257.303573 195.351764 
L 257.401352 52.183037 
L 257.450241 96.852982 
L 257.499131 96.988211 
L 257.59691 195.675921 
L 257.743578 52.215851 
L 257.841357 30.921301 
L 257.890247 195.907371 
L 258.134695 196.000564 
L 258.183584 97.65087 
L 258.232474 196.111684 
L 258.281363 196.130537 
L 258.379142 196.241745 
L 258.428032 52.24585 
L 258.5747 196.306328 
L 258.770259 196.381026 
L 258.819148 98.206249 
L 258.868038 98.341645 
L 258.965817 196.604845 
L 259.063596 52.281744 
L 259.112485 52.282675 
L 259.210264 196.831258 
L 259.259154 52.292495 
L 259.308043 196.859333 
L 259.356933 196.878274 
L 259.405822 52.296395 
L 259.503602 52.298294 
L 259.65027 196.962388 
L 259.796939 30.921301 
L 259.845828 52.318506 
L 259.992497 197.294198 
L 260.041386 99.543109 
L 260.090276 197.408497 
L 260.139165 197.427502 
L 260.188055 30.921301 
L 260.236945 197.446673 
L 260.285834 99.766243 
L 260.334724 197.560588 
L 260.383613 197.579941 
L 260.432503 99.961368 
L 260.481392 197.69379 
L 260.530282 197.71299 
L 260.579171 52.362449 
L 260.628061 197.741219 
L 260.774729 197.798685 
L 260.823619 52.369315 
L 260.872508 197.826765 
L 260.921398 197.845981 
L 260.970287 52.373174 
L 261.019177 197.874235 
L 261.068067 197.893294 
L 261.116956 52.377143 
L 261.165846 197.921559 
L 261.312514 197.978756 
L 261.361404 52.38404 
L 261.410293 100.560406 
L 261.459183 198.101934 
L 261.508072 52.393799 
L 261.556962 198.130559 
L 261.605851 100.770367 
L 261.654741 198.247757 
L 261.75252 198.287285 
L 261.80141 52.408266 
L 261.850299 198.316111 
L 261.899189 52.410663 
L 261.948078 198.345105 
L 261.996968 30.921301 
L 262.143636 52.414102 
L 262.192526 30.921301 
L 262.339194 198.422727 
L 262.388084 101.19942 
L 262.436973 198.52562 
L 262.632532 198.578084 
L 262.681421 52.432398 
L 262.730311 101.429835 
L 262.7792 101.525713 
L 262.82809 52.445093 
L 262.974758 198.756381 
L 263.316985 198.847584 
L 263.365875 30.921301 
L 263.414764 101.816779 
L 263.561433 198.951405 
L 263.659212 198.977372 
L 263.708101 52.469462 
L 263.756991 198.997888 
L 263.80588 52.471533 
L 263.903659 199.031303 
L 263.952549 30.921301 
L 264.001438 199.044211 
L 264.099217 199.070521 
L 264.148107 52.478336 
L 264.196997 199.090879 
L 264.245886 52.480399 
L 264.294776 52.481267 
L 264.441444 199.139223 
L 264.490334 102.248177 
L 264.539223 199.216725 
L 264.685892 199.255823 
L 264.734781 30.921301 
L 264.783671 199.268915 
L 264.83256 52.497208 
L 264.93034 199.302551 
L 264.979229 52.500439 
L 265.028119 102.500854 
L 265.125898 102.691769 
L 265.272566 199.542719 
L 265.321456 102.844951 
L 265.370345 199.619251 
L 265.419235 199.632374 
L 265.468124 52.530953 
L 265.517014 52.531785 
L 265.614793 199.6729 
L 265.663683 52.535127 
L 265.761462 52.536827 
L 265.90813 199.733872 
L 265.95702 52.541358 
L 266.005909 103.140693 
L 266.152578 199.847079 
L 266.201467 52.551969 
L 266.250357 199.868197 
L 266.397025 199.907953 
L 266.445915 103.387457 
L 266.494805 103.484875 
L 266.592584 200.065898 
L 266.641473 52.57218 
L 266.690363 200.086718 
L 266.837031 200.126692 
L 266.93481 52.583963 
L 266.9837 52.584891 
L 267.130368 200.299692 
L 267.179258 52.5942 
L 267.228148 200.320538 
L 267.277037 103.999871 
L 267.325927 200.399607 
L 267.423706 200.425806 
L 267.472595 104.156417 
L 267.521485 200.504928 
L 267.619264 200.531647 
L 267.668153 52.615561 
L 267.717043 200.552356 
L 267.765932 200.56572 
L 267.863711 30.921301 
L 268.01038 200.613329 
L 268.157049 52.63535 
L 268.254828 52.637213 
L 268.401496 200.806918 
L 268.450386 200.8203 
L 268.499275 104.742413 
L 268.548165 200.899116 
L 268.597054 200.912339 
L 268.645944 52.6513 
L 268.694833 52.652236 
L 268.792613 200.954356 
L 268.841502 30.921301 
L 268.890392 200.96742 
L 268.939281 200.980813 
L 268.988171 52.657979 
L 269.03706 201.001749 
L 269.477066 201.121205 
L 269.623735 52.682947 
L 269.672624 52.683846 
L 269.721514 105.413485 
L 269.770403 30.921301 
L 269.819293 105.514368 
L 269.965961 201.5016 
L 270.06374 201.529152 
L 270.11263 52.708053 
L 270.161519 201.55083 
L 270.357078 201.605953 
L 270.405967 105.912661 
L 270.454857 201.687505 
L 270.552636 201.715092 
L 270.601525 30.921301 
L 270.650415 52.724947 
L 270.894862 201.899722 
L 270.992641 201.927176 
L 271.041531 106.391659 
L 271.09042 202.00855 
L 271.1882 202.036359 
L 271.285979 202.117785 
L 271.334868 30.921301 
L 271.481537 202.153206 
L 271.530426 202.167034 
L 271.579316 106.74923 
L 271.628205 202.248191 
L 271.677095 106.870405 
L 271.725984 202.329051 
L 271.774874 30.921301 
L 271.823763 202.342726 
L 271.872653 202.356575 
L 271.921543 30.921301 
L 271.970432 202.370089 
L 272.068211 202.397616 
L 272.117101 52.786634 
L 272.16599 202.419074 
L 272.459327 202.501198 
L 272.557106 52.802168 
L 272.654885 202.603662 
L 272.703775 52.805543 
L 272.752665 52.80648 
L 272.899333 202.654922 
L 273.143781 202.723118 
L 273.19267 52.81687 
L 273.24156 202.744954 
L 273.486008 202.813531 
L 273.534897 52.825159 
L 273.583787 107.727588 
L 273.632676 107.82833 
L 273.779345 202.997384 
L 273.828234 107.990623 
L 273.877124 203.078443 
L 274.21935 203.173635 
L 274.26824 30.921301 
L 274.31713 203.186875 
L 274.366019 203.200452 
L 274.414909 30.921301 
L 274.463798 203.214205 
L 274.854914 203.322216 
L 274.903804 52.870802 
L 274.952693 203.343456 
L 275.001583 203.357047 
L 275.099362 52.88013 
L 275.148252 108.639566 
L 275.197141 52.886982 
L 275.34381 203.59715 
L 275.392699 108.889138 
L 275.441589 203.676303 
L 275.734926 203.757023 
L 275.783815 109.128753 
L 275.832705 203.83625 
L 276.028263 203.890109 
L 276.077153 52.92252 
L 276.126042 52.923488 
L 276.272711 203.998401 
L 276.3216 52.932712 
L 276.37049 204.019724 
L 276.517158 204.060169 
L 276.566048 52.938469 
L 276.614938 204.081502 
L 276.712717 52.946492 
L 276.859385 204.18992 
L 277.006054 204.230402 
L 277.054943 30.921301 
L 277.103833 204.243558 
L 277.152722 204.257224 
L 277.201612 52.956687 
L 277.250501 204.278586 
L 277.299391 52.958895 
L 277.44606 204.32678 
L 277.494949 52.963413 
L 277.543839 204.348148 
L 277.886065 204.442547 
L 277.934955 110.159051 
L 278.032734 110.356596 
L 278.081623 110.454401 
L 278.130513 52.997693 
L 278.277182 204.751084 
L 278.863856 204.909521 
L 278.961635 53.022547 
L 279.010525 204.99498 
L 279.059414 110.990788 
L 279.108304 111.087734 
L 279.254972 205.21448 
L 279.939426 205.399174 
L 279.988315 30.921301 
L 280.037205 111.600325 
L 280.086094 111.698508 
L 280.134984 53.073371 
L 280.183873 111.813341 
L 280.281652 205.635083 
L 280.330542 53.082847 
L 280.428321 53.089739 
L 280.57499 205.814731 
L 280.623879 205.828706 
L 280.721658 205.909985 
L 280.770548 53.107676 
L 280.917216 205.95953 
L 280.966106 205.973343 
L 281.014995 53.113467 
L 281.063885 53.114437 
L 281.112774 206.00322 
L 281.161664 112.513363 
L 281.210553 53.122544 
L 281.357222 206.1131 
L 281.406112 53.126895 
L 281.455001 112.692189 
L 281.55278 206.214752 
L 281.60167 53.136268 
L 281.650559 206.236717 
L 281.699449 112.866751 
L 281.748338 206.316471 
L 281.797228 206.329967 
L 281.846117 53.146811 
L 281.895007 113.020601 
L 282.041675 206.445435 
L 282.139455 206.472454 
L 282.237234 206.552144 
L 282.286123 30.921301 
L 282.432792 206.587847 
L 282.481681 113.39829 
L 282.530571 206.667427 
L 282.57946 113.519017 
L 282.677239 206.760748 
L 282.775018 53.191784 
L 282.872798 206.862287 
L 282.921687 53.195198 
L 282.970577 206.88416 
L 283.117245 206.92515 
L 283.166135 53.200996 
L 283.215024 206.944947 
L 283.263914 53.202636 
L 283.361693 206.969966 
L 283.459472 53.209229 
L 283.60614 207.046952 
L 283.65503 207.056686 
L 283.70392 114.103487 
L 283.752809 207.112668 
L 284.046146 207.170058 
L 284.095036 114.275374 
L 284.143925 207.225905 
L 284.192815 207.235302 
L 284.241704 53.229364 
L 284.290594 207.250791 
L 284.339483 53.230902 
L 284.388373 53.231638 
L 284.486152 207.281772 
L 284.535042 114.445388 
L 284.632821 114.585939 
L 284.7306 207.439729 
L 284.828379 207.49567 
L 284.877268 53.253383 
L 285.023937 207.530186 
L 285.121716 207.549193 
L 285.219495 53.262528 
L 285.268385 53.263301 
L 285.463943 207.756981 
L 285.512832 207.766581 
L 285.561722 53.278441 
L 285.610611 115.191832 
L 285.70839 207.838701 
L 285.75728 53.28518 
L 285.806169 207.854421 
L 285.855059 207.864032 
L 285.903948 53.287692 
L 285.952838 207.879757 
L 286.050617 207.899152 
L 286.099507 30.921301 
L 286.148396 207.908584 
L 286.246175 207.927985 
L 286.343954 53.297945 
L 286.490623 208.007867 
L 286.539512 208.015209 
L 286.588402 30.921301 
L 286.637291 208.022731 
L 286.73507 208.066805 
L 286.78396 30.921301 
L 286.930629 208.114732 
L 287.028408 53.311817 
L 287.077297 53.312289 
L 287.126187 208.166354 
L 287.175076 53.313365 
L 287.321745 208.218346 
L 287.370634 115.866371 
L 287.419524 208.262471 
L 287.468413 115.933245 
L 287.615082 208.322375 
L 287.663972 208.329906 
L 287.712861 53.326097 
L 287.761751 208.341647 
L 287.85953 208.38598 
L 287.908419 53.330526 
L 287.957309 53.330991 
L 288.103977 208.417173 
L 288.446204 208.470645 
L 288.495094 53.337225 
L 288.543983 53.337697 
L 288.641762 208.493972 
L 288.690652 53.339274 
L 288.739541 208.505545 
L 288.83732 208.520981 
L 288.88621 53.341485 
L 288.983989 53.342421 
L 289.179547 208.622217 
L 289.277326 208.637662 
L 289.375105 208.649423 
L 289.423995 30.921301 
L 289.472884 53.351841 
L 289.521774 208.661185 
L 289.570663 116.539378 
L 289.619553 116.595704 
L 289.668442 208.743013 
L 289.717332 53.359147 
L 289.766221 208.754956 
L 289.815111 208.762682 
L 289.91289 53.363578 
L 290.059559 208.822948 
L 290.157338 208.838586 
L 290.206227 53.366829 
L 290.255117 208.850537 
L 290.597343 208.904325 
L 290.646233 116.909286 
L 290.695123 208.949343 
L 290.744012 208.957081 
L 290.792902 53.375883 
L 290.841791 53.376385 
L 290.890681 208.972906 
L 290.93957 53.377454 
L 290.98846 53.377926 
L 291.135128 209.004393 
L 291.232907 209.020755 
L 291.281797 53.38131 
L 291.330686 209.032894 
L 291.379576 209.041341 
L 291.428466 117.118387 
L 291.477355 209.088857 
L 291.575134 209.10523 
L 291.624024 53.387615 
L 291.672913 209.11773 
L 291.721803 117.234359 
L 291.770692 209.164389 
L 291.819582 117.305096 
L 291.868471 117.363888 
L 291.96625 209.258093 
L 292.064029 53.401835 
L 292.161808 209.317662 
L 292.259588 209.364728 
L 292.308477 30.921301 
L 292.357367 209.372836 
L 292.406256 53.407603 
L 292.455146 53.408068 
L 292.552925 209.397351 
L 292.601814 53.40975 
L 292.650704 209.409696 
L 292.797372 209.43421 
L 292.846262 117.716187 
L 292.895151 209.481313 
L 292.944041 117.787845 
L 292.992931 53.418934 
L 293.04182 117.853424 
L 293.188489 209.587734 
L 293.432936 209.628705 
L 293.530715 53.429869 
L 293.579605 118.077988 
L 293.628494 118.137864 
L 293.677384 30.921301 
L 293.824053 209.774993 
L 293.872942 53.438022 
L 293.921832 118.241924 
L 294.019611 118.361626 
L 294.166279 209.921587 
L 294.215169 209.930077 
L 294.264058 30.921301 
L 294.312948 209.938216 
L 294.361837 53.450266 
L 294.508506 209.998208 
L 294.655175 210.022811 
L 294.704064 118.613053 
L 294.801843 118.732828 
L 294.850733 118.792745 
L 294.997401 210.204543 
L 295.046291 210.212697 
L 295.14407 30.921301 
L 295.290738 210.276508 
L 295.339628 53.475459 
L 295.388518 210.2891 
L 295.486297 210.305413 
L 295.535186 53.47774 
L 295.584076 210.317826 
L 295.828523 210.358976 
L 295.877413 53.481831 
L 295.926302 210.371392 
L 295.975192 210.379733 
L 296.024081 53.483544 
L 296.121861 53.484614 
L 296.268529 210.447874 
L 296.708535 210.522077 
L 296.757424 53.494546 
L 296.806314 210.534334 
L 296.855203 210.542856 
L 296.904093 30.921301 
L 296.952983 210.551025 
L 297.001872 119.419865 
L 297.050762 210.598271 
L 297.148541 210.614798 
L 297.19743 119.517472 
L 297.24632 119.57728 
L 297.344099 210.709518 
L 297.392988 53.508541 
L 297.441878 210.722146 
L 297.490767 53.509649 
L 297.539657 210.734414 
L 297.588546 119.700506 
L 297.637436 119.760484 
L 297.686326 210.821026 
L 297.735215 53.517131 
L 297.784105 119.839539 
L 297.881884 210.880985 
L 298.028552 53.527465 
L 298.175221 210.987971 
L 298.22411 120.088525 
L 298.273 211.035529 
L 298.615227 211.092896 
L 298.664116 53.537395 
L 298.713006 211.105366 
L 298.810785 211.121939 
L 298.859674 30.921301 
L 298.957453 53.540254 
L 299.055232 30.921301 
L 299.104122 211.146897 
L 299.201901 53.544813 
L 299.250791 120.398107 
L 299.397459 211.25406 
L 299.446349 120.495798 
L 299.495238 211.301154 
L 299.544128 120.56829 
L 299.641907 211.356831 
L 299.690796 120.65315 
L 299.739686 211.403959 
L 299.935244 211.436807 
L 299.984133 53.563443 
L 300.033023 211.44949 
L 300.424139 211.515216 
L 300.473029 120.89604 
L 300.521918 120.955652 
L 300.619697 211.6094 
L 300.668587 53.576201 
L 300.717476 211.621732 
L 300.864145 211.646048 
L 300.913035 121.096797 
L 300.961924 211.69308 
L 301.010814 121.16864 
L 301.059703 211.739767 
L 301.108593 53.586033 
L 301.157482 53.586543 
L 301.304151 211.773046 
L 301.597488 211.822077 
L 301.646378 53.592414 
L 301.695267 211.834428 
L 301.939715 211.875245 
L 301.988604 121.448147 
L 302.037494 211.921985 
L 302.086383 211.930049 
L 302.281941 30.921301 
L 302.379721 212.028048 
L 302.526389 53.613702 
L 302.575279 53.614205 
L 302.770837 212.177228 
L 302.819726 212.185478 
L 302.868616 121.925009 
L 302.917505 121.984376 
L 302.966395 212.270888 
L 303.015284 122.056308 
L 303.064174 30.921301 
L 303.210843 212.334081 
L 303.259732 53.630891 
L 303.308622 53.631431 
L 303.45529 212.397472 
L 303.50418 122.251313 
L 303.553069 212.444363 
L 303.601959 122.323162 
L 303.748627 212.507082 
L 303.895296 212.532065 
L 303.944186 30.921301 
L 303.993075 53.645805 
L 304.139744 212.591046 
L 304.188633 212.599319 
L 304.237523 53.650948 
L 304.286412 212.611729 
L 304.384191 212.627917 
L 304.433081 122.605919 
L 304.48197 212.674687 
L 304.579749 212.691063 
L 304.726418 53.661322 
L 304.677528 212.737675 
L 304.775308 53.661825 
L 304.921976 212.801413 
L 304.970866 122.872955 
L 305.019755 212.848055 
L 305.215313 212.880657 
L 305.264203 122.995012 
L 305.313092 212.927326 
L 305.361982 123.066977 
L 305.508651 213.02088 
L 305.704209 213.053525 
L 305.753098 123.261241 
L 305.801988 123.320698 
L 305.948656 213.154906 
L 306.046435 53.695117 
L 306.144214 213.213928 
L 306.193104 123.508934 
L 306.290883 123.628455 
L 306.339773 123.688363 
L 306.388662 30.921301 
L 306.437552 123.748386 
L 306.535331 213.424559 
L 306.58422 53.712116 
L 306.63311 123.840336 
L 306.730889 213.484221 
L 306.779778 53.716648 
L 306.828668 53.717159 
L 306.975336 213.517498 
L 307.024226 53.719439 
L 307.073116 213.530161 
L 307.219784 213.554941 
L 307.366453 53.725727 
L 307.317563 213.601984 
L 307.415342 53.72623 
L 307.562011 213.665875 
L 307.6109 30.921301 
L 307.65979 213.674198 
L 307.708679 213.682345 
L 307.757569 124.23211 
L 307.806458 213.729244 
L 307.953127 213.754059 
L 308.050906 213.802243 
L 308.148685 53.743503 
L 308.197575 213.855334 
L 308.246464 53.744643 
L 308.393133 213.950334 
L 308.442022 53.751696 
L 308.490912 124.654087 
L 308.588691 214.013087 
L 308.637581 53.756541 
L 308.73536 53.760068 
L 308.882028 214.12125 
L 308.930918 124.911776 
L 308.979807 214.170993 
L 309.028697 124.988378 
L 309.175365 214.237653 
L 309.322034 214.263814 
L 309.370923 53.775258 
L 309.468703 53.778755 
L 309.615371 214.339961 
L 309.664261 53.781208 
L 309.71315 53.781749 
L 309.859819 214.407416 
L 309.908708 214.415961 
L 309.957598 125.36806 
L 310.006487 214.465619 
L 310.055377 125.444565 
L 310.202046 214.532394 
L 310.250935 125.548095 
L 310.299825 214.581538 
L 310.544272 214.625056 
L 310.642051 30.921301 
L 310.690941 214.674595 
L 310.73983 53.806017 
L 310.78872 30.921301 
L 310.935388 214.701188 
L 311.033168 214.750388 
L 311.082057 53.811933 
L 311.228726 214.781188 
L 311.326505 214.79905 
L 311.473173 53.821653 
L 311.522063 53.822254 
L 311.570952 53.822758 
L 311.717621 214.923603 
L 311.766511 214.932542 
L 311.8154 53.82585 
L 311.86429 214.946227 
L 311.913179 214.955163 
L 311.962069 53.827667 
L 312.010958 214.969031 
L 312.059848 214.977789 
L 312.108737 53.82952 
L 312.157627 214.991662 
L 312.206516 126.261407 
L 312.255406 215.042774 
L 312.304295 215.051532 
L 312.353185 53.83503 
L 312.402074 215.065411 
L 312.499854 215.083309 
L 312.597633 215.135174 
L 312.695412 30.921301 
L 312.84208 215.16349 
L 313.330976 215.256328 
L 313.428755 53.853491 
L 313.477644 126.748938 
L 313.526534 215.357816 
L 313.575423 53.85783 
L 313.624313 215.372082 
L 313.673202 53.859039 
L 313.722092 53.859581 
L 313.86876 215.444357 
L 313.91765 53.864588 
L 313.966539 215.458631 
L 314.015429 126.987542 
L 314.064319 215.511534 
L 314.162098 215.529846 
L 314.210987 30.921301 
L 314.259877 215.539182 
L 314.357656 215.557863 
L 314.406545 53.872928 
L 314.455435 53.873469 
L 314.553214 215.586071 
L 314.602103 127.185522 
L 314.650993 215.637731 
L 314.699882 127.265869 
L 314.748772 215.685566 
L 314.797661 53.882076 
L 314.846551 215.695458 
L 315.139888 215.736892 
L 315.237667 215.74679 
L 315.286557 30.921301 
L 315.482115 215.799604 
L 315.579894 215.813361 
L 315.628784 53.890187 
L 315.677673 215.823269 
L 315.775452 215.83684 
L 315.824342 53.891731 
L 315.873231 127.576485 
L 315.922121 127.626379 
L 315.97101 53.896035 
L 316.068789 215.921068 
L 316.117679 127.702265 
L 316.166568 215.959988 
L 316.362126 215.987524 
L 316.459906 53.903205 
L 316.508795 127.859887 
L 316.655464 216.075141 
L 316.753243 216.0891 
L 316.802132 53.907673 
L 316.851022 216.099027 
L 316.948801 216.112808 
L 316.99769 53.909224 
L 317.04658 216.122914 
L 317.193249 216.143314 
L 317.242138 128.047217 
L 317.291028 128.097039 
L 317.437696 216.227702 
L 317.486586 216.234501 
L 317.535475 53.916856 
L 317.584365 128.194075 
L 317.633254 216.276257 
L 317.682144 53.91955 
L 317.731033 216.286187 
L 317.779923 216.292998 
L 317.828812 53.92076 
L 317.877702 216.30293 
L 317.926591 128.295332 
L 317.975481 216.341571 
L 318.024371 216.348379 
L 318.12215 53.926277 
L 318.219929 53.926982 
L 318.415487 216.441339 
L 318.708824 216.482037 
L 318.757714 30.921301 
L 318.806603 216.489042 
L 318.904382 216.502486 
L 318.953272 30.921301 
L 319.051051 53.936174 
L 319.09994 30.921301 
L 319.14883 216.544488 
L 319.197719 128.670471 
L 319.246609 128.719634 
L 319.295498 30.921301 
L 319.344388 216.614335 
L 319.393277 53.941216 
L 319.491056 53.941921 
L 319.686615 216.700807 
L 319.735504 216.707632 
L 319.784394 53.947409 
L 319.882173 53.948219 
L 320.028841 216.737884 
L 320.12662 216.751902 
L 320.17551 30.921301 
L 320.224399 216.7591 
L 320.273289 129.005372 
L 320.322179 216.798954 
L 320.371068 129.067411 
L 320.468847 216.846019 
L 320.566626 216.85636 
L 320.615516 30.921301 
L 320.762184 216.877402 
L 320.811074 216.884419 
L 320.859963 30.921301 
L 320.908853 216.891253 
L 321.055521 53.963021 
L 321.20219 216.981385 
L 321.25108 216.988404 
L 321.299969 129.362381 
L 321.348859 217.028131 
L 321.446638 217.042178 
L 321.495527 53.968369 
L 321.544417 53.968741 
L 321.593306 217.055482 
L 321.642196 53.96955 
L 321.691085 53.969989 
L 321.837754 217.10854 
L 321.935533 217.148105 
L 321.984423 53.975605 
L 322.131091 217.172335 
L 322.22887 217.186209 
L 322.27776 53.978101 
L 322.326649 217.196381 
L 322.424428 217.210258 
L 322.473318 53.97978 
L 322.522207 129.713707 
L 322.668876 217.267062 
L 322.717766 217.274099 
L 322.815545 53.985872 
L 322.864434 53.986244 
L 323.011103 217.333703 
L 323.108882 217.347961 
L 323.157771 30.921301 
L 323.206661 217.354813 
L 323.25555 217.361665 
L 323.30444 53.989639 
L 323.353329 129.949937 
L 323.499998 217.418148 
L 323.548888 217.425006 
L 323.597777 53.993644 
L 323.646667 217.435008 
L 323.695556 217.442053 
L 323.744446 53.994923 
L 323.793335 217.452243 
L 323.988893 217.479846 
L 324.037783 53.997382 
L 324.086672 217.489855 
L 324.135562 217.496897 
L 324.233341 217.53564 
L 324.282231 54.001016 
L 324.428899 217.559737 
L 324.526678 54.00465 
L 324.624457 217.608877 
L 324.673347 130.330683 
L 324.771126 130.430695 
L 324.868905 217.718704 
L 324.966684 30.921301 
L 325.113353 217.771421 
L 325.162242 54.015999 
L 325.211132 217.781818 
L 325.455579 217.815981 
L 325.504469 54.018957 
L 325.553358 130.659735 
L 325.602248 130.709728 
L 325.651137 217.89046 
L 325.700027 54.023737 
L 325.748916 54.024175 
L 325.944475 217.949733 
L 325.993364 217.95624 
L 326.042254 54.028219 
L 326.091143 217.96646 
L 326.140033 217.97371 
L 326.188922 130.900614 
L 326.237812 218.012374 
L 326.482259 218.046586 
L 326.580039 218.085083 
L 326.628928 54.036397 
L 326.775597 218.134013 
L 326.824486 218.140896 
L 326.873376 54.040003 
L 326.922265 218.150945 
L 327.50894 218.233767 
L 327.557829 54.045921 
L 327.655608 54.048316 
L 327.753387 218.311228 
L 327.802277 131.429421 
L 327.900056 131.530008 
L 327.948945 54.057105 
L 328.095614 218.4316 
L 328.242283 218.452473 
L 328.291172 54.060035 
L 328.340062 218.462727 
L 328.340062 218.462727 
" clip-path="url(#pa7dcc382b4)" style="fill: none; stroke: #1f77b4; stroke-width: 1.5; stroke-linecap: square"/>
   </g>
   <g id="patch_3">
    <path d="M 71.721356 227.94 
L 71.721356 19.44 
" style="fill: none; stroke: #000000; stroke-width: 0.8; stroke-linejoin: miter; stroke-linecap: square"/>
   </g>
   <g id="patch_4">
    <path d="M 340.56 227.94 
L 340.56 19.44 
" style="fill: none; stroke: #000000; stroke-width: 0.8; stroke-linejoin: miter; stroke-linecap: square"/>
   </g>
   <g id="patch_5">
    <path d="M 71.721356 227.94 
L 340.56 227.94 
" style="fill: none; stroke: #000000; stroke-width: 0.8; stroke-linejoin: miter; stroke-linecap: square"/>
   </g>
   <g id="patch_6">
    <path d="M 71.721356 19.44 
L 340.56 19.44 
" style="fill: none; stroke: #000000; stroke-width: 0.8; stroke-linejoin: miter; stroke-linecap: square"/>
   </g>
  </g>
 </g>
 <defs>
  <clipPath id="pa7dcc382b4">
   <rect x="71.721356" y="19.44" width="268.838644" height="208.5"/>
  </clipPath>
 </defs>
</svg>
