<?xml version="1.0" encoding="utf-8" standalone="no"?>
<!DOCTYPE svg PUBLIC "-//W3C//DTD SVG 1.1//EN"
  "http://www.w3.org/Graphics/SVG/1.1/DTD/svg11.dtd">
<svg xmlns:xlink="http://www.w3.org/1999/xlink" width="360pt" height="288pt" viewBox="0 0 360 288" xmlns="http://www.w3.org/2000/svg" version="1.1">
 <metadata>
  <rdf:RDF xmlns:dc="http://purl.org/dc/elements/1.1/" xmlns:cc="http://creativecommons.org/ns#" xmlns:rdf="http://www.w3.org/1999/02/22-rdf-syntax-ns#">
   <cc:Work>
    <dc:type rdf:resource="http://purl.org/dc/dcmitype/StillImage"/>
    <dc:date>2024-02-15T10:30:24.823577</dc:date>
    <dc:format>image/svg+xml</dc:format>
    <dc:creator>
     <cc:Agent>
      <dc:title>Matplotlib v3.8.2, https://matplotlib.org/</dc:title>
     </cc:Agent>
    </dc:creator>
   </cc:Work>
  </rdf:RDF>
 </metadata>
 <defs>
  <style type="text/css">*{stroke-linejoin: round; stroke-linecap: butt}</style>
 </defs>
 <g id="figure_1">
  <g id="patch_1">
   <path d="M 0 288 
L 360 288 
L 360 0 
L 0 0 
L 0 288 
z
" style="fill: none"/>
  </g>
  <g id="axes_1">
   <g id="patch_2">
    <path d="M 77.369559 227.94 
L 332.962928 227.94 
L 332.962928 19.44 
L 77.369559 19.44 
L 77.369559 227.94 
z
" style="fill: none"/>
   </g>
   <g id="matplotlib.axis_1">
    <g id="xtick_1">
     <g id="line2d_1">
      <defs>
       <path id="m6c1f766394" d="M 0 0 
L 0 -3.5 
" style="stroke: #000000; stroke-width: 0.8"/>
      </defs>
      <g>
       <use xlink:href="#m6c1f766394" x="88.98744" y="227.94" style="stroke: #000000; stroke-width: 0.8"/>
      </g>
     </g>
     <g id="text_1">
      <!-- 0 -->
      <g transform="translate(83.982596 244.324063) scale(0.18 -0.18)">
       <defs>
        <path id="ArialMT-30" d="M 266 2259 
Q 266 3072 433 3567 
Q 600 4063 929 4331 
Q 1259 4600 1759 4600 
Q 2128 4600 2406 4451 
Q 2684 4303 2865 4023 
Q 3047 3744 3150 3342 
Q 3253 2941 3253 2259 
Q 3253 1453 3087 958 
Q 2922 463 2592 192 
Q 2263 -78 1759 -78 
Q 1097 -78 719 397 
Q 266 969 266 2259 
z
M 844 2259 
Q 844 1131 1108 757 
Q 1372 384 1759 384 
Q 2147 384 2411 759 
Q 2675 1134 2675 2259 
Q 2675 3391 2411 3762 
Q 2147 4134 1753 4134 
Q 1366 4134 1134 3806 
Q 844 3388 844 2259 
z
" transform="scale(0.015625)"/>
       </defs>
       <use xlink:href="#ArialMT-30"/>
      </g>
     </g>
    </g>
    <g id="xtick_2">
     <g id="line2d_2">
      <g>
       <use xlink:href="#m6c1f766394" x="205.282539" y="227.94" style="stroke: #000000; stroke-width: 0.8"/>
      </g>
     </g>
     <g id="text_2">
      <!-- 500 -->
      <g transform="translate(190.268008 244.324063) scale(0.18 -0.18)">
       <defs>
        <path id="ArialMT-35" d="M 266 1200 
L 856 1250 
Q 922 819 1161 601 
Q 1400 384 1738 384 
Q 2144 384 2425 690 
Q 2706 997 2706 1503 
Q 2706 1984 2436 2262 
Q 2166 2541 1728 2541 
Q 1456 2541 1237 2417 
Q 1019 2294 894 2097 
L 366 2166 
L 809 4519 
L 3088 4519 
L 3088 3981 
L 1259 3981 
L 1013 2750 
Q 1425 3038 1878 3038 
Q 2478 3038 2890 2622 
Q 3303 2206 3303 1553 
Q 3303 931 2941 478 
Q 2500 -78 1738 -78 
Q 1113 -78 717 272 
Q 322 622 266 1200 
z
" transform="scale(0.015625)"/>
       </defs>
       <use xlink:href="#ArialMT-35"/>
       <use xlink:href="#ArialMT-30" x="55.615234"/>
       <use xlink:href="#ArialMT-30" x="111.230469"/>
      </g>
     </g>
    </g>
    <g id="xtick_3">
     <g id="line2d_3">
      <g>
       <use xlink:href="#m6c1f766394" x="321.577638" y="227.94" style="stroke: #000000; stroke-width: 0.8"/>
      </g>
     </g>
     <g id="text_3">
      <!-- 1000 -->
      <g transform="translate(301.558263 244.324063) scale(0.18 -0.18)">
       <defs>
        <path id="ArialMT-31" d="M 2384 0 
L 1822 0 
L 1822 3584 
Q 1619 3391 1289 3197 
Q 959 3003 697 2906 
L 697 3450 
Q 1169 3672 1522 3987 
Q 1875 4303 2022 4600 
L 2384 4600 
L 2384 0 
z
" transform="scale(0.015625)"/>
       </defs>
       <use xlink:href="#ArialMT-31"/>
       <use xlink:href="#ArialMT-30" x="55.615234"/>
       <use xlink:href="#ArialMT-30" x="111.230469"/>
       <use xlink:href="#ArialMT-30" x="166.845703"/>
      </g>
     </g>
    </g>
    <g id="text_4">
     <!-- iteration -->
     <g transform="translate(173.15015 264.785625) scale(0.18 -0.18)">
      <defs>
       <path id="ArialMT-69" d="M 425 3934 
L 425 4581 
L 988 4581 
L 988 3934 
L 425 3934 
z
M 425 0 
L 425 3319 
L 988 3319 
L 988 0 
L 425 0 
z
" transform="scale(0.015625)"/>
       <path id="ArialMT-74" d="M 1650 503 
L 1731 6 
Q 1494 -44 1306 -44 
Q 1000 -44 831 53 
Q 663 150 594 308 
Q 525 466 525 972 
L 525 2881 
L 113 2881 
L 113 3319 
L 525 3319 
L 525 4141 
L 1084 4478 
L 1084 3319 
L 1650 3319 
L 1650 2881 
L 1084 2881 
L 1084 941 
Q 1084 700 1114 631 
Q 1144 563 1211 522 
Q 1278 481 1403 481 
Q 1497 481 1650 503 
z
" transform="scale(0.015625)"/>
       <path id="ArialMT-65" d="M 2694 1069 
L 3275 997 
Q 3138 488 2766 206 
Q 2394 -75 1816 -75 
Q 1088 -75 661 373 
Q 234 822 234 1631 
Q 234 2469 665 2931 
Q 1097 3394 1784 3394 
Q 2450 3394 2872 2941 
Q 3294 2488 3294 1666 
Q 3294 1616 3291 1516 
L 816 1516 
Q 847 969 1125 678 
Q 1403 388 1819 388 
Q 2128 388 2347 550 
Q 2566 713 2694 1069 
z
M 847 1978 
L 2700 1978 
Q 2663 2397 2488 2606 
Q 2219 2931 1791 2931 
Q 1403 2931 1139 2672 
Q 875 2413 847 1978 
z
" transform="scale(0.015625)"/>
       <path id="ArialMT-72" d="M 416 0 
L 416 3319 
L 922 3319 
L 922 2816 
Q 1116 3169 1280 3281 
Q 1444 3394 1641 3394 
Q 1925 3394 2219 3213 
L 2025 2691 
Q 1819 2813 1613 2813 
Q 1428 2813 1281 2702 
Q 1134 2591 1072 2394 
Q 978 2094 978 1738 
L 978 0 
L 416 0 
z
" transform="scale(0.015625)"/>
       <path id="ArialMT-61" d="M 2588 409 
Q 2275 144 1986 34 
Q 1697 -75 1366 -75 
Q 819 -75 525 192 
Q 231 459 231 875 
Q 231 1119 342 1320 
Q 453 1522 633 1644 
Q 813 1766 1038 1828 
Q 1203 1872 1538 1913 
Q 2219 1994 2541 2106 
Q 2544 2222 2544 2253 
Q 2544 2597 2384 2738 
Q 2169 2928 1744 2928 
Q 1347 2928 1158 2789 
Q 969 2650 878 2297 
L 328 2372 
Q 403 2725 575 2942 
Q 747 3159 1072 3276 
Q 1397 3394 1825 3394 
Q 2250 3394 2515 3294 
Q 2781 3194 2906 3042 
Q 3031 2891 3081 2659 
Q 3109 2516 3109 2141 
L 3109 1391 
Q 3109 606 3145 398 
Q 3181 191 3288 0 
L 2700 0 
Q 2613 175 2588 409 
z
M 2541 1666 
Q 2234 1541 1622 1453 
Q 1275 1403 1131 1340 
Q 988 1278 909 1158 
Q 831 1038 831 891 
Q 831 666 1001 516 
Q 1172 366 1500 366 
Q 1825 366 2078 508 
Q 2331 650 2450 897 
Q 2541 1088 2541 1459 
L 2541 1666 
z
" transform="scale(0.015625)"/>
       <path id="ArialMT-6f" d="M 213 1659 
Q 213 2581 725 3025 
Q 1153 3394 1769 3394 
Q 2453 3394 2887 2945 
Q 3322 2497 3322 1706 
Q 3322 1066 3130 698 
Q 2938 331 2570 128 
Q 2203 -75 1769 -75 
Q 1072 -75 642 372 
Q 213 819 213 1659 
z
M 791 1659 
Q 791 1022 1069 705 
Q 1347 388 1769 388 
Q 2188 388 2466 706 
Q 2744 1025 2744 1678 
Q 2744 2294 2464 2611 
Q 2184 2928 1769 2928 
Q 1347 2928 1069 2612 
Q 791 2297 791 1659 
z
" transform="scale(0.015625)"/>
       <path id="ArialMT-6e" d="M 422 0 
L 422 3319 
L 928 3319 
L 928 2847 
Q 1294 3394 1984 3394 
Q 2284 3394 2536 3286 
Q 2788 3178 2913 3003 
Q 3038 2828 3088 2588 
Q 3119 2431 3119 2041 
L 3119 0 
L 2556 0 
L 2556 2019 
Q 2556 2363 2490 2533 
Q 2425 2703 2258 2804 
Q 2091 2906 1866 2906 
Q 1506 2906 1245 2678 
Q 984 2450 984 1813 
L 984 0 
L 422 0 
z
" transform="scale(0.015625)"/>
      </defs>
      <use xlink:href="#ArialMT-69"/>
      <use xlink:href="#ArialMT-74" x="22.216797"/>
      <use xlink:href="#ArialMT-65" x="50"/>
      <use xlink:href="#ArialMT-72" x="105.615234"/>
      <use xlink:href="#ArialMT-61" x="138.916016"/>
      <use xlink:href="#ArialMT-74" x="194.53125"/>
      <use xlink:href="#ArialMT-69" x="222.314453"/>
      <use xlink:href="#ArialMT-6f" x="244.53125"/>
      <use xlink:href="#ArialMT-6e" x="300.146484"/>
     </g>
    </g>
   </g>
   <g id="matplotlib.axis_2">
    <g id="ytick_1">
     <g id="line2d_4">
      <defs>
       <path id="madce9c3dce" d="M 0 0 
L 3.5 0 
" style="stroke: #000000; stroke-width: 0.8"/>
      </defs>
      <g>
       <use xlink:href="#madce9c3dce" x="77.369559" y="217.480745" style="stroke: #000000; stroke-width: 0.8"/>
      </g>
     </g>
     <g id="text_5">
      <!-- $\mathdefault{10^{-1}}$ -->
      <g transform="translate(38.229559 226.761995) scale(0.18 -0.18)">
       <defs>
        <path id="ArialMT-2212" d="M 3381 1997 
L 356 1997 
L 356 2522 
L 3381 2522 
L 3381 1997 
z
" transform="scale(0.015625)"/>
       </defs>
       <use xlink:href="#ArialMT-31" transform="translate(0 0.99375)"/>
       <use xlink:href="#ArialMT-30" transform="translate(55.615234 0.99375)"/>
       <use xlink:href="#ArialMT-2212" transform="translate(112.972813 70.6875) scale(0.7)"/>
       <use xlink:href="#ArialMT-31" transform="translate(153.851719 70.6875) scale(0.7)"/>
      </g>
     </g>
    </g>
    <g id="ytick_2">
     <g id="line2d_5">
      <g>
       <use xlink:href="#madce9c3dce" x="77.369559" y="48.256466" style="stroke: #000000; stroke-width: 0.8"/>
      </g>
     </g>
     <g id="text_6">
      <!-- $\mathdefault{10^{0}}$ -->
      <g transform="translate(45.609559 57.537716) scale(0.18 -0.18)">
       <use xlink:href="#ArialMT-31" transform="translate(0 0.99375)"/>
       <use xlink:href="#ArialMT-30" transform="translate(55.615234 0.99375)"/>
       <use xlink:href="#ArialMT-30" transform="translate(112.972813 70.6875) scale(0.7)"/>
      </g>
     </g>
    </g>
    <g id="ytick_3">
     <g id="line2d_6">
      <defs>
       <path id="me5c33b99b0" d="M 0 0 
L 2 0 
" style="stroke: #000000; stroke-width: 0.6"/>
      </defs>
      <g>
       <use xlink:href="#me5c33b99b0" x="77.369559" y="225.224024" style="stroke: #000000; stroke-width: 0.6"/>
      </g>
     </g>
    </g>
    <g id="ytick_4">
     <g id="line2d_7">
      <g>
       <use xlink:href="#me5c33b99b0" x="77.369559" y="166.539161" style="stroke: #000000; stroke-width: 0.6"/>
      </g>
     </g>
    </g>
    <g id="ytick_5">
     <g id="line2d_8">
      <g>
       <use xlink:href="#me5c33b99b0" x="77.369559" y="136.740245" style="stroke: #000000; stroke-width: 0.6"/>
      </g>
     </g>
    </g>
    <g id="ytick_6">
     <g id="line2d_9">
      <g>
       <use xlink:href="#me5c33b99b0" x="77.369559" y="115.597577" style="stroke: #000000; stroke-width: 0.6"/>
      </g>
     </g>
    </g>
    <g id="ytick_7">
     <g id="line2d_10">
      <g>
       <use xlink:href="#me5c33b99b0" x="77.369559" y="99.19805" style="stroke: #000000; stroke-width: 0.6"/>
      </g>
     </g>
    </g>
    <g id="ytick_8">
     <g id="line2d_11">
      <g>
       <use xlink:href="#me5c33b99b0" x="77.369559" y="85.798661" style="stroke: #000000; stroke-width: 0.6"/>
      </g>
     </g>
    </g>
    <g id="ytick_9">
     <g id="line2d_12">
      <g>
       <use xlink:href="#me5c33b99b0" x="77.369559" y="74.469639" style="stroke: #000000; stroke-width: 0.6"/>
      </g>
     </g>
    </g>
    <g id="ytick_10">
     <g id="line2d_13">
      <g>
       <use xlink:href="#me5c33b99b0" x="77.369559" y="64.655993" style="stroke: #000000; stroke-width: 0.6"/>
      </g>
     </g>
    </g>
    <g id="ytick_11">
     <g id="line2d_14">
      <g>
       <use xlink:href="#me5c33b99b0" x="77.369559" y="55.999744" style="stroke: #000000; stroke-width: 0.6"/>
      </g>
     </g>
    </g>
    <g id="text_7">
     <!-- loss -->
     <g transform="translate(30.652059 139.694531) rotate(-90) scale(0.18 -0.18)">
      <defs>
       <path id="ArialMT-6c" d="M 409 0 
L 409 4581 
L 972 4581 
L 972 0 
L 409 0 
z
" transform="scale(0.015625)"/>
       <path id="ArialMT-73" d="M 197 991 
L 753 1078 
Q 800 744 1014 566 
Q 1228 388 1613 388 
Q 2000 388 2187 545 
Q 2375 703 2375 916 
Q 2375 1106 2209 1216 
Q 2094 1291 1634 1406 
Q 1016 1563 777 1677 
Q 538 1791 414 1992 
Q 291 2194 291 2438 
Q 291 2659 392 2848 
Q 494 3038 669 3163 
Q 800 3259 1026 3326 
Q 1253 3394 1513 3394 
Q 1903 3394 2198 3281 
Q 2494 3169 2634 2976 
Q 2775 2784 2828 2463 
L 2278 2388 
Q 2241 2644 2061 2787 
Q 1881 2931 1553 2931 
Q 1166 2931 1000 2803 
Q 834 2675 834 2503 
Q 834 2394 903 2306 
Q 972 2216 1119 2156 
Q 1203 2125 1616 2013 
Q 2213 1853 2448 1751 
Q 2684 1650 2818 1456 
Q 2953 1263 2953 975 
Q 2953 694 2789 445 
Q 2625 197 2315 61 
Q 2006 -75 1616 -75 
Q 969 -75 630 194 
Q 291 463 197 991 
z
" transform="scale(0.015625)"/>
      </defs>
      <use xlink:href="#ArialMT-6c"/>
      <use xlink:href="#ArialMT-6f" x="22.216797"/>
      <use xlink:href="#ArialMT-73" x="77.832031"/>
      <use xlink:href="#ArialMT-73" x="127.832031"/>
     </g>
    </g>
   </g>
   <g id="line2d_15">
    <path d="M 88.98744 31.010079 
L 89.22003 31.467098 
L 89.45262 50.851435 
L 89.68521 28.917273 
L 89.917801 38.397242 
L 90.150391 36.74063 
L 90.382981 46.450653 
L 90.615571 42.996958 
L 90.848161 37.441424 
L 91.080752 58.006749 
L 91.313342 48.440464 
L 91.545932 54.836248 
L 91.778522 51.586657 
L 92.011112 39.088882 
L 92.243703 59.385092 
L 92.476293 54.211046 
L 92.708883 53.158103 
L 92.941473 57.751983 
L 93.174063 69.219227 
L 93.406654 52.78775 
L 93.639244 72.658298 
L 93.871834 63.883344 
L 94.104424 63.931627 
L 94.337014 66.340313 
L 94.569605 55.595224 
L 95.034785 78.428179 
L 95.267375 74.366519 
L 95.499965 76.531591 
L 95.732556 68.60383 
L 95.965146 81.098128 
L 96.197736 68.675892 
L 96.430326 63.182655 
L 96.662916 68.749107 
L 96.895506 79.381981 
L 97.128097 84.32509 
L 97.360687 84.910923 
L 97.593277 88.244894 
L 97.825867 89.701488 
L 98.058457 78.603956 
L 98.291048 102.659568 
L 98.523638 65.630551 
L 98.756228 85.512975 
L 98.988818 92.751757 
L 99.221408 72.276807 
L 99.453999 92.881384 
L 99.686589 68.047701 
L 99.919179 63.409433 
L 100.151769 87.847654 
L 100.384359 83.79808 
L 100.61695 77.314765 
L 101.08213 104.093782 
L 101.31472 94.905505 
L 101.54731 96.479875 
L 101.779901 80.877402 
L 102.012491 82.246426 
L 102.245081 86.126915 
L 102.477671 66.209726 
L 102.710261 93.165672 
L 102.942852 72.70045 
L 103.175442 86.384856 
L 103.408032 73.874048 
L 103.640622 95.075138 
L 103.873212 101.069311 
L 104.105803 78.773909 
L 104.338393 92.011238 
L 104.570983 96.719225 
L 104.803573 92.388123 
L 105.036163 90.723891 
L 105.268754 121.955918 
L 105.501344 117.171351 
L 105.966524 84.876257 
L 106.199114 84.880749 
L 106.431705 103.507824 
L 106.664295 89.351215 
L 106.896885 109.19754 
L 107.129475 106.445147 
L 107.362065 89.445655 
L 107.594656 83.239735 
L 107.827246 102.332338 
L 108.059836 107.027463 
L 108.292426 108.820013 
L 108.525016 98.935504 
L 108.757607 101.499839 
L 108.990197 107.316975 
L 109.222787 91.337077 
L 109.455377 107.683969 
L 109.920558 84.692305 
L 110.153148 113.37658 
L 110.385738 112.778914 
L 110.618328 111.139925 
L 110.850918 77.608991 
L 111.083509 95.187186 
L 111.316099 84.74666 
L 111.548689 94.070192 
L 111.781279 124.675237 
L 112.013869 108.294565 
L 112.47905 111.264001 
L 112.71164 96.428787 
L 112.94423 105.071593 
L 113.17682 94.920886 
L 113.409411 112.577484 
L 113.642001 110.358793 
L 113.874591 92.757247 
L 114.107181 111.614471 
L 114.339771 112.623424 
L 114.804952 80.945229 
L 115.037542 97.681332 
L 115.270132 94.717253 
L 115.502722 110.161698 
L 115.735313 114.208281 
L 115.967903 85.626282 
L 116.200493 95.108054 
L 116.433083 111.438486 
L 116.665673 118.191455 
L 116.898264 100.169167 
L 117.130854 112.455979 
L 117.363444 115.137704 
L 117.596034 95.59197 
L 117.828624 100.920476 
L 118.293805 94.720517 
L 118.526395 99.746873 
L 118.758985 113.112776 
L 118.991575 115.747011 
L 119.224166 84.739125 
L 119.689346 160.086132 
L 119.921936 83.95058 
L 120.387116 108.888468 
L 120.619707 106.681043 
L 120.852297 78.163359 
L 121.084887 119.496111 
L 121.317477 123.088123 
L 121.550067 118.457733 
L 121.782658 105.859115 
L 122.015248 118.486602 
L 122.247838 108.5092 
L 122.480428 116.10053 
L 122.713018 91.777894 
L 122.945609 116.766431 
L 123.178199 106.890631 
L 123.410789 116.015345 
L 123.643379 117.541521 
L 123.875969 117.441392 
L 124.10856 68.799821 
L 124.34115 109.599182 
L 124.57374 123.255269 
L 124.80633 82.944691 
L 125.03892 84.249791 
L 125.271511 106.5462 
L 125.504101 88.732021 
L 125.736691 117.778573 
L 125.969281 108.045358 
L 126.201871 108.836278 
L 126.434462 122.420497 
L 126.667052 98.444246 
L 127.364822 131.290369 
L 127.597413 115.54348 
L 127.830003 78.945268 
L 128.062593 99.315876 
L 128.295183 103.91366 
L 128.527773 125.300955 
L 128.760364 123.291144 
L 128.992954 146.875795 
L 129.225544 64.007666 
L 129.458134 122.617499 
L 129.690724 104.394192 
L 129.923315 123.129546 
L 130.155905 123.338918 
L 130.388495 124.215247 
L 130.621085 126.469192 
L 130.853675 127.493489 
L 131.086266 99.346578 
L 131.318856 117.009829 
L 131.551446 110.955505 
L 132.016626 122.515028 
L 132.249217 93.469928 
L 132.481807 128.719138 
L 132.714397 115.570679 
L 132.946987 127.092528 
L 133.179577 99.547381 
L 133.412168 110.548238 
L 133.644758 107.022664 
L 133.877348 98.059055 
L 134.109938 134.242964 
L 134.342528 115.017822 
L 134.575119 74.708372 
L 134.807709 115.487122 
L 135.040299 109.215756 
L 135.272889 109.845287 
L 135.505479 108.032962 
L 135.73807 142.790607 
L 135.97066 110.570463 
L 136.20325 130.088423 
L 136.43584 133.770756 
L 136.66843 104.719661 
L 136.901021 134.534805 
L 137.133611 138.993886 
L 137.366201 135.207833 
L 137.598791 118.711845 
L 137.831381 110.791434 
L 138.063972 115.828722 
L 138.296562 133.141333 
L 138.529152 126.515139 
L 138.761742 129.971127 
L 138.994332 137.408941 
L 139.226923 110.752479 
L 139.459513 110.247628 
L 139.692103 136.366258 
L 139.924693 89.870809 
L 140.157283 136.406736 
L 140.389874 119.945258 
L 140.622464 134.711144 
L 140.855054 118.1253 
L 141.087644 140.367255 
L 141.320234 101.814346 
L 141.552825 122.905829 
L 141.785415 133.36988 
L 142.018005 136.596285 
L 142.250595 121.830371 
L 142.483185 137.917879 
L 142.715775 140.622195 
L 142.948366 135.513734 
L 143.180956 139.674031 
L 143.413546 139.191188 
L 143.646136 107.44416 
L 143.878726 107.101355 
L 144.111317 118.273183 
L 144.343907 143.441744 
L 144.809087 119.836883 
L 145.041677 145.53408 
L 145.274268 121.675429 
L 145.506858 144.34942 
L 145.739448 136.453846 
L 145.972038 58.606535 
L 146.204628 137.909652 
L 146.437219 124.06551 
L 146.669809 97.062309 
L 146.902399 120.763831 
L 147.134989 123.373647 
L 147.367579 94.806354 
L 147.60017 145.97372 
L 147.83276 142.477249 
L 148.06535 142.282936 
L 148.29794 123.128382 
L 148.53053 120.890082 
L 148.763121 113.549434 
L 148.995711 148.663683 
L 149.460891 107.084445 
L 149.693481 119.190104 
L 149.926072 119.796833 
L 150.158662 162.456691 
L 150.623842 104.946645 
L 150.856432 156.959752 
L 151.089023 95.472674 
L 151.554203 141.861769 
L 151.786793 65.872174 
L 152.019383 147.6295 
L 152.251974 156.519547 
L 152.484564 80.441819 
L 152.717154 115.987402 
L 153.182334 122.435784 
L 153.414925 150.41213 
L 153.647515 163.147771 
L 153.880105 119.642187 
L 154.112695 118.293453 
L 154.345285 121.308087 
L 154.577876 135.802515 
L 155.043056 87.655388 
L 155.275646 154.233927 
L 155.508236 115.848878 
L 155.740827 149.139102 
L 155.973417 116.592662 
L 156.206007 155.757038 
L 156.438597 107.555112 
L 156.671187 121.215711 
L 156.903778 149.95104 
L 157.136368 124.758515 
L 157.368958 143.830759 
L 157.601548 142.47035 
L 157.834138 129.144423 
L 158.066729 158.955396 
L 158.299319 113.703936 
L 158.531909 119.646735 
L 158.764499 156.495046 
L 158.997089 119.825502 
L 159.22968 109.529124 
L 159.46227 160.581442 
L 159.69486 154.599421 
L 159.92745 130.860102 
L 160.16004 136.754933 
L 160.392631 155.83279 
L 160.625221 129.4011 
L 160.857811 135.340983 
L 161.090401 154.958308 
L 161.322991 156.623127 
L 161.555582 134.658295 
L 161.788172 156.583435 
L 162.020762 130.286402 
L 162.253352 157.255808 
L 162.485942 133.967974 
L 162.718533 130.507147 
L 162.951123 132.776185 
L 163.183713 159.267647 
L 163.416303 126.664042 
L 163.648893 160.829867 
L 163.881484 148.616394 
L 164.114074 157.151782 
L 164.579254 114.261967 
L 164.811844 151.866553 
L 165.044435 153.613716 
L 165.277025 128.429381 
L 165.509615 145.722681 
L 165.742205 132.455064 
L 165.974795 154.035887 
L 166.207385 144.381128 
L 166.439976 180.038861 
L 166.672566 152.970169 
L 166.905156 149.299294 
L 167.137746 124.653135 
L 167.370336 144.72251 
L 167.602927 146.720375 
L 167.835517 155.778513 
L 168.533287 108.578775 
L 168.765878 142.696799 
L 168.998468 158.74058 
L 169.231058 115.912696 
L 169.463648 169.229942 
L 169.696238 129.76505 
L 169.928829 164.801305 
L 170.161419 161.889445 
L 170.394009 138.723631 
L 170.626599 137.985287 
L 170.859189 138.621506 
L 171.09178 119.271932 
L 171.32437 136.44544 
L 171.55696 166.578957 
L 171.78955 130.401008 
L 172.02214 155.043762 
L 172.254731 138.826341 
L 172.487321 168.266998 
L 173.185091 131.29824 
L 173.417682 90.71343 
L 173.650272 156.009414 
L 173.882862 159.347599 
L 174.115452 169.176242 
L 174.348042 124.477351 
L 174.580633 118.819849 
L 174.813223 120.798875 
L 175.045813 124.432735 
L 175.278403 158.316609 
L 175.743584 144.645234 
L 175.976174 162.833631 
L 176.208764 163.875188 
L 176.441354 174.42279 
L 176.673944 218.462727 
L 176.906535 146.798475 
L 177.139125 172.261893 
L 177.371715 173.52442 
L 177.604305 142.109239 
L 177.836895 173.84895 
L 178.069486 159.313714 
L 178.302076 132.506634 
L 178.534666 139.605588 
L 178.767256 172.653577 
L 178.999846 80.319715 
L 179.232437 158.694399 
L 179.465027 169.25187 
L 179.697617 120.239597 
L 179.930207 133.405057 
L 180.162797 139.608449 
L 180.395388 141.914085 
L 180.627978 165.496296 
L 180.860568 142.758976 
L 181.093158 173.047922 
L 181.325748 127.307352 
L 181.558339 124.073474 
L 181.790929 152.919489 
L 182.023519 152.937425 
L 182.256109 150.649109 
L 182.488699 174.988608 
L 182.72129 150.538414 
L 182.95388 175.459128 
L 183.18647 121.311768 
L 183.41906 143.704987 
L 183.65165 152.56976 
L 183.884241 136.904564 
L 184.116831 145.492922 
L 184.349421 118.439023 
L 184.582011 139.578796 
L 184.814601 175.19887 
L 185.047192 175.508516 
L 185.279782 133.208833 
L 185.512372 175.507192 
L 185.977552 123.70013 
L 186.210143 171.345204 
L 186.442733 175.750723 
L 186.907913 126.306929 
L 187.140503 180.152035 
L 187.373094 170.192456 
L 187.605684 76.245259 
L 187.838274 176.640653 
L 188.070864 178.62784 
L 188.303454 175.086098 
L 188.536044 155.930954 
L 188.768635 180.54969 
L 189.001225 172.49626 
L 189.466405 128.852863 
L 189.698995 171.049259 
L 189.931586 126.388513 
L 190.164176 172.015917 
L 190.396766 175.888595 
L 190.861946 147.619341 
L 191.094537 88.350203 
L 191.327127 152.221425 
L 191.559717 161.480508 
L 191.792307 124.40597 
L 192.024897 177.059818 
L 192.490078 181.074323 
L 192.722668 157.250823 
L 192.955258 147.367967 
L 193.187848 171.635602 
L 193.420439 103.305428 
L 193.653029 148.519368 
L 193.885619 151.923661 
L 194.118209 143.690003 
L 194.58339 119.898803 
L 194.81598 174.931465 
L 195.04857 148.086445 
L 195.28116 170.404352 
L 195.51375 148.534016 
L 195.746341 152.998933 
L 195.978931 181.105647 
L 196.211521 182.685876 
L 196.444111 141.01199 
L 196.676701 135.54891 
L 196.909292 180.25879 
L 197.141882 178.624794 
L 197.374472 153.874209 
L 197.607062 187.195288 
L 197.839652 123.329592 
L 198.072243 166.376816 
L 198.304833 181.282352 
L 198.537423 178.077689 
L 198.770013 125.113551 
L 199.002603 166.984066 
L 199.235194 157.264891 
L 199.467784 181.897118 
L 199.700374 125.732367 
L 199.932964 156.737001 
L 200.165554 132.258376 
L 200.398145 133.558067 
L 200.863325 175.987673 
L 201.095915 115.460161 
L 201.328505 180.819159 
L 201.561096 181.074663 
L 202.026276 147.10826 
L 202.491456 151.516761 
L 202.724047 179.916211 
L 202.956637 106.954444 
L 203.189227 153.721579 
L 203.421817 132.526975 
L 203.654407 148.264535 
L 203.886998 142.608883 
L 204.119588 126.753698 
L 204.352178 180.229355 
L 204.584768 174.248793 
L 204.817358 186.887172 
L 205.049949 181.426493 
L 205.282539 179.305485 
L 205.515129 135.623354 
L 205.747719 165.77173 
L 205.980309 169.147023 
L 206.2129 111.480204 
L 206.44549 175.380605 
L 206.67808 186.720128 
L 206.91067 154.036464 
L 207.14326 155.110199 
L 207.375851 180.011862 
L 207.608441 133.85557 
L 207.841031 155.088534 
L 208.073621 151.528607 
L 208.306211 185.358567 
L 208.538802 169.345027 
L 208.771392 180.640604 
L 209.003982 154.438274 
L 209.236572 149.673955 
L 209.469162 180.366995 
L 209.701753 179.42695 
L 209.934343 187.357485 
L 210.399523 150.049844 
L 210.632113 176.941614 
L 210.864704 184.638368 
L 211.097294 179.676323 
L 211.329884 178.635967 
L 211.562474 147.725942 
L 211.795064 173.76669 
L 212.027654 106.996789 
L 212.260245 158.074423 
L 212.492835 181.35992 
L 212.725425 181.290276 
L 212.958015 133.217059 
L 213.423196 180.243388 
L 213.655786 149.388492 
L 214.120966 153.444212 
L 214.353556 153.075572 
L 214.586147 186.446889 
L 214.818737 184.402708 
L 215.051327 140.802014 
L 215.283917 134.08648 
L 215.516507 181.124235 
L 215.749098 185.239945 
L 215.981688 184.541452 
L 216.214278 128.167876 
L 216.446868 167.195499 
L 216.679458 179.981107 
L 216.912049 147.945443 
L 217.144639 186.358056 
L 217.377229 148.003536 
L 217.609819 141.239105 
L 217.842409 182.393547 
L 218.075 97.557202 
L 218.30759 156.339111 
L 218.54018 184.960224 
L 219.00536 128.193167 
L 219.237951 161.864947 
L 219.470541 156.85038 
L 219.703131 98.728628 
L 219.935721 171.441616 
L 220.168311 154.055968 
L 220.400902 80.526353 
L 220.633492 152.672323 
L 220.866082 149.841147 
L 221.098672 170.106761 
L 221.331262 122.133576 
L 221.563853 139.445407 
L 221.796443 174.866425 
L 222.029033 165.611931 
L 222.261623 110.216064 
L 222.494213 142.337255 
L 222.726804 143.187499 
L 222.959394 146.974483 
L 223.191984 161.13497 
L 223.424574 155.055606 
L 223.657164 178.982733 
L 223.889755 100.507204 
L 224.122345 130.908177 
L 224.354935 181.389583 
L 224.587525 154.556811 
L 224.820115 173.493674 
L 225.052706 171.346496 
L 225.285296 156.745181 
L 225.517886 181.41476 
L 225.750476 182.194711 
L 225.983066 175.983015 
L 226.215657 132.260354 
L 226.448247 149.479691 
L 226.680837 176.181703 
L 227.146017 134.367215 
L 227.378608 134.849644 
L 227.611198 133.447224 
L 227.843788 183.618818 
L 228.076378 147.158905 
L 228.308968 173.945041 
L 228.541559 180.355351 
L 228.774149 175.707896 
L 229.006739 180.118177 
L 229.239329 152.026337 
L 229.471919 157.387185 
L 229.70451 110.863594 
L 229.9371 144.09549 
L 230.16969 153.025708 
L 230.40228 92.254396 
L 230.63487 156.91997 
L 230.867461 186.891823 
L 231.332641 132.705149 
L 231.565231 150.132792 
L 231.797821 131.489965 
L 232.030412 158.235736 
L 232.263002 152.23701 
L 232.495592 125.235787 
L 232.728182 158.449525 
L 232.960772 135.240409 
L 233.193363 146.327789 
L 233.425953 183.330944 
L 233.658543 162.697032 
L 233.891133 190.252399 
L 234.123723 138.773812 
L 234.588904 172.589849 
L 234.821494 118.932686 
L 235.054084 168.839576 
L 235.286674 157.847343 
L 235.519264 159.941596 
L 235.751855 103.891188 
L 235.984445 187.851263 
L 236.217035 155.817985 
L 236.449625 160.555962 
L 236.682215 181.323372 
L 236.914806 128.778849 
L 237.379986 158.407864 
L 237.612576 132.687273 
L 237.845166 178.069932 
L 238.077757 111.691987 
L 238.542937 169.35393 
L 238.775527 111.069558 
L 239.008117 102.088352 
L 239.240708 185.709687 
L 239.473298 101.629344 
L 239.705888 148.035481 
L 239.938478 161.521232 
L 240.171068 152.456209 
L 240.403659 115.87613 
L 240.636249 149.658634 
L 240.868839 134.598676 
L 241.334019 187.486437 
L 241.56661 93.543616 
L 241.7992 134.969865 
L 242.03179 152.154855 
L 242.26438 122.645566 
L 242.49697 180.598736 
L 242.729561 181.589072 
L 242.962151 185.176955 
L 243.194741 148.359736 
L 243.427331 147.485366 
L 243.659921 157.176392 
L 243.892512 138.066628 
L 244.357692 169.070177 
L 244.590282 184.476289 
L 244.822872 190.638025 
L 245.055463 187.663342 
L 245.288053 188.349582 
L 245.520643 153.124024 
L 245.753233 82.365721 
L 246.218414 188.707475 
L 246.451004 76.144184 
L 246.683594 178.894863 
L 247.148774 132.923829 
L 247.381365 118.92997 
L 247.613955 168.992425 
L 247.846545 90.31397 
L 248.311725 184.639426 
L 248.544316 186.380525 
L 248.776906 155.660149 
L 249.009496 196.583475 
L 249.242086 156.788715 
L 249.474676 158.517504 
L 249.707267 103.556734 
L 249.939857 187.478893 
L 250.172447 164.722671 
L 250.405037 158.908551 
L 250.637627 144.099517 
L 250.870218 158.927822 
L 251.335398 163.29944 
L 251.567988 190.195662 
L 251.800578 161.784233 
L 252.033169 172.00944 
L 252.265759 192.472022 
L 252.498349 144.038913 
L 252.730939 178.645786 
L 252.963529 154.404053 
L 253.19612 189.752056 
L 253.42871 156.622835 
L 253.6613 143.634114 
L 253.89389 190.430429 
L 254.12648 155.69437 
L 254.359071 177.03369 
L 254.591661 134.827219 
L 254.824251 160.801344 
L 255.056841 125.209346 
L 255.289431 178.156641 
L 255.522022 111.899326 
L 255.754612 170.413962 
L 255.987202 184.695836 
L 256.219792 125.617291 
L 256.452382 158.891954 
L 256.684973 146.346849 
L 256.917563 163.346165 
L 257.150153 161.598181 
L 257.382743 152.615491 
L 257.615333 131.429397 
L 257.847923 192.007882 
L 258.080514 180.898549 
L 258.313104 187.769518 
L 258.545694 146.160707 
L 258.778284 69.844333 
L 259.243465 183.518366 
L 259.476055 159.597835 
L 259.708645 190.849229 
L 259.941235 141.08923 
L 260.173825 189.982469 
L 260.406416 193.256293 
L 260.639006 185.980508 
L 261.104186 120.934329 
L 261.336776 114.708422 
L 261.569367 127.349496 
L 261.801957 179.406189 
L 262.034547 178.270079 
L 262.267137 190.302559 
L 262.499727 193.175622 
L 262.732318 193.00062 
L 262.964908 156.19876 
L 263.197498 159.328872 
L 263.430088 132.11115 
L 263.662678 184.875102 
L 263.895269 172.612606 
L 264.127859 107.207247 
L 264.360449 137.128006 
L 264.593039 86.08816 
L 264.825629 154.885307 
L 265.05822 190.258622 
L 265.29081 147.97214 
L 265.75599 168.425896 
L 265.98858 173.017273 
L 266.221171 198.747857 
L 266.686351 161.50313 
L 266.918941 140.637391 
L 267.384122 190.9246 
L 267.616712 127.86598 
L 267.849302 177.498649 
L 268.081892 141.817923 
L 268.314482 179.430017 
L 268.547073 145.373569 
L 268.779663 153.314285 
L 269.012253 134.622315 
L 269.244843 180.436551 
L 269.477433 189.418215 
L 269.710024 189.451347 
L 269.942614 163.637522 
L 270.175204 158.377737 
L 270.407794 177.603519 
L 270.640384 108.914672 
L 270.872975 128.182568 
L 271.105565 188.734288 
L 271.338155 156.964434 
L 271.570745 165.331222 
L 271.803335 134.113047 
L 272.035926 150.353927 
L 272.268516 196.91427 
L 272.501106 112.011528 
L 272.733696 166.424206 
L 272.966286 153.026565 
L 273.198877 123.969751 
L 273.431467 170.810099 
L 273.664057 137.77776 
L 273.896647 189.610923 
L 274.129237 114.180023 
L 274.361828 194.021809 
L 274.594418 157.82027 
L 274.827008 142.090988 
L 275.059598 98.861643 
L 275.292188 135.815195 
L 275.524779 199.464286 
L 275.757369 159.35533 
L 275.989959 158.896993 
L 276.222549 191.160149 
L 276.455139 155.142561 
L 276.68773 183.385119 
L 276.92032 185.519131 
L 277.15291 154.895981 
L 277.3855 158.717193 
L 277.61809 156.090243 
L 277.850681 194.950258 
L 278.083271 131.615125 
L 278.315861 158.126896 
L 278.548451 136.917078 
L 278.781041 152.645608 
L 279.013632 189.341423 
L 279.246222 187.286054 
L 279.478812 197.581152 
L 279.711402 136.333425 
L 279.943992 190.162368 
L 280.176582 157.726433 
L 280.409173 190.403308 
L 280.641763 162.898173 
L 280.874353 156.658158 
L 281.106943 112.650737 
L 281.339533 179.561806 
L 281.572124 168.073898 
L 281.804714 163.218858 
L 282.037304 135.373598 
L 282.269894 135.50234 
L 282.502484 196.013864 
L 282.735075 182.181188 
L 282.967665 190.671065 
L 283.200255 167.336306 
L 283.665435 158.767822 
L 283.898026 151.835185 
L 284.130616 174.330011 
L 284.363206 184.107344 
L 284.828386 147.78835 
L 285.060977 194.477965 
L 285.293567 180.474255 
L 285.526157 183.901639 
L 285.758747 132.09779 
L 285.991337 143.696158 
L 286.223928 178.037551 
L 286.456518 182.30086 
L 286.689108 165.736035 
L 286.921698 195.294866 
L 287.154288 158.268496 
L 287.386879 153.531651 
L 287.619469 179.333373 
L 287.852059 168.248372 
L 288.084649 144.754029 
L 288.317239 139.502852 
L 288.54983 198.966619 
L 288.78242 197.338305 
L 289.01501 131.284464 
L 289.2476 187.734594 
L 289.48019 193.578268 
L 289.712781 179.09205 
L 289.945371 127.891458 
L 290.177961 110.611727 
L 290.410551 192.556768 
L 290.643141 112.76199 
L 290.875732 164.715273 
L 291.108322 165.166018 
L 291.340912 194.328515 
L 291.573502 168.972437 
L 291.806092 123.412814 
L 292.038683 199.141778 
L 292.503863 162.640181 
L 292.736453 192.705938 
L 292.969043 141.851993 
L 293.201634 161.238517 
L 293.434224 197.146457 
L 293.666814 91.942269 
L 293.899404 163.502627 
L 294.131994 143.075331 
L 294.597175 194.972555 
L 294.829765 163.105075 
L 295.062355 192.526286 
L 295.294945 118.304263 
L 295.527536 188.517023 
L 295.760126 140.44207 
L 295.992716 169.047958 
L 296.225306 176.391987 
L 296.457896 192.768848 
L 296.690487 124.378975 
L 296.923077 194.151778 
L 297.155667 191.01583 
L 297.388257 117.978692 
L 297.620847 156.781699 
L 297.853438 148.269224 
L 298.086028 201.33405 
L 298.551208 138.617372 
L 298.783798 194.451606 
L 299.016389 191.473189 
L 299.248979 191.50346 
L 299.481569 140.855265 
L 299.714159 192.428926 
L 299.946749 168.538462 
L 300.17934 158.828839 
L 300.41193 103.026919 
L 300.87711 188.712909 
L 301.1097 153.085831 
L 301.342291 199.142171 
L 301.574881 202.7144 
L 301.807471 152.311834 
L 302.272651 185.775746 
L 302.505242 171.090446 
L 302.737832 170.447921 
L 302.970422 140.718893 
L 303.203012 125.728099 
L 303.435602 145.815718 
L 303.668192 189.663422 
L 303.900783 192.337566 
L 304.133373 150.669014 
L 304.831143 200.943745 
L 305.063734 198.508904 
L 305.528914 111.695648 
L 305.761504 193.364285 
L 306.226685 153.924357 
L 306.459275 139.858436 
L 306.691865 195.303191 
L 306.924455 160.782431 
L 307.157045 195.678232 
L 307.389636 200.828144 
L 307.622226 181.495159 
L 307.854816 196.974775 
L 308.087406 135.752067 
L 308.319996 132.051308 
L 308.552587 167.341327 
L 308.785177 83.145811 
L 309.017767 193.498176 
L 309.482947 154.624472 
L 309.715538 197.958886 
L 309.948128 130.028912 
L 310.180718 165.906847 
L 310.413308 163.53871 
L 310.645898 190.734958 
L 310.878489 194.702232 
L 311.111079 97.607305 
L 311.343669 162.689129 
L 311.576259 156.306775 
L 311.808849 142.19394 
L 312.04144 171.293639 
L 312.50662 175.991328 
L 312.73921 192.394005 
L 312.9718 175.550955 
L 313.204391 171.543583 
L 313.436981 159.818967 
L 313.669571 159.83507 
L 313.902161 105.796394 
L 314.367342 194.896994 
L 314.599932 94.793489 
L 314.832522 186.983119 
L 315.065112 192.282625 
L 315.297702 177.672463 
L 315.530293 202.496834 
L 315.762883 161.394272 
L 315.995473 187.353538 
L 316.228063 162.127353 
L 316.460653 203.105386 
L 316.693244 167.04856 
L 316.925834 203.13093 
L 317.158424 160.460081 
L 317.391014 199.208246 
L 317.623604 177.477149 
L 318.088785 158.990089 
L 318.321375 191.424474 
L 318.553965 160.780932 
L 318.786555 194.644909 
L 319.019146 163.369987 
L 319.251736 163.843621 
L 319.484326 170.108675 
L 319.716916 201.232335 
L 319.949506 197.095088 
L 320.182097 174.569972 
L 320.414687 131.073359 
L 320.647277 188.481926 
L 321.112457 84.816469 
L 321.345048 195.101851 
L 321.345048 195.101851 
" clip-path="url(#p8ce38b31c2)" style="fill: none; stroke: #1f77b4; stroke-width: 1.5; stroke-linecap: square"/>
   </g>
   <g id="patch_3">
    <path d="M 77.369559 227.94 
L 77.369559 19.44 
" style="fill: none; stroke: #000000; stroke-width: 0.8; stroke-linejoin: miter; stroke-linecap: square"/>
   </g>
   <g id="patch_4">
    <path d="M 332.962928 227.94 
L 332.962928 19.44 
" style="fill: none; stroke: #000000; stroke-width: 0.8; stroke-linejoin: miter; stroke-linecap: square"/>
   </g>
   <g id="patch_5">
    <path d="M 77.369559 227.94 
L 332.962928 227.94 
" style="fill: none; stroke: #000000; stroke-width: 0.8; stroke-linejoin: miter; stroke-linecap: square"/>
   </g>
   <g id="patch_6">
    <path d="M 77.369559 19.44 
L 332.962928 19.44 
" style="fill: none; stroke: #000000; stroke-width: 0.8; stroke-linejoin: miter; stroke-linecap: square"/>
   </g>
  </g>
 </g>
 <defs>
  <clipPath id="p8ce38b31c2">
   <rect x="77.369559" y="19.44" width="255.593369" height="208.5"/>
  </clipPath>
 </defs>
</svg>
