<?xml version="1.0" encoding="utf-8" standalone="no"?>
<!DOCTYPE svg PUBLIC "-//W3C//DTD SVG 1.1//EN"
  "http://www.w3.org/Graphics/SVG/1.1/DTD/svg11.dtd">
<svg xmlns:xlink="http://www.w3.org/1999/xlink" width="460.8pt" height="345.6pt" viewBox="0 0 460.8 345.6" xmlns="http://www.w3.org/2000/svg" version="1.1">
 <metadata>
  <rdf:RDF xmlns:dc="http://purl.org/dc/elements/1.1/" xmlns:cc="http://creativecommons.org/ns#" xmlns:rdf="http://www.w3.org/1999/02/22-rdf-syntax-ns#">
   <cc:Work>
    <dc:type rdf:resource="http://purl.org/dc/dcmitype/StillImage"/>
    <dc:date>2024-07-03T19:44:22.700738</dc:date>
    <dc:format>image/svg+xml</dc:format>
    <dc:creator>
     <cc:Agent>
      <dc:title>Matplotlib v3.8.4, https://matplotlib.org/</dc:title>
     </cc:Agent>
    </dc:creator>
   </cc:Work>
  </rdf:RDF>
 </metadata>
 <defs>
  <style type="text/css">*{stroke-linejoin: round; stroke-linecap: butt}</style>
 </defs>
 <g id="figure_1">
  <g id="patch_1">
   <path d="M 0 345.6 
L 460.8 345.6 
L 460.8 0 
L 0 0 
L 0 345.6 
z
" style="fill: none"/>
  </g>
  <g id="axes_1">
   <g id="patch_2">
    <path d="M 57.6 307.584 
L 414.72 307.584 
L 414.72 41.472 
L 57.6 41.472 
L 57.6 307.584 
z
" style="fill: none"/>
   </g>
   <g id="matplotlib.axis_1">
    <g id="xtick_1">
     <g id="line2d_1">
      <defs>
       <path id="m75aa5ee092" d="M 0 0 
L 0 3.5 
" style="stroke: #000000; stroke-width: 0.8"/>
      </defs>
      <g>
       <use xlink:href="#m75aa5ee092" x="73.832727" y="307.584" style="stroke: #000000; stroke-width: 0.8"/>
      </g>
     </g>
     <g id="text_1">
      <!-- 0 -->
      <g transform="translate(70.651477 322.182437) scale(0.1 -0.1)">
       <defs>
        <path id="DejaVuSans-30" d="M 2034 4250 
Q 1547 4250 1301 3770 
Q 1056 3291 1056 2328 
Q 1056 1369 1301 889 
Q 1547 409 2034 409 
Q 2525 409 2770 889 
Q 3016 1369 3016 2328 
Q 3016 3291 2770 3770 
Q 2525 4250 2034 4250 
z
M 2034 4750 
Q 2819 4750 3233 4129 
Q 3647 3509 3647 2328 
Q 3647 1150 3233 529 
Q 2819 -91 2034 -91 
Q 1250 -91 836 529 
Q 422 1150 422 2328 
Q 422 3509 836 4129 
Q 1250 4750 2034 4750 
z
" transform="scale(0.015625)"/>
       </defs>
       <use xlink:href="#DejaVuSans-30"/>
      </g>
     </g>
    </g>
    <g id="xtick_2">
     <g id="line2d_2">
      <g>
       <use xlink:href="#m75aa5ee092" x="138.893758" y="307.584" style="stroke: #000000; stroke-width: 0.8"/>
      </g>
     </g>
     <g id="text_2">
      <!-- 100 -->
      <g transform="translate(129.350008 322.182437) scale(0.1 -0.1)">
       <defs>
        <path id="DejaVuSans-31" d="M 794 531 
L 1825 531 
L 1825 4091 
L 703 3866 
L 703 4441 
L 1819 4666 
L 2450 4666 
L 2450 531 
L 3481 531 
L 3481 0 
L 794 0 
L 794 531 
z
" transform="scale(0.015625)"/>
       </defs>
       <use xlink:href="#DejaVuSans-31"/>
       <use xlink:href="#DejaVuSans-30" x="63.623047"/>
       <use xlink:href="#DejaVuSans-30" x="127.246094"/>
      </g>
     </g>
    </g>
    <g id="xtick_3">
     <g id="line2d_3">
      <g>
       <use xlink:href="#m75aa5ee092" x="203.95479" y="307.584" style="stroke: #000000; stroke-width: 0.8"/>
      </g>
     </g>
     <g id="text_3">
      <!-- 200 -->
      <g transform="translate(194.41104 322.182437) scale(0.1 -0.1)">
       <defs>
        <path id="DejaVuSans-32" d="M 1228 531 
L 3431 531 
L 3431 0 
L 469 0 
L 469 531 
Q 828 903 1448 1529 
Q 2069 2156 2228 2338 
Q 2531 2678 2651 2914 
Q 2772 3150 2772 3378 
Q 2772 3750 2511 3984 
Q 2250 4219 1831 4219 
Q 1534 4219 1204 4116 
Q 875 4013 500 3803 
L 500 4441 
Q 881 4594 1212 4672 
Q 1544 4750 1819 4750 
Q 2544 4750 2975 4387 
Q 3406 4025 3406 3419 
Q 3406 3131 3298 2873 
Q 3191 2616 2906 2266 
Q 2828 2175 2409 1742 
Q 1991 1309 1228 531 
z
" transform="scale(0.015625)"/>
       </defs>
       <use xlink:href="#DejaVuSans-32"/>
       <use xlink:href="#DejaVuSans-30" x="63.623047"/>
       <use xlink:href="#DejaVuSans-30" x="127.246094"/>
      </g>
     </g>
    </g>
    <g id="xtick_4">
     <g id="line2d_4">
      <g>
       <use xlink:href="#m75aa5ee092" x="269.015821" y="307.584" style="stroke: #000000; stroke-width: 0.8"/>
      </g>
     </g>
     <g id="text_4">
      <!-- 300 -->
      <g transform="translate(259.472071 322.182437) scale(0.1 -0.1)">
       <defs>
        <path id="DejaVuSans-33" d="M 2597 2516 
Q 3050 2419 3304 2112 
Q 3559 1806 3559 1356 
Q 3559 666 3084 287 
Q 2609 -91 1734 -91 
Q 1441 -91 1130 -33 
Q 819 25 488 141 
L 488 750 
Q 750 597 1062 519 
Q 1375 441 1716 441 
Q 2309 441 2620 675 
Q 2931 909 2931 1356 
Q 2931 1769 2642 2001 
Q 2353 2234 1838 2234 
L 1294 2234 
L 1294 2753 
L 1863 2753 
Q 2328 2753 2575 2939 
Q 2822 3125 2822 3475 
Q 2822 3834 2567 4026 
Q 2313 4219 1838 4219 
Q 1578 4219 1281 4162 
Q 984 4106 628 3988 
L 628 4550 
Q 988 4650 1302 4700 
Q 1616 4750 1894 4750 
Q 2613 4750 3031 4423 
Q 3450 4097 3450 3541 
Q 3450 3153 3228 2886 
Q 3006 2619 2597 2516 
z
" transform="scale(0.015625)"/>
       </defs>
       <use xlink:href="#DejaVuSans-33"/>
       <use xlink:href="#DejaVuSans-30" x="63.623047"/>
       <use xlink:href="#DejaVuSans-30" x="127.246094"/>
      </g>
     </g>
    </g>
    <g id="xtick_5">
     <g id="line2d_5">
      <g>
       <use xlink:href="#m75aa5ee092" x="334.076852" y="307.584" style="stroke: #000000; stroke-width: 0.8"/>
      </g>
     </g>
     <g id="text_5">
      <!-- 400 -->
      <g transform="translate(324.533102 322.182437) scale(0.1 -0.1)">
       <defs>
        <path id="DejaVuSans-34" d="M 2419 4116 
L 825 1625 
L 2419 1625 
L 2419 4116 
z
M 2253 4666 
L 3047 4666 
L 3047 1625 
L 3713 1625 
L 3713 1100 
L 3047 1100 
L 3047 0 
L 2419 0 
L 2419 1100 
L 313 1100 
L 313 1709 
L 2253 4666 
z
" transform="scale(0.015625)"/>
       </defs>
       <use xlink:href="#DejaVuSans-34"/>
       <use xlink:href="#DejaVuSans-30" x="63.623047"/>
       <use xlink:href="#DejaVuSans-30" x="127.246094"/>
      </g>
     </g>
    </g>
    <g id="xtick_6">
     <g id="line2d_6">
      <g>
       <use xlink:href="#m75aa5ee092" x="399.137883" y="307.584" style="stroke: #000000; stroke-width: 0.8"/>
      </g>
     </g>
     <g id="text_6">
      <!-- 500 -->
      <g transform="translate(389.594133 322.182437) scale(0.1 -0.1)">
       <defs>
        <path id="DejaVuSans-35" d="M 691 4666 
L 3169 4666 
L 3169 4134 
L 1269 4134 
L 1269 2991 
Q 1406 3038 1543 3061 
Q 1681 3084 1819 3084 
Q 2600 3084 3056 2656 
Q 3513 2228 3513 1497 
Q 3513 744 3044 326 
Q 2575 -91 1722 -91 
Q 1428 -91 1123 -41 
Q 819 9 494 109 
L 494 744 
Q 775 591 1075 516 
Q 1375 441 1709 441 
Q 2250 441 2565 725 
Q 2881 1009 2881 1497 
Q 2881 1984 2565 2268 
Q 2250 2553 1709 2553 
Q 1456 2553 1204 2497 
Q 953 2441 691 2322 
L 691 4666 
z
" transform="scale(0.015625)"/>
       </defs>
       <use xlink:href="#DejaVuSans-35"/>
       <use xlink:href="#DejaVuSans-30" x="63.623047"/>
       <use xlink:href="#DejaVuSans-30" x="127.246094"/>
      </g>
     </g>
    </g>
    <g id="text_7">
     <!-- epoch -->
     <g transform="translate(220.931875 335.860562) scale(0.1 -0.1)">
      <defs>
       <path id="DejaVuSans-65" d="M 3597 1894 
L 3597 1613 
L 953 1613 
Q 991 1019 1311 708 
Q 1631 397 2203 397 
Q 2534 397 2845 478 
Q 3156 559 3463 722 
L 3463 178 
Q 3153 47 2828 -22 
Q 2503 -91 2169 -91 
Q 1331 -91 842 396 
Q 353 884 353 1716 
Q 353 2575 817 3079 
Q 1281 3584 2069 3584 
Q 2775 3584 3186 3129 
Q 3597 2675 3597 1894 
z
M 3022 2063 
Q 3016 2534 2758 2815 
Q 2500 3097 2075 3097 
Q 1594 3097 1305 2825 
Q 1016 2553 972 2059 
L 3022 2063 
z
" transform="scale(0.015625)"/>
       <path id="DejaVuSans-70" d="M 1159 525 
L 1159 -1331 
L 581 -1331 
L 581 3500 
L 1159 3500 
L 1159 2969 
Q 1341 3281 1617 3432 
Q 1894 3584 2278 3584 
Q 2916 3584 3314 3078 
Q 3713 2572 3713 1747 
Q 3713 922 3314 415 
Q 2916 -91 2278 -91 
Q 1894 -91 1617 61 
Q 1341 213 1159 525 
z
M 3116 1747 
Q 3116 2381 2855 2742 
Q 2594 3103 2138 3103 
Q 1681 3103 1420 2742 
Q 1159 2381 1159 1747 
Q 1159 1113 1420 752 
Q 1681 391 2138 391 
Q 2594 391 2855 752 
Q 3116 1113 3116 1747 
z
" transform="scale(0.015625)"/>
       <path id="DejaVuSans-6f" d="M 1959 3097 
Q 1497 3097 1228 2736 
Q 959 2375 959 1747 
Q 959 1119 1226 758 
Q 1494 397 1959 397 
Q 2419 397 2687 759 
Q 2956 1122 2956 1747 
Q 2956 2369 2687 2733 
Q 2419 3097 1959 3097 
z
M 1959 3584 
Q 2709 3584 3137 3096 
Q 3566 2609 3566 1747 
Q 3566 888 3137 398 
Q 2709 -91 1959 -91 
Q 1206 -91 779 398 
Q 353 888 353 1747 
Q 353 2609 779 3096 
Q 1206 3584 1959 3584 
z
" transform="scale(0.015625)"/>
       <path id="DejaVuSans-63" d="M 3122 3366 
L 3122 2828 
Q 2878 2963 2633 3030 
Q 2388 3097 2138 3097 
Q 1578 3097 1268 2742 
Q 959 2388 959 1747 
Q 959 1106 1268 751 
Q 1578 397 2138 397 
Q 2388 397 2633 464 
Q 2878 531 3122 666 
L 3122 134 
Q 2881 22 2623 -34 
Q 2366 -91 2075 -91 
Q 1284 -91 818 406 
Q 353 903 353 1747 
Q 353 2603 823 3093 
Q 1294 3584 2113 3584 
Q 2378 3584 2631 3529 
Q 2884 3475 3122 3366 
z
" transform="scale(0.015625)"/>
       <path id="DejaVuSans-68" d="M 3513 2113 
L 3513 0 
L 2938 0 
L 2938 2094 
Q 2938 2591 2744 2837 
Q 2550 3084 2163 3084 
Q 1697 3084 1428 2787 
Q 1159 2491 1159 1978 
L 1159 0 
L 581 0 
L 581 4863 
L 1159 4863 
L 1159 2956 
Q 1366 3272 1645 3428 
Q 1925 3584 2291 3584 
Q 2894 3584 3203 3211 
Q 3513 2838 3513 2113 
z
" transform="scale(0.015625)"/>
      </defs>
      <use xlink:href="#DejaVuSans-65"/>
      <use xlink:href="#DejaVuSans-70" x="61.523438"/>
      <use xlink:href="#DejaVuSans-6f" x="125"/>
      <use xlink:href="#DejaVuSans-63" x="186.181641"/>
      <use xlink:href="#DejaVuSans-68" x="241.162109"/>
     </g>
    </g>
   </g>
   <g id="matplotlib.axis_2">
    <g id="ytick_1">
     <g id="line2d_7">
      <defs>
       <path id="m3d81477c0b" d="M 0 0 
L -3.5 0 
" style="stroke: #000000; stroke-width: 0.8"/>
      </defs>
      <g>
       <use xlink:href="#m3d81477c0b" x="57.6" y="270.948353" style="stroke: #000000; stroke-width: 0.8"/>
      </g>
     </g>
     <g id="text_8">
      <!-- $\mathdefault{10^{-3}}$ -->
      <g transform="translate(27.1 274.747572) scale(0.1 -0.1)">
       <defs>
        <path id="DejaVuSans-2212" d="M 678 2272 
L 4684 2272 
L 4684 1741 
L 678 1741 
L 678 2272 
z
" transform="scale(0.015625)"/>
       </defs>
       <use xlink:href="#DejaVuSans-31" transform="translate(0 0.765625)"/>
       <use xlink:href="#DejaVuSans-30" transform="translate(63.623047 0.765625)"/>
       <use xlink:href="#DejaVuSans-2212" transform="translate(128.203125 39.046875) scale(0.7)"/>
       <use xlink:href="#DejaVuSans-33" transform="translate(186.855469 39.046875) scale(0.7)"/>
      </g>
     </g>
    </g>
    <g id="ytick_2">
     <g id="line2d_8">
      <g>
       <use xlink:href="#m3d81477c0b" x="57.6" y="197.409873" style="stroke: #000000; stroke-width: 0.8"/>
      </g>
     </g>
     <g id="text_9">
      <!-- $\mathdefault{10^{-2}}$ -->
      <g transform="translate(27.1 201.209091) scale(0.1 -0.1)">
       <use xlink:href="#DejaVuSans-31" transform="translate(0 0.765625)"/>
       <use xlink:href="#DejaVuSans-30" transform="translate(63.623047 0.765625)"/>
       <use xlink:href="#DejaVuSans-2212" transform="translate(128.203125 39.046875) scale(0.7)"/>
       <use xlink:href="#DejaVuSans-32" transform="translate(186.855469 39.046875) scale(0.7)"/>
      </g>
     </g>
    </g>
    <g id="ytick_3">
     <g id="line2d_9">
      <g>
       <use xlink:href="#m3d81477c0b" x="57.6" y="123.871392" style="stroke: #000000; stroke-width: 0.8"/>
      </g>
     </g>
     <g id="text_10">
      <!-- $\mathdefault{10^{-1}}$ -->
      <g transform="translate(27.1 127.67061) scale(0.1 -0.1)">
       <use xlink:href="#DejaVuSans-31" transform="translate(0 0.684375)"/>
       <use xlink:href="#DejaVuSans-30" transform="translate(63.623047 0.684375)"/>
       <use xlink:href="#DejaVuSans-2212" transform="translate(128.203125 38.965625) scale(0.7)"/>
       <use xlink:href="#DejaVuSans-31" transform="translate(186.855469 38.965625) scale(0.7)"/>
      </g>
     </g>
    </g>
    <g id="ytick_4">
     <g id="line2d_10">
      <g>
       <use xlink:href="#m3d81477c0b" x="57.6" y="50.332911" style="stroke: #000000; stroke-width: 0.8"/>
      </g>
     </g>
     <g id="text_11">
      <!-- $\mathdefault{10^{0}}$ -->
      <g transform="translate(33 54.13213) scale(0.1 -0.1)">
       <use xlink:href="#DejaVuSans-31" transform="translate(0 0.765625)"/>
       <use xlink:href="#DejaVuSans-30" transform="translate(63.623047 0.765625)"/>
       <use xlink:href="#DejaVuSans-30" transform="translate(128.203125 39.046875) scale(0.7)"/>
      </g>
     </g>
    </g>
    <g id="ytick_5">
     <g id="line2d_11">
      <defs>
       <path id="m5e72dc1ce2" d="M 0 0 
L -2 0 
" style="stroke: #000000; stroke-width: 0.6"/>
      </defs>
      <g>
       <use xlink:href="#m5e72dc1ce2" x="57.6" y="300.212257" style="stroke: #000000; stroke-width: 0.6"/>
      </g>
     </g>
    </g>
    <g id="ytick_6">
     <g id="line2d_12">
      <g>
       <use xlink:href="#m5e72dc1ce2" x="57.6" y="293.085642" style="stroke: #000000; stroke-width: 0.6"/>
      </g>
     </g>
    </g>
    <g id="ytick_7">
     <g id="line2d_13">
      <g>
       <use xlink:href="#m5e72dc1ce2" x="57.6" y="287.262773" style="stroke: #000000; stroke-width: 0.6"/>
      </g>
     </g>
    </g>
    <g id="ytick_8">
     <g id="line2d_14">
      <g>
       <use xlink:href="#m5e72dc1ce2" x="57.6" y="282.339608" style="stroke: #000000; stroke-width: 0.6"/>
      </g>
     </g>
    </g>
    <g id="ytick_9">
     <g id="line2d_15">
      <g>
       <use xlink:href="#m5e72dc1ce2" x="57.6" y="278.074969" style="stroke: #000000; stroke-width: 0.6"/>
      </g>
     </g>
    </g>
    <g id="ytick_10">
     <g id="line2d_16">
      <g>
       <use xlink:href="#m5e72dc1ce2" x="57.6" y="274.31329" style="stroke: #000000; stroke-width: 0.6"/>
      </g>
     </g>
    </g>
    <g id="ytick_11">
     <g id="line2d_17">
      <g>
       <use xlink:href="#m5e72dc1ce2" x="57.6" y="248.811065" style="stroke: #000000; stroke-width: 0.6"/>
      </g>
     </g>
    </g>
    <g id="ytick_12">
     <g id="line2d_18">
      <g>
       <use xlink:href="#m5e72dc1ce2" x="57.6" y="235.861581" style="stroke: #000000; stroke-width: 0.6"/>
      </g>
     </g>
    </g>
    <g id="ytick_13">
     <g id="line2d_19">
      <g>
       <use xlink:href="#m5e72dc1ce2" x="57.6" y="226.673776" style="stroke: #000000; stroke-width: 0.6"/>
      </g>
     </g>
    </g>
    <g id="ytick_14">
     <g id="line2d_20">
      <g>
       <use xlink:href="#m5e72dc1ce2" x="57.6" y="219.547161" style="stroke: #000000; stroke-width: 0.6"/>
      </g>
     </g>
    </g>
    <g id="ytick_15">
     <g id="line2d_21">
      <g>
       <use xlink:href="#m5e72dc1ce2" x="57.6" y="213.724293" style="stroke: #000000; stroke-width: 0.6"/>
      </g>
     </g>
    </g>
    <g id="ytick_16">
     <g id="line2d_22">
      <g>
       <use xlink:href="#m5e72dc1ce2" x="57.6" y="208.801127" style="stroke: #000000; stroke-width: 0.6"/>
      </g>
     </g>
    </g>
    <g id="ytick_17">
     <g id="line2d_23">
      <g>
       <use xlink:href="#m5e72dc1ce2" x="57.6" y="204.536488" style="stroke: #000000; stroke-width: 0.6"/>
      </g>
     </g>
    </g>
    <g id="ytick_18">
     <g id="line2d_24">
      <g>
       <use xlink:href="#m5e72dc1ce2" x="57.6" y="200.774809" style="stroke: #000000; stroke-width: 0.6"/>
      </g>
     </g>
    </g>
    <g id="ytick_19">
     <g id="line2d_25">
      <g>
       <use xlink:href="#m5e72dc1ce2" x="57.6" y="175.272584" style="stroke: #000000; stroke-width: 0.6"/>
      </g>
     </g>
    </g>
    <g id="ytick_20">
     <g id="line2d_26">
      <g>
       <use xlink:href="#m5e72dc1ce2" x="57.6" y="162.3231" style="stroke: #000000; stroke-width: 0.6"/>
      </g>
     </g>
    </g>
    <g id="ytick_21">
     <g id="line2d_27">
      <g>
       <use xlink:href="#m5e72dc1ce2" x="57.6" y="153.135295" style="stroke: #000000; stroke-width: 0.6"/>
      </g>
     </g>
    </g>
    <g id="ytick_22">
     <g id="line2d_28">
      <g>
       <use xlink:href="#m5e72dc1ce2" x="57.6" y="146.00868" style="stroke: #000000; stroke-width: 0.6"/>
      </g>
     </g>
    </g>
    <g id="ytick_23">
     <g id="line2d_29">
      <g>
       <use xlink:href="#m5e72dc1ce2" x="57.6" y="140.185812" style="stroke: #000000; stroke-width: 0.6"/>
      </g>
     </g>
    </g>
    <g id="ytick_24">
     <g id="line2d_30">
      <g>
       <use xlink:href="#m5e72dc1ce2" x="57.6" y="135.262647" style="stroke: #000000; stroke-width: 0.6"/>
      </g>
     </g>
    </g>
    <g id="ytick_25">
     <g id="line2d_31">
      <g>
       <use xlink:href="#m5e72dc1ce2" x="57.6" y="130.998007" style="stroke: #000000; stroke-width: 0.6"/>
      </g>
     </g>
    </g>
    <g id="ytick_26">
     <g id="line2d_32">
      <g>
       <use xlink:href="#m5e72dc1ce2" x="57.6" y="127.236328" style="stroke: #000000; stroke-width: 0.6"/>
      </g>
     </g>
    </g>
    <g id="ytick_27">
     <g id="line2d_33">
      <g>
       <use xlink:href="#m5e72dc1ce2" x="57.6" y="101.734103" style="stroke: #000000; stroke-width: 0.6"/>
      </g>
     </g>
    </g>
    <g id="ytick_28">
     <g id="line2d_34">
      <g>
       <use xlink:href="#m5e72dc1ce2" x="57.6" y="88.784619" style="stroke: #000000; stroke-width: 0.6"/>
      </g>
     </g>
    </g>
    <g id="ytick_29">
     <g id="line2d_35">
      <g>
       <use xlink:href="#m5e72dc1ce2" x="57.6" y="79.596815" style="stroke: #000000; stroke-width: 0.6"/>
      </g>
     </g>
    </g>
    <g id="ytick_30">
     <g id="line2d_36">
      <g>
       <use xlink:href="#m5e72dc1ce2" x="57.6" y="72.470199" style="stroke: #000000; stroke-width: 0.6"/>
      </g>
     </g>
    </g>
    <g id="ytick_31">
     <g id="line2d_37">
      <g>
       <use xlink:href="#m5e72dc1ce2" x="57.6" y="66.647331" style="stroke: #000000; stroke-width: 0.6"/>
      </g>
     </g>
    </g>
    <g id="ytick_32">
     <g id="line2d_38">
      <g>
       <use xlink:href="#m5e72dc1ce2" x="57.6" y="61.724166" style="stroke: #000000; stroke-width: 0.6"/>
      </g>
     </g>
    </g>
    <g id="ytick_33">
     <g id="line2d_39">
      <g>
       <use xlink:href="#m5e72dc1ce2" x="57.6" y="57.459526" style="stroke: #000000; stroke-width: 0.6"/>
      </g>
     </g>
    </g>
    <g id="ytick_34">
     <g id="line2d_40">
      <g>
       <use xlink:href="#m5e72dc1ce2" x="57.6" y="53.697847" style="stroke: #000000; stroke-width: 0.6"/>
      </g>
     </g>
    </g>
    <g id="text_12">
     <!-- loss -->
     <g transform="translate(21.020313 184.185812) rotate(-90) scale(0.1 -0.1)">
      <defs>
       <path id="DejaVuSans-6c" d="M 603 4863 
L 1178 4863 
L 1178 0 
L 603 0 
L 603 4863 
z
" transform="scale(0.015625)"/>
       <path id="DejaVuSans-73" d="M 2834 3397 
L 2834 2853 
Q 2591 2978 2328 3040 
Q 2066 3103 1784 3103 
Q 1356 3103 1142 2972 
Q 928 2841 928 2578 
Q 928 2378 1081 2264 
Q 1234 2150 1697 2047 
L 1894 2003 
Q 2506 1872 2764 1633 
Q 3022 1394 3022 966 
Q 3022 478 2636 193 
Q 2250 -91 1575 -91 
Q 1294 -91 989 -36 
Q 684 19 347 128 
L 347 722 
Q 666 556 975 473 
Q 1284 391 1588 391 
Q 1994 391 2212 530 
Q 2431 669 2431 922 
Q 2431 1156 2273 1281 
Q 2116 1406 1581 1522 
L 1381 1569 
Q 847 1681 609 1914 
Q 372 2147 372 2553 
Q 372 3047 722 3315 
Q 1072 3584 1716 3584 
Q 2034 3584 2315 3537 
Q 2597 3491 2834 3397 
z
" transform="scale(0.015625)"/>
      </defs>
      <use xlink:href="#DejaVuSans-6c"/>
      <use xlink:href="#DejaVuSans-6f" x="27.783203"/>
      <use xlink:href="#DejaVuSans-73" x="88.964844"/>
      <use xlink:href="#DejaVuSans-73" x="141.064453"/>
     </g>
    </g>
   </g>
   <g id="line2d_41">
    <path d="M 73.832727 53.568 
L 74.483338 79.655122 
L 75.133948 83.29286 
L 75.784558 86.018575 
L 76.435169 88.107957 
L 77.085779 91.320885 
L 77.736389 93.931115 
L 78.386999 97.121085 
L 79.03761 100.909444 
L 79.68822 106.417856 
L 80.989441 122.985853 
L 81.640051 131.016263 
L 82.290661 142.027538 
L 82.941272 148.202641 
L 83.591882 150.733246 
L 84.242492 159.449169 
L 85.543713 167.180508 
L 86.194323 168.889404 
L 86.844934 175.909101 
L 87.495544 176.83971 
L 88.146154 180.891762 
L 88.796764 186.689115 
L 89.447375 185.887788 
L 90.097985 191.615347 
L 90.748595 191.968272 
L 91.399206 198.199772 
L 92.049816 202.354354 
L 93.351037 205.860344 
L 94.001647 209.576607 
L 94.652257 210.919459 
L 95.302868 216.626161 
L 96.604088 219.501555 
L 97.905309 225.017797 
L 98.555919 225.307841 
L 99.85714 229.868918 
L 100.50775 230.995864 
L 101.15836 232.63502 
L 101.808971 235.030574 
L 102.459581 235.247682 
L 103.110191 236.285435 
L 103.760802 238.773722 
L 104.411412 239.857657 
L 105.062022 242.062395 
L 105.712633 243.746767 
L 106.363243 244.865557 
L 107.013853 246.250528 
L 107.664463 246.722926 
L 108.315074 248.157182 
L 108.965684 248.856692 
L 110.266905 249.189176 
L 110.917515 250.541868 
L 111.568125 250.609305 
L 112.218736 251.645943 
L 113.519956 252.918519 
L 114.170567 252.785613 
L 114.821177 253.430717 
L 115.471787 254.506831 
L 116.773008 255.473952 
L 117.423618 255.76609 
L 119.375449 257.340608 
L 120.026059 258.030063 
L 121.32728 258.414894 
L 121.97789 259.058904 
L 122.628501 259.321579 
L 123.279111 259.36048 
L 123.929721 259.727274 
L 125.230942 260.837708 
L 125.881552 261.60452 
L 126.532163 261.371472 
L 127.182773 261.822727 
L 127.833383 263.011178 
L 129.134604 263.455213 
L 129.785214 264.016975 
L 131.086435 263.01917 
L 131.737045 263.333114 
L 132.387655 263.28715 
L 133.038266 264.055105 
L 133.688876 262.466818 
L 134.339486 263.389569 
L 134.990097 265.934008 
L 135.640707 266.388398 
L 136.291317 265.594329 
L 136.941927 266.634815 
L 137.592538 266.647325 
L 138.243148 267.165259 
L 138.893758 269.257 
L 139.544369 268.313887 
L 140.194979 267.831988 
L 142.14681 265.295528 
L 142.79742 269.808574 
L 143.448031 269.998852 
L 144.098641 269.070107 
L 144.749251 269.68624 
L 145.399862 272.907826 
L 146.050472 273.625242 
L 146.701082 273.332484 
L 147.351692 271.9607 
L 148.002303 273.192464 
L 148.652913 273.59174 
L 149.303523 270.905847 
L 149.954134 271.752053 
L 150.604744 271.564225 
L 151.255354 274.063441 
L 151.905965 274.860839 
L 152.556575 274.890178 
L 153.207185 276.484699 
L 153.857796 276.950031 
L 154.508406 277.171377 
L 155.159016 275.957376 
L 156.460237 271.319113 
L 157.110847 274.661706 
L 157.761457 276.23979 
L 158.412068 279.483466 
L 159.062678 278.609824 
L 159.713288 279.07692 
L 160.363899 278.522733 
L 161.014509 276.87541 
L 161.665119 276.304071 
L 162.31573 277.354797 
L 162.96634 279.022578 
L 163.61695 279.936428 
L 164.267561 277.46307 
L 164.918171 278.24065 
L 165.568781 280.234806 
L 166.219392 281.686139 
L 166.870002 279.732383 
L 167.520612 282.489049 
L 168.171222 282.732228 
L 168.821833 280.72511 
L 169.472443 282.501073 
L 170.123053 283.545127 
L 170.773664 280.974414 
L 171.424274 279.791331 
L 172.074884 280.29295 
L 172.725495 282.998922 
L 173.376105 282.420868 
L 174.026715 283.531957 
L 174.677326 283.669219 
L 175.327936 284.30104 
L 175.978546 279.946466 
L 176.629156 282.361401 
L 177.279767 283.13386 
L 177.930377 283.581133 
L 178.580987 281.317963 
L 179.231598 281.715419 
L 179.882208 283.211538 
L 180.532818 285.40979 
L 181.183429 281.487534 
L 181.834039 282.175555 
L 182.484649 284.743268 
L 183.13526 279.966559 
L 183.78587 283.234776 
L 184.43648 282.084059 
L 185.087091 282.915083 
L 185.737701 286.075912 
L 186.388311 283.314084 
L 187.038921 282.098495 
L 188.340142 284.183962 
L 188.990752 282.312333 
L 189.641363 282.212118 
L 190.291973 284.595376 
L 190.942583 280.269481 
L 191.593194 286.875601 
L 192.243804 285.43397 
L 192.894414 282.279062 
L 193.545025 285.118467 
L 194.195635 285.576781 
L 194.846245 282.642205 
L 195.496856 283.383636 
L 196.147466 283.88177 
L 196.798076 284.863362 
L 197.448686 284.149655 
L 198.099297 283.789358 
L 198.749907 284.325577 
L 199.400517 283.860233 
L 200.051128 286.304593 
L 200.701738 282.335045 
L 201.352348 284.407356 
L 202.002959 281.434825 
L 202.653569 283.13402 
L 203.304179 280.541932 
L 203.95479 281.794797 
L 204.6054 285.551341 
L 205.25601 282.238432 
L 205.906621 283.378114 
L 206.557231 284.8321 
L 207.207841 283.339301 
L 207.858451 283.029541 
L 208.509062 285.086426 
L 209.159672 284.569983 
L 209.810282 282.298018 
L 210.460893 282.534479 
L 211.111503 283.482221 
L 211.762113 284.669277 
L 212.412724 287.16061 
L 213.063334 285.835674 
L 214.364555 286.802111 
L 215.015165 286.999821 
L 215.665775 286.80346 
L 216.316385 285.30111 
L 216.966996 288.114372 
L 217.617606 286.950279 
L 218.268216 287.698682 
L 218.918827 287.038008 
L 220.220047 282.256727 
L 220.870658 285.134499 
L 221.521268 286.055599 
L 222.171878 287.560566 
L 222.822489 287.825062 
L 223.473099 286.755387 
L 224.123709 284.617996 
L 224.77432 286.529929 
L 225.42493 287.159135 
L 226.07554 288.368806 
L 226.72615 285.079381 
L 227.376761 285.589811 
L 228.027371 284.781831 
L 228.677981 283.480485 
L 229.328592 287.064425 
L 230.629812 285.456954 
L 231.280423 287.532947 
L 231.931033 285.793444 
L 232.581643 284.743572 
L 233.232254 287.394231 
L 233.882864 284.234706 
L 234.533474 285.870676 
L 235.184085 286.318765 
L 235.834695 285.395094 
L 236.485305 286.283956 
L 237.135915 285.449377 
L 237.786526 288.118835 
L 238.437136 287.014029 
L 239.087746 286.180574 
L 239.738357 288.089694 
L 240.388967 288.391317 
L 241.039577 287.77473 
L 241.690188 287.423169 
L 242.340798 285.258924 
L 242.991408 284.565348 
L 243.642019 285.006142 
L 244.292629 282.734348 
L 244.943239 285.814748 
L 245.59385 286.301798 
L 246.24446 286.451474 
L 246.89507 288.380772 
L 247.54568 287.52029 
L 248.196291 287.403875 
L 249.497511 289.319322 
L 250.148122 287.082209 
L 250.798732 286.712629 
L 251.449342 284.543252 
L 252.099953 285.598458 
L 252.750563 288.050212 
L 253.401173 286.595373 
L 254.051784 289.934859 
L 254.702394 289.463108 
L 255.353004 283.949865 
L 256.003615 287.154401 
L 256.654225 286.471864 
L 257.304835 286.513166 
L 257.955445 286.703636 
L 258.606056 287.865897 
L 259.256666 286.902138 
L 259.907276 286.657998 
L 260.557887 288.729555 
L 261.208497 288.392018 
L 261.859107 289.094908 
L 262.509718 286.254125 
L 263.160328 288.306122 
L 263.810938 287.387756 
L 264.461549 285.131474 
L 265.112159 287.471258 
L 266.413379 289.751792 
L 267.06399 289.060012 
L 267.7146 288.930158 
L 268.36521 290.494351 
L 269.015821 291.290217 
L 269.666431 290.312835 
L 270.317041 290.366094 
L 270.967652 288.005543 
L 271.618262 290.196586 
L 272.268872 288.561525 
L 272.919483 287.341892 
L 273.570093 286.457164 
L 274.220703 288.298911 
L 274.871314 286.58871 
L 275.521924 288.611285 
L 276.172534 289.094966 
L 276.823144 288.203723 
L 277.473755 291.401843 
L 278.124365 292.754237 
L 279.425586 290.205276 
L 280.076196 291.582567 
L 280.726806 289.604519 
L 281.377417 288.6839 
L 282.028027 290.256968 
L 282.678637 289.785428 
L 283.329248 285.883649 
L 283.979858 285.204941 
L 284.630468 289.047896 
L 285.281079 290.20766 
L 285.931689 289.134806 
L 286.582299 291.020712 
L 287.88352 290.663191 
L 288.53413 290.2314 
L 289.18474 291.338123 
L 289.835351 290.342602 
L 290.485961 290.075309 
L 291.136571 289.971353 
L 291.787182 287.417489 
L 292.437792 289.574343 
L 293.088402 289.387923 
L 293.739013 288.022716 
L 294.389623 290.333912 
L 295.040233 289.087373 
L 295.690844 288.90241 
L 296.341454 291.285488 
L 296.992064 290.850768 
L 297.642674 291.760169 
L 298.293285 290.952223 
L 298.943895 290.480836 
L 299.594505 290.310891 
L 300.245116 289.38175 
L 301.546336 286.278151 
L 302.196947 289.875773 
L 302.847557 290.677097 
L 303.498167 290.488846 
L 304.148778 288.971598 
L 304.799388 288.206012 
L 305.449998 289.823968 
L 306.100608 288.547098 
L 306.751219 293.386011 
L 308.052439 290.472928 
L 308.70305 290.695206 
L 309.35366 289.039299 
L 310.00427 292.397341 
L 310.654881 290.612598 
L 311.305491 289.768337 
L 311.956101 291.56697 
L 312.606712 291.08708 
L 313.257322 291.588515 
L 313.907932 289.29603 
L 314.558543 291.774501 
L 315.209153 288.74537 
L 316.510373 290.442 
L 317.160984 286.894375 
L 317.811594 289.888743 
L 318.462204 292.099353 
L 319.112815 289.032978 
L 319.763425 290.369498 
L 320.414035 290.129349 
L 321.064646 289.266372 
L 321.715256 291.833065 
L 322.365866 287.413436 
L 323.016477 290.86449 
L 323.667087 290.782555 
L 324.317697 293.094364 
L 324.968308 292.357046 
L 325.618918 286.442191 
L 326.269528 291.889541 
L 326.920138 290.96453 
L 327.570749 287.946155 
L 328.221359 286.258685 
L 328.871969 290.413933 
L 329.52258 293.428233 
L 330.17319 293.447485 
L 330.8238 292.467135 
L 331.474411 292.799696 
L 332.125021 288.700665 
L 332.775631 292.218757 
L 333.426242 289.659401 
L 334.076852 288.188587 
L 334.727462 292.132675 
L 335.378073 292.27312 
L 336.028683 292.688553 
L 336.679293 293.30748 
L 337.329903 293.645806 
L 337.980514 290.515215 
L 339.281734 291.985101 
L 339.932345 293.3004 
L 340.582955 290.758518 
L 341.233565 293.871149 
L 341.884176 290.48011 
L 342.534786 290.061358 
L 343.185396 287.294517 
L 343.836007 291.551582 
L 344.486617 293.620115 
L 345.137227 288.649568 
L 345.787837 294.555959 
L 346.438448 294.533023 
L 347.089058 293.463548 
L 347.739668 294.425164 
L 348.390279 289.918844 
L 349.040889 291.673013 
L 349.691499 294.881141 
L 350.34211 290.895972 
L 350.99272 289.726863 
L 351.64333 292.965118 
L 352.293941 293.353416 
L 352.944551 289.294001 
L 353.595161 290.98217 
L 354.245772 289.927355 
L 354.896382 293.458686 
L 355.546992 289.4009 
L 356.197602 292.852425 
L 356.848213 291.447849 
L 357.498823 291.163578 
L 358.149433 292.292365 
L 358.800044 291.107 
L 359.450654 294.780126 
L 360.101264 292.423508 
L 360.751875 291.689632 
L 362.053095 290.722758 
L 362.703706 288.690914 
L 363.354316 289.611434 
L 364.004926 292.365009 
L 364.655537 292.120419 
L 365.306147 292.058148 
L 365.956757 292.967009 
L 366.607367 291.66768 
L 367.257978 293.731413 
L 367.908588 292.757895 
L 368.559198 293.253684 
L 369.209809 291.957173 
L 369.860419 294.008218 
L 370.511029 293.502207 
L 371.16164 292.164758 
L 371.81225 293.556078 
L 372.46286 292.468869 
L 373.113471 295.199754 
L 373.764081 291.03668 
L 374.414691 291.596597 
L 375.065302 291.239509 
L 375.715912 292.976923 
L 376.366522 290.280792 
L 377.017132 291.534044 
L 377.667743 291.397882 
L 378.318353 292.56777 
L 378.968963 292.732716 
L 379.619574 293.926881 
L 380.270184 293.282508 
L 380.920794 293.026016 
L 381.571405 294.307926 
L 382.222015 293.649168 
L 382.872625 293.689188 
L 383.523236 294.189629 
L 384.173846 294.874661 
L 385.475066 289.924019 
L 386.125677 292.814039 
L 386.776287 292.179017 
L 387.426897 292.921641 
L 388.077508 293.954023 
L 388.728118 295.397126 
L 389.378728 294.011781 
L 390.029339 294.444437 
L 390.679949 293.677633 
L 391.330559 293.864927 
L 391.98117 293.136696 
L 392.63178 294.107425 
L 393.28239 289.574894 
L 393.933001 291.946976 
L 394.583611 293.438045 
L 395.234221 293.379326 
L 395.884831 295.488 
L 396.535442 294.339745 
L 397.186052 294.561571 
L 397.836662 293.376976 
L 398.487273 293.384025 
L 398.487273 293.384025 
" clip-path="url(#p969ec9b406)" style="fill: none; stroke: #ff0000; stroke-width: 1.5; stroke-linecap: square"/>
   </g>
   <g id="line2d_42">
    <path d="M 73.832727 80.705203 
L 74.483338 84.318158 
L 75.133948 84.070517 
L 75.784558 88.380846 
L 79.03761 105.68084 
L 80.33883 123.117547 
L 80.989441 134.567713 
L 82.290661 162.723875 
L 82.941272 174.108656 
L 83.591882 170.016925 
L 84.242492 178.967691 
L 84.893103 191.168849 
L 85.543713 196.164323 
L 86.194323 199.619857 
L 86.844934 187.594019 
L 87.495544 201.231792 
L 88.146154 172.150784 
L 88.796764 208.118792 
L 89.447375 193.998421 
L 90.097985 193.978649 
L 90.748595 194.250389 
L 91.399206 173.049421 
L 92.049816 159.946329 
L 92.700426 168.217783 
L 93.351037 185.131568 
L 94.001647 165.795729 
L 94.652257 174.089561 
L 95.302868 171.410863 
L 95.953478 172.141258 
L 96.604088 169.180563 
L 97.254698 183.114149 
L 97.905309 182.206625 
L 98.555919 179.004102 
L 99.206529 183.229406 
L 99.85714 179.541239 
L 100.50775 175.10253 
L 101.15836 180.260998 
L 102.459581 183.720576 
L 103.110191 196.665123 
L 103.760802 190.440985 
L 104.411412 197.714415 
L 105.062022 197.151119 
L 105.712633 205.685326 
L 106.363243 211.863804 
L 107.013853 210.410127 
L 107.664463 208.047657 
L 108.315074 211.383043 
L 108.965684 213.390946 
L 109.616294 217.055005 
L 110.266905 215.323543 
L 110.917515 216.607218 
L 111.568125 221.519864 
L 112.218736 218.592782 
L 112.869346 214.989331 
L 113.519956 215.787662 
L 114.170567 219.953248 
L 114.821177 222.390005 
L 115.471787 219.110182 
L 116.122398 221.676431 
L 116.773008 225.132601 
L 117.423618 218.950213 
L 118.074228 223.117403 
L 118.724839 219.367886 
L 119.375449 224.441737 
L 120.026059 220.379713 
L 120.67667 218.437775 
L 121.32728 230.723944 
L 121.97789 226.842601 
L 122.628501 230.88209 
L 123.279111 226.715142 
L 123.929721 224.544963 
L 124.580332 226.959396 
L 125.230942 230.037716 
L 125.881552 231.438274 
L 126.532163 233.395843 
L 127.182773 229.525962 
L 127.833383 232.997105 
L 128.483993 234.380401 
L 129.134604 233.260175 
L 129.785214 232.763079 
L 130.435824 229.550211 
L 131.086435 242.983153 
L 131.737045 234.441748 
L 132.387655 241.509993 
L 133.038266 244.318588 
L 133.688876 233.210685 
L 134.339486 234.309138 
L 134.990097 234.876425 
L 135.640707 232.78412 
L 136.291317 228.727155 
L 136.941927 228.090846 
L 137.592538 233.593568 
L 138.243148 231.191388 
L 138.893758 237.031766 
L 139.544369 240.161288 
L 140.194979 247.103803 
L 140.845589 234.714529 
L 141.4962 250.717301 
L 142.14681 251.166884 
L 142.79742 244.767239 
L 143.448031 242.539944 
L 144.098641 249.560409 
L 144.749251 248.617449 
L 145.399862 246.686485 
L 146.050472 249.938582 
L 146.701082 248.622045 
L 147.351692 246.933012 
L 148.002303 252.875615 
L 148.652913 250.179319 
L 149.303523 245.67959 
L 149.954134 242.18481 
L 150.604744 246.941178 
L 151.255354 245.838068 
L 151.905965 255.191393 
L 152.556575 256.193615 
L 153.207185 257.878179 
L 153.857796 246.58491 
L 155.159016 255.585508 
L 155.809627 243.297892 
L 156.460237 239.96516 
L 157.110847 252.670123 
L 157.761457 253.025545 
L 158.412068 255.61316 
L 159.062678 256.789678 
L 159.713288 254.488149 
L 160.363899 260.11868 
L 161.014509 253.523804 
L 161.665119 260.699974 
L 162.31573 254.564405 
L 162.96634 255.318278 
L 163.61695 254.261884 
L 164.267561 260.018596 
L 164.918171 257.391901 
L 165.568781 257.716709 
L 166.219392 255.719992 
L 167.520612 263.655521 
L 168.171222 250.293733 
L 168.821833 257.297706 
L 169.472443 262.54245 
L 170.123053 255.782462 
L 170.773664 256.483994 
L 171.424274 254.483668 
L 172.074884 253.080871 
L 172.725495 258.878576 
L 173.376105 255.610719 
L 174.026715 261.74578 
L 174.677326 253.422744 
L 175.327936 258.312184 
L 175.978546 254.82214 
L 176.629156 260.946435 
L 177.279767 261.711058 
L 177.930377 261.089251 
L 178.580987 256.778124 
L 179.231598 261.318433 
L 179.882208 257.271017 
L 180.532818 264.330694 
L 181.183429 256.216943 
L 181.834039 258.302359 
L 182.484649 257.277954 
L 183.13526 252.857867 
L 183.78587 263.321768 
L 184.43648 259.998308 
L 185.087091 258.949451 
L 185.737701 253.13177 
L 186.388311 257.487999 
L 187.038921 259.86601 
L 187.689532 260.670689 
L 188.340142 253.055981 
L 188.990752 250.668467 
L 189.641363 258.973875 
L 190.291973 260.977477 
L 190.942583 261.662436 
L 191.593194 257.64994 
L 192.243804 265.395567 
L 192.894414 255.80656 
L 193.545025 258.936704 
L 194.195635 254.185517 
L 194.846245 251.422194 
L 195.496856 260.167271 
L 196.147466 255.598289 
L 196.798076 258.956502 
L 197.448686 253.44544 
L 198.099297 251.289486 
L 198.749907 257.589233 
L 199.400517 256.159632 
L 200.051128 251.810606 
L 200.701738 255.960911 
L 201.352348 271.042377 
L 202.002959 259.341273 
L 202.653569 259.431551 
L 203.304179 272.009249 
L 203.95479 260.15861 
L 204.6054 252.86382 
L 205.25601 247.477263 
L 205.906621 247.172779 
L 206.557231 256.205274 
L 207.207841 260.025066 
L 207.858451 255.591313 
L 208.509062 246.933721 
L 209.159672 258.940327 
L 209.810282 253.211313 
L 210.460893 249.828237 
L 211.111503 245.604829 
L 211.762113 250.816933 
L 212.412724 250.050466 
L 213.063334 249.759989 
L 213.713944 257.840519 
L 214.364555 251.095652 
L 215.015165 256.546249 
L 215.665775 254.677306 
L 216.316385 250.064458 
L 216.966996 254.222162 
L 217.617606 253.263405 
L 218.268216 260.571065 
L 218.918827 257.894815 
L 219.569437 253.293167 
L 220.220047 259.162534 
L 220.870658 245.232746 
L 221.521268 252.578795 
L 222.171878 252.22651 
L 222.822489 249.93545 
L 223.473099 252.01311 
L 224.123709 249.967481 
L 224.77432 250.988714 
L 225.42493 247.859094 
L 226.07554 244.097005 
L 226.72615 249.609511 
L 227.376761 253.676534 
L 228.027371 247.221794 
L 228.677981 256.251598 
L 229.328592 248.418076 
L 229.979202 249.491326 
L 230.629812 245.256666 
L 231.280423 249.291587 
L 231.931033 260.606663 
L 232.581643 252.397625 
L 233.232254 250.2131 
L 233.882864 257.112283 
L 234.533474 262.051091 
L 235.184085 253.507882 
L 235.834695 246.931173 
L 236.485305 258.0999 
L 237.135915 248.491231 
L 237.786526 246.985848 
L 239.087746 259.497227 
L 239.738357 250.147504 
L 240.388967 258.401801 
L 241.039577 259.513333 
L 241.690188 255.004466 
L 242.340798 255.580321 
L 242.991408 241.944025 
L 243.642019 251.91341 
L 244.292629 258.830577 
L 244.943239 259.465859 
L 245.59385 252.60993 
L 246.24446 249.761408 
L 246.89507 251.946449 
L 247.54568 246.165175 
L 248.196291 251.450576 
L 248.846901 248.409714 
L 249.497511 251.583001 
L 250.148122 244.162717 
L 250.798732 248.742717 
L 251.449342 243.250852 
L 252.099953 243.538119 
L 252.750563 244.680696 
L 253.401173 247.90223 
L 254.051784 251.908812 
L 254.702394 251.062181 
L 255.353004 246.276358 
L 256.003615 255.647773 
L 256.654225 252.846647 
L 257.304835 253.065274 
L 257.955445 246.078016 
L 258.606056 253.747978 
L 259.256666 252.197712 
L 260.557887 246.86782 
L 261.208497 244.092 
L 261.859107 244.799924 
L 262.509718 239.951199 
L 263.160328 249.005073 
L 263.810938 230.372669 
L 264.461549 256.179896 
L 265.112159 251.476888 
L 265.762769 249.875727 
L 266.413379 245.470688 
L 267.06399 250.950291 
L 267.7146 251.218971 
L 268.36521 251.364033 
L 269.015821 250.34238 
L 269.666431 249.951821 
L 270.317041 250.011002 
L 270.967652 251.401533 
L 271.618262 250.239945 
L 272.268872 249.697502 
L 272.919483 256.573384 
L 273.570093 248.054654 
L 274.220703 249.995937 
L 274.871314 242.114413 
L 275.521924 243.560125 
L 276.172534 249.124987 
L 276.823144 250.938099 
L 277.473755 249.163487 
L 278.124365 256.676138 
L 278.774975 253.296082 
L 279.425586 254.282284 
L 280.076196 250.556263 
L 280.726806 247.721458 
L 281.377417 250.402156 
L 282.028027 248.235615 
L 282.678637 259.671293 
L 283.329248 247.59986 
L 283.979858 251.134621 
L 285.281079 240.807381 
L 285.931689 246.075838 
L 286.582299 247.010999 
L 287.232909 244.113211 
L 287.88352 255.60459 
L 289.18474 240.834375 
L 289.835351 249.188495 
L 290.485961 246.368379 
L 291.136571 256.227048 
L 291.787182 257.522588 
L 292.437792 249.410375 
L 293.088402 256.254319 
L 293.739013 245.118514 
L 294.389623 252.054797 
L 295.040233 250.744709 
L 295.690844 250.852842 
L 296.341454 247.039724 
L 296.992064 256.456034 
L 298.293285 247.686084 
L 298.943895 250.925113 
L 299.594505 249.551786 
L 300.245116 245.33176 
L 300.895726 233.162544 
L 301.546336 244.517343 
L 302.196947 241.282377 
L 303.498167 250.32231 
L 304.148778 245.134381 
L 304.799388 249.771946 
L 305.449998 249.731802 
L 306.100608 251.298101 
L 306.751219 257.23365 
L 307.401829 260.650028 
L 308.052439 253.728494 
L 308.70305 259.429594 
L 309.35366 251.161321 
L 310.00427 246.692011 
L 310.654881 248.073346 
L 311.305491 247.973679 
L 311.956101 245.912955 
L 312.606712 236.16595 
L 313.257322 253.246708 
L 313.907932 246.898534 
L 314.558543 250.636388 
L 315.209153 247.410177 
L 315.859763 247.123772 
L 316.510373 222.276553 
L 317.160984 246.353819 
L 317.811594 243.476723 
L 318.462204 235.489156 
L 319.112815 244.467824 
L 319.763425 247.983364 
L 320.414035 241.046295 
L 321.064646 252.664853 
L 321.715256 243.163196 
L 322.365866 246.538932 
L 323.016477 245.636197 
L 323.667087 249.667313 
L 324.317697 242.463376 
L 324.968308 250.262665 
L 325.618918 242.839882 
L 326.269528 240.989038 
L 326.920138 253.74524 
L 327.570749 262.936098 
L 328.221359 247.357237 
L 328.871969 246.233516 
L 329.52258 244.668527 
L 330.17319 256.711939 
L 330.8238 242.024513 
L 331.474411 260.113852 
L 332.125021 244.411378 
L 332.775631 245.654803 
L 333.426242 254.715302 
L 334.076852 253.179969 
L 334.727462 252.11278 
L 335.378073 248.90616 
L 336.028683 243.205908 
L 336.679293 243.770533 
L 337.329903 240.205173 
L 337.980514 250.888683 
L 338.631124 254.957588 
L 339.281734 244.45938 
L 339.932345 248.488115 
L 340.582955 247.287551 
L 341.233565 248.038875 
L 341.884176 258.74852 
L 342.534786 258.618495 
L 343.185396 239.064207 
L 343.836007 245.465969 
L 344.486617 247.514282 
L 345.137227 242.625618 
L 345.787837 249.851002 
L 346.438448 250.108484 
L 347.089058 246.842908 
L 347.739668 247.216016 
L 348.390279 241.187468 
L 349.040889 244.124307 
L 349.691499 253.794175 
L 350.34211 259.420603 
L 350.99272 249.366559 
L 351.64333 246.306245 
L 352.293941 240.677797 
L 353.595161 248.288582 
L 354.245772 248.020635 
L 354.896382 230.128521 
L 355.546992 241.42138 
L 356.197602 243.432204 
L 356.848213 244.667119 
L 357.498823 247.119257 
L 358.149433 244.585382 
L 358.800044 249.997902 
L 359.450654 240.149739 
L 360.101264 241.466616 
L 360.751875 249.818612 
L 361.402485 266.53891 
L 362.053095 249.385565 
L 362.703706 237.065878 
L 363.354316 250.476018 
L 364.004926 242.129312 
L 364.655537 249.449026 
L 365.306147 248.352932 
L 365.956757 241.003624 
L 366.607367 259.933419 
L 367.257978 250.996685 
L 367.908588 255.697026 
L 368.559198 247.770642 
L 369.209809 251.24161 
L 369.860419 249.386973 
L 370.511029 250.312023 
L 371.16164 249.789063 
L 371.81225 250.315228 
L 372.46286 242.760379 
L 373.113471 252.154375 
L 373.764081 241.741283 
L 374.414691 242.97787 
L 375.065302 252.93912 
L 375.715912 247.622013 
L 376.366522 240.229063 
L 377.017132 242.281916 
L 377.667743 247.029935 
L 378.318353 250.670078 
L 378.968963 243.928516 
L 379.619574 243.278436 
L 380.270184 247.413793 
L 380.920794 243.817117 
L 381.571405 251.848701 
L 382.222015 249.051476 
L 382.872625 245.320088 
L 383.523236 246.811272 
L 384.173846 246.395324 
L 384.824456 233.303576 
L 385.475066 244.717092 
L 386.125677 241.540725 
L 386.776287 240.98558 
L 387.426897 253.704478 
L 388.077508 244.524212 
L 388.728118 244.814622 
L 389.378728 248.182568 
L 390.029339 241.903066 
L 390.679949 249.025569 
L 391.330559 248.756375 
L 391.98117 244.085335 
L 392.63178 243.107682 
L 393.28239 240.9743 
L 393.933001 247.264582 
L 394.583611 238.010152 
L 395.234221 241.461045 
L 395.884831 244.22458 
L 396.535442 245.432507 
L 397.186052 233.353359 
L 397.836662 245.917307 
L 398.487273 236.80589 
L 398.487273 236.80589 
" clip-path="url(#p969ec9b406)" style="fill: none; stroke: #0000ff; stroke-width: 1.5; stroke-linecap: square"/>
   </g>
   <g id="patch_3">
    <path d="M 57.6 307.584 
L 57.6 41.472 
" style="fill: none; stroke: #000000; stroke-width: 0.8; stroke-linejoin: miter; stroke-linecap: square"/>
   </g>
   <g id="patch_4">
    <path d="M 414.72 307.584 
L 414.72 41.472 
" style="fill: none; stroke: #000000; stroke-width: 0.8; stroke-linejoin: miter; stroke-linecap: square"/>
   </g>
   <g id="patch_5">
    <path d="M 57.6 307.584 
L 414.72 307.584 
" style="fill: none; stroke: #000000; stroke-width: 0.8; stroke-linejoin: miter; stroke-linecap: square"/>
   </g>
   <g id="patch_6">
    <path d="M 57.6 41.472 
L 414.72 41.472 
" style="fill: none; stroke: #000000; stroke-width: 0.8; stroke-linejoin: miter; stroke-linecap: square"/>
   </g>
   <g id="legend_1">
    <g id="patch_7">
     <path d="M 328.129375 79.3845 
L 407.72 79.3845 
Q 409.72 79.3845 409.72 77.3845 
L 409.72 48.472 
Q 409.72 46.472 407.72 46.472 
L 328.129375 46.472 
Q 326.129375 46.472 326.129375 48.472 
L 326.129375 77.3845 
Q 326.129375 79.3845 328.129375 79.3845 
z
" style="fill: #ffffff; opacity: 0.8; stroke: #cccccc; stroke-linejoin: miter"/>
    </g>
    <g id="line2d_43">
     <path d="M 330.129375 54.570438 
L 340.129375 54.570438 
L 350.129375 54.570438 
" style="fill: none; stroke: #ff0000; stroke-width: 1.5; stroke-linecap: square"/>
    </g>
    <g id="text_13">
     <!-- train_loss -->
     <g transform="translate(358.129375 58.070438) scale(0.1 -0.1)">
      <defs>
       <path id="DejaVuSans-74" d="M 1172 4494 
L 1172 3500 
L 2356 3500 
L 2356 3053 
L 1172 3053 
L 1172 1153 
Q 1172 725 1289 603 
Q 1406 481 1766 481 
L 2356 481 
L 2356 0 
L 1766 0 
Q 1100 0 847 248 
Q 594 497 594 1153 
L 594 3053 
L 172 3053 
L 172 3500 
L 594 3500 
L 594 4494 
L 1172 4494 
z
" transform="scale(0.015625)"/>
       <path id="DejaVuSans-72" d="M 2631 2963 
Q 2534 3019 2420 3045 
Q 2306 3072 2169 3072 
Q 1681 3072 1420 2755 
Q 1159 2438 1159 1844 
L 1159 0 
L 581 0 
L 581 3500 
L 1159 3500 
L 1159 2956 
Q 1341 3275 1631 3429 
Q 1922 3584 2338 3584 
Q 2397 3584 2469 3576 
Q 2541 3569 2628 3553 
L 2631 2963 
z
" transform="scale(0.015625)"/>
       <path id="DejaVuSans-61" d="M 2194 1759 
Q 1497 1759 1228 1600 
Q 959 1441 959 1056 
Q 959 750 1161 570 
Q 1363 391 1709 391 
Q 2188 391 2477 730 
Q 2766 1069 2766 1631 
L 2766 1759 
L 2194 1759 
z
M 3341 1997 
L 3341 0 
L 2766 0 
L 2766 531 
Q 2569 213 2275 61 
Q 1981 -91 1556 -91 
Q 1019 -91 701 211 
Q 384 513 384 1019 
Q 384 1609 779 1909 
Q 1175 2209 1959 2209 
L 2766 2209 
L 2766 2266 
Q 2766 2663 2505 2880 
Q 2244 3097 1772 3097 
Q 1472 3097 1187 3025 
Q 903 2953 641 2809 
L 641 3341 
Q 956 3463 1253 3523 
Q 1550 3584 1831 3584 
Q 2591 3584 2966 3190 
Q 3341 2797 3341 1997 
z
" transform="scale(0.015625)"/>
       <path id="DejaVuSans-69" d="M 603 3500 
L 1178 3500 
L 1178 0 
L 603 0 
L 603 3500 
z
M 603 4863 
L 1178 4863 
L 1178 4134 
L 603 4134 
L 603 4863 
z
" transform="scale(0.015625)"/>
       <path id="DejaVuSans-6e" d="M 3513 2113 
L 3513 0 
L 2938 0 
L 2938 2094 
Q 2938 2591 2744 2837 
Q 2550 3084 2163 3084 
Q 1697 3084 1428 2787 
Q 1159 2491 1159 1978 
L 1159 0 
L 581 0 
L 581 3500 
L 1159 3500 
L 1159 2956 
Q 1366 3272 1645 3428 
Q 1925 3584 2291 3584 
Q 2894 3584 3203 3211 
Q 3513 2838 3513 2113 
z
" transform="scale(0.015625)"/>
       <path id="DejaVuSans-5f" d="M 3263 -1063 
L 3263 -1509 
L -63 -1509 
L -63 -1063 
L 3263 -1063 
z
" transform="scale(0.015625)"/>
      </defs>
      <use xlink:href="#DejaVuSans-74"/>
      <use xlink:href="#DejaVuSans-72" x="39.208984"/>
      <use xlink:href="#DejaVuSans-61" x="80.322266"/>
      <use xlink:href="#DejaVuSans-69" x="141.601562"/>
      <use xlink:href="#DejaVuSans-6e" x="169.384766"/>
      <use xlink:href="#DejaVuSans-5f" x="232.763672"/>
      <use xlink:href="#DejaVuSans-6c" x="282.763672"/>
      <use xlink:href="#DejaVuSans-6f" x="310.546875"/>
      <use xlink:href="#DejaVuSans-73" x="371.728516"/>
      <use xlink:href="#DejaVuSans-73" x="423.828125"/>
     </g>
    </g>
    <g id="line2d_44">
     <path d="M 330.129375 69.526688 
L 340.129375 69.526688 
L 350.129375 69.526688 
" style="fill: none; stroke: #0000ff; stroke-width: 1.5; stroke-linecap: square"/>
    </g>
    <g id="text_14">
     <!-- test_loss -->
     <g transform="translate(358.129375 73.026688) scale(0.1 -0.1)">
      <use xlink:href="#DejaVuSans-74"/>
      <use xlink:href="#DejaVuSans-65" x="39.208984"/>
      <use xlink:href="#DejaVuSans-73" x="100.732422"/>
      <use xlink:href="#DejaVuSans-74" x="152.832031"/>
      <use xlink:href="#DejaVuSans-5f" x="192.041016"/>
      <use xlink:href="#DejaVuSans-6c" x="242.041016"/>
      <use xlink:href="#DejaVuSans-6f" x="269.824219"/>
      <use xlink:href="#DejaVuSans-73" x="331.005859"/>
      <use xlink:href="#DejaVuSans-73" x="383.105469"/>
     </g>
    </g>
   </g>
  </g>
 </g>
 <defs>
  <clipPath id="p969ec9b406">
   <rect x="57.6" y="41.472" width="357.12" height="266.112"/>
  </clipPath>
 </defs>
</svg>
