<?xml version="1.0" encoding="utf-8" standalone="no"?>
<!DOCTYPE svg PUBLIC "-//W3C//DTD SVG 1.1//EN"
  "http://www.w3.org/Graphics/SVG/1.1/DTD/svg11.dtd">
<svg xmlns:xlink="http://www.w3.org/1999/xlink" width="460.8pt" height="345.6pt" viewBox="0 0 460.8 345.6" xmlns="http://www.w3.org/2000/svg" version="1.1">
 <metadata>
  <rdf:RDF xmlns:dc="http://purl.org/dc/elements/1.1/" xmlns:cc="http://creativecommons.org/ns#" xmlns:rdf="http://www.w3.org/1999/02/22-rdf-syntax-ns#">
   <cc:Work>
    <dc:type rdf:resource="http://purl.org/dc/dcmitype/StillImage"/>
    <dc:date>2024-01-31T16:26:59.691455</dc:date>
    <dc:format>image/svg+xml</dc:format>
    <dc:creator>
     <cc:Agent>
      <dc:title>Matplotlib v3.8.2, https://matplotlib.org/</dc:title>
     </cc:Agent>
    </dc:creator>
   </cc:Work>
  </rdf:RDF>
 </metadata>
 <defs>
  <style type="text/css">*{stroke-linejoin: round; stroke-linecap: butt}</style>
 </defs>
 <g id="figure_1">
  <g id="patch_1">
   <path d="M 0 345.6 
L 460.8 345.6 
L 460.8 0 
L 0 0 
L 0 345.6 
z
" style="fill: none"/>
  </g>
  <g id="axes_1">
   <g id="patch_2">
    <path d="M 57.6 307.584 
L 414.72 307.584 
L 414.72 41.472 
L 57.6 41.472 
L 57.6 307.584 
z
" style="fill: none"/>
   </g>
   <g id="matplotlib.axis_1">
    <g id="xtick_1">
     <g id="line2d_1">
      <defs>
       <path id="m6ceccbfc9a" d="M 0 0 
L 0 3.5 
" style="stroke: #000000; stroke-width: 0.8"/>
      </defs>
      <g>
       <use xlink:href="#m6ceccbfc9a" x="73.832727" y="307.584" style="stroke: #000000; stroke-width: 0.8"/>
      </g>
     </g>
     <g id="text_1">
      <!-- 0 -->
      <g transform="translate(70.651477 322.182437) scale(0.1 -0.1)">
       <defs>
        <path id="DejaVuSans-30" d="M 2034 4250 
Q 1547 4250 1301 3770 
Q 1056 3291 1056 2328 
Q 1056 1369 1301 889 
Q 1547 409 2034 409 
Q 2525 409 2770 889 
Q 3016 1369 3016 2328 
Q 3016 3291 2770 3770 
Q 2525 4250 2034 4250 
z
M 2034 4750 
Q 2819 4750 3233 4129 
Q 3647 3509 3647 2328 
Q 3647 1150 3233 529 
Q 2819 -91 2034 -91 
Q 1250 -91 836 529 
Q 422 1150 422 2328 
Q 422 3509 836 4129 
Q 1250 4750 2034 4750 
z
" transform="scale(0.015625)"/>
       </defs>
       <use xlink:href="#DejaVuSans-30"/>
      </g>
     </g>
    </g>
    <g id="xtick_2">
     <g id="line2d_2">
      <g>
       <use xlink:href="#m6ceccbfc9a" x="138.893758" y="307.584" style="stroke: #000000; stroke-width: 0.8"/>
      </g>
     </g>
     <g id="text_2">
      <!-- 100 -->
      <g transform="translate(129.350008 322.182437) scale(0.1 -0.1)">
       <defs>
        <path id="DejaVuSans-31" d="M 794 531 
L 1825 531 
L 1825 4091 
L 703 3866 
L 703 4441 
L 1819 4666 
L 2450 4666 
L 2450 531 
L 3481 531 
L 3481 0 
L 794 0 
L 794 531 
z
" transform="scale(0.015625)"/>
       </defs>
       <use xlink:href="#DejaVuSans-31"/>
       <use xlink:href="#DejaVuSans-30" x="63.623047"/>
       <use xlink:href="#DejaVuSans-30" x="127.246094"/>
      </g>
     </g>
    </g>
    <g id="xtick_3">
     <g id="line2d_3">
      <g>
       <use xlink:href="#m6ceccbfc9a" x="203.95479" y="307.584" style="stroke: #000000; stroke-width: 0.8"/>
      </g>
     </g>
     <g id="text_3">
      <!-- 200 -->
      <g transform="translate(194.41104 322.182437) scale(0.1 -0.1)">
       <defs>
        <path id="DejaVuSans-32" d="M 1228 531 
L 3431 531 
L 3431 0 
L 469 0 
L 469 531 
Q 828 903 1448 1529 
Q 2069 2156 2228 2338 
Q 2531 2678 2651 2914 
Q 2772 3150 2772 3378 
Q 2772 3750 2511 3984 
Q 2250 4219 1831 4219 
Q 1534 4219 1204 4116 
Q 875 4013 500 3803 
L 500 4441 
Q 881 4594 1212 4672 
Q 1544 4750 1819 4750 
Q 2544 4750 2975 4387 
Q 3406 4025 3406 3419 
Q 3406 3131 3298 2873 
Q 3191 2616 2906 2266 
Q 2828 2175 2409 1742 
Q 1991 1309 1228 531 
z
" transform="scale(0.015625)"/>
       </defs>
       <use xlink:href="#DejaVuSans-32"/>
       <use xlink:href="#DejaVuSans-30" x="63.623047"/>
       <use xlink:href="#DejaVuSans-30" x="127.246094"/>
      </g>
     </g>
    </g>
    <g id="xtick_4">
     <g id="line2d_4">
      <g>
       <use xlink:href="#m6ceccbfc9a" x="269.015821" y="307.584" style="stroke: #000000; stroke-width: 0.8"/>
      </g>
     </g>
     <g id="text_4">
      <!-- 300 -->
      <g transform="translate(259.472071 322.182437) scale(0.1 -0.1)">
       <defs>
        <path id="DejaVuSans-33" d="M 2597 2516 
Q 3050 2419 3304 2112 
Q 3559 1806 3559 1356 
Q 3559 666 3084 287 
Q 2609 -91 1734 -91 
Q 1441 -91 1130 -33 
Q 819 25 488 141 
L 488 750 
Q 750 597 1062 519 
Q 1375 441 1716 441 
Q 2309 441 2620 675 
Q 2931 909 2931 1356 
Q 2931 1769 2642 2001 
Q 2353 2234 1838 2234 
L 1294 2234 
L 1294 2753 
L 1863 2753 
Q 2328 2753 2575 2939 
Q 2822 3125 2822 3475 
Q 2822 3834 2567 4026 
Q 2313 4219 1838 4219 
Q 1578 4219 1281 4162 
Q 984 4106 628 3988 
L 628 4550 
Q 988 4650 1302 4700 
Q 1616 4750 1894 4750 
Q 2613 4750 3031 4423 
Q 3450 4097 3450 3541 
Q 3450 3153 3228 2886 
Q 3006 2619 2597 2516 
z
" transform="scale(0.015625)"/>
       </defs>
       <use xlink:href="#DejaVuSans-33"/>
       <use xlink:href="#DejaVuSans-30" x="63.623047"/>
       <use xlink:href="#DejaVuSans-30" x="127.246094"/>
      </g>
     </g>
    </g>
    <g id="xtick_5">
     <g id="line2d_5">
      <g>
       <use xlink:href="#m6ceccbfc9a" x="334.076852" y="307.584" style="stroke: #000000; stroke-width: 0.8"/>
      </g>
     </g>
     <g id="text_5">
      <!-- 400 -->
      <g transform="translate(324.533102 322.182437) scale(0.1 -0.1)">
       <defs>
        <path id="DejaVuSans-34" d="M 2419 4116 
L 825 1625 
L 2419 1625 
L 2419 4116 
z
M 2253 4666 
L 3047 4666 
L 3047 1625 
L 3713 1625 
L 3713 1100 
L 3047 1100 
L 3047 0 
L 2419 0 
L 2419 1100 
L 313 1100 
L 313 1709 
L 2253 4666 
z
" transform="scale(0.015625)"/>
       </defs>
       <use xlink:href="#DejaVuSans-34"/>
       <use xlink:href="#DejaVuSans-30" x="63.623047"/>
       <use xlink:href="#DejaVuSans-30" x="127.246094"/>
      </g>
     </g>
    </g>
    <g id="xtick_6">
     <g id="line2d_6">
      <g>
       <use xlink:href="#m6ceccbfc9a" x="399.137883" y="307.584" style="stroke: #000000; stroke-width: 0.8"/>
      </g>
     </g>
     <g id="text_6">
      <!-- 500 -->
      <g transform="translate(389.594133 322.182437) scale(0.1 -0.1)">
       <defs>
        <path id="DejaVuSans-35" d="M 691 4666 
L 3169 4666 
L 3169 4134 
L 1269 4134 
L 1269 2991 
Q 1406 3038 1543 3061 
Q 1681 3084 1819 3084 
Q 2600 3084 3056 2656 
Q 3513 2228 3513 1497 
Q 3513 744 3044 326 
Q 2575 -91 1722 -91 
Q 1428 -91 1123 -41 
Q 819 9 494 109 
L 494 744 
Q 775 591 1075 516 
Q 1375 441 1709 441 
Q 2250 441 2565 725 
Q 2881 1009 2881 1497 
Q 2881 1984 2565 2268 
Q 2250 2553 1709 2553 
Q 1456 2553 1204 2497 
Q 953 2441 691 2322 
L 691 4666 
z
" transform="scale(0.015625)"/>
       </defs>
       <use xlink:href="#DejaVuSans-35"/>
       <use xlink:href="#DejaVuSans-30" x="63.623047"/>
       <use xlink:href="#DejaVuSans-30" x="127.246094"/>
      </g>
     </g>
    </g>
    <g id="text_7">
     <!-- epoch -->
     <g transform="translate(220.931875 335.860562) scale(0.1 -0.1)">
      <defs>
       <path id="DejaVuSans-65" d="M 3597 1894 
L 3597 1613 
L 953 1613 
Q 991 1019 1311 708 
Q 1631 397 2203 397 
Q 2534 397 2845 478 
Q 3156 559 3463 722 
L 3463 178 
Q 3153 47 2828 -22 
Q 2503 -91 2169 -91 
Q 1331 -91 842 396 
Q 353 884 353 1716 
Q 353 2575 817 3079 
Q 1281 3584 2069 3584 
Q 2775 3584 3186 3129 
Q 3597 2675 3597 1894 
z
M 3022 2063 
Q 3016 2534 2758 2815 
Q 2500 3097 2075 3097 
Q 1594 3097 1305 2825 
Q 1016 2553 972 2059 
L 3022 2063 
z
" transform="scale(0.015625)"/>
       <path id="DejaVuSans-70" d="M 1159 525 
L 1159 -1331 
L 581 -1331 
L 581 3500 
L 1159 3500 
L 1159 2969 
Q 1341 3281 1617 3432 
Q 1894 3584 2278 3584 
Q 2916 3584 3314 3078 
Q 3713 2572 3713 1747 
Q 3713 922 3314 415 
Q 2916 -91 2278 -91 
Q 1894 -91 1617 61 
Q 1341 213 1159 525 
z
M 3116 1747 
Q 3116 2381 2855 2742 
Q 2594 3103 2138 3103 
Q 1681 3103 1420 2742 
Q 1159 2381 1159 1747 
Q 1159 1113 1420 752 
Q 1681 391 2138 391 
Q 2594 391 2855 752 
Q 3116 1113 3116 1747 
z
" transform="scale(0.015625)"/>
       <path id="DejaVuSans-6f" d="M 1959 3097 
Q 1497 3097 1228 2736 
Q 959 2375 959 1747 
Q 959 1119 1226 758 
Q 1494 397 1959 397 
Q 2419 397 2687 759 
Q 2956 1122 2956 1747 
Q 2956 2369 2687 2733 
Q 2419 3097 1959 3097 
z
M 1959 3584 
Q 2709 3584 3137 3096 
Q 3566 2609 3566 1747 
Q 3566 888 3137 398 
Q 2709 -91 1959 -91 
Q 1206 -91 779 398 
Q 353 888 353 1747 
Q 353 2609 779 3096 
Q 1206 3584 1959 3584 
z
" transform="scale(0.015625)"/>
       <path id="DejaVuSans-63" d="M 3122 3366 
L 3122 2828 
Q 2878 2963 2633 3030 
Q 2388 3097 2138 3097 
Q 1578 3097 1268 2742 
Q 959 2388 959 1747 
Q 959 1106 1268 751 
Q 1578 397 2138 397 
Q 2388 397 2633 464 
Q 2878 531 3122 666 
L 3122 134 
Q 2881 22 2623 -34 
Q 2366 -91 2075 -91 
Q 1284 -91 818 406 
Q 353 903 353 1747 
Q 353 2603 823 3093 
Q 1294 3584 2113 3584 
Q 2378 3584 2631 3529 
Q 2884 3475 3122 3366 
z
" transform="scale(0.015625)"/>
       <path id="DejaVuSans-68" d="M 3513 2113 
L 3513 0 
L 2938 0 
L 2938 2094 
Q 2938 2591 2744 2837 
Q 2550 3084 2163 3084 
Q 1697 3084 1428 2787 
Q 1159 2491 1159 1978 
L 1159 0 
L 581 0 
L 581 4863 
L 1159 4863 
L 1159 2956 
Q 1366 3272 1645 3428 
Q 1925 3584 2291 3584 
Q 2894 3584 3203 3211 
Q 3513 2838 3513 2113 
z
" transform="scale(0.015625)"/>
      </defs>
      <use xlink:href="#DejaVuSans-65"/>
      <use xlink:href="#DejaVuSans-70" x="61.523438"/>
      <use xlink:href="#DejaVuSans-6f" x="125"/>
      <use xlink:href="#DejaVuSans-63" x="186.181641"/>
      <use xlink:href="#DejaVuSans-68" x="241.162109"/>
     </g>
    </g>
   </g>
   <g id="matplotlib.axis_2">
    <g id="ytick_1">
     <g id="line2d_7">
      <defs>
       <path id="md6dbdcbb11" d="M 0 0 
L -3.5 0 
" style="stroke: #000000; stroke-width: 0.8"/>
      </defs>
      <g>
       <use xlink:href="#md6dbdcbb11" x="57.6" y="260.997824" style="stroke: #000000; stroke-width: 0.8"/>
      </g>
     </g>
     <g id="text_8">
      <!-- $\mathdefault{10^{-2}}$ -->
      <g transform="translate(27.1 264.797042) scale(0.1 -0.1)">
       <defs>
        <path id="DejaVuSans-2212" d="M 678 2272 
L 4684 2272 
L 4684 1741 
L 678 1741 
L 678 2272 
z
" transform="scale(0.015625)"/>
       </defs>
       <use xlink:href="#DejaVuSans-31" transform="translate(0 0.765625)"/>
       <use xlink:href="#DejaVuSans-30" transform="translate(63.623047 0.765625)"/>
       <use xlink:href="#DejaVuSans-2212" transform="translate(128.203125 39.046875) scale(0.7)"/>
       <use xlink:href="#DejaVuSans-32" transform="translate(186.855469 39.046875) scale(0.7)"/>
      </g>
     </g>
    </g>
    <g id="ytick_2">
     <g id="line2d_8">
      <g>
       <use xlink:href="#md6dbdcbb11" x="57.6" y="195.031193" style="stroke: #000000; stroke-width: 0.8"/>
      </g>
     </g>
     <g id="text_9">
      <!-- $\mathdefault{10^{-1}}$ -->
      <g transform="translate(27.1 198.830412) scale(0.1 -0.1)">
       <use xlink:href="#DejaVuSans-31" transform="translate(0 0.684375)"/>
       <use xlink:href="#DejaVuSans-30" transform="translate(63.623047 0.684375)"/>
       <use xlink:href="#DejaVuSans-2212" transform="translate(128.203125 38.965625) scale(0.7)"/>
       <use xlink:href="#DejaVuSans-31" transform="translate(186.855469 38.965625) scale(0.7)"/>
      </g>
     </g>
    </g>
    <g id="ytick_3">
     <g id="line2d_9">
      <g>
       <use xlink:href="#md6dbdcbb11" x="57.6" y="129.064563" style="stroke: #000000; stroke-width: 0.8"/>
      </g>
     </g>
     <g id="text_10">
      <!-- $\mathdefault{10^{0}}$ -->
      <g transform="translate(33 132.863781) scale(0.1 -0.1)">
       <use xlink:href="#DejaVuSans-31" transform="translate(0 0.765625)"/>
       <use xlink:href="#DejaVuSans-30" transform="translate(63.623047 0.765625)"/>
       <use xlink:href="#DejaVuSans-30" transform="translate(128.203125 39.046875) scale(0.7)"/>
      </g>
     </g>
    </g>
    <g id="ytick_4">
     <g id="line2d_10">
      <g>
       <use xlink:href="#md6dbdcbb11" x="57.6" y="63.097932" style="stroke: #000000; stroke-width: 0.8"/>
      </g>
     </g>
     <g id="text_11">
      <!-- $\mathdefault{10^{1}}$ -->
      <g transform="translate(33 66.897151) scale(0.1 -0.1)">
       <use xlink:href="#DejaVuSans-31" transform="translate(0 0.684375)"/>
       <use xlink:href="#DejaVuSans-30" transform="translate(63.623047 0.684375)"/>
       <use xlink:href="#DejaVuSans-31" transform="translate(128.203125 38.965625) scale(0.7)"/>
      </g>
     </g>
    </g>
    <g id="ytick_5">
     <g id="line2d_11">
      <defs>
       <path id="mde66241308" d="M 0 0 
L -2 0 
" style="stroke: #000000; stroke-width: 0.6"/>
      </defs>
      <g>
       <use xlink:href="#mde66241308" x="57.6" y="307.10652" style="stroke: #000000; stroke-width: 0.6"/>
      </g>
     </g>
    </g>
    <g id="ytick_6">
     <g id="line2d_12">
      <g>
       <use xlink:href="#mde66241308" x="57.6" y="295.490373" style="stroke: #000000; stroke-width: 0.6"/>
      </g>
     </g>
    </g>
    <g id="ytick_7">
     <g id="line2d_13">
      <g>
       <use xlink:href="#mde66241308" x="57.6" y="287.248585" style="stroke: #000000; stroke-width: 0.6"/>
      </g>
     </g>
    </g>
    <g id="ytick_8">
     <g id="line2d_14">
      <g>
       <use xlink:href="#mde66241308" x="57.6" y="280.855758" style="stroke: #000000; stroke-width: 0.6"/>
      </g>
     </g>
    </g>
    <g id="ytick_9">
     <g id="line2d_15">
      <g>
       <use xlink:href="#mde66241308" x="57.6" y="275.632438" style="stroke: #000000; stroke-width: 0.6"/>
      </g>
     </g>
    </g>
    <g id="ytick_10">
     <g id="line2d_16">
      <g>
       <use xlink:href="#mde66241308" x="57.6" y="271.216184" style="stroke: #000000; stroke-width: 0.6"/>
      </g>
     </g>
    </g>
    <g id="ytick_11">
     <g id="line2d_17">
      <g>
       <use xlink:href="#mde66241308" x="57.6" y="267.390651" style="stroke: #000000; stroke-width: 0.6"/>
      </g>
     </g>
    </g>
    <g id="ytick_12">
     <g id="line2d_18">
      <g>
       <use xlink:href="#mde66241308" x="57.6" y="264.016291" style="stroke: #000000; stroke-width: 0.6"/>
      </g>
     </g>
    </g>
    <g id="ytick_13">
     <g id="line2d_19">
      <g>
       <use xlink:href="#mde66241308" x="57.6" y="241.139889" style="stroke: #000000; stroke-width: 0.6"/>
      </g>
     </g>
    </g>
    <g id="ytick_14">
     <g id="line2d_20">
      <g>
       <use xlink:href="#mde66241308" x="57.6" y="229.523742" style="stroke: #000000; stroke-width: 0.6"/>
      </g>
     </g>
    </g>
    <g id="ytick_15">
     <g id="line2d_21">
      <g>
       <use xlink:href="#mde66241308" x="57.6" y="221.281955" style="stroke: #000000; stroke-width: 0.6"/>
      </g>
     </g>
    </g>
    <g id="ytick_16">
     <g id="line2d_22">
      <g>
       <use xlink:href="#mde66241308" x="57.6" y="214.889128" style="stroke: #000000; stroke-width: 0.6"/>
      </g>
     </g>
    </g>
    <g id="ytick_17">
     <g id="line2d_23">
      <g>
       <use xlink:href="#mde66241308" x="57.6" y="209.665808" style="stroke: #000000; stroke-width: 0.6"/>
      </g>
     </g>
    </g>
    <g id="ytick_18">
     <g id="line2d_24">
      <g>
       <use xlink:href="#mde66241308" x="57.6" y="205.249553" style="stroke: #000000; stroke-width: 0.6"/>
      </g>
     </g>
    </g>
    <g id="ytick_19">
     <g id="line2d_25">
      <g>
       <use xlink:href="#mde66241308" x="57.6" y="201.42402" style="stroke: #000000; stroke-width: 0.6"/>
      </g>
     </g>
    </g>
    <g id="ytick_20">
     <g id="line2d_26">
      <g>
       <use xlink:href="#mde66241308" x="57.6" y="198.049661" style="stroke: #000000; stroke-width: 0.6"/>
      </g>
     </g>
    </g>
    <g id="ytick_21">
     <g id="line2d_27">
      <g>
       <use xlink:href="#mde66241308" x="57.6" y="175.173259" style="stroke: #000000; stroke-width: 0.6"/>
      </g>
     </g>
    </g>
    <g id="ytick_22">
     <g id="line2d_28">
      <g>
       <use xlink:href="#mde66241308" x="57.6" y="163.557112" style="stroke: #000000; stroke-width: 0.6"/>
      </g>
     </g>
    </g>
    <g id="ytick_23">
     <g id="line2d_29">
      <g>
       <use xlink:href="#mde66241308" x="57.6" y="155.315324" style="stroke: #000000; stroke-width: 0.6"/>
      </g>
     </g>
    </g>
    <g id="ytick_24">
     <g id="line2d_30">
      <g>
       <use xlink:href="#mde66241308" x="57.6" y="148.922497" style="stroke: #000000; stroke-width: 0.6"/>
      </g>
     </g>
    </g>
    <g id="ytick_25">
     <g id="line2d_31">
      <g>
       <use xlink:href="#mde66241308" x="57.6" y="143.699177" style="stroke: #000000; stroke-width: 0.6"/>
      </g>
     </g>
    </g>
    <g id="ytick_26">
     <g id="line2d_32">
      <g>
       <use xlink:href="#mde66241308" x="57.6" y="139.282923" style="stroke: #000000; stroke-width: 0.6"/>
      </g>
     </g>
    </g>
    <g id="ytick_27">
     <g id="line2d_33">
      <g>
       <use xlink:href="#mde66241308" x="57.6" y="135.45739" style="stroke: #000000; stroke-width: 0.6"/>
      </g>
     </g>
    </g>
    <g id="ytick_28">
     <g id="line2d_34">
      <g>
       <use xlink:href="#mde66241308" x="57.6" y="132.08303" style="stroke: #000000; stroke-width: 0.6"/>
      </g>
     </g>
    </g>
    <g id="ytick_29">
     <g id="line2d_35">
      <g>
       <use xlink:href="#mde66241308" x="57.6" y="109.206628" style="stroke: #000000; stroke-width: 0.6"/>
      </g>
     </g>
    </g>
    <g id="ytick_30">
     <g id="line2d_36">
      <g>
       <use xlink:href="#mde66241308" x="57.6" y="97.590481" style="stroke: #000000; stroke-width: 0.6"/>
      </g>
     </g>
    </g>
    <g id="ytick_31">
     <g id="line2d_37">
      <g>
       <use xlink:href="#mde66241308" x="57.6" y="89.348694" style="stroke: #000000; stroke-width: 0.6"/>
      </g>
     </g>
    </g>
    <g id="ytick_32">
     <g id="line2d_38">
      <g>
       <use xlink:href="#mde66241308" x="57.6" y="82.955867" style="stroke: #000000; stroke-width: 0.6"/>
      </g>
     </g>
    </g>
    <g id="ytick_33">
     <g id="line2d_39">
      <g>
       <use xlink:href="#mde66241308" x="57.6" y="77.732547" style="stroke: #000000; stroke-width: 0.6"/>
      </g>
     </g>
    </g>
    <g id="ytick_34">
     <g id="line2d_40">
      <g>
       <use xlink:href="#mde66241308" x="57.6" y="73.316293" style="stroke: #000000; stroke-width: 0.6"/>
      </g>
     </g>
    </g>
    <g id="ytick_35">
     <g id="line2d_41">
      <g>
       <use xlink:href="#mde66241308" x="57.6" y="69.490759" style="stroke: #000000; stroke-width: 0.6"/>
      </g>
     </g>
    </g>
    <g id="ytick_36">
     <g id="line2d_42">
      <g>
       <use xlink:href="#mde66241308" x="57.6" y="66.1164" style="stroke: #000000; stroke-width: 0.6"/>
      </g>
     </g>
    </g>
    <g id="ytick_37">
     <g id="line2d_43">
      <g>
       <use xlink:href="#mde66241308" x="57.6" y="43.239998" style="stroke: #000000; stroke-width: 0.6"/>
      </g>
     </g>
    </g>
    <g id="text_12">
     <!-- loss -->
     <g transform="translate(21.020313 184.185812) rotate(-90) scale(0.1 -0.1)">
      <defs>
       <path id="DejaVuSans-6c" d="M 603 4863 
L 1178 4863 
L 1178 0 
L 603 0 
L 603 4863 
z
" transform="scale(0.015625)"/>
       <path id="DejaVuSans-73" d="M 2834 3397 
L 2834 2853 
Q 2591 2978 2328 3040 
Q 2066 3103 1784 3103 
Q 1356 3103 1142 2972 
Q 928 2841 928 2578 
Q 928 2378 1081 2264 
Q 1234 2150 1697 2047 
L 1894 2003 
Q 2506 1872 2764 1633 
Q 3022 1394 3022 966 
Q 3022 478 2636 193 
Q 2250 -91 1575 -91 
Q 1294 -91 989 -36 
Q 684 19 347 128 
L 347 722 
Q 666 556 975 473 
Q 1284 391 1588 391 
Q 1994 391 2212 530 
Q 2431 669 2431 922 
Q 2431 1156 2273 1281 
Q 2116 1406 1581 1522 
L 1381 1569 
Q 847 1681 609 1914 
Q 372 2147 372 2553 
Q 372 3047 722 3315 
Q 1072 3584 1716 3584 
Q 2034 3584 2315 3537 
Q 2597 3491 2834 3397 
z
" transform="scale(0.015625)"/>
      </defs>
      <use xlink:href="#DejaVuSans-6c"/>
      <use xlink:href="#DejaVuSans-6f" x="27.783203"/>
      <use xlink:href="#DejaVuSans-73" x="88.964844"/>
      <use xlink:href="#DejaVuSans-73" x="141.064453"/>
     </g>
    </g>
   </g>
   <g id="line2d_44">
    <path d="M 73.832727 53.568 
L 74.483338 104.665422 
L 75.133948 124.353662 
L 75.784558 137.544222 
L 76.435169 148.186443 
L 77.736389 163.507031 
L 79.03761 168.535505 
L 79.68822 170.208044 
L 80.33883 171.330482 
L 80.989441 169.443168 
L 81.640051 171.935882 
L 82.290661 169.644784 
L 82.941272 170.67063 
L 83.591882 176.183353 
L 84.242492 176.916251 
L 84.893103 176.368464 
L 85.543713 177.569652 
L 86.194323 177.956978 
L 86.844934 177.124212 
L 87.495544 177.530051 
L 88.146154 173.47023 
L 88.796764 173.44285 
L 89.447375 169.436854 
L 90.097985 174.781701 
L 90.748595 175.756673 
L 91.399206 176.138641 
L 92.049816 175.825019 
L 92.700426 173.605918 
L 93.351037 159.792548 
L 94.001647 162.131046 
L 94.652257 160.656131 
L 95.302868 158.36548 
L 95.953478 159.465652 
L 96.604088 154.073356 
L 97.254698 150.772408 
L 97.905309 146.451449 
L 98.555919 151.293829 
L 99.206529 153.345278 
L 99.85714 166.384059 
L 100.50775 174.991152 
L 101.15836 170.950274 
L 101.808971 171.757803 
L 102.459581 173.80478 
L 103.110191 174.411842 
L 103.760802 172.098082 
L 104.411412 166.783581 
L 105.062022 168.254499 
L 105.712633 175.013408 
L 106.363243 170.818633 
L 107.013853 165.73415 
L 107.664463 164.716741 
L 108.315074 168.455014 
L 108.965684 169.838042 
L 109.616294 176.420641 
L 110.266905 173.712262 
L 110.917515 173.704135 
L 111.568125 166.94333 
L 112.218736 172.741513 
L 112.869346 165.841091 
L 113.519956 155.994442 
L 114.170567 161.164742 
L 114.821177 164.185178 
L 115.471787 172.566858 
L 116.122398 176.852833 
L 116.773008 180.371372 
L 117.423618 181.878705 
L 118.074228 181.407001 
L 118.724839 184.180826 
L 119.375449 185.057141 
L 120.026059 181.316119 
L 120.67667 178.732529 
L 121.97789 166.161343 
L 122.628501 169.355803 
L 123.279111 167.825029 
L 124.580332 160.664903 
L 125.230942 166.618705 
L 125.881552 158.382733 
L 126.532163 165.277649 
L 127.182773 162.129726 
L 127.833383 161.890627 
L 128.483993 163.356673 
L 129.134604 163.183236 
L 129.785214 169.238215 
L 131.086435 173.17158 
L 131.737045 180.303953 
L 132.387655 181.921592 
L 133.038266 181.032504 
L 133.688876 180.617015 
L 134.339486 183.236802 
L 134.990097 181.300891 
L 135.640707 177.887854 
L 136.291317 181.040912 
L 136.941927 185.223319 
L 137.592538 183.057313 
L 138.243148 183.611298 
L 138.893758 183.807809 
L 139.544369 181.216202 
L 140.194979 180.957818 
L 140.845589 181.340059 
L 141.4962 176.923973 
L 142.14681 180.111356 
L 142.79742 179.351756 
L 143.448031 173.037821 
L 144.098641 168.625382 
L 144.749251 172.465921 
L 145.399862 170.545135 
L 146.050472 173.762966 
L 146.701082 172.482181 
L 147.351692 174.20519 
L 148.002303 173.095259 
L 148.652913 167.489035 
L 149.303523 172.007849 
L 149.954134 168.79542 
L 150.604744 177.276159 
L 151.255354 178.105016 
L 151.905965 180.140257 
L 152.556575 184.70265 
L 153.207185 183.161496 
L 153.857796 185.552122 
L 154.508406 185.762618 
L 155.159016 184.107896 
L 155.809627 185.964329 
L 156.460237 184.822642 
L 157.110847 187.379082 
L 157.761457 187.215379 
L 158.412068 185.98854 
L 159.062678 188.054337 
L 159.713288 189.480244 
L 160.363899 192.403512 
L 161.014509 187.120228 
L 161.665119 190.063442 
L 162.31573 187.533832 
L 162.96634 188.520378 
L 163.61695 185.245426 
L 164.267561 172.650415 
L 164.918171 171.336488 
L 165.568781 170.290766 
L 166.219392 164.712128 
L 166.870002 156.123936 
L 167.520612 159.630622 
L 168.171222 154.989202 
L 168.821833 157.479645 
L 169.472443 161.079486 
L 170.123053 171.158106 
L 170.773664 177.315721 
L 171.424274 182.393877 
L 172.074884 188.980199 
L 172.725495 188.485543 
L 173.376105 189.947489 
L 174.026715 189.230483 
L 174.677326 185.920878 
L 175.327936 185.850307 
L 175.978546 192.217293 
L 176.629156 193.101457 
L 177.279767 189.6842 
L 177.930377 183.651863 
L 178.580987 188.885369 
L 179.231598 188.228679 
L 179.882208 184.07033 
L 180.532818 180.8048 
L 181.183429 182.497393 
L 181.834039 179.418792 
L 182.484649 181.431275 
L 183.13526 175.342056 
L 183.78587 171.753127 
L 184.43648 174.902162 
L 185.087091 173.375473 
L 187.038921 191.243051 
L 187.689532 191.565118 
L 188.340142 187.664931 
L 188.990752 187.171392 
L 189.641363 184.934092 
L 190.291973 183.753232 
L 190.942583 194.285883 
L 191.593194 191.887469 
L 192.243804 193.643039 
L 192.894414 190.230189 
L 193.545025 188.260706 
L 194.195635 188.73181 
L 194.846245 188.730818 
L 195.496856 184.84526 
L 196.147466 186.276263 
L 197.448686 190.200466 
L 198.099297 191.076641 
L 198.749907 188.187689 
L 199.400517 190.103993 
L 200.051128 185.274239 
L 200.701738 188.10604 
L 201.352348 195.333757 
L 202.002959 193.518873 
L 202.653569 191.13086 
L 203.304179 198.41107 
L 203.95479 196.582394 
L 204.6054 195.88591 
L 205.25601 198.683305 
L 205.906621 205.59208 
L 206.557231 199.235324 
L 207.207841 195.301676 
L 207.858451 194.869996 
L 208.509062 196.406266 
L 209.159672 201.040528 
L 209.810282 197.330039 
L 210.460893 192.011332 
L 211.111503 194.613758 
L 211.762113 196.698172 
L 212.412724 195.944216 
L 213.063334 204.53447 
L 213.713944 208.183026 
L 214.364555 220.991906 
L 215.015165 220.322479 
L 215.665775 218.46413 
L 216.316385 220.949798 
L 216.966996 225.047362 
L 217.617606 225.001132 
L 218.918827 225.790209 
L 220.220047 232.19623 
L 220.870658 229.405341 
L 221.521268 229.655474 
L 222.171878 236.679154 
L 222.822489 229.205941 
L 223.473099 224.667442 
L 224.123709 221.391438 
L 224.77432 215.702526 
L 225.42493 207.867233 
L 226.72615 206.339047 
L 227.376761 199.267717 
L 228.027371 203.454456 
L 229.328592 218.553863 
L 229.979202 220.93507 
L 230.629812 228.343811 
L 231.280423 230.649174 
L 231.931033 236.880458 
L 232.581643 239.513527 
L 233.232254 237.663424 
L 233.882864 236.428128 
L 234.533474 238.578819 
L 235.184085 239.21787 
L 235.834695 230.318316 
L 236.485305 229.63261 
L 237.135915 239.360714 
L 237.786526 235.017892 
L 238.437136 234.908391 
L 239.087746 242.947761 
L 239.738357 244.53946 
L 240.388967 242.841332 
L 241.039577 242.598977 
L 241.690188 246.895125 
L 242.340798 240.591702 
L 242.991408 236.273631 
L 243.642019 246.574006 
L 244.292629 240.942256 
L 244.943239 246.084507 
L 245.59385 243.710672 
L 246.24446 242.494133 
L 246.89507 249.152145 
L 247.54568 249.104974 
L 248.846901 235.420231 
L 249.497511 233.599551 
L 250.148122 227.583986 
L 250.798732 227.112785 
L 251.449342 224.52943 
L 252.750563 231.041649 
L 253.401173 239.548616 
L 254.051784 243.00627 
L 254.702394 242.913035 
L 255.353004 245.815458 
L 256.003615 242.453613 
L 256.654225 241.784082 
L 257.304835 242.226426 
L 257.955445 242.183641 
L 258.606056 246.496867 
L 259.256666 241.720714 
L 259.907276 239.896084 
L 260.557887 241.206627 
L 261.208497 240.482523 
L 261.859107 245.147962 
L 262.509718 251.946604 
L 263.160328 247.513501 
L 263.810938 247.114705 
L 264.461549 241.420564 
L 265.112159 243.516678 
L 267.06399 236.415575 
L 267.7146 235.309999 
L 268.36521 236.197289 
L 269.015821 243.677062 
L 269.666431 244.439743 
L 270.317041 245.472853 
L 270.967652 250.137732 
L 271.618262 245.943263 
L 272.268872 251.343052 
L 272.919483 252.625438 
L 274.220703 246.538689 
L 274.871314 250.581686 
L 275.521924 249.777231 
L 276.172534 250.566305 
L 276.823144 250.92519 
L 278.124365 254.342049 
L 278.774975 250.546045 
L 279.425586 251.645378 
L 280.076196 255.843007 
L 280.726806 255.459065 
L 281.377417 249.611839 
L 282.028027 249.085795 
L 282.678637 248.049549 
L 283.329248 242.225727 
L 283.979858 238.938546 
L 284.630468 237.408885 
L 285.281079 233.681729 
L 285.931689 238.038557 
L 286.582299 245.574255 
L 287.232909 247.731945 
L 287.88352 250.782142 
L 288.53413 252.870736 
L 289.835351 250.165395 
L 290.485961 242.100827 
L 291.136571 242.577139 
L 291.787182 247.972347 
L 292.437792 247.627917 
L 293.088402 248.080535 
L 293.739013 251.511824 
L 294.389623 261.324256 
L 295.040233 264.37674 
L 295.690844 265.815839 
L 296.341454 261.24516 
L 296.992064 265.776793 
L 297.642674 262.971908 
L 298.293285 262.933489 
L 298.943895 259.280609 
L 299.594505 262.171791 
L 300.245116 264.112003 
L 300.895726 260.1395 
L 301.546336 264.662362 
L 302.847557 262.955207 
L 303.498167 265.877151 
L 304.148778 257.75598 
L 305.449998 264.838388 
L 306.100608 259.14607 
L 306.751219 255.075085 
L 307.401829 252.921162 
L 308.052439 249.246563 
L 308.70305 242.246345 
L 309.35366 238.977202 
L 310.00427 240.554377 
L 310.654881 241.166464 
L 311.305491 236.68985 
L 311.956101 240.696385 
L 312.606712 246.280929 
L 313.257322 254.985422 
L 313.907932 259.602082 
L 314.558543 265.266992 
L 315.859763 271.196341 
L 316.510373 271.874355 
L 317.160984 267.746492 
L 318.462204 264.494224 
L 319.112815 270.503285 
L 319.763425 268.597668 
L 321.064646 280.03552 
L 321.715256 271.368676 
L 322.365866 269.124418 
L 323.016477 274.246233 
L 323.667087 274.80436 
L 324.317697 270.779543 
L 324.968308 278.434663 
L 325.618918 274.050536 
L 326.920138 278.983066 
L 327.570749 276.678221 
L 328.221359 277.104493 
L 328.871969 281.395302 
L 329.52258 280.949805 
L 330.17319 278.378202 
L 330.8238 280.625378 
L 331.474411 281.850386 
L 332.125021 280.862355 
L 332.775631 280.860523 
L 334.076852 285.422543 
L 334.727462 283.070881 
L 335.378073 278.859838 
L 336.028683 281.01668 
L 336.679293 283.586749 
L 337.329903 288.396544 
L 338.631124 282.90332 
L 339.281734 284.729986 
L 339.932345 283.4006 
L 341.233565 285.599544 
L 342.534786 284.420036 
L 343.185396 290.305481 
L 343.836007 288.007705 
L 344.486617 282.667398 
L 345.137227 285.681069 
L 345.787837 278.951906 
L 346.438448 283.683538 
L 347.089058 285.364463 
L 347.739668 290.199566 
L 348.390279 288.297292 
L 349.040889 288.527496 
L 350.34211 292.384044 
L 350.99272 289.367194 
L 351.64333 287.281676 
L 352.293941 287.847358 
L 352.944551 287.731108 
L 353.595161 291.493239 
L 354.245772 289.557439 
L 354.896382 290.519876 
L 355.546992 295.091031 
L 356.197602 295.488 
L 357.498823 288.534017 
L 358.149433 290.38933 
L 358.800044 293.433539 
L 359.450654 291.969766 
L 360.101264 287.491595 
L 360.751875 287.61443 
L 361.402485 274.329376 
L 362.053095 274.78605 
L 362.703706 271.513 
L 363.354316 267.058205 
L 364.004926 267.317075 
L 364.655537 268.031622 
L 365.306147 265.106224 
L 365.956757 271.345781 
L 367.257978 275.548561 
L 367.908588 283.985663 
L 368.559198 281.11851 
L 369.209809 285.019909 
L 369.860419 287.147497 
L 370.511029 290.283318 
L 371.16164 287.682644 
L 371.81225 291.537352 
L 372.46286 291.325337 
L 373.113471 289.739243 
L 373.764081 286.064832 
L 374.414691 283.362014 
L 375.065302 277.680821 
L 375.715912 277.840063 
L 376.366522 280.648024 
L 377.017132 277.027202 
L 377.667743 277.329164 
L 378.318353 273.221946 
L 378.968963 275.74099 
L 379.619574 277.595233 
L 380.270184 268.926643 
L 380.920794 274.575268 
L 381.571405 272.301667 
L 382.222015 274.669383 
L 382.872625 274.677605 
L 383.523236 274.377387 
L 384.173846 275.360264 
L 384.824456 272.351515 
L 385.475066 264.209261 
L 386.125677 267.350699 
L 386.776287 266.88238 
L 388.077508 261.418672 
L 388.728118 261.079895 
L 389.378728 269.915576 
L 390.029339 273.947974 
L 390.679949 277.16098 
L 391.98117 278.673163 
L 392.63178 268.684219 
L 393.933001 271.879682 
L 394.583611 268.485385 
L 395.234221 262.388431 
L 395.884831 260.008308 
L 396.535442 259.590764 
L 397.186052 260.746759 
L 397.836662 246.340824 
L 398.487273 253.766103 
L 398.487273 253.766103 
" clip-path="url(#pe21ac7d279)" style="fill: none; stroke: #ff0000; stroke-width: 1.5; stroke-linecap: square"/>
   </g>
   <g id="line2d_45">
    <path d="M 73.832727 111.680236 
L 74.483338 122.672807 
L 75.133948 148.931791 
L 75.784558 154.445616 
L 76.435169 169.576719 
L 77.085779 176.221294 
L 77.736389 189.578758 
L 78.386999 189.903656 
L 79.03761 197.375597 
L 79.68822 203.173842 
L 80.33883 201.242446 
L 80.989441 195.320628 
L 81.640051 214.385452 
L 82.290661 197.981895 
L 82.941272 203.326381 
L 83.591882 210.094358 
L 84.242492 210.088039 
L 84.893103 213.918979 
L 85.543713 218.5977 
L 86.194323 210.995023 
L 86.844934 215.903403 
L 87.495544 207.661104 
L 88.146154 192.69363 
L 88.796764 198.168632 
L 89.447375 228.024971 
L 90.097985 210.035986 
L 90.748595 216.191395 
L 91.399206 224.903991 
L 92.049816 209.296841 
L 92.700426 222.997414 
L 93.351037 219.305085 
L 94.001647 201.222576 
L 94.652257 161.952644 
L 95.302868 156.93981 
L 95.953478 192.04005 
L 96.604088 204.74698 
L 97.254698 167.071704 
L 97.905309 140.518058 
L 98.555919 161.698874 
L 99.206529 207.15367 
L 99.85714 212.338857 
L 100.50775 192.930732 
L 101.15836 207.862848 
L 101.808971 202.570522 
L 102.459581 202.927971 
L 103.110191 218.757872 
L 103.760802 171.595471 
L 104.411412 169.382665 
L 105.062022 214.95501 
L 105.712633 214.396507 
L 106.363243 181.721242 
L 107.013853 180.221483 
L 108.315074 232.48116 
L 108.965684 201.204579 
L 109.616294 189.598327 
L 110.266905 197.434258 
L 110.917515 196.57072 
L 111.568125 189.557818 
L 112.218736 171.163391 
L 112.869346 188.423408 
L 113.519956 189.122953 
L 114.170567 170.749425 
L 114.821177 176.554272 
L 115.471787 225.01737 
L 116.122398 222.033582 
L 116.773008 217.740561 
L 117.423618 229.604561 
L 118.074228 233.175579 
L 118.724839 229.794922 
L 119.375449 235.442734 
L 120.026059 232.502617 
L 120.67667 220.922031 
L 121.32728 212.734654 
L 121.97789 220.902284 
L 122.628501 182.117509 
L 123.279111 162.974663 
L 123.929721 159.65762 
L 124.580332 184.93334 
L 125.230942 199.486072 
L 125.881552 210.466002 
L 126.532163 175.389584 
L 127.182773 164.726113 
L 128.483993 194.371815 
L 129.134604 187.123943 
L 129.785214 173.685615 
L 130.435824 182.652485 
L 131.086435 204.979497 
L 131.737045 210.971428 
L 132.387655 223.135237 
L 133.038266 221.660109 
L 133.688876 235.011147 
L 134.339486 237.354343 
L 134.990097 233.946634 
L 135.640707 213.624977 
L 136.291317 222.435381 
L 136.941927 226.686666 
L 137.592538 216.711225 
L 138.243148 235.456001 
L 138.893758 223.735934 
L 139.544369 227.437276 
L 140.194979 199.678893 
L 140.845589 181.03446 
L 141.4962 184.118795 
L 142.79742 196.084018 
L 143.448031 205.811449 
L 144.098641 198.106016 
L 144.749251 215.117484 
L 145.399862 202.859851 
L 146.050472 186.393109 
L 146.701082 191.02348 
L 147.351692 219.631308 
L 148.652913 191.870983 
L 149.303523 175.541401 
L 149.954134 179.395677 
L 150.604744 197.720671 
L 151.255354 193.161224 
L 151.905965 233.030148 
L 152.556575 231.094201 
L 153.207185 219.415193 
L 153.857796 239.758093 
L 154.508406 226.697836 
L 155.159016 219.750464 
L 155.809627 222.859665 
L 156.460237 210.688942 
L 157.110847 208.485074 
L 157.761457 201.751643 
L 158.412068 211.893099 
L 159.062678 200.263081 
L 159.713288 230.774718 
L 160.363899 212.624199 
L 161.014509 206.765783 
L 162.31573 182.837523 
L 162.96634 199.859529 
L 163.61695 188.986446 
L 164.267561 197.921829 
L 164.918171 225.625229 
L 165.568781 195.101915 
L 166.219392 157.131276 
L 166.870002 148.181059 
L 167.520612 200.529479 
L 168.171222 190.179399 
L 168.821833 159.455423 
L 169.472443 175.032067 
L 170.773664 216.710361 
L 171.424274 238.993669 
L 172.725495 220.960027 
L 173.376105 220.304981 
L 174.026715 190.608858 
L 175.327936 216.708423 
L 175.978546 212.847773 
L 176.629156 213.085954 
L 177.279767 214.758796 
L 177.930377 237.542823 
L 178.580987 216.989014 
L 179.231598 212.414427 
L 179.882208 204.208376 
L 180.532818 224.957929 
L 181.183429 204.532832 
L 181.834039 204.537448 
L 182.484649 170.622167 
L 183.13526 169.57745 
L 184.43648 222.572678 
L 185.087091 201.39091 
L 185.737701 218.732946 
L 186.388311 229.830366 
L 187.038921 220.265379 
L 187.689532 224.038663 
L 188.340142 190.153253 
L 188.990752 185.261126 
L 189.641363 200.141174 
L 190.291973 224.813925 
L 190.942583 234.892103 
L 191.593194 241.766262 
L 192.243804 228.390478 
L 192.894414 233.632295 
L 193.545025 192.761784 
L 194.195635 176.05944 
L 194.846245 190.123254 
L 196.147466 238.937781 
L 196.798076 219.844527 
L 197.448686 232.285815 
L 198.099297 232.056693 
L 199.400517 181.29923 
L 200.051128 171.579188 
L 200.701738 195.202059 
L 201.352348 203.146565 
L 202.002959 243.601605 
L 202.653569 245.141259 
L 203.95479 213.182019 
L 204.6054 181.148904 
L 205.25601 174.898595 
L 205.906621 188.41503 
L 206.557231 189.558629 
L 207.207841 205.596865 
L 207.858451 212.307051 
L 208.509062 224.788345 
L 209.159672 232.188544 
L 209.810282 225.063353 
L 210.460893 189.206418 
L 211.111503 166.709165 
L 211.762113 154.730925 
L 212.412724 168.391084 
L 213.063334 170.332574 
L 213.713944 183.897407 
L 214.364555 167.055013 
L 215.015165 161.56767 
L 215.665775 179.813059 
L 216.316385 171.498108 
L 216.966996 160.368284 
L 217.617606 164.362829 
L 218.268216 155.396929 
L 218.918827 150.131932 
L 219.569437 151.958764 
L 220.220047 152.265595 
L 220.870658 152.765971 
L 221.521268 151.167182 
L 222.171878 146.688408 
L 222.822489 147.907901 
L 223.473099 150.266709 
L 224.123709 154.047599 
L 224.77432 164.429931 
L 225.42493 176.902874 
L 226.07554 174.334167 
L 226.72615 147.517827 
L 227.376761 134.583373 
L 228.027371 142.355953 
L 228.677981 161.611185 
L 229.328592 163.366714 
L 229.979202 144.5674 
L 230.629812 143.647618 
L 231.280423 152.391186 
L 231.931033 151.310976 
L 232.581643 145.966348 
L 233.232254 145.31144 
L 233.882864 147.167915 
L 234.533474 151.080875 
L 235.184085 149.474273 
L 235.834695 144.898483 
L 236.485305 153.628899 
L 237.135915 153.422101 
L 237.786526 146.552941 
L 238.437136 145.205473 
L 239.087746 147.323722 
L 239.738357 145.605145 
L 240.388967 146.215843 
L 241.039577 148.418069 
L 241.690188 145.820527 
L 242.340798 149.41814 
L 242.991408 150.224153 
L 243.642019 153.784781 
L 244.292629 148.469412 
L 244.943239 146.048536 
L 245.59385 144.948259 
L 246.24446 145.603609 
L 246.89507 144.993071 
L 247.54568 143.342 
L 248.196291 140.521868 
L 249.497511 154.978659 
L 250.148122 158.822218 
L 251.449342 141.294233 
L 252.099953 138.260569 
L 252.750563 145.449273 
L 253.401173 149.972296 
L 254.051784 152.408632 
L 254.702394 150.893893 
L 255.353004 148.326276 
L 256.003615 153.648135 
L 257.304835 141.989922 
L 257.955445 145.663089 
L 258.606056 144.817583 
L 259.256666 148.729346 
L 259.907276 154.775459 
L 260.557887 153.118463 
L 261.208497 147.055221 
L 261.859107 145.840225 
L 262.509718 147.537569 
L 263.160328 149.585249 
L 263.810938 147.155496 
L 264.461549 145.62139 
L 265.112159 147.718721 
L 265.762769 155.451045 
L 266.413379 158.412717 
L 267.06399 149.254774 
L 267.7146 137.834913 
L 268.36521 141.213272 
L 269.015821 150.9594 
L 269.666431 154.106168 
L 270.317041 151.536168 
L 270.967652 147.740489 
L 271.618262 146.840256 
L 272.268872 148.545853 
L 272.919483 153.523913 
L 273.570093 151.492191 
L 274.220703 147.047939 
L 274.871314 147.122616 
L 275.521924 151.702811 
L 276.172534 151.838799 
L 276.823144 148.173039 
L 277.473755 147.616634 
L 278.124365 145.195651 
L 278.774975 145.952428 
L 279.425586 147.549068 
L 280.076196 150.447863 
L 280.726806 151.425487 
L 281.377417 156.65046 
L 282.028027 154.181758 
L 283.329248 144.0643 
L 283.979858 141.158028 
L 284.630468 145.94061 
L 285.281079 154.900689 
L 285.931689 158.685342 
L 286.582299 157.073229 
L 287.232909 153.668584 
L 287.88352 154.415921 
L 288.53413 154.002021 
L 289.18474 150.812347 
L 289.835351 143.701271 
L 290.485961 144.781283 
L 291.787182 159.768265 
L 292.437792 159.90592 
L 293.088402 150.741163 
L 293.739013 151.139294 
L 294.389623 152.906705 
L 295.040233 153.645911 
L 295.690844 153.948681 
L 296.341454 154.721814 
L 296.992064 152.321041 
L 297.642674 154.800862 
L 298.293285 155.958085 
L 298.943895 153.937669 
L 299.594505 148.12242 
L 300.245116 148.759462 
L 300.895726 150.031474 
L 301.546336 155.583761 
L 302.196947 155.748043 
L 302.847557 153.123283 
L 303.498167 153.098246 
L 304.148778 154.169731 
L 304.799388 151.359515 
L 305.449998 149.090803 
L 306.100608 150.736398 
L 306.751219 151.583626 
L 307.401829 156.139386 
L 308.052439 163.320575 
L 308.70305 167.266488 
L 309.35366 157.108843 
L 310.00427 152.513811 
L 310.654881 146.566993 
L 311.305491 154.405129 
L 311.956101 168.600615 
L 312.606712 165.005169 
L 313.257322 158.540204 
L 313.907932 162.23554 
L 314.558543 162.376886 
L 315.209153 160.676412 
L 315.859763 160.87236 
L 316.510373 162.526948 
L 317.160984 163.488936 
L 317.811594 155.586189 
L 318.462204 157.247536 
L 319.112815 164.854808 
L 319.763425 163.802693 
L 320.414035 159.066783 
L 321.064646 162.073158 
L 321.715256 166.379323 
L 322.365866 160.445649 
L 323.016477 159.393374 
L 323.667087 162.082778 
L 324.317697 165.477106 
L 324.968308 163.210707 
L 325.618918 158.917309 
L 326.269528 160.312499 
L 326.920138 165.419463 
L 327.570749 165.061653 
L 328.221359 159.381219 
L 328.871969 159.741961 
L 329.52258 164.734667 
L 330.17319 164.988209 
L 330.8238 162.591479 
L 331.474411 160.661552 
L 332.125021 165.167667 
L 332.775631 166.67216 
L 333.426242 166.654616 
L 334.076852 162.070299 
L 334.727462 160.387593 
L 335.378073 166.129431 
L 336.028683 169.318151 
L 336.679293 166.636925 
L 337.329903 162.993083 
L 337.980514 163.689148 
L 338.631124 162.48775 
L 339.281734 165.240961 
L 339.932345 169.931323 
L 340.582955 165.941499 
L 341.233565 164.333464 
L 341.884176 163.781525 
L 342.534786 166.828963 
L 343.185396 165.805165 
L 343.836007 167.463013 
L 344.486617 167.659425 
L 345.137227 165.719233 
L 345.787837 166.773234 
L 346.438448 165.497555 
L 347.089058 169.474511 
L 347.739668 170.566316 
L 348.390279 170.271415 
L 349.040889 167.51967 
L 349.691499 167.506836 
L 350.34211 170.462374 
L 350.99272 172.619118 
L 352.293941 165.492975 
L 352.944551 169.574753 
L 353.595161 171.298911 
L 354.245772 171.220279 
L 354.896382 169.392659 
L 355.546992 169.186694 
L 356.197602 170.577722 
L 356.848213 171.095073 
L 357.498823 169.730867 
L 358.149433 168.834275 
L 358.800044 174.686204 
L 359.450654 176.182344 
L 360.101264 173.495985 
L 360.751875 168.820158 
L 361.402485 178.525433 
L 362.053095 175.054482 
L 362.703706 167.141225 
L 363.354316 164.865355 
L 364.655537 185.345888 
L 365.306147 181.543368 
L 365.956757 171.737299 
L 366.607367 169.744966 
L 367.257978 179.832363 
L 367.908588 183.697761 
L 369.209809 176.745166 
L 369.860419 178.972556 
L 370.511029 180.068074 
L 371.16164 178.218191 
L 371.81225 178.511479 
L 372.46286 179.3292 
L 373.113471 178.746589 
L 373.764081 175.617507 
L 374.414691 171.120691 
L 375.715912 185.054609 
L 376.366522 182.008121 
L 377.667743 177.515971 
L 378.318353 175.721519 
L 378.968963 179.746945 
L 379.619574 187.901118 
L 381.571405 178.141037 
L 382.222015 176.063939 
L 382.872625 183.850396 
L 383.523236 189.377279 
L 384.173846 185.828461 
L 385.475066 177.959624 
L 386.125677 184.037633 
L 386.776287 187.771025 
L 387.426897 193.38971 
L 388.077508 185.122723 
L 388.728118 183.475895 
L 389.378728 192.332236 
L 390.029339 190.676024 
L 390.679949 183.195592 
L 391.98117 191.42125 
L 392.63178 186.357993 
L 393.28239 190.296163 
L 394.583611 204.074416 
L 395.234221 187.489651 
L 395.884831 185.85269 
L 397.186052 207.400892 
L 397.836662 186.406223 
L 398.487273 194.712329 
L 398.487273 194.712329 
" clip-path="url(#pe21ac7d279)" style="fill: none; stroke: #0000ff; stroke-width: 1.5; stroke-linecap: square"/>
   </g>
   <g id="patch_3">
    <path d="M 57.6 307.584 
L 57.6 41.472 
" style="fill: none; stroke: #000000; stroke-width: 0.8; stroke-linejoin: miter; stroke-linecap: square"/>
   </g>
   <g id="patch_4">
    <path d="M 414.72 307.584 
L 414.72 41.472 
" style="fill: none; stroke: #000000; stroke-width: 0.8; stroke-linejoin: miter; stroke-linecap: square"/>
   </g>
   <g id="patch_5">
    <path d="M 57.6 307.584 
L 414.72 307.584 
" style="fill: none; stroke: #000000; stroke-width: 0.8; stroke-linejoin: miter; stroke-linecap: square"/>
   </g>
   <g id="patch_6">
    <path d="M 57.6 41.472 
L 414.72 41.472 
" style="fill: none; stroke: #000000; stroke-width: 0.8; stroke-linejoin: miter; stroke-linecap: square"/>
   </g>
   <g id="legend_1">
    <g id="patch_7">
     <path d="M 328.129375 79.3845 
L 407.72 79.3845 
Q 409.72 79.3845 409.72 77.3845 
L 409.72 48.472 
Q 409.72 46.472 407.72 46.472 
L 328.129375 46.472 
Q 326.129375 46.472 326.129375 48.472 
L 326.129375 77.3845 
Q 326.129375 79.3845 328.129375 79.3845 
z
" style="fill: #ffffff; opacity: 0.8; stroke: #cccccc; stroke-linejoin: miter"/>
    </g>
    <g id="line2d_46">
     <path d="M 330.129375 54.570438 
L 340.129375 54.570438 
L 350.129375 54.570438 
" style="fill: none; stroke: #ff0000; stroke-width: 1.5; stroke-linecap: square"/>
    </g>
    <g id="text_13">
     <!-- train_loss -->
     <g transform="translate(358.129375 58.070438) scale(0.1 -0.1)">
      <defs>
       <path id="DejaVuSans-74" d="M 1172 4494 
L 1172 3500 
L 2356 3500 
L 2356 3053 
L 1172 3053 
L 1172 1153 
Q 1172 725 1289 603 
Q 1406 481 1766 481 
L 2356 481 
L 2356 0 
L 1766 0 
Q 1100 0 847 248 
Q 594 497 594 1153 
L 594 3053 
L 172 3053 
L 172 3500 
L 594 3500 
L 594 4494 
L 1172 4494 
z
" transform="scale(0.015625)"/>
       <path id="DejaVuSans-72" d="M 2631 2963 
Q 2534 3019 2420 3045 
Q 2306 3072 2169 3072 
Q 1681 3072 1420 2755 
Q 1159 2438 1159 1844 
L 1159 0 
L 581 0 
L 581 3500 
L 1159 3500 
L 1159 2956 
Q 1341 3275 1631 3429 
Q 1922 3584 2338 3584 
Q 2397 3584 2469 3576 
Q 2541 3569 2628 3553 
L 2631 2963 
z
" transform="scale(0.015625)"/>
       <path id="DejaVuSans-61" d="M 2194 1759 
Q 1497 1759 1228 1600 
Q 959 1441 959 1056 
Q 959 750 1161 570 
Q 1363 391 1709 391 
Q 2188 391 2477 730 
Q 2766 1069 2766 1631 
L 2766 1759 
L 2194 1759 
z
M 3341 1997 
L 3341 0 
L 2766 0 
L 2766 531 
Q 2569 213 2275 61 
Q 1981 -91 1556 -91 
Q 1019 -91 701 211 
Q 384 513 384 1019 
Q 384 1609 779 1909 
Q 1175 2209 1959 2209 
L 2766 2209 
L 2766 2266 
Q 2766 2663 2505 2880 
Q 2244 3097 1772 3097 
Q 1472 3097 1187 3025 
Q 903 2953 641 2809 
L 641 3341 
Q 956 3463 1253 3523 
Q 1550 3584 1831 3584 
Q 2591 3584 2966 3190 
Q 3341 2797 3341 1997 
z
" transform="scale(0.015625)"/>
       <path id="DejaVuSans-69" d="M 603 3500 
L 1178 3500 
L 1178 0 
L 603 0 
L 603 3500 
z
M 603 4863 
L 1178 4863 
L 1178 4134 
L 603 4134 
L 603 4863 
z
" transform="scale(0.015625)"/>
       <path id="DejaVuSans-6e" d="M 3513 2113 
L 3513 0 
L 2938 0 
L 2938 2094 
Q 2938 2591 2744 2837 
Q 2550 3084 2163 3084 
Q 1697 3084 1428 2787 
Q 1159 2491 1159 1978 
L 1159 0 
L 581 0 
L 581 3500 
L 1159 3500 
L 1159 2956 
Q 1366 3272 1645 3428 
Q 1925 3584 2291 3584 
Q 2894 3584 3203 3211 
Q 3513 2838 3513 2113 
z
" transform="scale(0.015625)"/>
       <path id="DejaVuSans-5f" d="M 3263 -1063 
L 3263 -1509 
L -63 -1509 
L -63 -1063 
L 3263 -1063 
z
" transform="scale(0.015625)"/>
      </defs>
      <use xlink:href="#DejaVuSans-74"/>
      <use xlink:href="#DejaVuSans-72" x="39.208984"/>
      <use xlink:href="#DejaVuSans-61" x="80.322266"/>
      <use xlink:href="#DejaVuSans-69" x="141.601562"/>
      <use xlink:href="#DejaVuSans-6e" x="169.384766"/>
      <use xlink:href="#DejaVuSans-5f" x="232.763672"/>
      <use xlink:href="#DejaVuSans-6c" x="282.763672"/>
      <use xlink:href="#DejaVuSans-6f" x="310.546875"/>
      <use xlink:href="#DejaVuSans-73" x="371.728516"/>
      <use xlink:href="#DejaVuSans-73" x="423.828125"/>
     </g>
    </g>
    <g id="line2d_47">
     <path d="M 330.129375 69.526688 
L 340.129375 69.526688 
L 350.129375 69.526688 
" style="fill: none; stroke: #0000ff; stroke-width: 1.5; stroke-linecap: square"/>
    </g>
    <g id="text_14">
     <!-- test_loss -->
     <g transform="translate(358.129375 73.026688) scale(0.1 -0.1)">
      <use xlink:href="#DejaVuSans-74"/>
      <use xlink:href="#DejaVuSans-65" x="39.208984"/>
      <use xlink:href="#DejaVuSans-73" x="100.732422"/>
      <use xlink:href="#DejaVuSans-74" x="152.832031"/>
      <use xlink:href="#DejaVuSans-5f" x="192.041016"/>
      <use xlink:href="#DejaVuSans-6c" x="242.041016"/>
      <use xlink:href="#DejaVuSans-6f" x="269.824219"/>
      <use xlink:href="#DejaVuSans-73" x="331.005859"/>
      <use xlink:href="#DejaVuSans-73" x="383.105469"/>
     </g>
    </g>
   </g>
  </g>
 </g>
 <defs>
  <clipPath id="pe21ac7d279">
   <rect x="57.6" y="41.472" width="357.12" height="266.112"/>
  </clipPath>
 </defs>
</svg>
