<?xml version="1.0" encoding="utf-8" standalone="no"?>
<!DOCTYPE svg PUBLIC "-//W3C//DTD SVG 1.1//EN"
  "http://www.w3.org/Graphics/SVG/1.1/DTD/svg11.dtd">
<svg xmlns:xlink="http://www.w3.org/1999/xlink" width="360pt" height="288pt" viewBox="0 0 360 288" xmlns="http://www.w3.org/2000/svg" version="1.1">
 <metadata>
  <rdf:RDF xmlns:dc="http://purl.org/dc/elements/1.1/" xmlns:cc="http://creativecommons.org/ns#" xmlns:rdf="http://www.w3.org/1999/02/22-rdf-syntax-ns#">
   <cc:Work>
    <dc:type rdf:resource="http://purl.org/dc/dcmitype/StillImage"/>
    <dc:date>2024-07-01T18:07:15.008585</dc:date>
    <dc:format>image/svg+xml</dc:format>
    <dc:creator>
     <cc:Agent>
      <dc:title>Matplotlib v3.8.2, https://matplotlib.org/</dc:title>
     </cc:Agent>
    </dc:creator>
   </cc:Work>
  </rdf:RDF>
 </metadata>
 <defs>
  <style type="text/css">*{stroke-linejoin: round; stroke-linecap: butt}</style>
 </defs>
 <g id="figure_1">
  <g id="patch_1">
   <path d="M 0 288 
L 360 288 
L 360 0 
L 0 0 
L 0 288 
z
" style="fill: none"/>
  </g>
  <g id="axes_1">
   <g id="patch_2">
    <path d="M 114.169208 227.94 
L 332.962928 227.94 
L 332.962928 19.44 
L 114.169208 19.44 
L 114.169208 227.94 
z
" style="fill: none"/>
   </g>
   <g id="matplotlib.axis_1">
    <g id="xtick_1">
     <g id="line2d_1">
      <defs>
       <path id="mafdfc1c95f" d="M 0 0 
L 0 -3.5 
" style="stroke: #000000; stroke-width: 0.8"/>
      </defs>
      <g>
       <use xlink:href="#mafdfc1c95f" x="124.114377" y="227.94" style="stroke: #000000; stroke-width: 0.8"/>
      </g>
     </g>
     <g id="text_1">
      <!-- 0 -->
      <g transform="translate(119.109533 244.324062) scale(0.18 -0.18)">
       <defs>
        <path id="ArialMT-30" d="M 266 2259 
Q 266 3072 433 3567 
Q 600 4063 929 4331 
Q 1259 4600 1759 4600 
Q 2128 4600 2406 4451 
Q 2684 4303 2865 4023 
Q 3047 3744 3150 3342 
Q 3253 2941 3253 2259 
Q 3253 1453 3087 958 
Q 2922 463 2592 192 
Q 2263 -78 1759 -78 
Q 1097 -78 719 397 
Q 266 969 266 2259 
z
M 844 2259 
Q 844 1131 1108 757 
Q 1372 384 1759 384 
Q 2147 384 2411 759 
Q 2675 1134 2675 2259 
Q 2675 3391 2411 3762 
Q 2147 4134 1753 4134 
Q 1366 4134 1134 3806 
Q 844 3388 844 2259 
z
" transform="scale(0.015625)"/>
       </defs>
       <use xlink:href="#ArialMT-30"/>
      </g>
     </g>
    </g>
    <g id="xtick_2">
     <g id="line2d_2">
      <g>
       <use xlink:href="#mafdfc1c95f" x="223.665619" y="227.94" style="stroke: #000000; stroke-width: 0.8"/>
      </g>
     </g>
     <g id="text_2">
      <!-- 500 -->
      <g transform="translate(208.651088 244.324062) scale(0.18 -0.18)">
       <defs>
        <path id="ArialMT-35" d="M 266 1200 
L 856 1250 
Q 922 819 1161 601 
Q 1400 384 1738 384 
Q 2144 384 2425 690 
Q 2706 997 2706 1503 
Q 2706 1984 2436 2262 
Q 2166 2541 1728 2541 
Q 1456 2541 1237 2417 
Q 1019 2294 894 2097 
L 366 2166 
L 809 4519 
L 3088 4519 
L 3088 3981 
L 1259 3981 
L 1013 2750 
Q 1425 3038 1878 3038 
Q 2478 3038 2890 2622 
Q 3303 2206 3303 1553 
Q 3303 931 2941 478 
Q 2500 -78 1738 -78 
Q 1113 -78 717 272 
Q 322 622 266 1200 
z
" transform="scale(0.015625)"/>
       </defs>
       <use xlink:href="#ArialMT-35"/>
       <use xlink:href="#ArialMT-30" x="55.615234"/>
       <use xlink:href="#ArialMT-30" x="111.230469"/>
      </g>
     </g>
    </g>
    <g id="xtick_3">
     <g id="line2d_3">
      <g>
       <use xlink:href="#mafdfc1c95f" x="323.216861" y="227.94" style="stroke: #000000; stroke-width: 0.8"/>
      </g>
     </g>
     <g id="text_3">
      <!-- 1000 -->
      <g transform="translate(303.197486 244.324062) scale(0.18 -0.18)">
       <defs>
        <path id="ArialMT-31" d="M 2384 0 
L 1822 0 
L 1822 3584 
Q 1619 3391 1289 3197 
Q 959 3003 697 2906 
L 697 3450 
Q 1169 3672 1522 3987 
Q 1875 4303 2022 4600 
L 2384 4600 
L 2384 0 
z
" transform="scale(0.015625)"/>
       </defs>
       <use xlink:href="#ArialMT-31"/>
       <use xlink:href="#ArialMT-30" x="55.615234"/>
       <use xlink:href="#ArialMT-30" x="111.230469"/>
       <use xlink:href="#ArialMT-30" x="166.845703"/>
      </g>
     </g>
    </g>
    <g id="text_4">
     <!-- iteration -->
     <g transform="translate(191.549974 264.785625) scale(0.18 -0.18)">
      <defs>
       <path id="ArialMT-69" d="M 425 3934 
L 425 4581 
L 988 4581 
L 988 3934 
L 425 3934 
z
M 425 0 
L 425 3319 
L 988 3319 
L 988 0 
L 425 0 
z
" transform="scale(0.015625)"/>
       <path id="ArialMT-74" d="M 1650 503 
L 1731 6 
Q 1494 -44 1306 -44 
Q 1000 -44 831 53 
Q 663 150 594 308 
Q 525 466 525 972 
L 525 2881 
L 113 2881 
L 113 3319 
L 525 3319 
L 525 4141 
L 1084 4478 
L 1084 3319 
L 1650 3319 
L 1650 2881 
L 1084 2881 
L 1084 941 
Q 1084 700 1114 631 
Q 1144 563 1211 522 
Q 1278 481 1403 481 
Q 1497 481 1650 503 
z
" transform="scale(0.015625)"/>
       <path id="ArialMT-65" d="M 2694 1069 
L 3275 997 
Q 3138 488 2766 206 
Q 2394 -75 1816 -75 
Q 1088 -75 661 373 
Q 234 822 234 1631 
Q 234 2469 665 2931 
Q 1097 3394 1784 3394 
Q 2450 3394 2872 2941 
Q 3294 2488 3294 1666 
Q 3294 1616 3291 1516 
L 816 1516 
Q 847 969 1125 678 
Q 1403 388 1819 388 
Q 2128 388 2347 550 
Q 2566 713 2694 1069 
z
M 847 1978 
L 2700 1978 
Q 2663 2397 2488 2606 
Q 2219 2931 1791 2931 
Q 1403 2931 1139 2672 
Q 875 2413 847 1978 
z
" transform="scale(0.015625)"/>
       <path id="ArialMT-72" d="M 416 0 
L 416 3319 
L 922 3319 
L 922 2816 
Q 1116 3169 1280 3281 
Q 1444 3394 1641 3394 
Q 1925 3394 2219 3213 
L 2025 2691 
Q 1819 2813 1613 2813 
Q 1428 2813 1281 2702 
Q 1134 2591 1072 2394 
Q 978 2094 978 1738 
L 978 0 
L 416 0 
z
" transform="scale(0.015625)"/>
       <path id="ArialMT-61" d="M 2588 409 
Q 2275 144 1986 34 
Q 1697 -75 1366 -75 
Q 819 -75 525 192 
Q 231 459 231 875 
Q 231 1119 342 1320 
Q 453 1522 633 1644 
Q 813 1766 1038 1828 
Q 1203 1872 1538 1913 
Q 2219 1994 2541 2106 
Q 2544 2222 2544 2253 
Q 2544 2597 2384 2738 
Q 2169 2928 1744 2928 
Q 1347 2928 1158 2789 
Q 969 2650 878 2297 
L 328 2372 
Q 403 2725 575 2942 
Q 747 3159 1072 3276 
Q 1397 3394 1825 3394 
Q 2250 3394 2515 3294 
Q 2781 3194 2906 3042 
Q 3031 2891 3081 2659 
Q 3109 2516 3109 2141 
L 3109 1391 
Q 3109 606 3145 398 
Q 3181 191 3288 0 
L 2700 0 
Q 2613 175 2588 409 
z
M 2541 1666 
Q 2234 1541 1622 1453 
Q 1275 1403 1131 1340 
Q 988 1278 909 1158 
Q 831 1038 831 891 
Q 831 666 1001 516 
Q 1172 366 1500 366 
Q 1825 366 2078 508 
Q 2331 650 2450 897 
Q 2541 1088 2541 1459 
L 2541 1666 
z
" transform="scale(0.015625)"/>
       <path id="ArialMT-6f" d="M 213 1659 
Q 213 2581 725 3025 
Q 1153 3394 1769 3394 
Q 2453 3394 2887 2945 
Q 3322 2497 3322 1706 
Q 3322 1066 3130 698 
Q 2938 331 2570 128 
Q 2203 -75 1769 -75 
Q 1072 -75 642 372 
Q 213 819 213 1659 
z
M 791 1659 
Q 791 1022 1069 705 
Q 1347 388 1769 388 
Q 2188 388 2466 706 
Q 2744 1025 2744 1678 
Q 2744 2294 2464 2611 
Q 2184 2928 1769 2928 
Q 1347 2928 1069 2612 
Q 791 2297 791 1659 
z
" transform="scale(0.015625)"/>
       <path id="ArialMT-6e" d="M 422 0 
L 422 3319 
L 928 3319 
L 928 2847 
Q 1294 3394 1984 3394 
Q 2284 3394 2536 3286 
Q 2788 3178 2913 3003 
Q 3038 2828 3088 2588 
Q 3119 2431 3119 2041 
L 3119 0 
L 2556 0 
L 2556 2019 
Q 2556 2363 2490 2533 
Q 2425 2703 2258 2804 
Q 2091 2906 1866 2906 
Q 1506 2906 1245 2678 
Q 984 2450 984 1813 
L 984 0 
L 422 0 
z
" transform="scale(0.015625)"/>
      </defs>
      <use xlink:href="#ArialMT-69"/>
      <use xlink:href="#ArialMT-74" x="22.216797"/>
      <use xlink:href="#ArialMT-65" x="50"/>
      <use xlink:href="#ArialMT-72" x="105.615234"/>
      <use xlink:href="#ArialMT-61" x="138.916016"/>
      <use xlink:href="#ArialMT-74" x="194.53125"/>
      <use xlink:href="#ArialMT-69" x="222.314453"/>
      <use xlink:href="#ArialMT-6f" x="244.53125"/>
      <use xlink:href="#ArialMT-6e" x="300.146484"/>
     </g>
    </g>
   </g>
   <g id="matplotlib.axis_2">
    <g id="ytick_1">
     <g id="line2d_4">
      <defs>
       <path id="m052d213bfa" d="M 0 0 
L 2 0 
" style="stroke: #000000; stroke-width: 0.6"/>
      </defs>
      <g>
       <use xlink:href="#m052d213bfa" x="114.169208" y="214.264697" style="stroke: #000000; stroke-width: 0.6"/>
      </g>
     </g>
     <g id="text_5">
      <!-- $\mathdefault{1.1\times10^{0}}$ -->
      <g transform="translate(39.849208 223.545947) scale(0.18 -0.18)">
       <defs>
        <path id="ArialMT-2e" d="M 581 0 
L 581 641 
L 1222 641 
L 1222 0 
L 581 0 
z
" transform="scale(0.015625)"/>
        <path id="ArialMT-d7" d="M 503 1278 
L 1488 2263 
L 506 3244 
L 888 3625 
L 1869 2644 
L 2847 3622 
L 3222 3244 
L 2247 2266 
L 3228 1284 
L 2847 903 
L 1866 1884 
L 881 900 
L 503 1278 
z
" transform="scale(0.015625)"/>
       </defs>
       <use xlink:href="#ArialMT-31" transform="translate(0 0.99375)"/>
       <use xlink:href="#ArialMT-2e" transform="translate(55.615234 0.99375)"/>
       <use xlink:href="#ArialMT-31" transform="translate(83.398438 0.99375)"/>
       <use xlink:href="#ArialMT-d7" transform="translate(158.496094 0.99375)"/>
       <use xlink:href="#ArialMT-31" transform="translate(236.376953 0.99375)"/>
       <use xlink:href="#ArialMT-30" transform="translate(291.992188 0.99375)"/>
       <use xlink:href="#ArialMT-30" transform="translate(349.349766 70.6875) scale(0.7)"/>
      </g>
     </g>
    </g>
    <g id="ytick_2">
     <g id="line2d_5">
      <g>
       <use xlink:href="#m052d213bfa" x="114.169208" y="179.076912" style="stroke: #000000; stroke-width: 0.6"/>
      </g>
     </g>
     <g id="text_6">
      <!-- $\mathdefault{1.2\times10^{0}}$ -->
      <g transform="translate(39.849208 188.358162) scale(0.18 -0.18)">
       <defs>
        <path id="ArialMT-32" d="M 3222 541 
L 3222 0 
L 194 0 
Q 188 203 259 391 
Q 375 700 629 1000 
Q 884 1300 1366 1694 
Q 2113 2306 2375 2664 
Q 2638 3022 2638 3341 
Q 2638 3675 2398 3904 
Q 2159 4134 1775 4134 
Q 1369 4134 1125 3890 
Q 881 3647 878 3216 
L 300 3275 
Q 359 3922 746 4261 
Q 1134 4600 1788 4600 
Q 2447 4600 2831 4234 
Q 3216 3869 3216 3328 
Q 3216 3053 3103 2787 
Q 2991 2522 2730 2228 
Q 2469 1934 1863 1422 
Q 1356 997 1212 845 
Q 1069 694 975 541 
L 3222 541 
z
" transform="scale(0.015625)"/>
       </defs>
       <use xlink:href="#ArialMT-31" transform="translate(0 0.99375)"/>
       <use xlink:href="#ArialMT-2e" transform="translate(55.615234 0.99375)"/>
       <use xlink:href="#ArialMT-32" transform="translate(83.398438 0.99375)"/>
       <use xlink:href="#ArialMT-d7" transform="translate(158.496094 0.99375)"/>
       <use xlink:href="#ArialMT-31" transform="translate(236.376953 0.99375)"/>
       <use xlink:href="#ArialMT-30" transform="translate(291.992188 0.99375)"/>
       <use xlink:href="#ArialMT-30" transform="translate(349.349766 70.6875) scale(0.7)"/>
      </g>
     </g>
    </g>
    <g id="ytick_3">
     <g id="line2d_6">
      <g>
       <use xlink:href="#m052d213bfa" x="114.169208" y="146.707288" style="stroke: #000000; stroke-width: 0.6"/>
      </g>
     </g>
     <g id="text_7">
      <!-- $\mathdefault{1.3\times10^{0}}$ -->
      <g transform="translate(39.849208 155.988538) scale(0.18 -0.18)">
       <defs>
        <path id="ArialMT-33" d="M 269 1209 
L 831 1284 
Q 928 806 1161 595 
Q 1394 384 1728 384 
Q 2125 384 2398 659 
Q 2672 934 2672 1341 
Q 2672 1728 2419 1979 
Q 2166 2231 1775 2231 
Q 1616 2231 1378 2169 
L 1441 2663 
Q 1497 2656 1531 2656 
Q 1891 2656 2178 2843 
Q 2466 3031 2466 3422 
Q 2466 3731 2256 3934 
Q 2047 4138 1716 4138 
Q 1388 4138 1169 3931 
Q 950 3725 888 3313 
L 325 3413 
Q 428 3978 793 4289 
Q 1159 4600 1703 4600 
Q 2078 4600 2393 4439 
Q 2709 4278 2876 4000 
Q 3044 3722 3044 3409 
Q 3044 3113 2884 2869 
Q 2725 2625 2413 2481 
Q 2819 2388 3044 2092 
Q 3269 1797 3269 1353 
Q 3269 753 2831 336 
Q 2394 -81 1725 -81 
Q 1122 -81 723 278 
Q 325 638 269 1209 
z
" transform="scale(0.015625)"/>
       </defs>
       <use xlink:href="#ArialMT-31" transform="translate(0 0.99375)"/>
       <use xlink:href="#ArialMT-2e" transform="translate(55.615234 0.99375)"/>
       <use xlink:href="#ArialMT-33" transform="translate(83.398438 0.99375)"/>
       <use xlink:href="#ArialMT-d7" transform="translate(158.496094 0.99375)"/>
       <use xlink:href="#ArialMT-31" transform="translate(236.376953 0.99375)"/>
       <use xlink:href="#ArialMT-30" transform="translate(291.992188 0.99375)"/>
       <use xlink:href="#ArialMT-30" transform="translate(349.349766 70.6875) scale(0.7)"/>
      </g>
     </g>
    </g>
    <g id="ytick_4">
     <g id="line2d_7">
      <g>
       <use xlink:href="#m052d213bfa" x="114.169208" y="116.737697" style="stroke: #000000; stroke-width: 0.6"/>
      </g>
     </g>
     <g id="text_8">
      <!-- $\mathdefault{1.4\times10^{0}}$ -->
      <g transform="translate(39.849208 126.018947) scale(0.18 -0.18)">
       <defs>
        <path id="ArialMT-34" d="M 2069 0 
L 2069 1097 
L 81 1097 
L 81 1613 
L 2172 4581 
L 2631 4581 
L 2631 1613 
L 3250 1613 
L 3250 1097 
L 2631 1097 
L 2631 0 
L 2069 0 
z
M 2069 1613 
L 2069 3678 
L 634 1613 
L 2069 1613 
z
" transform="scale(0.015625)"/>
       </defs>
       <use xlink:href="#ArialMT-31" transform="translate(0 0.99375)"/>
       <use xlink:href="#ArialMT-2e" transform="translate(55.615234 0.99375)"/>
       <use xlink:href="#ArialMT-34" transform="translate(83.398438 0.99375)"/>
       <use xlink:href="#ArialMT-d7" transform="translate(158.496094 0.99375)"/>
       <use xlink:href="#ArialMT-31" transform="translate(236.376953 0.99375)"/>
       <use xlink:href="#ArialMT-30" transform="translate(291.992188 0.99375)"/>
       <use xlink:href="#ArialMT-30" transform="translate(349.349766 70.6875) scale(0.7)"/>
      </g>
     </g>
    </g>
    <g id="ytick_5">
     <g id="line2d_8">
      <g>
       <use xlink:href="#m052d213bfa" x="114.169208" y="88.836676" style="stroke: #000000; stroke-width: 0.6"/>
      </g>
     </g>
     <g id="text_9">
      <!-- $\mathdefault{1.5\times10^{0}}$ -->
      <g transform="translate(39.849208 98.117926) scale(0.18 -0.18)">
       <use xlink:href="#ArialMT-31" transform="translate(0 0.99375)"/>
       <use xlink:href="#ArialMT-2e" transform="translate(55.615234 0.99375)"/>
       <use xlink:href="#ArialMT-35" transform="translate(83.398438 0.99375)"/>
       <use xlink:href="#ArialMT-d7" transform="translate(158.496094 0.99375)"/>
       <use xlink:href="#ArialMT-31" transform="translate(236.376953 0.99375)"/>
       <use xlink:href="#ArialMT-30" transform="translate(291.992188 0.99375)"/>
       <use xlink:href="#ArialMT-30" transform="translate(349.349766 70.6875) scale(0.7)"/>
      </g>
     </g>
    </g>
    <g id="ytick_6">
     <g id="line2d_9">
      <g>
       <use xlink:href="#m052d213bfa" x="114.169208" y="62.737013" style="stroke: #000000; stroke-width: 0.6"/>
      </g>
     </g>
     <g id="text_10">
      <!-- $\mathdefault{1.6\times10^{0}}$ -->
      <g transform="translate(39.849208 72.018263) scale(0.18 -0.18)">
       <defs>
        <path id="ArialMT-36" d="M 3184 3459 
L 2625 3416 
Q 2550 3747 2413 3897 
Q 2184 4138 1850 4138 
Q 1581 4138 1378 3988 
Q 1113 3794 959 3422 
Q 806 3050 800 2363 
Q 1003 2672 1297 2822 
Q 1591 2972 1913 2972 
Q 2475 2972 2870 2558 
Q 3266 2144 3266 1488 
Q 3266 1056 3080 686 
Q 2894 316 2569 119 
Q 2244 -78 1831 -78 
Q 1128 -78 684 439 
Q 241 956 241 2144 
Q 241 3472 731 4075 
Q 1159 4600 1884 4600 
Q 2425 4600 2770 4297 
Q 3116 3994 3184 3459 
z
M 888 1484 
Q 888 1194 1011 928 
Q 1134 663 1356 523 
Q 1578 384 1822 384 
Q 2178 384 2434 671 
Q 2691 959 2691 1453 
Q 2691 1928 2437 2201 
Q 2184 2475 1800 2475 
Q 1419 2475 1153 2201 
Q 888 1928 888 1484 
z
" transform="scale(0.015625)"/>
       </defs>
       <use xlink:href="#ArialMT-31" transform="translate(0 0.99375)"/>
       <use xlink:href="#ArialMT-2e" transform="translate(55.615234 0.99375)"/>
       <use xlink:href="#ArialMT-36" transform="translate(83.398438 0.99375)"/>
       <use xlink:href="#ArialMT-d7" transform="translate(158.496094 0.99375)"/>
       <use xlink:href="#ArialMT-31" transform="translate(236.376953 0.99375)"/>
       <use xlink:href="#ArialMT-30" transform="translate(291.992188 0.99375)"/>
       <use xlink:href="#ArialMT-30" transform="translate(349.349766 70.6875) scale(0.7)"/>
      </g>
     </g>
    </g>
    <g id="ytick_7">
     <g id="line2d_10">
      <g>
       <use xlink:href="#m052d213bfa" x="114.169208" y="38.220148" style="stroke: #000000; stroke-width: 0.6"/>
      </g>
     </g>
     <g id="text_11">
      <!-- $\mathdefault{1.7\times10^{0}}$ -->
      <g transform="translate(39.849208 47.501398) scale(0.18 -0.18)">
       <defs>
        <path id="ArialMT-37" d="M 303 3981 
L 303 4522 
L 3269 4522 
L 3269 4084 
Q 2831 3619 2401 2847 
Q 1972 2075 1738 1259 
Q 1569 684 1522 0 
L 944 0 
Q 953 541 1156 1306 
Q 1359 2072 1739 2783 
Q 2119 3494 2547 3981 
L 303 3981 
z
" transform="scale(0.015625)"/>
       </defs>
       <use xlink:href="#ArialMT-31" transform="translate(0 0.99375)"/>
       <use xlink:href="#ArialMT-2e" transform="translate(55.615234 0.99375)"/>
       <use xlink:href="#ArialMT-37" transform="translate(83.398438 0.99375)"/>
       <use xlink:href="#ArialMT-d7" transform="translate(158.496094 0.99375)"/>
       <use xlink:href="#ArialMT-31" transform="translate(236.376953 0.99375)"/>
       <use xlink:href="#ArialMT-30" transform="translate(291.992188 0.99375)"/>
       <use xlink:href="#ArialMT-30" transform="translate(349.349766 70.6875) scale(0.7)"/>
      </g>
     </g>
    </g>
    <g id="text_12">
     <!-- loss -->
     <g transform="translate(32.271708 139.694531) rotate(-90) scale(0.18 -0.18)">
      <defs>
       <path id="ArialMT-6c" d="M 409 0 
L 409 4581 
L 972 4581 
L 972 0 
L 409 0 
z
" transform="scale(0.015625)"/>
       <path id="ArialMT-73" d="M 197 991 
L 753 1078 
Q 800 744 1014 566 
Q 1228 388 1613 388 
Q 2000 388 2187 545 
Q 2375 703 2375 916 
Q 2375 1106 2209 1216 
Q 2094 1291 1634 1406 
Q 1016 1563 777 1677 
Q 538 1791 414 1992 
Q 291 2194 291 2438 
Q 291 2659 392 2848 
Q 494 3038 669 3163 
Q 800 3259 1026 3326 
Q 1253 3394 1513 3394 
Q 1903 3394 2198 3281 
Q 2494 3169 2634 2976 
Q 2775 2784 2828 2463 
L 2278 2388 
Q 2241 2644 2061 2787 
Q 1881 2931 1553 2931 
Q 1166 2931 1000 2803 
Q 834 2675 834 2503 
Q 834 2394 903 2306 
Q 972 2216 1119 2156 
Q 1203 2125 1616 2013 
Q 2213 1853 2448 1751 
Q 2684 1650 2818 1456 
Q 2953 1263 2953 975 
Q 2953 694 2789 445 
Q 2625 197 2315 61 
Q 2006 -75 1616 -75 
Q 969 -75 630 194 
Q 291 463 197 991 
z
" transform="scale(0.015625)"/>
      </defs>
      <use xlink:href="#ArialMT-6c"/>
      <use xlink:href="#ArialMT-6f" x="22.216797"/>
      <use xlink:href="#ArialMT-73" x="77.832031"/>
      <use xlink:href="#ArialMT-73" x="127.832031"/>
     </g>
    </g>
   </g>
   <g id="line2d_11">
    <path d="M 124.114377 130.691393 
L 124.512582 110.883897 
L 124.711684 142.543366 
L 124.910787 130.790352 
L 125.109889 133.604506 
L 125.308992 142.840408 
L 125.707197 143.117527 
L 125.906299 103.505827 
L 126.105402 99.895911 
L 126.304504 134.201017 
L 126.503607 134.008958 
L 126.702709 143.273402 
L 126.901812 103.726041 
L 127.100914 135.503547 
L 127.300017 143.940226 
L 127.698222 144.213013 
L 127.897324 99.663346 
L 128.096427 98.337875 
L 128.295529 103.334999 
L 128.494632 144.67172 
L 128.693734 111.849181 
L 128.892837 144.600219 
L 129.091939 145.009695 
L 129.291042 137.031956 
L 129.490144 112.013196 
L 129.689246 136.274492 
L 129.888349 145.492082 
L 130.087451 145.628496 
L 130.286554 112.199784 
L 130.485656 145.822972 
L 130.883861 146.095552 
L 131.082964 91.175476 
L 131.282066 146.197242 
L 131.680271 146.470296 
L 131.879374 137.536199 
L 132.078476 146.775209 
L 132.277579 146.8836 
L 132.476681 124.671817 
L 132.675784 147.108339 
L 132.874886 138.152665 
L 133.073989 147.230781 
L 133.472194 105.516331 
L 133.671296 112.932126 
L 133.870399 147.566962 
L 134.069501 147.827407 
L 134.268604 138.900673 
L 134.467706 148.104393 
L 134.666809 148.240723 
L 134.865911 132.645891 
L 135.065014 132.593388 
L 135.264116 113.26636 
L 135.463219 113.316993 
L 135.662321 148.593245 
L 136.259628 149.00272 
L 136.458731 132.895465 
L 136.657833 149.148009 
L 136.856936 98.546502 
L 137.056038 149.296709 
L 137.653346 149.727745 
L 137.852448 133.276106 
L 138.051551 98.418924 
L 138.250653 149.904542 
L 138.449756 150.070722 
L 138.648858 142.368143 
L 138.847961 150.438129 
L 139.047063 114.148898 
L 139.445268 150.760507 
L 139.843473 133.597362 
L 140.042576 151.208781 
L 140.639883 151.708686 
L 140.838986 144.122027 
L 141.038088 114.758352 
L 141.237191 114.768769 
L 141.436293 143.312123 
L 141.635396 152.441103 
L 142.232703 152.941744 
L 142.431805 86.715407 
L 142.83001 152.998162 
L 143.029113 106.957733 
L 143.228215 153.252858 
L 143.427318 144.376833 
L 143.62642 125.43433 
L 144.024625 153.864897 
L 144.223728 115.58705 
L 144.42283 154.12758 
L 144.621933 145.382067 
L 144.821035 145.441137 
L 145.020138 147.105963 
L 145.21924 154.878547 
L 145.418343 115.985693 
L 145.617445 147.603012 
L 145.816548 155.34005 
L 146.01565 116.176771 
L 146.214753 148.095276 
L 146.413855 116.293326 
L 146.81206 155.948163 
L 147.60847 156.693323 
L 147.807573 116.75258 
L 148.006675 156.960665 
L 148.205778 157.12041 
L 148.40488 116.918252 
L 148.803085 157.46724 
L 149.002187 157.684299 
L 149.20129 108.836501 
L 149.400392 136.116775 
L 149.599495 127.051067 
L 149.798597 150.834904 
L 149.9977 149.255508 
L 150.196802 158.516279 
L 150.395905 117.522339 
L 150.595007 130.007221 
L 150.79411 158.902107 
L 150.993212 97.071999 
L 151.192315 159.066367 
L 151.391417 159.262749 
L 151.59052 111.386555 
L 151.789622 159.567013 
L 151.988725 136.910862 
L 152.187827 159.840821 
L 152.38693 160.037924 
L 152.586032 59.472415 
L 152.785135 153.336046 
L 152.984237 91.280613 
L 153.18334 160.894507 
L 153.382442 118.477923 
L 153.581545 154.151451 
L 153.780647 161.424342 
L 153.97975 152.640126 
L 154.178852 137.667272 
L 154.377955 161.877209 
L 154.975262 162.46821 
L 155.174364 137.886619 
L 155.373467 162.744028 
L 155.572569 162.940969 
L 155.771672 156.288141 
L 156.169877 119.459446 
L 156.368979 156.719323 
L 156.568082 96.37068 
L 156.767184 113.394031 
L 156.966287 163.828605 
L 157.165389 164.026152 
L 157.364492 138.476076 
L 157.762697 164.513138 
L 157.961799 155.636713 
L 158.160902 164.921917 
L 158.360004 96.18595 
L 158.559107 138.804437 
L 158.758209 96.180877 
L 158.957312 165.142549 
L 159.156414 156.365803 
L 159.355517 156.470185 
L 159.554619 165.761862 
L 159.753722 140.565033 
L 159.952824 130.254139 
L 160.151927 166.486478 
L 160.351029 142.045052 
L 160.550132 167.151227 
L 160.749234 160.923928 
L 160.948337 167.571897 
L 161.147439 112.733539 
L 161.346541 161.511806 
L 161.545644 168.105125 
L 161.744746 140.021984 
L 161.943849 168.400584 
L 162.142951 115.756401 
L 162.342054 168.733146 
L 162.541156 159.848061 
L 162.740259 169.186475 
L 162.939361 113.374736 
L 163.138464 169.480058 
L 163.536669 169.928569 
L 163.735771 95.512074 
L 163.934874 170.090377 
L 164.133976 170.30512 
L 164.333079 161.402345 
L 164.731284 122.441127 
L 164.930386 164.902521 
L 165.129489 171.183438 
L 165.328591 151.329845 
L 165.527694 165.900351 
L 165.726796 166.16782 
L 165.925899 163.162802 
L 166.125001 166.687783 
L 166.324104 132.526604 
L 166.523206 172.869652 
L 166.722309 123.355421 
L 166.921411 173.182233 
L 167.120514 173.413679 
L 167.319616 123.553656 
L 167.518719 167.981201 
L 167.717821 142.159699 
L 167.916923 174.051433 
L 168.116026 174.274405 
L 168.315128 123.910388 
L 168.713333 175.057445 
L 168.912436 169.697264 
L 169.111538 159.537499 
L 169.310641 176.028245 
L 169.509743 65.716986 
L 169.907948 170.60888 
L 170.107051 143.079854 
L 170.306153 171.013592 
L 170.505256 134.007449 
L 170.704358 167.56237 
L 170.903461 177.083004 
L 171.102563 143.446957 
L 171.301666 177.410223 
L 171.699871 125.204015 
L 171.898973 168.565892 
L 172.098076 178.09912 
L 172.297178 125.437778 
L 172.496281 143.888003 
L 172.695383 173.302217 
L 172.894486 178.828336 
L 173.093588 134.820302 
L 173.292691 173.988866 
L 173.491793 144.276041 
L 173.690896 174.422909 
L 173.889998 179.831142 
L 174.0891 62.477004 
L 174.288203 174.668378 
L 174.487305 174.974638 
L 174.686408 180.349398 
L 174.88551 126.328236 
L 175.084613 116.712189 
L 175.283715 180.707869 
L 175.482818 116.768869 
L 175.68192 126.478935 
L 175.881023 181.066174 
L 176.080125 94.07947 
L 176.279228 181.275396 
L 176.47833 172.130754 
L 176.677433 90.31669 
L 176.876535 181.756075 
L 177.075638 172.585301 
L 177.27474 182.25259 
L 177.473843 145.472191 
L 177.672945 182.609471 
L 177.872048 173.417363 
L 178.07115 116.826693 
L 178.270253 173.660597 
L 178.469355 90.281692 
L 178.668458 183.356901 
L 178.86756 183.603874 
L 179.066663 179.137965 
L 179.265765 127.742318 
L 179.464868 112.545545 
L 179.66397 184.550597 
L 180.062175 185.077019 
L 180.46038 128.249239 
L 180.659482 146.714868 
L 180.858585 90.153373 
L 181.057687 185.666722 
L 181.25679 185.929288 
L 181.455892 181.712643 
L 181.654995 186.489628 
L 181.854097 186.763456 
L 182.0532 177.474122 
L 182.252302 115.261632 
L 182.451405 187.601893 
L 182.650507 129.19705 
L 182.84961 178.407389 
L 183.048712 188.270329 
L 183.247815 188.54368 
L 183.446917 179.200249 
L 183.64602 55.191311 
L 183.845122 147.946273 
L 184.044225 116.831929 
L 184.243327 188.884466 
L 184.44243 179.534656 
L 184.641532 189.427074 
L 185.039737 189.980027 
L 185.23884 186.188222 
L 185.637045 186.8825 
L 185.836147 130.505483 
L 186.03525 191.319284 
L 186.234352 191.607592 
L 186.433455 182.192547 
L 186.632557 149.216513 
L 186.831659 188.472498 
L 187.229864 52.411868 
L 187.428967 192.293645 
L 187.628069 179.281554 
L 187.827172 131.171835 
L 188.026274 127.732906 
L 188.225377 193.214815 
L 188.424479 193.516718 
L 188.623582 128.103368 
L 188.822684 193.975706 
L 189.021787 92.479003 
L 189.220889 184.462729 
L 189.419992 194.519391 
L 189.818197 195.115887 
L 190.216402 92.321878 
L 190.415504 195.501795 
L 190.614607 150.580265 
L 190.813709 150.637853 
L 191.012812 132.376642 
L 191.211914 196.192062 
L 191.610119 196.8027 
L 191.809222 116.902956 
L 192.008324 187.265383 
L 192.207427 151.182945 
L 192.406529 187.683674 
L 192.605632 151.343949 
L 192.804734 197.978211 
L 193.003837 48.002365 
L 193.202939 92.044675 
L 193.402041 197.882032 
L 193.601144 188.309127 
L 193.800246 188.602617 
L 193.999349 198.786845 
L 194.198451 195.943608 
L 194.397554 199.421315 
L 194.596656 152.04384 
L 194.795759 199.847175 
L 194.994861 152.202781 
L 195.193964 200.275092 
L 195.393066 152.361409 
L 195.592169 200.699649 
L 195.990374 201.302663 
L 196.189476 131.855158 
L 196.388579 152.808902 
L 196.985886 152.955377 
L 197.184989 192.314068 
L 197.384091 202.608214 
L 198.578706 204.452549 
L 198.777809 153.919443 
L 198.976911 133.421235 
L 199.176014 195.095949 
L 199.375116 205.390721 
L 199.574218 205.702456 
L 199.773321 203.611729 
L 199.972423 206.361459 
L 200.171526 154.629973 
L 200.370628 206.805192 
L 200.569731 207.117675 
L 200.768833 197.465846 
L 200.967936 207.753976 
L 201.167038 208.067884 
L 201.366141 89.219763 
L 201.764346 206.36219 
L 201.963448 117.16923 
L 202.162551 197.585013 
L 202.361653 137.365415 
L 202.560756 209.368347 
L 202.958961 210.004385 
L 203.158063 200.435323 
L 203.357166 210.663969 
L 203.954473 211.615417 
L 204.153576 210.156111 
L 204.352678 155.188164 
L 204.551781 212.457223 
L 204.750883 117.33059 
L 204.949986 212.80345 
L 205.149088 137.307585 
L 205.348191 105.613035 
L 205.547293 117.420572 
L 205.746396 157.254485 
L 205.945498 148.261719 
L 206.1446 88.997307 
L 206.542805 214.095554 
L 206.741908 204.770111 
L 206.94101 214.779447 
L 207.140113 140.417427 
L 207.339215 214.06213 
L 207.538318 215.838827 
L 207.73742 216.169557 
L 207.936523 108.29852 
L 208.135625 216.867907 
L 208.53383 217.539365 
L 208.732933 208.435038 
L 208.932035 218.246682 
L 209.131138 218.462727 
L 209.33024 158.076618 
L 209.529343 150.227917 
L 209.728445 217.837928 
L 209.927548 158.420033 
L 210.12665 218.348581 
L 210.325753 117.8472 
L 210.524855 150.516921 
L 210.723958 159.482189 
L 210.92306 218.310731 
L 211.122163 210.356677 
L 211.321265 218.267529 
L 211.520368 218.273814 
L 211.71947 218.160428 
L 211.918573 117.92811 
L 212.117675 159.626431 
L 212.316778 141.414686 
L 212.51588 218.126092 
L 212.914085 218.254427 
L 213.113187 159.691563 
L 213.31229 141.477499 
L 213.710495 141.592059 
L 213.909597 218.069593 
L 214.1087 140.842899 
L 214.307802 159.190648 
L 214.506905 160.046701 
L 214.706007 141.087966 
L 214.90511 218.089546 
L 215.104212 217.993904 
L 215.303315 218.101359 
L 215.502417 118.087009 
L 215.70152 211.569441 
L 215.900622 217.95423 
L 216.099725 218.057604 
L 216.298827 160.255677 
L 216.49793 212.552568 
L 216.697032 217.994656 
L 216.896135 212.896998 
L 217.095237 160.574774 
L 217.29434 160.632229 
L 217.493442 217.82851 
L 217.692545 213.563508 
L 217.891647 217.868393 
L 218.09075 217.874849 
L 218.289852 160.779761 
L 218.488955 217.861362 
L 218.688057 142.526556 
L 218.887159 217.769842 
L 219.086262 217.852873 
L 219.285364 142.552101 
L 219.484467 217.838502 
L 219.683569 152.073789 
L 219.882672 217.748446 
L 220.081774 152.12381 
L 220.280877 217.807509 
L 220.479979 217.813964 
L 220.679082 142.129595 
L 220.878184 152.231389 
L 221.077287 142.298552 
L 221.276389 88.98615 
L 221.475492 213.70896 
L 221.674594 217.75711 
L 221.873697 213.715175 
L 222.072799 217.767234 
L 222.670107 217.78589 
L 223.068312 89.008946 
L 223.466517 217.758039 
L 223.665619 217.764316 
L 223.864722 142.306255 
L 224.063824 213.702702 
L 224.262927 217.748048 
L 224.462029 213.708741 
L 224.661132 118.36333 
L 224.860234 142.857085 
L 225.258439 142.975343 
L 225.457541 217.691956 
L 225.656644 88.599333 
L 225.855746 213.673686 
L 226.054849 217.705083 
L 226.253951 217.711536 
L 226.453054 161.268079 
L 226.652156 213.671104 
L 226.851259 88.95638 
L 227.050361 217.70968 
L 227.249464 217.650808 
L 227.448566 213.685458 
L 227.647669 217.725902 
L 227.846771 213.692067 
L 228.444079 213.699375 
L 228.643181 28.917273 
L 228.842284 217.803972 
L 229.041386 213.738153 
L 229.240489 217.738456 
L 229.439591 213.891505 
L 229.638694 213.747126 
L 229.837796 217.828908 
L 230.036899 217.835186 
L 230.236001 213.757237 
L 230.435104 217.845135 
L 230.634206 160.913596 
L 230.833309 217.83187 
L 231.032411 160.954197 
L 231.231514 217.818739 
L 231.430616 160.994802 
L 231.629718 161.052278 
L 231.828821 217.78589 
L 232.027923 217.791991 
L 232.227026 213.729881 
L 232.426128 213.876443 
L 232.625231 217.807288 
L 232.824333 217.813743 
L 233.023436 118.44379 
L 233.222538 89.064992 
L 233.620743 217.803618 
L 234.018948 217.739561 
L 234.218051 142.153136 
L 234.417153 161.092893 
L 234.616256 217.703403 
L 234.815358 142.817195 
L 235.014461 118.529663 
L 235.213563 213.700119 
L 235.412666 89.022965 
L 235.611768 114.466574 
L 235.810871 88.9866 
L 236.009973 217.726654 
L 236.209076 118.588743 
L 236.408178 142.98023 
L 236.607281 217.709105 
L 236.806383 213.671104 
L 237.005486 88.610318 
L 237.204588 217.72188 
L 237.403691 118.632989 
L 237.602793 213.809196 
L 237.801896 217.729615 
L 238.2001 217.742523 
L 238.399203 213.828327 
L 238.598305 217.753618 
L 238.797408 217.760072 
L 238.99651 89.03573 
L 239.195613 217.773909 
L 239.394715 118.649665 
L 239.593818 142.332484 
L 239.992023 161.314713 
L 240.191125 217.70968 
L 240.58933 217.722233 
L 240.788433 161.321442 
L 240.987535 217.708929 
L 241.186638 161.361891 
L 241.584843 118.759875 
L 241.983048 213.622094 
L 242.18215 213.624501 
L 242.381253 143.220714 
L 242.580355 142.839564 
L 242.779458 217.548599 
L 242.97856 217.61298 
L 243.177663 217.559468 
L 243.575868 217.631628 
L 244.57138 217.598618 
L 244.770482 143.184685 
L 244.969585 217.585494 
L 245.168687 217.653769 
L 245.36779 161.532116 
L 245.566892 217.640688 
L 245.765995 152.787594 
L 245.965097 217.62553 
L 246.1642 213.611242 
L 246.363302 217.635871 
L 246.761507 217.648422 
L 246.96061 213.625201 
L 247.159712 213.627607 
L 247.358815 213.754873 
L 247.557917 217.667249 
L 247.75702 217.673702 
L 247.956122 152.695147 
L 248.155225 217.658587 
L 248.354327 213.631283 
L 248.55343 143.190751 
L 248.752532 213.620825 
L 248.951635 143.2377 
L 249.150737 143.295612 
L 249.34984 217.611124 
L 249.748045 217.623674 
L 249.947147 161.6318 
L 250.14625 142.931584 
L 250.345352 143.430956 
L 250.544455 217.507997 
L 250.743557 161.806604 
L 250.942659 217.495273 
L 251.539967 217.567245 
L 251.739069 217.573519 
L 251.938172 213.577115 
L 252.137274 143.433825 
L 252.336377 153.056924 
L 252.535479 118.92876 
L 252.933684 161.965771 
L 253.132787 213.617499 
L 253.331889 143.671929 
L 253.530992 143.731376 
L 253.730094 213.587746 
L 253.929197 143.775847 
L 254.128299 217.444384 
L 254.327402 217.450656 
L 254.526504 143.478778 
L 254.725607 213.48201 
L 254.924709 217.391955 
L 255.123812 162.186106 
L 255.322914 217.379058 
L 255.920222 217.438111 
L 256.119324 217.400832 
L 256.318427 161.842097 
L 256.517529 213.477985 
L 256.716632 217.428482 
L 256.915734 143.864767 
L 257.114836 119.067133 
L 257.313939 217.410417 
L 257.513041 213.470812 
L 257.712144 162.256585 
L 257.911246 213.460708 
L 258.110349 143.670898 
L 258.309451 217.378308 
L 258.508554 213.45043 
L 258.707656 217.388289 
L 258.906759 217.394561 
L 259.105861 143.969397 
L 259.304964 217.380163 
L 259.504066 151.232593 
L 259.703169 162.505111 
L 259.902271 217.315819 
L 260.499579 217.333704 
L 260.698681 217.339974 
L 260.897784 213.493033 
L 261.096886 213.429523 
L 261.295989 217.320058 
L 261.495091 213.435384 
L 261.694194 213.437964 
L 261.893296 217.369121 
L 262.092399 143.777356 
L 262.291501 217.348807 
L 262.490604 213.43171 
L 262.689706 217.359141 
L 263.287014 217.377601 
L 263.685218 217.390497 
L 263.884321 119.128543 
L 264.083423 217.393103 
L 264.481628 217.364882 
L 264.680731 143.954885 
L 264.879833 162.367896 
L 265.078936 217.370579 
L 265.278038 153.583033 
L 265.477141 217.371506 
L 265.676243 217.377778 
L 265.875346 213.444919 
L 266.074448 217.387936 
L 266.273551 153.610154 
L 266.472653 162.399776 
L 266.671756 217.330745 
L 266.870858 153.676626 
L 267.069961 217.369121 
L 267.269063 144.08006 
L 267.468166 217.354724 
L 267.667268 143.849117 
L 267.866371 217.334631 
L 268.065473 153.754392 
L 268.264576 217.335735 
L 268.463678 88.718903 
L 268.662781 143.894927 
L 268.861883 144.236786 
L 269.060986 217.269853 
L 269.260088 217.308224 
L 269.459191 119.373827 
L 269.658293 217.310829 
L 269.857395 144.263582 
L 270.056498 162.698348 
L 270.2556 217.276344 
L 270.653805 217.288707 
L 270.852908 144.328314 
L 271.05201 217.274313 
L 271.251113 217.280583 
L 271.450215 162.731643 
L 271.649318 217.237049 
L 272.047523 217.278728 
L 272.246625 144.358287 
L 272.445728 217.264511 
L 272.64483 217.271001 
L 272.843933 162.764903 
L 273.043035 144.439038 
L 273.242138 144.497528 
L 273.44124 217.215637 
L 273.640343 153.997746 
L 273.839445 162.950813 
L 274.038548 163.010305 
L 274.23765 217.176745 
L 274.635855 217.189459 
L 274.834958 213.361607 
L 275.03406 163.003047 
L 275.233163 163.063088 
L 275.432265 119.574524 
L 275.631368 119.611145 
L 275.83047 213.287101 
L 276.029573 217.15847 
L 276.427777 88.585168 
L 276.62688 217.167343 
L 277.025085 217.180056 
L 277.224187 213.304721 
L 277.42329 154.209776 
L 277.622392 213.34932 
L 277.821495 217.190209 
L 278.020597 213.309487 
L 278.2197 217.200539 
L 278.418802 217.206808 
L 278.617905 154.230442 
L 278.817007 217.207735 
L 279.01611 213.318668 
L 279.215212 217.189812 
L 279.414315 162.994437 
L 279.613417 217.203673 
L 279.81252 217.209942 
L 280.011622 163.019456 
L 280.210725 163.079306 
L 280.409827 217.176569 
L 281.206237 217.200892 
L 281.40534 163.053087 
L 281.604442 163.113096 
L 281.803545 217.167343 
L 282.002647 119.753706 
L 282.20175 217.170654 
L 282.599954 217.18244 
L 282.799057 144.695483 
L 282.998159 217.168093 
L 283.197262 213.338126 
L 283.396364 217.15441 
L 283.595467 162.944405 
L 283.794569 217.159971 
L 283.993672 213.285615 
L 284.192774 217.1703 
L 284.391877 217.176569 
L 284.590979 144.533268 
L 284.790082 144.626007 
L 284.989184 217.130089 
L 285.188287 144.844216 
L 285.387389 144.90306 
L 285.586492 144.843552 
L 285.785594 217.068477 
L 285.984697 217.060401 
L 286.183799 145.002272 
L 286.382902 144.968005 
L 286.582004 217.033659 
L 286.781107 213.206358 
L 286.980209 217.032556 
L 287.378414 217.055944 
L 287.577517 119.872754 
L 287.776619 213.21663 
L 287.975722 217.062784 
L 288.174824 217.069404 
L 288.373927 213.226509 
L 288.573029 119.896804 
L 288.772132 217.075891 
L 288.971234 217.082511 
L 289.170336 88.546627 
L 289.568541 217.071081 
L 289.767644 145.029932 
L 289.966746 217.056694 
L 290.165849 163.500978 
L 290.364951 145.127587 
L 290.564054 163.619902 
L 290.763156 217.002286 
L 291.161361 217.015391 
L 291.360464 163.626978 
L 291.559566 217.00158 
L 291.758669 213.181749 
L 291.957771 217.002507 
L 292.156874 217.007669 
L 292.355976 145.112406 
L 292.555079 145.205204 
L 292.754181 216.97043 
L 292.953284 216.977048 
L 293.152386 145.299538 
L 293.351489 216.962312 
L 293.550591 163.781293 
L 293.749694 145.396926 
L 293.948796 154.746203 
L 294.147899 145.477256 
L 294.347001 216.902931 
L 295.342513 216.931871 
L 295.541616 163.884899 
L 295.740718 216.918062 
L 296.338026 216.936679 
L 296.537128 145.403653 
L 296.736231 120.081441 
L 296.935333 216.870113 
L 297.134436 164.111122 
L 297.333538 164.205789 
L 297.532641 145.83955 
L 297.731743 216.805057 
L 298.129948 216.815553 
L 298.329051 164.334488 
L 298.528153 216.797691 
L 298.727256 164.408596 
L 298.926358 216.779787 
L 299.125461 164.482873 
L 299.324563 146.105697 
L 299.523666 216.737938 
L 299.722768 156.157119 
L 299.921871 216.697241 
L 300.120973 88.338183 
L 300.320076 216.70478 
L 300.718281 216.715274 
L 300.917383 146.270248 
L 301.116486 146.364869 
L 301.315588 216.672154 
L 301.514691 216.677489 
L 301.713793 212.90984 
L 301.912895 216.687276 
L 302.111998 146.380061 
L 302.3111 216.668495 
L 302.709305 216.678988 
L 302.908408 212.910932 
L 303.10751 216.688731 
L 303.505715 216.699445 
L 303.704818 88.340077 
L 303.90392 216.706808 
L 304.103023 146.306219 
L 304.302125 216.688026 
L 304.501228 164.860514 
L 304.70033 212.89809 
L 304.899433 212.902152 
L 305.098535 216.679517 
L 305.297638 216.684675 
L 305.49674 212.915693 
L 305.695843 146.376022 
L 305.894945 216.670523 
L 306.094048 88.33157 
L 306.29315 146.441908 
L 306.492253 121.947674 
L 306.691355 212.84105 
L 306.890458 165.184741 
L 307.08956 216.58941 
L 307.288663 165.259083 
L 307.487765 146.861786 
L 307.686868 165.450067 
L 307.88597 216.524002 
L 308.085073 88.28535 
L 308.284175 122.816734 
L 308.483277 216.484956 
L 309.080585 216.500777 
L 309.279687 165.616854 
L 309.47879 147.211176 
L 309.677892 147.306574 
L 309.876995 216.434106 
L 310.076097 212.688096 
L 310.2752 216.44402 
L 310.474302 216.449395 
L 310.673405 212.701847 
L 310.872507 216.45953 
L 311.07161 216.465038 
L 311.270712 147.261898 
L 311.469815 147.357308 
L 311.668917 212.671769 
L 311.86802 216.426351 
L 312.067122 157.521361 
L 312.266225 216.406083 
L 312.465327 216.411238 
L 312.66443 165.977547 
L 312.863532 166.072419 
L 313.062635 216.370353 
L 313.659942 216.386169 
L 313.859045 147.573391 
L 314.058147 216.367402 
L 314.25725 88.236601 
L 314.456352 88.23721 
L 314.655454 216.377358 
L 314.854557 166.121946 
L 315.053659 147.701141 
L 315.252762 212.592545 
L 315.451864 216.340133 
L 315.650967 216.345287 
L 315.850069 166.252657 
L 316.049172 166.347399 
L 316.248274 216.304408 
L 316.447377 216.309386 
L 316.646479 166.400735 
L 316.845582 216.291503 
L 317.641992 216.312513 
L 317.841094 166.393455 
L 318.040197 212.555317 
L 318.239299 212.55955 
L 318.438402 166.450457 
L 318.637504 216.281196 
L 319.035709 216.291679 
L 319.234812 147.952038 
L 319.433914 212.53533 
L 319.633017 148.028227 
L 319.832119 216.253184 
L 320.031222 212.522151 
L 320.230324 166.616566 
L 320.429427 216.239928 
L 320.628529 216.245433 
L 320.827632 166.670289 
L 321.026734 212.494267 
L 321.225836 216.232353 
L 321.424939 216.237726 
L 321.624041 166.704926 
L 321.823144 212.486937 
L 322.022246 212.490951 
L 322.221349 216.229226 
L 322.420451 216.234378 
L 322.619554 124.903481 
L 323.017759 166.998506 
L 323.017759 166.998506 
" clip-path="url(#pa67e14b640)" style="fill: none; stroke: #1f77b4; stroke-width: 1.5; stroke-linecap: square"/>
   </g>
   <g id="patch_3">
    <path d="M 114.169208 227.94 
L 114.169208 19.44 
" style="fill: none; stroke: #000000; stroke-width: 0.8; stroke-linejoin: miter; stroke-linecap: square"/>
   </g>
   <g id="patch_4">
    <path d="M 332.962928 227.94 
L 332.962928 19.44 
" style="fill: none; stroke: #000000; stroke-width: 0.8; stroke-linejoin: miter; stroke-linecap: square"/>
   </g>
   <g id="patch_5">
    <path d="M 114.169208 227.94 
L 332.962928 227.94 
" style="fill: none; stroke: #000000; stroke-width: 0.8; stroke-linejoin: miter; stroke-linecap: square"/>
   </g>
   <g id="patch_6">
    <path d="M 114.169208 19.44 
L 332.962928 19.44 
" style="fill: none; stroke: #000000; stroke-width: 0.8; stroke-linejoin: miter; stroke-linecap: square"/>
   </g>
  </g>
 </g>
 <defs>
  <clipPath id="pa67e14b640">
   <rect x="114.169208" y="19.44" width="218.79372" height="208.5"/>
  </clipPath>
 </defs>
</svg>
