<?xml version="1.0" encoding="utf-8" standalone="no"?>
<!DOCTYPE svg PUBLIC "-//W3C//DTD SVG 1.1//EN"
  "http://www.w3.org/Graphics/SVG/1.1/DTD/svg11.dtd">
<svg xmlns:xlink="http://www.w3.org/1999/xlink" width="316.8pt" height="288pt" viewBox="0 0 316.8 288" xmlns="http://www.w3.org/2000/svg" version="1.1">
 <metadata>
  <rdf:RDF xmlns:dc="http://purl.org/dc/elements/1.1/" xmlns:cc="http://creativecommons.org/ns#" xmlns:rdf="http://www.w3.org/1999/02/22-rdf-syntax-ns#">
   <cc:Work>
    <dc:type rdf:resource="http://purl.org/dc/dcmitype/StillImage"/>
    <dc:date>2024-01-31T16:29:48.423449</dc:date>
    <dc:format>image/svg+xml</dc:format>
    <dc:creator>
     <cc:Agent>
      <dc:title>Matplotlib v3.8.2, https://matplotlib.org/</dc:title>
     </cc:Agent>
    </dc:creator>
   </cc:Work>
  </rdf:RDF>
 </metadata>
 <defs>
  <style type="text/css">*{stroke-linejoin: round; stroke-linecap: butt}</style>
 </defs>
 <g id="figure_1">
  <g id="patch_1">
   <path d="M 0 288 
L 316.8 288 
L 316.8 0 
L 0 0 
L 0 288 
z
" style="fill: none"/>
  </g>
  <g id="axes_1">
   <g id="patch_2">
    <path d="M 39.6 256.32 
L 285.12 256.32 
L 285.12 34.56 
L 39.6 34.56 
L 39.6 256.32 
z
" style="fill: none"/>
   </g>
   <g id="PathCollection_1">
    <defs>
     <path id="m556fbafb0f" d="M 0 3 
C 0.795609 3 1.55874 2.683901 2.12132 2.12132 
C 2.683901 1.55874 3 0.795609 3 0 
C 3 -0.795609 2.683901 -1.55874 2.12132 -2.12132 
C 1.55874 -2.683901 0.795609 -3 0 -3 
C -0.795609 -3 -1.55874 -2.683901 -2.12132 -2.12132 
C -2.683901 -1.55874 -3 -0.795609 -3 0 
C -3 0.795609 -2.683901 1.55874 -2.12132 2.12132 
C -1.55874 2.683901 -0.795609 3 0 3 
z
" style="stroke: #000000"/>
    </defs>
    <g clip-path="url(#p6de65bf817)">
     <use xlink:href="#m556fbafb0f" x="51.694599" y="244.505371" style="stroke: #000000"/>
     <use xlink:href="#m556fbafb0f" x="92.11538" y="188.755813" style="stroke: #000000"/>
     <use xlink:href="#m556fbafb0f" x="80.995605" y="221.556693" style="stroke: #000000"/>
     <use xlink:href="#m556fbafb0f" x="62.454965" y="234.688348" style="stroke: #000000"/>
     <use xlink:href="#m556fbafb0f" x="54.473359" y="240.986553" style="stroke: #000000"/>
     <use xlink:href="#m556fbafb0f" x="58.322804" y="239.678223" style="stroke: #000000"/>
     <use xlink:href="#m556fbafb0f" x="67.422175" y="225.261968" style="stroke: #000000"/>
     <use xlink:href="#m556fbafb0f" x="61.904001" y="239.489372" style="stroke: #000000"/>
     <use xlink:href="#m556fbafb0f" x="63.80888" y="224.70905" style="stroke: #000000"/>
     <use xlink:href="#m556fbafb0f" x="68.853936" y="232.286465" style="stroke: #000000"/>
     <use xlink:href="#m556fbafb0f" x="61.80064" y="229.989429" style="stroke: #000000"/>
     <use xlink:href="#m556fbafb0f" x="123.028176" y="217.616049" style="stroke: #000000"/>
     <use xlink:href="#m556fbafb0f" x="88.045308" y="212.55644" style="stroke: #000000"/>
     <use xlink:href="#m556fbafb0f" x="123.951355" y="139.109419" style="stroke: #000000"/>
     <use xlink:href="#m556fbafb0f" x="58.839593" y="239.673806" style="stroke: #000000"/>
     <use xlink:href="#m556fbafb0f" x="59.109355" y="237.781773" style="stroke: #000000"/>
     <use xlink:href="#m556fbafb0f" x="79.89557" y="224.234562" style="stroke: #000000"/>
     <use xlink:href="#m556fbafb0f" x="59.054185" y="237.597969" style="stroke: #000000"/>
     <use xlink:href="#m556fbafb0f" x="55.602457" y="242.406822" style="stroke: #000000"/>
     <use xlink:href="#m556fbafb0f" x="100.882399" y="200.195577" style="stroke: #000000"/>
     <use xlink:href="#m556fbafb0f" x="115.946736" y="212.604954" style="stroke: #000000"/>
     <use xlink:href="#m556fbafb0f" x="72.163158" y="224.172453" style="stroke: #000000"/>
     <use xlink:href="#m556fbafb0f" x="78.064726" y="222.461828" style="stroke: #000000"/>
     <use xlink:href="#m556fbafb0f" x="55.285597" y="237.419154" style="stroke: #000000"/>
     <use xlink:href="#m556fbafb0f" x="83.511746" y="214.541341" style="stroke: #000000"/>
     <use xlink:href="#m556fbafb0f" x="83.887981" y="190.702545" style="stroke: #000000"/>
     <use xlink:href="#m556fbafb0f" x="63.381564" y="208.722077" style="stroke: #000000"/>
     <use xlink:href="#m556fbafb0f" x="67.772458" y="227.631619" style="stroke: #000000"/>
     <use xlink:href="#m556fbafb0f" x="68.224628" y="228.213675" style="stroke: #000000"/>
     <use xlink:href="#m556fbafb0f" x="67.809568" y="232.226611" style="stroke: #000000"/>
     <use xlink:href="#m556fbafb0f" x="82.995753" y="222.078048" style="stroke: #000000"/>
     <use xlink:href="#m556fbafb0f" x="70.453114" y="221.829238" style="stroke: #000000"/>
     <use xlink:href="#m556fbafb0f" x="58.392056" y="241.699618" style="stroke: #000000"/>
     <use xlink:href="#m556fbafb0f" x="70.54596" y="215.39506" style="stroke: #000000"/>
     <use xlink:href="#m556fbafb0f" x="57.730602" y="238.639787" style="stroke: #000000"/>
     <use xlink:href="#m556fbafb0f" x="52.012255" y="243.924143" style="stroke: #000000"/>
     <use xlink:href="#m556fbafb0f" x="54.080367" y="238.349353" style="stroke: #000000"/>
     <use xlink:href="#m556fbafb0f" x="74.95951" y="229.150698" style="stroke: #000000"/>
     <use xlink:href="#m556fbafb0f" x="110.224468" y="204.555574" style="stroke: #000000"/>
     <use xlink:href="#m556fbafb0f" x="65.247672" y="225.258195" style="stroke: #000000"/>
     <use xlink:href="#m556fbafb0f" x="65.222948" y="230.084668" style="stroke: #000000"/>
     <use xlink:href="#m556fbafb0f" x="91.155846" y="200.795426" style="stroke: #000000"/>
     <use xlink:href="#m556fbafb0f" x="58.806152" y="239.087357" style="stroke: #000000"/>
     <use xlink:href="#m556fbafb0f" x="69.401383" y="233.545674" style="stroke: #000000"/>
     <use xlink:href="#m556fbafb0f" x="74.343084" y="219.937673" style="stroke: #000000"/>
     <use xlink:href="#m556fbafb0f" x="72.912145" y="223.337723" style="stroke: #000000"/>
     <use xlink:href="#m556fbafb0f" x="50.76" y="246.104719" style="stroke: #000000"/>
     <use xlink:href="#m556fbafb0f" x="63.39598" y="235.901768" style="stroke: #000000"/>
     <use xlink:href="#m556fbafb0f" x="69.439479" y="228.338148" style="stroke: #000000"/>
     <use xlink:href="#m556fbafb0f" x="58.820017" y="239.066245" style="stroke: #000000"/>
     <use xlink:href="#m556fbafb0f" x="82.146576" y="213.397498" style="stroke: #000000"/>
     <use xlink:href="#m556fbafb0f" x="123.540663" y="187.628847" style="stroke: #000000"/>
     <use xlink:href="#m556fbafb0f" x="82.325423" y="214.522723" style="stroke: #000000"/>
     <use xlink:href="#m556fbafb0f" x="77.496965" y="224.989653" style="stroke: #000000"/>
     <use xlink:href="#m556fbafb0f" x="75.201553" y="215.375056" style="stroke: #000000"/>
     <use xlink:href="#m556fbafb0f" x="64.435395" y="234.79512" style="stroke: #000000"/>
     <use xlink:href="#m556fbafb0f" x="58.131645" y="239.089009" style="stroke: #000000"/>
     <use xlink:href="#m556fbafb0f" x="61.920031" y="237.435782" style="stroke: #000000"/>
     <use xlink:href="#m556fbafb0f" x="59.24973" y="238.330079" style="stroke: #000000"/>
     <use xlink:href="#m556fbafb0f" x="81.298446" y="213.538715" style="stroke: #000000"/>
     <use xlink:href="#m556fbafb0f" x="58.781169" y="241.230124" style="stroke: #000000"/>
     <use xlink:href="#m556fbafb0f" x="57.944896" y="228.275064" style="stroke: #000000"/>
     <use xlink:href="#m556fbafb0f" x="78.507319" y="212.92212" style="stroke: #000000"/>
     <use xlink:href="#m556fbafb0f" x="72.570385" y="228.753495" style="stroke: #000000"/>
     <use xlink:href="#m556fbafb0f" x="71.941406" y="233.901677" style="stroke: #000000"/>
     <use xlink:href="#m556fbafb0f" x="100.083876" y="213.750524" style="stroke: #000000"/>
     <use xlink:href="#m556fbafb0f" x="53.703607" y="243.406886" style="stroke: #000000"/>
     <use xlink:href="#m556fbafb0f" x="74.789575" y="224.208768" style="stroke: #000000"/>
     <use xlink:href="#m556fbafb0f" x="62.719263" y="233.020146" style="stroke: #000000"/>
     <use xlink:href="#m556fbafb0f" x="157.462716" y="167.654558" style="stroke: #000000"/>
     <use xlink:href="#m556fbafb0f" x="65.848291" y="234.597615" style="stroke: #000000"/>
     <use xlink:href="#m556fbafb0f" x="61.934185" y="237.230446" style="stroke: #000000"/>
     <use xlink:href="#m556fbafb0f" x="70.01553" y="229.799786" style="stroke: #000000"/>
     <use xlink:href="#m556fbafb0f" x="84.242456" y="230.952031" style="stroke: #000000"/>
     <use xlink:href="#m556fbafb0f" x="55.983955" y="239.424145" style="stroke: #000000"/>
     <use xlink:href="#m556fbafb0f" x="57.860682" y="240.588028" style="stroke: #000000"/>
     <use xlink:href="#m556fbafb0f" x="74.308318" y="209.446594" style="stroke: #000000"/>
     <use xlink:href="#m556fbafb0f" x="81.583172" y="222.117291" style="stroke: #000000"/>
     <use xlink:href="#m556fbafb0f" x="56.257597" y="242.971672" style="stroke: #000000"/>
     <use xlink:href="#m556fbafb0f" x="69.179869" y="233.362177" style="stroke: #000000"/>
     <use xlink:href="#m556fbafb0f" x="65.915038" y="229.205924" style="stroke: #000000"/>
     <use xlink:href="#m556fbafb0f" x="83.250493" y="218.118627" style="stroke: #000000"/>
     <use xlink:href="#m556fbafb0f" x="51.225565" y="246.24" style="stroke: #000000"/>
     <use xlink:href="#m556fbafb0f" x="83.411128" y="229.643653" style="stroke: #000000"/>
     <use xlink:href="#m556fbafb0f" x="68.637735" y="235.954652" style="stroke: #000000"/>
     <use xlink:href="#m556fbafb0f" x="87.855126" y="215.845791" style="stroke: #000000"/>
     <use xlink:href="#m556fbafb0f" x="54.516469" y="243.236234" style="stroke: #000000"/>
     <use xlink:href="#m556fbafb0f" x="62.934819" y="230.53835" style="stroke: #000000"/>
     <use xlink:href="#m556fbafb0f" x="52.587119" y="242.317206" style="stroke: #000000"/>
     <use xlink:href="#m556fbafb0f" x="75.960292" y="233.152555" style="stroke: #000000"/>
     <use xlink:href="#m556fbafb0f" x="273.96" y="173.99029" style="stroke: #000000"/>
     <use xlink:href="#m556fbafb0f" x="80.911429" y="215.99516" style="stroke: #000000"/>
     <use xlink:href="#m556fbafb0f" x="55.1645" y="242.429514" style="stroke: #000000"/>
     <use xlink:href="#m556fbafb0f" x="68.609888" y="236.290557" style="stroke: #000000"/>
     <use xlink:href="#m556fbafb0f" x="167.924458" y="139.410881" style="stroke: #000000"/>
     <use xlink:href="#m556fbafb0f" x="61.382782" y="237.947429" style="stroke: #000000"/>
     <use xlink:href="#m556fbafb0f" x="58.169433" y="239.317812" style="stroke: #000000"/>
     <use xlink:href="#m556fbafb0f" x="69.153788" y="226.327935" style="stroke: #000000"/>
     <use xlink:href="#m556fbafb0f" x="58.849168" y="239.946791" style="stroke: #000000"/>
     <use xlink:href="#m556fbafb0f" x="103.173382" y="211.755541" style="stroke: #000000"/>
    </g>
   </g>
   <g id="matplotlib.axis_1">
    <g id="xtick_1">
     <g id="line2d_1">
      <defs>
       <path id="mef71680285" d="M 0 0 
L 0 -3.5 
" style="stroke: #000000; stroke-width: 0.8"/>
      </defs>
      <g>
       <use xlink:href="#mef71680285" x="45.671687" y="256.32" style="stroke: #000000; stroke-width: 0.8"/>
      </g>
     </g>
     <g id="text_1">
      <!-- 0 -->
      <g transform="translate(40.666843 272.704063) scale(0.18 -0.18)">
       <defs>
        <path id="ArialMT-30" d="M 266 2259 
Q 266 3072 433 3567 
Q 600 4063 929 4331 
Q 1259 4600 1759 4600 
Q 2128 4600 2406 4451 
Q 2684 4303 2865 4023 
Q 3047 3744 3150 3342 
Q 3253 2941 3253 2259 
Q 3253 1453 3087 958 
Q 2922 463 2592 192 
Q 2263 -78 1759 -78 
Q 1097 -78 719 397 
Q 266 969 266 2259 
z
M 844 2259 
Q 844 1131 1108 757 
Q 1372 384 1759 384 
Q 2147 384 2411 759 
Q 2675 1134 2675 2259 
Q 2675 3391 2411 3762 
Q 2147 4134 1753 4134 
Q 1366 4134 1134 3806 
Q 844 3388 844 2259 
z
" transform="scale(0.015625)"/>
       </defs>
       <use xlink:href="#ArialMT-30"/>
      </g>
     </g>
    </g>
    <g id="xtick_2">
     <g id="line2d_2">
      <g>
       <use xlink:href="#mef71680285" x="142.523811" y="256.32" style="stroke: #000000; stroke-width: 0.8"/>
      </g>
     </g>
     <g id="text_2">
      <!-- 1 -->
      <g transform="translate(137.518967 272.704063) scale(0.18 -0.18)">
       <defs>
        <path id="ArialMT-31" d="M 2384 0 
L 1822 0 
L 1822 3584 
Q 1619 3391 1289 3197 
Q 959 3003 697 2906 
L 697 3450 
Q 1169 3672 1522 3987 
Q 1875 4303 2022 4600 
L 2384 4600 
L 2384 0 
z
" transform="scale(0.015625)"/>
       </defs>
       <use xlink:href="#ArialMT-31"/>
      </g>
     </g>
    </g>
    <g id="xtick_3">
     <g id="line2d_3">
      <g>
       <use xlink:href="#mef71680285" x="239.375935" y="256.32" style="stroke: #000000; stroke-width: 0.8"/>
      </g>
     </g>
     <g id="text_3">
      <!-- 2 -->
      <g transform="translate(234.371091 272.704063) scale(0.18 -0.18)">
       <defs>
        <path id="ArialMT-32" d="M 3222 541 
L 3222 0 
L 194 0 
Q 188 203 259 391 
Q 375 700 629 1000 
Q 884 1300 1366 1694 
Q 2113 2306 2375 2664 
Q 2638 3022 2638 3341 
Q 2638 3675 2398 3904 
Q 2159 4134 1775 4134 
Q 1369 4134 1125 3890 
Q 881 3647 878 3216 
L 300 3275 
Q 359 3922 746 4261 
Q 1134 4600 1788 4600 
Q 2447 4600 2831 4234 
Q 3216 3869 3216 3328 
Q 3216 3053 3103 2787 
Q 2991 2522 2730 2228 
Q 2469 1934 1863 1422 
Q 1356 997 1212 845 
Q 1069 694 975 541 
L 3222 541 
z
" transform="scale(0.015625)"/>
       </defs>
       <use xlink:href="#ArialMT-32"/>
      </g>
     </g>
    </g>
    <g id="text_4">
     <!-- $Q_{\mathrm{FEM}}$ -->
     <g transform="translate(141.93 293.264063) scale(0.18 -0.18)">
      <defs>
       <path id="DejaVuSans-Oblique-51" d="M 2309 -84 
Q 2275 -88 2237 -89 
Q 2200 -91 2125 -91 
Q 1250 -91 756 411 
Q 263 913 263 1797 
Q 263 2319 452 2844 
Q 641 3369 978 3788 
Q 1369 4269 1858 4509 
Q 2347 4750 2938 4750 
Q 3794 4750 4287 4245 
Q 4781 3741 4781 2869 
Q 4781 1928 4265 1147 
Q 3750 366 2919 44 
L 3553 -825 
L 2847 -825 
L 2309 -84 
z
M 2919 4238 
Q 2400 4238 2003 3986 
Q 1606 3734 1313 3219 
Q 1125 2891 1026 2522 
Q 928 2153 928 1778 
Q 928 1128 1239 775 
Q 1550 422 2119 422 
Q 2631 422 3032 676 
Q 3434 931 3719 1434 
Q 3909 1772 4009 2142 
Q 4109 2513 4109 2881 
Q 4109 3528 3796 3883 
Q 3484 4238 2919 4238 
z
" transform="scale(0.015625)"/>
       <path id="DejaVuSans-46" d="M 628 4666 
L 3309 4666 
L 3309 4134 
L 1259 4134 
L 1259 2759 
L 3109 2759 
L 3109 2228 
L 1259 2228 
L 1259 0 
L 628 0 
L 628 4666 
z
" transform="scale(0.015625)"/>
       <path id="DejaVuSans-45" d="M 628 4666 
L 3578 4666 
L 3578 4134 
L 1259 4134 
L 1259 2753 
L 3481 2753 
L 3481 2222 
L 1259 2222 
L 1259 531 
L 3634 531 
L 3634 0 
L 628 0 
L 628 4666 
z
" transform="scale(0.015625)"/>
       <path id="DejaVuSans-4d" d="M 628 4666 
L 1569 4666 
L 2759 1491 
L 3956 4666 
L 4897 4666 
L 4897 0 
L 4281 0 
L 4281 4097 
L 3078 897 
L 2444 897 
L 1241 4097 
L 1241 0 
L 628 0 
L 628 4666 
z
" transform="scale(0.015625)"/>
      </defs>
      <use xlink:href="#DejaVuSans-Oblique-51" transform="translate(0 0.78125)"/>
      <use xlink:href="#DejaVuSans-46" transform="translate(78.710938 -15.625) scale(0.7)"/>
      <use xlink:href="#DejaVuSans-45" transform="translate(118.974609 -15.625) scale(0.7)"/>
      <use xlink:href="#DejaVuSans-4d" transform="translate(163.203125 -15.625) scale(0.7)"/>
     </g>
    </g>
    <g id="text_5">
     <!-- 1e8 -->
     <g transform="translate(255.090937 292.165625) scale(0.18 -0.18)">
      <defs>
       <path id="ArialMT-65" d="M 2694 1069 
L 3275 997 
Q 3138 488 2766 206 
Q 2394 -75 1816 -75 
Q 1088 -75 661 373 
Q 234 822 234 1631 
Q 234 2469 665 2931 
Q 1097 3394 1784 3394 
Q 2450 3394 2872 2941 
Q 3294 2488 3294 1666 
Q 3294 1616 3291 1516 
L 816 1516 
Q 847 969 1125 678 
Q 1403 388 1819 388 
Q 2128 388 2347 550 
Q 2566 713 2694 1069 
z
M 847 1978 
L 2700 1978 
Q 2663 2397 2488 2606 
Q 2219 2931 1791 2931 
Q 1403 2931 1139 2672 
Q 875 2413 847 1978 
z
" transform="scale(0.015625)"/>
       <path id="ArialMT-38" d="M 1131 2484 
Q 781 2613 612 2850 
Q 444 3088 444 3419 
Q 444 3919 803 4259 
Q 1163 4600 1759 4600 
Q 2359 4600 2725 4251 
Q 3091 3903 3091 3403 
Q 3091 3084 2923 2848 
Q 2756 2613 2416 2484 
Q 2838 2347 3058 2040 
Q 3278 1734 3278 1309 
Q 3278 722 2862 322 
Q 2447 -78 1769 -78 
Q 1091 -78 675 323 
Q 259 725 259 1325 
Q 259 1772 486 2073 
Q 713 2375 1131 2484 
z
M 1019 3438 
Q 1019 3113 1228 2906 
Q 1438 2700 1772 2700 
Q 2097 2700 2305 2904 
Q 2513 3109 2513 3406 
Q 2513 3716 2298 3927 
Q 2084 4138 1766 4138 
Q 1444 4138 1231 3931 
Q 1019 3725 1019 3438 
z
M 838 1322 
Q 838 1081 952 856 
Q 1066 631 1291 507 
Q 1516 384 1775 384 
Q 2178 384 2440 643 
Q 2703 903 2703 1303 
Q 2703 1709 2433 1975 
Q 2163 2241 1756 2241 
Q 1359 2241 1098 1978 
Q 838 1716 838 1322 
z
" transform="scale(0.015625)"/>
      </defs>
      <use xlink:href="#ArialMT-31"/>
      <use xlink:href="#ArialMT-65" x="55.615234"/>
      <use xlink:href="#ArialMT-38" x="111.230469"/>
     </g>
    </g>
   </g>
   <g id="matplotlib.axis_2">
    <g id="ytick_1">
     <g id="line2d_4">
      <defs>
       <path id="m44492f9c81" d="M 0 0 
L 3.5 0 
" style="stroke: #000000; stroke-width: 0.8"/>
      </defs>
      <g>
       <use xlink:href="#m44492f9c81" x="39.6" y="250.153229" style="stroke: #000000; stroke-width: 0.8"/>
      </g>
     </g>
     <g id="text_6">
      <!-- 0 -->
      <g transform="translate(26.090313 256.595261) scale(0.18 -0.18)">
       <use xlink:href="#ArialMT-30"/>
      </g>
     </g>
    </g>
    <g id="ytick_2">
     <g id="line2d_5">
      <g>
       <use xlink:href="#m44492f9c81" x="39.6" y="179.491026" style="stroke: #000000; stroke-width: 0.8"/>
      </g>
     </g>
     <g id="text_7">
      <!-- 1 -->
      <g transform="translate(26.090313 185.933057) scale(0.18 -0.18)">
       <use xlink:href="#ArialMT-31"/>
      </g>
     </g>
    </g>
    <g id="ytick_3">
     <g id="line2d_6">
      <g>
       <use xlink:href="#m44492f9c81" x="39.6" y="108.828822" style="stroke: #000000; stroke-width: 0.8"/>
      </g>
     </g>
     <g id="text_8">
      <!-- 2 -->
      <g transform="translate(26.090313 115.270853) scale(0.18 -0.18)">
       <use xlink:href="#ArialMT-32"/>
      </g>
     </g>
    </g>
    <g id="ytick_4">
     <g id="line2d_7">
      <g>
       <use xlink:href="#m44492f9c81" x="39.6" y="38.166619" style="stroke: #000000; stroke-width: 0.8"/>
      </g>
     </g>
     <g id="text_9">
      <!-- 3 -->
      <g transform="translate(26.090313 44.60865) scale(0.18 -0.18)">
       <defs>
        <path id="ArialMT-33" d="M 269 1209 
L 831 1284 
Q 928 806 1161 595 
Q 1394 384 1728 384 
Q 2125 384 2398 659 
Q 2672 934 2672 1341 
Q 2672 1728 2419 1979 
Q 2166 2231 1775 2231 
Q 1616 2231 1378 2169 
L 1441 2663 
Q 1497 2656 1531 2656 
Q 1891 2656 2178 2843 
Q 2466 3031 2466 3422 
Q 2466 3731 2256 3934 
Q 2047 4138 1716 4138 
Q 1388 4138 1169 3931 
Q 950 3725 888 3313 
L 325 3413 
Q 428 3978 793 4289 
Q 1159 4600 1703 4600 
Q 2078 4600 2393 4439 
Q 2709 4278 2876 4000 
Q 3044 3722 3044 3409 
Q 3044 3113 2884 2869 
Q 2725 2625 2413 2481 
Q 2819 2388 3044 2092 
Q 3269 1797 3269 1353 
Q 3269 753 2831 336 
Q 2394 -81 1725 -81 
Q 1122 -81 723 278 
Q 325 638 269 1209 
z
" transform="scale(0.015625)"/>
       </defs>
       <use xlink:href="#ArialMT-33"/>
      </g>
     </g>
    </g>
    <g id="text_10">
     <!-- $Q_{\mathrm{NN}}$ -->
     <g transform="translate(18.512813 162.27) rotate(-90) scale(0.18 -0.18)">
      <defs>
       <path id="DejaVuSans-4e" d="M 628 4666 
L 1478 4666 
L 3547 763 
L 3547 4666 
L 4159 4666 
L 4159 0 
L 3309 0 
L 1241 3903 
L 1241 0 
L 628 0 
L 628 4666 
z
" transform="scale(0.015625)"/>
      </defs>
      <use xlink:href="#DejaVuSans-Oblique-51" transform="translate(0 0.78125)"/>
      <use xlink:href="#DejaVuSans-4e" transform="translate(78.710938 -15.625) scale(0.7)"/>
      <use xlink:href="#DejaVuSans-4e" transform="translate(131.074219 -15.625) scale(0.7)"/>
     </g>
    </g>
    <g id="text_11">
     <!-- 1e8 -->
     <g transform="translate(39.6 31.56) scale(0.18 -0.18)">
      <use xlink:href="#ArialMT-31"/>
      <use xlink:href="#ArialMT-65" x="55.615234"/>
      <use xlink:href="#ArialMT-38" x="111.230469"/>
     </g>
    </g>
   </g>
   <g id="line2d_8">
    <path d="M 51.694599 244.941868 
L 92.11538 209.06257 
L 80.995605 218.993787 
L 62.454965 235.468237 
L 54.473359 242.505965 
L 58.322804 239.117836 
L 67.422175 231.068157 
L 61.904001 235.955478 
L 63.80888 234.270151 
L 68.853936 229.797707 
L 61.80064 236.046859 
L 123.028176 181.33099 
L 88.045308 212.70097 
L 123.951355 180.500642 
L 58.839593 238.662039 
L 59.109355 238.424026 
L 79.89557 219.974541 
L 59.054185 238.472708 
L 55.602457 241.513591 
L 100.882399 201.213853 
L 115.946736 187.69657 
L 72.163158 226.858131 
L 78.064726 221.606103 
L 55.285597 241.792212 
L 83.511746 216.749244 
L 83.887981 216.413486 
L 63.381564 234.648394 
L 67.772458 230.757434 
L 68.224628 230.356238 
L 67.809568 230.724504 
L 82.995753 217.209665 
L 70.453114 228.377705 
L 58.392056 239.05677 
L 70.54596 228.295232 
L 57.730602 239.639901 
L 52.012255 244.663935 
L 54.080367 242.851046 
L 74.95951 224.370999 
L 110.224468 192.835289 
L 65.247672 232.995901 
L 65.222948 233.017815 
L 91.155846 209.920655 
L 58.806152 238.691537 
L 69.401383 229.311728 
L 74.343084 224.919488 
L 72.912145 226.192256 
L 50.76 245.75862 
L 63.39598 234.635638 
L 69.439479 229.277903 
L 58.820017 238.679299 
L 82.146576 217.967274 
L 123.540663 180.87003 
L 82.325423 217.807716 
L 77.496965 222.111872 
L 75.201553 224.155587 
L 64.435395 233.715419 
L 58.131645 239.286383 
L 61.920031 235.941301 
L 59.24973 238.300158 
L 81.298446 218.723719 
L 58.781169 238.713577 
L 57.944896 239.451017 
L 78.507319 221.2118 
L 72.570385 226.496117 
L 71.941406 227.055259 
L 100.083876 201.929294 
L 53.703607 243.181712 
L 74.789575 224.522228 
L 62.719263 235.234426 
L 157.462716 150.295359 
L 65.848291 232.463663 
L 61.934185 235.928796 
L 70.01553 228.766367 
L 84.242456 216.097094 
L 55.983955 241.178008 
L 57.860682 239.525257 
L 74.308318 224.950418 
L 81.583172 218.469787 
L 56.257597 240.937215 
L 69.179869 229.50839 
L 65.915038 232.404501 
L 83.250493 216.982384 
L 51.225565 245.351948 
L 83.411128 216.839019 
L 68.637735 229.989606 
L 87.855126 212.870907 
L 54.516469 242.468096 
L 62.934819 235.043731 
L 52.587119 244.160583 
L 75.960292 223.480226 
L 273.96 44.64 
L 80.911429 219.068858 
L 55.1645 241.898669 
L 68.609888 230.01432 
L 167.924458 140.843843 
L 61.382782 236.416255 
L 58.169433 239.253067 
L 69.153788 229.531542 
L 58.849168 238.653583 
L 103.173382 199.160489 
" clip-path="url(#p6de65bf817)" style="fill: none; stroke: #0000ff; stroke-width: 1.5; stroke-linecap: square"/>
   </g>
   <g id="patch_3">
    <path d="M 39.6 256.32 
L 39.6 34.56 
" style="fill: none; stroke: #000000; stroke-width: 0.8; stroke-linejoin: miter; stroke-linecap: square"/>
   </g>
   <g id="patch_4">
    <path d="M 285.12 256.32 
L 285.12 34.56 
" style="fill: none; stroke: #000000; stroke-width: 0.8; stroke-linejoin: miter; stroke-linecap: square"/>
   </g>
   <g id="patch_5">
    <path d="M 39.6 256.32 
L 285.12 256.32 
" style="fill: none; stroke: #000000; stroke-width: 0.8; stroke-linejoin: miter; stroke-linecap: square"/>
   </g>
   <g id="patch_6">
    <path d="M 39.6 34.56 
L 285.12 34.56 
" style="fill: none; stroke: #000000; stroke-width: 0.8; stroke-linejoin: miter; stroke-linecap: square"/>
   </g>
   <g id="text_12">
    <!-- $\mathrm{R}^2 = $0.517 -->
    <g transform="translate(51.876 83.3472) scale(0.18 -0.18)">
     <defs>
      <path id="DejaVuSans-52" d="M 2841 2188 
Q 3044 2119 3236 1894 
Q 3428 1669 3622 1275 
L 4263 0 
L 3584 0 
L 2988 1197 
Q 2756 1666 2539 1819 
Q 2322 1972 1947 1972 
L 1259 1972 
L 1259 0 
L 628 0 
L 628 4666 
L 2053 4666 
Q 2853 4666 3247 4331 
Q 3641 3997 3641 3322 
Q 3641 2881 3436 2590 
Q 3231 2300 2841 2188 
z
M 1259 4147 
L 1259 2491 
L 2053 2491 
Q 2509 2491 2742 2702 
Q 2975 2913 2975 3322 
Q 2975 3731 2742 3939 
Q 2509 4147 2053 4147 
L 1259 4147 
z
" transform="scale(0.015625)"/>
      <path id="DejaVuSans-32" d="M 1228 531 
L 3431 531 
L 3431 0 
L 469 0 
L 469 531 
Q 828 903 1448 1529 
Q 2069 2156 2228 2338 
Q 2531 2678 2651 2914 
Q 2772 3150 2772 3378 
Q 2772 3750 2511 3984 
Q 2250 4219 1831 4219 
Q 1534 4219 1204 4116 
Q 875 4013 500 3803 
L 500 4441 
Q 881 4594 1212 4672 
Q 1544 4750 1819 4750 
Q 2544 4750 2975 4387 
Q 3406 4025 3406 3419 
Q 3406 3131 3298 2873 
Q 3191 2616 2906 2266 
Q 2828 2175 2409 1742 
Q 1991 1309 1228 531 
z
" transform="scale(0.015625)"/>
      <path id="DejaVuSans-3d" d="M 678 2906 
L 4684 2906 
L 4684 2381 
L 678 2381 
L 678 2906 
z
M 678 1631 
L 4684 1631 
L 4684 1100 
L 678 1100 
L 678 1631 
z
" transform="scale(0.015625)"/>
      <path id="ArialMT-2e" d="M 581 0 
L 581 641 
L 1222 641 
L 1222 0 
L 581 0 
z
" transform="scale(0.015625)"/>
      <path id="ArialMT-35" d="M 266 1200 
L 856 1250 
Q 922 819 1161 601 
Q 1400 384 1738 384 
Q 2144 384 2425 690 
Q 2706 997 2706 1503 
Q 2706 1984 2436 2262 
Q 2166 2541 1728 2541 
Q 1456 2541 1237 2417 
Q 1019 2294 894 2097 
L 366 2166 
L 809 4519 
L 3088 4519 
L 3088 3981 
L 1259 3981 
L 1013 2750 
Q 1425 3038 1878 3038 
Q 2478 3038 2890 2622 
Q 3303 2206 3303 1553 
Q 3303 931 2941 478 
Q 2500 -78 1738 -78 
Q 1113 -78 717 272 
Q 322 622 266 1200 
z
" transform="scale(0.015625)"/>
      <path id="ArialMT-37" d="M 303 3981 
L 303 4522 
L 3269 4522 
L 3269 4084 
Q 2831 3619 2401 2847 
Q 1972 2075 1738 1259 
Q 1569 684 1522 0 
L 944 0 
Q 953 541 1156 1306 
Q 1359 2072 1739 2783 
Q 2119 3494 2547 3981 
L 303 3981 
z
" transform="scale(0.015625)"/>
     </defs>
     <use xlink:href="#DejaVuSans-52" transform="translate(0 0.765625)"/>
     <use xlink:href="#DejaVuSans-32" transform="translate(70.439453 39.046875) scale(0.7)"/>
     <use xlink:href="#DejaVuSans-3d" transform="translate(137.192383 0.765625)"/>
     <use xlink:href="#ArialMT-30" transform="translate(240.463867 0.765625)"/>
     <use xlink:href="#ArialMT-2e" transform="translate(296.079102 0.765625)"/>
     <use xlink:href="#ArialMT-35" transform="translate(323.862305 0.765625)"/>
     <use xlink:href="#ArialMT-31" transform="translate(379.477539 0.765625)"/>
     <use xlink:href="#ArialMT-37" transform="translate(435.092773 0.765625)"/>
    </g>
   </g>
   <g id="text_13">
    <!-- $Q_{\mathrm{NN}} = $0.959$Q_{\mathrm{FEM}}$ -->
    <g transform="translate(51.876 56.736) scale(0.18 -0.18)">
     <defs>
      <path id="ArialMT-39" d="M 350 1059 
L 891 1109 
Q 959 728 1153 556 
Q 1347 384 1650 384 
Q 1909 384 2104 503 
Q 2300 622 2425 820 
Q 2550 1019 2634 1356 
Q 2719 1694 2719 2044 
Q 2719 2081 2716 2156 
Q 2547 1888 2255 1720 
Q 1963 1553 1622 1553 
Q 1053 1553 659 1965 
Q 266 2378 266 3053 
Q 266 3750 677 4175 
Q 1088 4600 1706 4600 
Q 2153 4600 2523 4359 
Q 2894 4119 3086 3673 
Q 3278 3228 3278 2384 
Q 3278 1506 3087 986 
Q 2897 466 2520 194 
Q 2144 -78 1638 -78 
Q 1100 -78 759 220 
Q 419 519 350 1059 
z
M 2653 3081 
Q 2653 3566 2395 3850 
Q 2138 4134 1775 4134 
Q 1400 4134 1122 3828 
Q 844 3522 844 3034 
Q 844 2597 1108 2323 
Q 1372 2050 1759 2050 
Q 2150 2050 2401 2323 
Q 2653 2597 2653 3081 
z
" transform="scale(0.015625)"/>
     </defs>
     <use xlink:href="#DejaVuSans-Oblique-51" transform="translate(0 0.78125)"/>
     <use xlink:href="#DejaVuSans-4e" transform="translate(78.710938 -15.625) scale(0.7)"/>
     <use xlink:href="#DejaVuSans-4e" transform="translate(131.074219 -15.625) scale(0.7)"/>
     <use xlink:href="#DejaVuSans-3d" transform="translate(205.654297 0.78125)"/>
     <use xlink:href="#ArialMT-30" transform="translate(308.925781 0.78125)"/>
     <use xlink:href="#ArialMT-2e" transform="translate(364.541016 0.78125)"/>
     <use xlink:href="#ArialMT-39" transform="translate(392.324219 0.78125)"/>
     <use xlink:href="#ArialMT-35" transform="translate(447.939453 0.78125)"/>
     <use xlink:href="#ArialMT-39" transform="translate(501.804688 0.78125)"/>
     <use xlink:href="#DejaVuSans-Oblique-51" transform="translate(557.419922 0.78125)"/>
     <use xlink:href="#DejaVuSans-46" transform="translate(636.130859 -15.625) scale(0.7)"/>
     <use xlink:href="#DejaVuSans-45" transform="translate(676.394531 -15.625) scale(0.7)"/>
     <use xlink:href="#DejaVuSans-4d" transform="translate(720.623047 -15.625) scale(0.7)"/>
    </g>
   </g>
  </g>
 </g>
 <defs>
  <clipPath id="p6de65bf817">
   <rect x="39.6" y="34.56" width="245.52" height="221.76"/>
  </clipPath>
 </defs>
</svg>
