<?xml version="1.0" encoding="utf-8" standalone="no"?>
<!DOCTYPE svg PUBLIC "-//W3C//DTD SVG 1.1//EN"
  "http://www.w3.org/Graphics/SVG/1.1/DTD/svg11.dtd">
<svg xmlns:xlink="http://www.w3.org/1999/xlink" width="316.8pt" height="288pt" viewBox="0 0 316.8 288" xmlns="http://www.w3.org/2000/svg" version="1.1">
 <metadata>
  <rdf:RDF xmlns:dc="http://purl.org/dc/elements/1.1/" xmlns:cc="http://creativecommons.org/ns#" xmlns:rdf="http://www.w3.org/1999/02/22-rdf-syntax-ns#">
   <cc:Work>
    <dc:type rdf:resource="http://purl.org/dc/dcmitype/StillImage"/>
    <dc:date>2024-01-31T16:29:41.524176</dc:date>
    <dc:format>image/svg+xml</dc:format>
    <dc:creator>
     <cc:Agent>
      <dc:title>Matplotlib v3.8.2, https://matplotlib.org/</dc:title>
     </cc:Agent>
    </dc:creator>
   </cc:Work>
  </rdf:RDF>
 </metadata>
 <defs>
  <style type="text/css">*{stroke-linejoin: round; stroke-linecap: butt}</style>
 </defs>
 <g id="figure_1">
  <g id="patch_1">
   <path d="M 0 288 
L 316.8 288 
L 316.8 0 
L 0 0 
L 0 288 
z
" style="fill: none"/>
  </g>
  <g id="axes_1">
   <g id="patch_2">
    <path d="M 39.6 256.32 
L 285.12 256.32 
L 285.12 34.56 
L 39.6 34.56 
L 39.6 256.32 
z
" style="fill: none"/>
   </g>
   <g id="PathCollection_1">
    <defs>
     <path id="m071fef647a" d="M 0 3 
C 0.795609 3 1.55874 2.683901 2.12132 2.12132 
C 2.683901 1.55874 3 0.795609 3 0 
C 3 -0.795609 2.683901 -1.55874 2.12132 -2.12132 
C 1.55874 -2.683901 0.795609 -3 0 -3 
C -0.795609 -3 -1.55874 -2.683901 -2.12132 -2.12132 
C -2.683901 -1.55874 -3 -0.795609 -3 0 
C -3 0.795609 -2.683901 1.55874 -2.12132 2.12132 
C -1.55874 2.683901 -0.795609 3 0 3 
z
" style="stroke: #000000"/>
    </defs>
    <g clip-path="url(#p93992a5a2a)">
     <use xlink:href="#m071fef647a" x="60.654927" y="227.566181" style="stroke: #000000"/>
     <use xlink:href="#m071fef647a" x="180.519363" y="106.127626" style="stroke: #000000"/>
     <use xlink:href="#m071fef647a" x="164.459724" y="145.01509" style="stroke: #000000"/>
     <use xlink:href="#m071fef647a" x="120.79119" y="176.300546" style="stroke: #000000"/>
     <use xlink:href="#m071fef647a" x="82.916516" y="202.918134" style="stroke: #000000"/>
     <use xlink:href="#m071fef647a" x="104.205944" y="196.127949" style="stroke: #000000"/>
     <use xlink:href="#m071fef647a" x="136.004238" y="152.077633" style="stroke: #000000"/>
     <use xlink:href="#m071fef647a" x="118.8325" y="195.21856" style="stroke: #000000"/>
     <use xlink:href="#m071fef647a" x="125.343707" y="150.959477" style="stroke: #000000"/>
     <use xlink:href="#m071fef647a" x="139.745149" y="168.952903" style="stroke: #000000"/>
     <use xlink:href="#m071fef647a" x="118.457655" y="162.797402" style="stroke: #000000"/>
     <use xlink:href="#m071fef647a" x="210.457091" y="138.444736" style="stroke: #000000"/>
     <use xlink:href="#m071fef647a" x="175.137522" y="131.088711" style="stroke: #000000"/>
     <use xlink:href="#m071fef647a" x="211.153241" y="75.969825" style="stroke: #000000"/>
     <use xlink:href="#m071fef647a" x="106.555329" y="196.106491" style="stroke: #000000"/>
     <use xlink:href="#m071fef647a" x="107.745323" y="187.659133" style="stroke: #000000"/>
     <use xlink:href="#m071fef647a" x="162.603282" y="150.019131" style="stroke: #000000"/>
     <use xlink:href="#m071fef647a" x="107.50391" y="186.908555" style="stroke: #000000"/>
     <use xlink:href="#m071fef647a" x="89.999011" y="211.485969" style="stroke: #000000"/>
     <use xlink:href="#m071fef647a" x="190.666141" y="116.621639" style="stroke: #000000"/>
     <use xlink:href="#m071fef647a" x="204.823335" y="131.154426" style="stroke: #000000"/>
     <use xlink:href="#m071fef647a" x="147.575208" y="149.897313" style="stroke: #000000"/>
     <use xlink:href="#m071fef647a" x="159.377025" y="146.652034" style="stroke: #000000"/>
     <use xlink:href="#m071fef647a" x="88.09618" y="186.188822" style="stroke: #000000"/>
     <use xlink:href="#m071fef647a" x="168.497393" y="133.849176" style="stroke: #000000"/>
     <use xlink:href="#m071fef647a" x="169.077959" y="107.767476" style="stroke: #000000"/>
     <use xlink:href="#m071fef647a" x="123.944642" y="126.146138" style="stroke: #000000"/>
     <use xlink:href="#m071fef647a" x="136.941737" y="157.169182" style="stroke: #000000"/>
     <use xlink:href="#m071fef647a" x="138.130185" y="158.501805" style="stroke: #000000"/>
     <use xlink:href="#m071fef647a" x="137.040184" y="168.782693" style="stroke: #000000"/>
     <use xlink:href="#m071fef647a" x="167.691715" y="145.951524" style="stroke: #000000"/>
     <use xlink:href="#m071fef647a" x="143.659567" y="145.502474" style="stroke: #000000"/>
     <use xlink:href="#m071fef647a" x="104.526283" y="207.039609" style="stroke: #000000"/>
     <use xlink:href="#m071fef647a" x="143.87901" y="135.084121" style="stroke: #000000"/>
     <use xlink:href="#m071fef647a" x="101.392739" y="191.317252" style="stroke: #000000"/>
     <use xlink:href="#m071fef647a" x="63.670954" y="222.580915" style="stroke: #000000"/>
     <use xlink:href="#m071fef647a" x="80.236162" y="190.049338" style="stroke: #000000"/>
     <use xlink:href="#m071fef647a" x="153.463714" y="160.723253" style="stroke: #000000"/>
     <use xlink:href="#m071fef647a" x="199.839405" y="121.269279" style="stroke: #000000"/>
     <use xlink:href="#m071fef647a" x="129.823291" y="152.069922" style="stroke: #000000"/>
     <use xlink:href="#m071fef647a" x="129.749134" y="163.038356" style="stroke: #000000"/>
     <use xlink:href="#m071fef647a" x="179.29432" y="117.23643" style="stroke: #000000"/>
     <use xlink:href="#m071fef647a" x="106.406113" y="193.335185" style="stroke: #000000"/>
     <use xlink:href="#m071fef647a" x="141.11477" y="172.67249" style="stroke: #000000"/>
     <use xlink:href="#m071fef647a" x="152.215477" y="142.212268" style="stroke: #000000"/>
     <use xlink:href="#m071fef647a" x="149.211241" y="148.287861" style="stroke: #000000"/>
     <use xlink:href="#m071fef647a" x="50.76" y="244.510295" style="stroke: #000000"/>
     <use xlink:href="#m071fef647a" x="123.992384" y="180.459237" style="stroke: #000000"/>
     <use xlink:href="#m071fef647a" x="141.2089" y="158.791375" style="stroke: #000000"/>
     <use xlink:href="#m071fef647a" x="106.468028" y="193.238178" style="stroke: #000000"/>
     <use xlink:href="#m071fef647a" x="166.34123" y="132.240172" style="stroke: #000000"/>
     <use xlink:href="#m071fef647a" x="210.844564" y="105.20192" style="stroke: #000000"/>
     <use xlink:href="#m071fef647a" x="166.628259" y="133.822577" style="stroke: #000000"/>
     <use xlink:href="#m071fef647a" x="158.339405" y="151.523864" style="stroke: #000000"/>
     <use xlink:href="#m071fef647a" x="153.94667" y="135.05484" style="stroke: #000000"/>
     <use xlink:href="#m071fef647a" x="127.33648" y="176.653148" style="stroke: #000000"/>
     <use xlink:href="#m071fef647a" x="103.312514" y="193.342785" style="stroke: #000000"/>
     <use xlink:href="#m071fef647a" x="118.890421" y="186.255319" style="stroke: #000000"/>
     <use xlink:href="#m071fef647a" x="108.355139" y="189.9663" style="stroke: #000000"/>
     <use xlink:href="#m071fef647a" x="164.960656" y="132.436086" style="stroke: #000000"/>
     <use xlink:href="#m071fef647a" x="106.294394" y="204.288755" style="stroke: #000000"/>
     <use xlink:href="#m071fef647a" x="102.426365" y="158.644411" style="stroke: #000000"/>
     <use xlink:href="#m071fef647a" x="160.173362" y="131.586154" style="stroke: #000000"/>
     <use xlink:href="#m071fef647a" x="148.470378" y="159.769719" style="stroke: #000000"/>
     <use xlink:href="#m071fef647a" x="147.081944" y="173.775335" style="stroke: #000000"/>
     <use xlink:href="#m071fef647a" x="189.811239" y="132.731356" style="stroke: #000000"/>
     <use xlink:href="#m071fef647a" x="77.546209" y="218.52102" style="stroke: #000000"/>
     <use xlink:href="#m071fef647a" x="153.122243" y="149.968504" style="stroke: #000000"/>
     <use xlink:href="#m071fef647a" x="121.708072" y="171.086955" style="stroke: #000000"/>
     <use xlink:href="#m071fef647a" x="232.063571" y="91.092703" style="stroke: #000000"/>
     <use xlink:href="#m071fef647a" x="131.596621" y="176.002818" style="stroke: #000000"/>
     <use xlink:href="#m071fef647a" x="118.941513" y="185.440144" style="stroke: #000000"/>
     <use xlink:href="#m071fef647a" x="142.61415" y="162.32097" style="stroke: #000000"/>
     <use xlink:href="#m071fef647a" x="169.619738" y="165.286961" style="stroke: #000000"/>
     <use xlink:href="#m071fef647a" x="92.211035" y="194.908203" style="stroke: #000000"/>
     <use xlink:href="#m071fef647a" x="102.022334" y="200.752231" style="stroke: #000000"/>
     <use xlink:href="#m071fef647a" x="152.144283" y="127.044015" style="stroke: #000000"/>
     <use xlink:href="#m071fef647a" x="165.427762" y="146.022715" style="stroke: #000000"/>
     <use xlink:href="#m071fef647a" x="93.747847" y="215.339332" style="stroke: #000000"/>
     <use xlink:href="#m071fef647a" x="140.564422" y="172.113245" style="stroke: #000000"/>
     <use xlink:href="#m071fef647a" x="131.790422" y="160.857253" style="stroke: #000000"/>
     <use xlink:href="#m071fef647a" x="168.09085" y="139.237" style="stroke: #000000"/>
     <use xlink:href="#m071fef647a" x="55.897463" y="246.24" style="stroke: #000000"/>
     <use xlink:href="#m071fef647a" x="168.341154" y="161.932046" style="stroke: #000000"/>
     <use xlink:href="#m071fef647a" x="139.195317" y="180.648446" style="stroke: #000000"/>
     <use xlink:href="#m071fef647a" x="174.873559" y="135.748421" style="stroke: #000000"/>
     <use xlink:href="#m071fef647a" x="83.203223" y="217.249641" style="stroke: #000000"/>
     <use xlink:href="#m071fef647a" x="122.445392" y="164.202109" style="stroke: #000000"/>
     <use xlink:href="#m071fef647a" x="68.763639" y="210.900572" style="stroke: #000000"/>
     <use xlink:href="#m071fef647a" x="155.435355" y="171.481802" style="stroke: #000000"/>
     <use xlink:href="#m071fef647a" x="273.96" y="95.159527" style="stroke: #000000"/>
     <use xlink:href="#m071fef647a" x="164.319721" y="135.970487" style="stroke: #000000"/>
     <use xlink:href="#m071fef647a" x="87.352353" y="211.63528" style="stroke: #000000"/>
     <use xlink:href="#m071fef647a" x="139.124123" y="181.866962" style="stroke: #000000"/>
     <use xlink:href="#m071fef647a" x="237.313076" y="76.108183" style="stroke: #000000"/>
     <use xlink:href="#m071fef647a" x="116.917363" y="188.345226" style="stroke: #000000"/>
     <use xlink:href="#m071fef647a" x="103.490208" y="194.40629" style="stroke: #000000"/>
     <use xlink:href="#m071fef647a" x="140.499285" y="154.305228" style="stroke: #000000"/>
     <use xlink:href="#m071fef647a" x="106.597981" y="197.449843" style="stroke: #000000"/>
     <use xlink:href="#m071fef647a" x="193.051928" y="130.01593" style="stroke: #000000"/>
    </g>
   </g>
   <g id="matplotlib.axis_1">
    <g id="xtick_1">
     <g id="line2d_1">
      <defs>
       <path id="m679c05b719" d="M 0 0 
L 0 -3.5 
" style="stroke: #000000; stroke-width: 0.8"/>
      </defs>
      <g>
       <use xlink:href="#m679c05b719" x="88.529784" y="256.32" style="stroke: #000000; stroke-width: 0.8"/>
      </g>
     </g>
     <g id="text_1">
      <!-- 7.0 -->
      <g transform="translate(76.019784 272.704063) scale(0.18 -0.18)">
       <defs>
        <path id="ArialMT-37" d="M 303 3981 
L 303 4522 
L 3269 4522 
L 3269 4084 
Q 2831 3619 2401 2847 
Q 1972 2075 1738 1259 
Q 1569 684 1522 0 
L 944 0 
Q 953 541 1156 1306 
Q 1359 2072 1739 2783 
Q 2119 3494 2547 3981 
L 303 3981 
z
" transform="scale(0.015625)"/>
        <path id="ArialMT-2e" d="M 581 0 
L 581 641 
L 1222 641 
L 1222 0 
L 581 0 
z
" transform="scale(0.015625)"/>
        <path id="ArialMT-30" d="M 266 2259 
Q 266 3072 433 3567 
Q 600 4063 929 4331 
Q 1259 4600 1759 4600 
Q 2128 4600 2406 4451 
Q 2684 4303 2865 4023 
Q 3047 3744 3150 3342 
Q 3253 2941 3253 2259 
Q 3253 1453 3087 958 
Q 2922 463 2592 192 
Q 2263 -78 1759 -78 
Q 1097 -78 719 397 
Q 266 969 266 2259 
z
M 844 2259 
Q 844 1131 1108 757 
Q 1372 384 1759 384 
Q 2147 384 2411 759 
Q 2675 1134 2675 2259 
Q 2675 3391 2411 3762 
Q 2147 4134 1753 4134 
Q 1366 4134 1134 3806 
Q 844 3388 844 2259 
z
" transform="scale(0.015625)"/>
       </defs>
       <use xlink:href="#ArialMT-37"/>
       <use xlink:href="#ArialMT-2e" x="55.615234"/>
       <use xlink:href="#ArialMT-30" x="83.398438"/>
      </g>
     </g>
    </g>
    <g id="xtick_2">
     <g id="line2d_2">
      <g>
       <use xlink:href="#m679c05b719" x="156.087951" y="256.32" style="stroke: #000000; stroke-width: 0.8"/>
      </g>
     </g>
     <g id="text_2">
      <!-- 7.5 -->
      <g transform="translate(143.577951 272.704063) scale(0.18 -0.18)">
       <defs>
        <path id="ArialMT-35" d="M 266 1200 
L 856 1250 
Q 922 819 1161 601 
Q 1400 384 1738 384 
Q 2144 384 2425 690 
Q 2706 997 2706 1503 
Q 2706 1984 2436 2262 
Q 2166 2541 1728 2541 
Q 1456 2541 1237 2417 
Q 1019 2294 894 2097 
L 366 2166 
L 809 4519 
L 3088 4519 
L 3088 3981 
L 1259 3981 
L 1013 2750 
Q 1425 3038 1878 3038 
Q 2478 3038 2890 2622 
Q 3303 2206 3303 1553 
Q 3303 931 2941 478 
Q 2500 -78 1738 -78 
Q 1113 -78 717 272 
Q 322 622 266 1200 
z
" transform="scale(0.015625)"/>
       </defs>
       <use xlink:href="#ArialMT-37"/>
       <use xlink:href="#ArialMT-2e" x="55.615234"/>
       <use xlink:href="#ArialMT-35" x="83.398438"/>
      </g>
     </g>
    </g>
    <g id="xtick_3">
     <g id="line2d_3">
      <g>
       <use xlink:href="#m679c05b719" x="223.646118" y="256.32" style="stroke: #000000; stroke-width: 0.8"/>
      </g>
     </g>
     <g id="text_3">
      <!-- 8.0 -->
      <g transform="translate(211.136118 272.704063) scale(0.18 -0.18)">
       <defs>
        <path id="ArialMT-38" d="M 1131 2484 
Q 781 2613 612 2850 
Q 444 3088 444 3419 
Q 444 3919 803 4259 
Q 1163 4600 1759 4600 
Q 2359 4600 2725 4251 
Q 3091 3903 3091 3403 
Q 3091 3084 2923 2848 
Q 2756 2613 2416 2484 
Q 2838 2347 3058 2040 
Q 3278 1734 3278 1309 
Q 3278 722 2862 322 
Q 2447 -78 1769 -78 
Q 1091 -78 675 323 
Q 259 725 259 1325 
Q 259 1772 486 2073 
Q 713 2375 1131 2484 
z
M 1019 3438 
Q 1019 3113 1228 2906 
Q 1438 2700 1772 2700 
Q 2097 2700 2305 2904 
Q 2513 3109 2513 3406 
Q 2513 3716 2298 3927 
Q 2084 4138 1766 4138 
Q 1444 4138 1231 3931 
Q 1019 3725 1019 3438 
z
M 838 1322 
Q 838 1081 952 856 
Q 1066 631 1291 507 
Q 1516 384 1775 384 
Q 2178 384 2440 643 
Q 2703 903 2703 1303 
Q 2703 1709 2433 1975 
Q 2163 2241 1756 2241 
Q 1359 2241 1098 1978 
Q 838 1716 838 1322 
z
" transform="scale(0.015625)"/>
       </defs>
       <use xlink:href="#ArialMT-38"/>
       <use xlink:href="#ArialMT-2e" x="55.615234"/>
       <use xlink:href="#ArialMT-30" x="83.398438"/>
      </g>
     </g>
    </g>
    <g id="text_4">
     <!-- $\log_{10}Q_{\mathrm{FEM}}$ -->
     <g transform="translate(118.44 293.961563) scale(0.18 -0.18)">
      <defs>
       <path id="DejaVuSans-6c" d="M 603 4863 
L 1178 4863 
L 1178 0 
L 603 0 
L 603 4863 
z
" transform="scale(0.015625)"/>
       <path id="DejaVuSans-6f" d="M 1959 3097 
Q 1497 3097 1228 2736 
Q 959 2375 959 1747 
Q 959 1119 1226 758 
Q 1494 397 1959 397 
Q 2419 397 2687 759 
Q 2956 1122 2956 1747 
Q 2956 2369 2687 2733 
Q 2419 3097 1959 3097 
z
M 1959 3584 
Q 2709 3584 3137 3096 
Q 3566 2609 3566 1747 
Q 3566 888 3137 398 
Q 2709 -91 1959 -91 
Q 1206 -91 779 398 
Q 353 888 353 1747 
Q 353 2609 779 3096 
Q 1206 3584 1959 3584 
z
" transform="scale(0.015625)"/>
       <path id="DejaVuSans-67" d="M 2906 1791 
Q 2906 2416 2648 2759 
Q 2391 3103 1925 3103 
Q 1463 3103 1205 2759 
Q 947 2416 947 1791 
Q 947 1169 1205 825 
Q 1463 481 1925 481 
Q 2391 481 2648 825 
Q 2906 1169 2906 1791 
z
M 3481 434 
Q 3481 -459 3084 -895 
Q 2688 -1331 1869 -1331 
Q 1566 -1331 1297 -1286 
Q 1028 -1241 775 -1147 
L 775 -588 
Q 1028 -725 1275 -790 
Q 1522 -856 1778 -856 
Q 2344 -856 2625 -561 
Q 2906 -266 2906 331 
L 2906 616 
Q 2728 306 2450 153 
Q 2172 0 1784 0 
Q 1141 0 747 490 
Q 353 981 353 1791 
Q 353 2603 747 3093 
Q 1141 3584 1784 3584 
Q 2172 3584 2450 3431 
Q 2728 3278 2906 2969 
L 2906 3500 
L 3481 3500 
L 3481 434 
z
" transform="scale(0.015625)"/>
       <path id="DejaVuSans-31" d="M 794 531 
L 1825 531 
L 1825 4091 
L 703 3866 
L 703 4441 
L 1819 4666 
L 2450 4666 
L 2450 531 
L 3481 531 
L 3481 0 
L 794 0 
L 794 531 
z
" transform="scale(0.015625)"/>
       <path id="DejaVuSans-30" d="M 2034 4250 
Q 1547 4250 1301 3770 
Q 1056 3291 1056 2328 
Q 1056 1369 1301 889 
Q 1547 409 2034 409 
Q 2525 409 2770 889 
Q 3016 1369 3016 2328 
Q 3016 3291 2770 3770 
Q 2525 4250 2034 4250 
z
M 2034 4750 
Q 2819 4750 3233 4129 
Q 3647 3509 3647 2328 
Q 3647 1150 3233 529 
Q 2819 -91 2034 -91 
Q 1250 -91 836 529 
Q 422 1150 422 2328 
Q 422 3509 836 4129 
Q 1250 4750 2034 4750 
z
" transform="scale(0.015625)"/>
       <path id="DejaVuSans-Oblique-51" d="M 2309 -84 
Q 2275 -88 2237 -89 
Q 2200 -91 2125 -91 
Q 1250 -91 756 411 
Q 263 913 263 1797 
Q 263 2319 452 2844 
Q 641 3369 978 3788 
Q 1369 4269 1858 4509 
Q 2347 4750 2938 4750 
Q 3794 4750 4287 4245 
Q 4781 3741 4781 2869 
Q 4781 1928 4265 1147 
Q 3750 366 2919 44 
L 3553 -825 
L 2847 -825 
L 2309 -84 
z
M 2919 4238 
Q 2400 4238 2003 3986 
Q 1606 3734 1313 3219 
Q 1125 2891 1026 2522 
Q 928 2153 928 1778 
Q 928 1128 1239 775 
Q 1550 422 2119 422 
Q 2631 422 3032 676 
Q 3434 931 3719 1434 
Q 3909 1772 4009 2142 
Q 4109 2513 4109 2881 
Q 4109 3528 3796 3883 
Q 3484 4238 2919 4238 
z
" transform="scale(0.015625)"/>
       <path id="DejaVuSans-46" d="M 628 4666 
L 3309 4666 
L 3309 4134 
L 1259 4134 
L 1259 2759 
L 3109 2759 
L 3109 2228 
L 1259 2228 
L 1259 0 
L 628 0 
L 628 4666 
z
" transform="scale(0.015625)"/>
       <path id="DejaVuSans-45" d="M 628 4666 
L 3578 4666 
L 3578 4134 
L 1259 4134 
L 1259 2753 
L 3481 2753 
L 3481 2222 
L 1259 2222 
L 1259 531 
L 3634 531 
L 3634 0 
L 628 0 
L 628 4666 
z
" transform="scale(0.015625)"/>
       <path id="DejaVuSans-4d" d="M 628 4666 
L 1569 4666 
L 2759 1491 
L 3956 4666 
L 4897 4666 
L 4897 0 
L 4281 0 
L 4281 4097 
L 3078 897 
L 2444 897 
L 1241 4097 
L 1241 0 
L 628 0 
L 628 4666 
z
" transform="scale(0.015625)"/>
      </defs>
      <use xlink:href="#DejaVuSans-6c" transform="translate(0 0.015625)"/>
      <use xlink:href="#DejaVuSans-6f" transform="translate(27.783203 0.015625)"/>
      <use xlink:href="#DejaVuSans-67" transform="translate(88.964844 0.015625)"/>
      <use xlink:href="#DejaVuSans-31" transform="translate(153.398438 -16.390625) scale(0.7)"/>
      <use xlink:href="#DejaVuSans-30" transform="translate(197.93457 -16.390625) scale(0.7)"/>
      <use xlink:href="#DejaVuSans-Oblique-51" transform="translate(261.440754 0.015625)"/>
      <use xlink:href="#DejaVuSans-46" transform="translate(340.151692 -16.390625) scale(0.7)"/>
      <use xlink:href="#DejaVuSans-45" transform="translate(380.415364 -16.390625) scale(0.7)"/>
      <use xlink:href="#DejaVuSans-4d" transform="translate(424.643879 -16.390625) scale(0.7)"/>
     </g>
    </g>
   </g>
   <g id="matplotlib.axis_2">
    <g id="ytick_1">
     <g id="line2d_4">
      <defs>
       <path id="meaaba13344" d="M 0 0 
L 3.5 0 
" style="stroke: #000000; stroke-width: 0.8"/>
      </defs>
      <g>
       <use xlink:href="#meaaba13344" x="39.6" y="216.163337" style="stroke: #000000; stroke-width: 0.8"/>
      </g>
     </g>
     <g id="text_5">
      <!-- 7.0 -->
      <g transform="translate(11.08 222.605368) scale(0.18 -0.18)">
       <use xlink:href="#ArialMT-37"/>
       <use xlink:href="#ArialMT-2e" x="55.615234"/>
       <use xlink:href="#ArialMT-30" x="83.398438"/>
      </g>
     </g>
    </g>
    <g id="ytick_2">
     <g id="line2d_5">
      <g>
       <use xlink:href="#meaaba13344" x="39.6" y="157.569059" style="stroke: #000000; stroke-width: 0.8"/>
      </g>
     </g>
     <g id="text_6">
      <!-- 7.5 -->
      <g transform="translate(11.08 164.01109) scale(0.18 -0.18)">
       <use xlink:href="#ArialMT-37"/>
       <use xlink:href="#ArialMT-2e" x="55.615234"/>
       <use xlink:href="#ArialMT-35" x="83.398438"/>
      </g>
     </g>
    </g>
    <g id="ytick_3">
     <g id="line2d_6">
      <g>
       <use xlink:href="#meaaba13344" x="39.6" y="98.97478" style="stroke: #000000; stroke-width: 0.8"/>
      </g>
     </g>
     <g id="text_7">
      <!-- 8.0 -->
      <g transform="translate(11.08 105.416811) scale(0.18 -0.18)">
       <use xlink:href="#ArialMT-38"/>
       <use xlink:href="#ArialMT-2e" x="55.615234"/>
       <use xlink:href="#ArialMT-30" x="83.398438"/>
      </g>
     </g>
    </g>
    <g id="ytick_4">
     <g id="line2d_7">
      <g>
       <use xlink:href="#meaaba13344" x="39.6" y="40.380502" style="stroke: #000000; stroke-width: 0.8"/>
      </g>
     </g>
     <g id="text_8">
      <!-- 8.5 -->
      <g transform="translate(11.08 46.822533) scale(0.18 -0.18)">
       <use xlink:href="#ArialMT-38"/>
       <use xlink:href="#ArialMT-2e" x="55.615234"/>
       <use xlink:href="#ArialMT-35" x="83.398438"/>
      </g>
     </g>
    </g>
    <g id="text_9">
     <!-- $\log_{10}Q_{\mathrm{NN}}$ -->
     <g transform="translate(3.3 185.76) rotate(-90) scale(0.18 -0.18)">
      <defs>
       <path id="DejaVuSans-4e" d="M 628 4666 
L 1478 4666 
L 3547 763 
L 3547 4666 
L 4159 4666 
L 4159 0 
L 3309 0 
L 1241 3903 
L 1241 0 
L 628 0 
L 628 4666 
z
" transform="scale(0.015625)"/>
      </defs>
      <use xlink:href="#DejaVuSans-6c" transform="translate(0 0.015625)"/>
      <use xlink:href="#DejaVuSans-6f" transform="translate(27.783203 0.015625)"/>
      <use xlink:href="#DejaVuSans-67" transform="translate(88.964844 0.015625)"/>
      <use xlink:href="#DejaVuSans-31" transform="translate(153.398438 -16.390625) scale(0.7)"/>
      <use xlink:href="#DejaVuSans-30" transform="translate(197.93457 -16.390625) scale(0.7)"/>
      <use xlink:href="#DejaVuSans-Oblique-51" transform="translate(261.440754 0.015625)"/>
      <use xlink:href="#DejaVuSans-4e" transform="translate(340.151692 -16.390625) scale(0.7)"/>
      <use xlink:href="#DejaVuSans-4e" transform="translate(392.514973 -16.390625) scale(0.7)"/>
     </g>
    </g>
   </g>
   <g id="line2d_8">
    <path d="M 60.654927 231.659883 
L 180.519363 126.566131 
L 164.459724 140.646738 
L 120.79119 178.934108 
L 82.916516 212.141552 
L 104.205944 193.475556 
L 136.004238 165.595697 
L 118.8325 180.651407 
L 125.343707 174.942554 
L 139.745149 162.315773 
L 118.457655 180.980037 
L 210.457091 100.317573 
L 175.137522 131.284738 
L 211.153241 99.707198 
L 106.555329 191.415712 
L 107.745323 190.372324 
L 162.603282 142.274406 
L 107.50391 190.583996 
L 89.999011 205.931791 
L 190.666141 117.669722 
L 204.823335 105.257073 
L 147.575208 155.450597 
L 159.377025 145.1031 
L 88.09618 207.60014 
L 168.497393 137.106637 
L 169.077959 136.597627 
L 123.944642 176.169228 
L 136.941737 164.77376 
L 138.130185 163.731769 
L 137.040184 164.687426 
L 167.691715 137.813014 
L 143.659567 158.883744 
L 104.526283 193.194703 
L 143.87901 158.69135 
L 101.392739 195.942093 
L 63.670954 229.015481 
L 80.236162 214.491579 
L 153.463714 150.287745 
L 199.839405 109.626822 
L 129.823291 171.014982 
L 129.749134 171.080026 
L 179.29432 127.640198 
L 106.406113 191.546527 
L 141.11477 161.114971 
L 152.215477 151.382152 
L 149.211241 154.016217 
L 50.76 240.335455 
L 123.992384 176.127374 
L 141.2089 161.032436 
L 106.468028 191.492212 
L 166.34123 138.997108 
L 210.844564 99.977824 
L 166.628259 138.745425 
L 158.339405 146.01288 
L 153.94667 149.864288 
L 127.33648 173.195358 
L 103.312514 194.258879 
L 118.890421 180.600613 
L 108.355139 189.837665 
L 164.960656 140.207522 
L 106.294394 191.644484 
L 102.426365 195.035833 
L 160.173362 144.404937 
L 148.470378 154.665765 
L 147.081944 155.883107 
L 189.811239 118.419239 
L 77.546209 216.850044 
L 153.122243 150.58715 
L 121.708072 178.130164 
L 232.063571 81.373631 
L 131.596621 169.460181 
L 118.941513 180.555853 
L 142.61415 159.800341 
L 169.619738 136.122592 
L 92.211035 203.992368 
L 102.022334 195.390111 
L 152.144283 151.44457 
L 165.427762 139.797978 
L 93.747847 202.644937 
L 140.564422 161.597493 
L 131.790422 169.29025 
L 168.09085 137.463094 
L 55.897463 235.831091 
L 168.341154 137.243598 
L 139.195317 162.797849 
L 174.873559 131.516192 
L 83.203223 211.890148 
L 122.445392 177.483746 
L 68.763639 224.550345 
L 155.435355 148.559046 
L 273.96 44.64 
L 164.319721 140.769506 
L 87.352353 208.252314 
L 139.124123 162.860266 
L 237.313076 76.77103 
L 116.917363 182.330541 
L 103.490208 194.103086 
L 140.499285 161.654603 
L 106.597981 191.378273 
L 193.051928 115.577915 
" clip-path="url(#p93992a5a2a)" style="fill: none; stroke: #0000ff; stroke-width: 1.5; stroke-linecap: square"/>
   </g>
   <g id="patch_3">
    <path d="M 39.6 256.32 
L 39.6 34.56 
" style="fill: none; stroke: #000000; stroke-width: 0.8; stroke-linejoin: miter; stroke-linecap: square"/>
   </g>
   <g id="patch_4">
    <path d="M 285.12 256.32 
L 285.12 34.56 
" style="fill: none; stroke: #000000; stroke-width: 0.8; stroke-linejoin: miter; stroke-linecap: square"/>
   </g>
   <g id="patch_5">
    <path d="M 39.6 256.32 
L 285.12 256.32 
" style="fill: none; stroke: #000000; stroke-width: 0.8; stroke-linejoin: miter; stroke-linecap: square"/>
   </g>
   <g id="patch_6">
    <path d="M 39.6 34.56 
L 285.12 34.56 
" style="fill: none; stroke: #000000; stroke-width: 0.8; stroke-linejoin: miter; stroke-linecap: square"/>
   </g>
   <g id="text_10">
    <!-- $\mathrm{R}^2 = $0.821 -->
    <g transform="translate(51.876 83.3472) scale(0.18 -0.18)">
     <defs>
      <path id="DejaVuSans-52" d="M 2841 2188 
Q 3044 2119 3236 1894 
Q 3428 1669 3622 1275 
L 4263 0 
L 3584 0 
L 2988 1197 
Q 2756 1666 2539 1819 
Q 2322 1972 1947 1972 
L 1259 1972 
L 1259 0 
L 628 0 
L 628 4666 
L 2053 4666 
Q 2853 4666 3247 4331 
Q 3641 3997 3641 3322 
Q 3641 2881 3436 2590 
Q 3231 2300 2841 2188 
z
M 1259 4147 
L 1259 2491 
L 2053 2491 
Q 2509 2491 2742 2702 
Q 2975 2913 2975 3322 
Q 2975 3731 2742 3939 
Q 2509 4147 2053 4147 
L 1259 4147 
z
" transform="scale(0.015625)"/>
      <path id="DejaVuSans-32" d="M 1228 531 
L 3431 531 
L 3431 0 
L 469 0 
L 469 531 
Q 828 903 1448 1529 
Q 2069 2156 2228 2338 
Q 2531 2678 2651 2914 
Q 2772 3150 2772 3378 
Q 2772 3750 2511 3984 
Q 2250 4219 1831 4219 
Q 1534 4219 1204 4116 
Q 875 4013 500 3803 
L 500 4441 
Q 881 4594 1212 4672 
Q 1544 4750 1819 4750 
Q 2544 4750 2975 4387 
Q 3406 4025 3406 3419 
Q 3406 3131 3298 2873 
Q 3191 2616 2906 2266 
Q 2828 2175 2409 1742 
Q 1991 1309 1228 531 
z
" transform="scale(0.015625)"/>
      <path id="DejaVuSans-3d" d="M 678 2906 
L 4684 2906 
L 4684 2381 
L 678 2381 
L 678 2906 
z
M 678 1631 
L 4684 1631 
L 4684 1100 
L 678 1100 
L 678 1631 
z
" transform="scale(0.015625)"/>
      <path id="ArialMT-32" d="M 3222 541 
L 3222 0 
L 194 0 
Q 188 203 259 391 
Q 375 700 629 1000 
Q 884 1300 1366 1694 
Q 2113 2306 2375 2664 
Q 2638 3022 2638 3341 
Q 2638 3675 2398 3904 
Q 2159 4134 1775 4134 
Q 1369 4134 1125 3890 
Q 881 3647 878 3216 
L 300 3275 
Q 359 3922 746 4261 
Q 1134 4600 1788 4600 
Q 2447 4600 2831 4234 
Q 3216 3869 3216 3328 
Q 3216 3053 3103 2787 
Q 2991 2522 2730 2228 
Q 2469 1934 1863 1422 
Q 1356 997 1212 845 
Q 1069 694 975 541 
L 3222 541 
z
" transform="scale(0.015625)"/>
      <path id="ArialMT-31" d="M 2384 0 
L 1822 0 
L 1822 3584 
Q 1619 3391 1289 3197 
Q 959 3003 697 2906 
L 697 3450 
Q 1169 3672 1522 3987 
Q 1875 4303 2022 4600 
L 2384 4600 
L 2384 0 
z
" transform="scale(0.015625)"/>
     </defs>
     <use xlink:href="#DejaVuSans-52" transform="translate(0 0.765625)"/>
     <use xlink:href="#DejaVuSans-32" transform="translate(70.439453 39.046875) scale(0.7)"/>
     <use xlink:href="#DejaVuSans-3d" transform="translate(137.192383 0.765625)"/>
     <use xlink:href="#ArialMT-30" transform="translate(240.463867 0.765625)"/>
     <use xlink:href="#ArialMT-2e" transform="translate(296.079102 0.765625)"/>
     <use xlink:href="#ArialMT-38" transform="translate(323.862305 0.765625)"/>
     <use xlink:href="#ArialMT-32" transform="translate(379.477539 0.765625)"/>
     <use xlink:href="#ArialMT-31" transform="translate(435.092773 0.765625)"/>
    </g>
   </g>
   <g id="text_11">
    <!-- $Q_{\mathrm{NN}} = $1.011$Q_{\mathrm{FEM}}$ -->
    <g transform="translate(51.876 56.736) scale(0.18 -0.18)">
     <use xlink:href="#DejaVuSans-Oblique-51" transform="translate(0 0.78125)"/>
     <use xlink:href="#DejaVuSans-4e" transform="translate(78.710938 -15.625) scale(0.7)"/>
     <use xlink:href="#DejaVuSans-4e" transform="translate(131.074219 -15.625) scale(0.7)"/>
     <use xlink:href="#DejaVuSans-3d" transform="translate(205.654297 0.78125)"/>
     <use xlink:href="#ArialMT-31" transform="translate(308.925781 0.78125)"/>
     <use xlink:href="#ArialMT-2e" transform="translate(364.541016 0.78125)"/>
     <use xlink:href="#ArialMT-30" transform="translate(392.324219 0.78125)"/>
     <use xlink:href="#ArialMT-31" transform="translate(447.939453 0.78125)"/>
     <use xlink:href="#ArialMT-31" transform="translate(503.554688 0.78125)"/>
     <use xlink:href="#DejaVuSans-Oblique-51" transform="translate(559.169922 0.78125)"/>
     <use xlink:href="#DejaVuSans-46" transform="translate(637.880859 -15.625) scale(0.7)"/>
     <use xlink:href="#DejaVuSans-45" transform="translate(678.144531 -15.625) scale(0.7)"/>
     <use xlink:href="#DejaVuSans-4d" transform="translate(722.373047 -15.625) scale(0.7)"/>
    </g>
   </g>
  </g>
 </g>
 <defs>
  <clipPath id="p93992a5a2a">
   <rect x="39.6" y="34.56" width="245.52" height="221.76"/>
  </clipPath>
 </defs>
</svg>
