<?xml version="1.0" encoding="utf-8" standalone="no"?>
<!DOCTYPE svg PUBLIC "-//W3C//DTD SVG 1.1//EN"
  "http://www.w3.org/Graphics/SVG/1.1/DTD/svg11.dtd">
<svg xmlns:xlink="http://www.w3.org/1999/xlink" width="316.8pt" height="288pt" viewBox="0 0 316.8 288" xmlns="http://www.w3.org/2000/svg" version="1.1">
 <metadata>
  <rdf:RDF xmlns:dc="http://purl.org/dc/elements/1.1/" xmlns:cc="http://creativecommons.org/ns#" xmlns:rdf="http://www.w3.org/1999/02/22-rdf-syntax-ns#">
   <cc:Work>
    <dc:type rdf:resource="http://purl.org/dc/dcmitype/StillImage"/>
    <dc:date>2025-08-01T16:32:40.891123</dc:date>
    <dc:format>image/svg+xml</dc:format>
    <dc:creator>
     <cc:Agent>
      <dc:title>Matplotlib v3.10.5, https://matplotlib.org/</dc:title>
     </cc:Agent>
    </dc:creator>
   </cc:Work>
  </rdf:RDF>
 </metadata>
 <defs>
  <style type="text/css">*{stroke-linejoin: round; stroke-linecap: butt}</style>
 </defs>
 <g id="figure_1">
  <g id="patch_1">
   <path d="M 0 288 
L 316.8 288 
L 316.8 0 
L 0 0 
L 0 288 
z
" style="fill: none"/>
  </g>
  <g id="axes_1">
   <g id="patch_2">
    <path d="M 39.6 256.32 
L 285.12 256.32 
L 285.12 34.56 
L 39.6 34.56 
L 39.6 256.32 
z
" style="fill: none"/>
   </g>
   <g id="PathCollection_1">
    <defs>
     <path id="m12c90686da" d="M 0 3 
C 0.795609 3 1.55874 2.683901 2.12132 2.12132 
C 2.683901 1.55874 3 0.795609 3 0 
C 3 -0.795609 2.683901 -1.55874 2.12132 -2.12132 
C 1.55874 -2.683901 0.795609 -3 0 -3 
C -0.795609 -3 -1.55874 -2.683901 -2.12132 -2.12132 
C -2.683901 -1.55874 -3 -0.795609 -3 0 
C -3 0.795609 -2.683901 1.55874 -2.12132 2.12132 
C -1.55874 2.683901 -0.795609 3 0 3 
z
" style="stroke: #000000"/>
    </defs>
    <g clip-path="url(#pf45db06035)">
     <use xlink:href="#m12c90686da" x="104.794843" y="191.344541" style="stroke: #000000"/>
     <use xlink:href="#m12c90686da" x="150.753772" y="225.929453" style="stroke: #000000"/>
     <use xlink:href="#m12c90686da" x="188.71763" y="113.780429" style="stroke: #000000"/>
     <use xlink:href="#m12c90686da" x="142.893358" y="139.243939" style="stroke: #000000"/>
     <use xlink:href="#m12c90686da" x="64.651836" y="225.929453" style="stroke: #000000"/>
     <use xlink:href="#m12c90686da" x="84.72272" y="219.15023" style="stroke: #000000"/>
     <use xlink:href="#m12c90686da" x="111.712395" y="192.258735" style="stroke: #000000"/>
     <use xlink:href="#m12c90686da" x="115.856684" y="176.21812" style="stroke: #000000"/>
     <use xlink:href="#m12c90686da" x="123.832602" y="200.694516" style="stroke: #000000"/>
     <use xlink:href="#m12c90686da" x="62.439365" y="225.929453" style="stroke: #000000"/>
     <use xlink:href="#m12c90686da" x="78.526618" y="225.929453" style="stroke: #000000"/>
     <use xlink:href="#m12c90686da" x="111.397944" y="191.101452" style="stroke: #000000"/>
     <use xlink:href="#m12c90686da" x="75.842283" y="225.929453" style="stroke: #000000"/>
     <use xlink:href="#m12c90686da" x="80.876285" y="200.000643" style="stroke: #000000"/>
     <use xlink:href="#m12c90686da" x="122.397714" y="180.888193" style="stroke: #000000"/>
     <use xlink:href="#m12c90686da" x="164.359871" y="147.478579" style="stroke: #000000"/>
     <use xlink:href="#m12c90686da" x="100.779356" y="192.285349" style="stroke: #000000"/>
     <use xlink:href="#m12c90686da" x="109.335594" y="188.985254" style="stroke: #000000"/>
     <use xlink:href="#m12c90686da" x="135.134173" y="174.58164" style="stroke: #000000"/>
     <use xlink:href="#m12c90686da" x="105.449477" y="225.929453" style="stroke: #000000"/>
     <use xlink:href="#m12c90686da" x="105.82728" y="203.595688" style="stroke: #000000"/>
     <use xlink:href="#m12c90686da" x="103.525324" y="200.751055" style="stroke: #000000"/>
     <use xlink:href="#m12c90686da" x="111.712974" y="194.531831" style="stroke: #000000"/>
     <use xlink:href="#m12c90686da" x="98.203834" y="204.463196" style="stroke: #000000"/>
     <use xlink:href="#m12c90686da" x="87.872412" y="214.213482" style="stroke: #000000"/>
     <use xlink:href="#m12c90686da" x="142.342801" y="167.307688" style="stroke: #000000"/>
     <use xlink:href="#m12c90686da" x="109.136153" y="159.314429" style="stroke: #000000"/>
     <use xlink:href="#m12c90686da" x="100.334309" y="215.748182" style="stroke: #000000"/>
     <use xlink:href="#m12c90686da" x="115.520744" y="188.285249" style="stroke: #000000"/>
     <use xlink:href="#m12c90686da" x="157.476856" y="122.175484" style="stroke: #000000"/>
     <use xlink:href="#m12c90686da" x="62.645967" y="225.929453" style="stroke: #000000"/>
     <use xlink:href="#m12c90686da" x="88.129083" y="223.572609" style="stroke: #000000"/>
     <use xlink:href="#m12c90686da" x="76.596495" y="223.342386" style="stroke: #000000"/>
     <use xlink:href="#m12c90686da" x="80.699033" y="225.929453" style="stroke: #000000"/>
     <use xlink:href="#m12c90686da" x="87.932726" y="218.138359" style="stroke: #000000"/>
     <use xlink:href="#m12c90686da" x="77.865027" y="225.929453" style="stroke: #000000"/>
     <use xlink:href="#m12c90686da" x="106.501645" y="201.331875" style="stroke: #000000"/>
     <use xlink:href="#m12c90686da" x="60.676315" y="225.929453" style="stroke: #000000"/>
     <use xlink:href="#m12c90686da" x="124.354259" y="174.361517" style="stroke: #000000"/>
     <use xlink:href="#m12c90686da" x="61.311032" y="225.929453" style="stroke: #000000"/>
     <use xlink:href="#m12c90686da" x="109.059476" y="193.152932" style="stroke: #000000"/>
     <use xlink:href="#m12c90686da" x="134.684685" y="167.965489" style="stroke: #000000"/>
     <use xlink:href="#m12c90686da" x="94.662834" y="216.69334" style="stroke: #000000"/>
     <use xlink:href="#m12c90686da" x="142.122992" y="151.487427" style="stroke: #000000"/>
     <use xlink:href="#m12c90686da" x="117.892715" y="186.929813" style="stroke: #000000"/>
     <use xlink:href="#m12c90686da" x="94.195474" y="200.755495" style="stroke: #000000"/>
     <use xlink:href="#m12c90686da" x="130.176383" y="177.748901" style="stroke: #000000"/>
     <use xlink:href="#m12c90686da" x="232.655324" y="88.332549" style="stroke: #000000"/>
     <use xlink:href="#m12c90686da" x="87.140342" y="219.832591" style="stroke: #000000"/>
     <use xlink:href="#m12c90686da" x="68.756951" y="225.929453" style="stroke: #000000"/>
     <use xlink:href="#m12c90686da" x="94.519474" y="200.63022" style="stroke: #000000"/>
     <use xlink:href="#m12c90686da" x="127.675555" y="185.205863" style="stroke: #000000"/>
     <use xlink:href="#m12c90686da" x="104.67914" y="196.104403" style="stroke: #000000"/>
     <use xlink:href="#m12c90686da" x="104.358329" y="193.487312" style="stroke: #000000"/>
     <use xlink:href="#m12c90686da" x="87.167144" y="206.21702" style="stroke: #000000"/>
     <use xlink:href="#m12c90686da" x="126.961119" y="177.748637" style="stroke: #000000"/>
     <use xlink:href="#m12c90686da" x="101.694998" y="201.706991" style="stroke: #000000"/>
     <use xlink:href="#m12c90686da" x="189.120935" y="135.295154" style="stroke: #000000"/>
     <use xlink:href="#m12c90686da" x="74.033264" y="220.968153" style="stroke: #000000"/>
     <use xlink:href="#m12c90686da" x="111.785409" y="192.337465" style="stroke: #000000"/>
     <use xlink:href="#m12c90686da" x="134.042589" y="171.887659" style="stroke: #000000"/>
     <use xlink:href="#m12c90686da" x="64.349068" y="225.929453" style="stroke: #000000"/>
     <use xlink:href="#m12c90686da" x="104.906114" y="213.562234" style="stroke: #000000"/>
     <use xlink:href="#m12c90686da" x="273.96" y="79.240048" style="stroke: #000000"/>
     <use xlink:href="#m12c90686da" x="119.401993" y="140.140472" style="stroke: #000000"/>
     <use xlink:href="#m12c90686da" x="87.947409" y="222.540065" style="stroke: #000000"/>
     <use xlink:href="#m12c90686da" x="117.235415" y="169.881337" style="stroke: #000000"/>
     <use xlink:href="#m12c90686da" x="129.199895" y="178.520852" style="stroke: #000000"/>
     <use xlink:href="#m12c90686da" x="183.039577" y="134.626559" style="stroke: #000000"/>
     <use xlink:href="#m12c90686da" x="50.76" y="221.286622" style="stroke: #000000"/>
     <use xlink:href="#m12c90686da" x="122.032144" y="210.852903" style="stroke: #000000"/>
     <use xlink:href="#m12c90686da" x="127.519231" y="178.949989" style="stroke: #000000"/>
     <use xlink:href="#m12c90686da" x="98.733321" y="198.466042" style="stroke: #000000"/>
     <use xlink:href="#m12c90686da" x="64.475349" y="225.929453" style="stroke: #000000"/>
     <use xlink:href="#m12c90686da" x="242.875067" y="92.503396" style="stroke: #000000"/>
     <use xlink:href="#m12c90686da" x="126.487116" y="170.96641" style="stroke: #000000"/>
     <use xlink:href="#m12c90686da" x="78.672787" y="225.784438" style="stroke: #000000"/>
     <use xlink:href="#m12c90686da" x="108.492339" y="191.956424" style="stroke: #000000"/>
     <use xlink:href="#m12c90686da" x="145.970633" y="136.575946" style="stroke: #000000"/>
     <use xlink:href="#m12c90686da" x="125.598362" y="181.968479" style="stroke: #000000"/>
     <use xlink:href="#m12c90686da" x="129.941361" y="179.188135" style="stroke: #000000"/>
     <use xlink:href="#m12c90686da" x="106.241548" y="191.652372" style="stroke: #000000"/>
     <use xlink:href="#m12c90686da" x="200.604978" y="128.782293" style="stroke: #000000"/>
     <use xlink:href="#m12c90686da" x="68.602833" y="225.929453" style="stroke: #000000"/>
     <use xlink:href="#m12c90686da" x="102.027122" y="204.553257" style="stroke: #000000"/>
     <use xlink:href="#m12c90686da" x="92.531106" y="216.728595" style="stroke: #000000"/>
     <use xlink:href="#m12c90686da" x="184.876879" y="116.949093" style="stroke: #000000"/>
     <use xlink:href="#m12c90686da" x="103.160637" y="196.448158" style="stroke: #000000"/>
     <use xlink:href="#m12c90686da" x="104.143161" y="206.500639" style="stroke: #000000"/>
     <use xlink:href="#m12c90686da" x="129.050224" y="162.223044" style="stroke: #000000"/>
     <use xlink:href="#m12c90686da" x="92.700831" y="206.482706" style="stroke: #000000"/>
     <use xlink:href="#m12c90686da" x="97.513714" y="216.302685" style="stroke: #000000"/>
     <use xlink:href="#m12c90686da" x="86.154771" y="215.068776" style="stroke: #000000"/>
     <use xlink:href="#m12c90686da" x="114.40735" y="192.846858" style="stroke: #000000"/>
     <use xlink:href="#m12c90686da" x="62.773249" y="225.929453" style="stroke: #000000"/>
     <use xlink:href="#m12c90686da" x="124.449718" y="167.946087" style="stroke: #000000"/>
     <use xlink:href="#m12c90686da" x="125.055758" y="166.335355" style="stroke: #000000"/>
     <use xlink:href="#m12c90686da" x="210.461467" y="137.791179" style="stroke: #000000"/>
     <use xlink:href="#m12c90686da" x="111.14449" y="187.697043" style="stroke: #000000"/>
     <use xlink:href="#m12c90686da" x="121.917902" y="186.781389" style="stroke: #000000"/>
    </g>
   </g>
   <g id="matplotlib.axis_1">
    <g id="xtick_1">
     <g id="line2d_1">
      <defs>
       <path id="maa2b8ee8eb" d="M 0 0 
L 0 -3.5 
" style="stroke: #000000; stroke-width: 0.8"/>
      </defs>
      <g>
       <use xlink:href="#maa2b8ee8eb" x="91.341395" y="256.32" style="stroke: #000000; stroke-width: 0.8"/>
      </g>
     </g>
     <g id="text_1">
      <!-- 5000 -->
      <g transform="translate(71.32202 272.704063) scale(0.18 -0.18)">
       <defs>
        <path id="ArialMT-35" d="M 266 1200 
L 856 1250 
Q 922 819 1161 601 
Q 1400 384 1738 384 
Q 2144 384 2425 690 
Q 2706 997 2706 1503 
Q 2706 1984 2436 2262 
Q 2166 2541 1728 2541 
Q 1456 2541 1237 2417 
Q 1019 2294 894 2097 
L 366 2166 
L 809 4519 
L 3088 4519 
L 3088 3981 
L 1259 3981 
L 1013 2750 
Q 1425 3038 1878 3038 
Q 2478 3038 2890 2622 
Q 3303 2206 3303 1553 
Q 3303 931 2941 478 
Q 2500 -78 1738 -78 
Q 1113 -78 717 272 
Q 322 622 266 1200 
z
" transform="scale(0.015625)"/>
        <path id="ArialMT-30" d="M 266 2259 
Q 266 3072 433 3567 
Q 600 4063 929 4331 
Q 1259 4600 1759 4600 
Q 2128 4600 2406 4451 
Q 2684 4303 2865 4023 
Q 3047 3744 3150 3342 
Q 3253 2941 3253 2259 
Q 3253 1453 3087 958 
Q 2922 463 2592 192 
Q 2263 -78 1759 -78 
Q 1097 -78 719 397 
Q 266 969 266 2259 
z
M 844 2259 
Q 844 1131 1108 757 
Q 1372 384 1759 384 
Q 2147 384 2411 759 
Q 2675 1134 2675 2259 
Q 2675 3391 2411 3762 
Q 2147 4134 1753 4134 
Q 1366 4134 1134 3806 
Q 844 3388 844 2259 
z
" transform="scale(0.015625)"/>
       </defs>
       <use xlink:href="#ArialMT-35"/>
       <use xlink:href="#ArialMT-30" transform="translate(55.615234 0)"/>
       <use xlink:href="#ArialMT-30" transform="translate(111.230469 0)"/>
       <use xlink:href="#ArialMT-30" transform="translate(166.845703 0)"/>
      </g>
     </g>
    </g>
    <g id="xtick_2">
     <g id="line2d_2">
      <g>
       <use xlink:href="#maa2b8ee8eb" x="188.528021" y="256.32" style="stroke: #000000; stroke-width: 0.8"/>
      </g>
     </g>
     <g id="text_2">
      <!-- 10000 -->
      <g transform="translate(163.503802 272.704063) scale(0.18 -0.18)">
       <defs>
        <path id="ArialMT-31" d="M 2384 0 
L 1822 0 
L 1822 3584 
Q 1619 3391 1289 3197 
Q 959 3003 697 2906 
L 697 3450 
Q 1169 3672 1522 3987 
Q 1875 4303 2022 4600 
L 2384 4600 
L 2384 0 
z
" transform="scale(0.015625)"/>
       </defs>
       <use xlink:href="#ArialMT-31"/>
       <use xlink:href="#ArialMT-30" transform="translate(55.615234 0)"/>
       <use xlink:href="#ArialMT-30" transform="translate(111.230469 0)"/>
       <use xlink:href="#ArialMT-30" transform="translate(166.845703 0)"/>
       <use xlink:href="#ArialMT-30" transform="translate(222.460938 0)"/>
      </g>
     </g>
    </g>
    <g id="text_3">
     <!-- $Q_{\mathrm{FEM}}$ -->
     <g transform="translate(141.93 293.264063) scale(0.18 -0.18)">
      <defs>
       <path id="DejaVuSans-Oblique-51" d="M 2309 -84 
Q 2275 -88 2237 -89 
Q 2200 -91 2125 -91 
Q 1250 -91 756 411 
Q 263 913 263 1797 
Q 263 2319 452 2844 
Q 641 3369 978 3788 
Q 1369 4269 1858 4509 
Q 2347 4750 2938 4750 
Q 3794 4750 4287 4245 
Q 4781 3741 4781 2869 
Q 4781 1928 4265 1147 
Q 3750 366 2919 44 
L 3553 -825 
L 2847 -825 
L 2309 -84 
z
M 2919 4238 
Q 2400 4238 2003 3986 
Q 1606 3734 1313 3219 
Q 1125 2891 1026 2522 
Q 928 2153 928 1778 
Q 928 1128 1239 775 
Q 1550 422 2119 422 
Q 2631 422 3032 676 
Q 3434 931 3719 1434 
Q 3909 1772 4009 2142 
Q 4109 2513 4109 2881 
Q 4109 3528 3796 3883 
Q 3484 4238 2919 4238 
z
" transform="scale(0.015625)"/>
       <path id="DejaVuSans-46" d="M 628 4666 
L 3309 4666 
L 3309 4134 
L 1259 4134 
L 1259 2759 
L 3109 2759 
L 3109 2228 
L 1259 2228 
L 1259 0 
L 628 0 
L 628 4666 
z
" transform="scale(0.015625)"/>
       <path id="DejaVuSans-45" d="M 628 4666 
L 3578 4666 
L 3578 4134 
L 1259 4134 
L 1259 2753 
L 3481 2753 
L 3481 2222 
L 1259 2222 
L 1259 531 
L 3634 531 
L 3634 0 
L 628 0 
L 628 4666 
z
" transform="scale(0.015625)"/>
       <path id="DejaVuSans-4d" d="M 628 4666 
L 1569 4666 
L 2759 1491 
L 3956 4666 
L 4897 4666 
L 4897 0 
L 4281 0 
L 4281 4097 
L 3078 897 
L 2444 897 
L 1241 4097 
L 1241 0 
L 628 0 
L 628 4666 
z
" transform="scale(0.015625)"/>
      </defs>
      <use xlink:href="#DejaVuSans-Oblique-51" transform="translate(0 0.78125)"/>
      <use xlink:href="#DejaVuSans-46" transform="translate(78.710938 -15.625) scale(0.7)"/>
      <use xlink:href="#DejaVuSans-45" transform="translate(118.974609 -15.625) scale(0.7)"/>
      <use xlink:href="#DejaVuSans-4d" transform="translate(163.203125 -15.625) scale(0.7)"/>
     </g>
    </g>
   </g>
   <g id="matplotlib.axis_2">
    <g id="ytick_1">
     <g id="line2d_3">
      <defs>
       <path id="mb7634e0f73" d="M 0 0 
L 3.5 0 
" style="stroke: #000000; stroke-width: 0.8"/>
      </defs>
      <g>
       <use xlink:href="#mb7634e0f73" x="39.6" y="254.725401" style="stroke: #000000; stroke-width: 0.8"/>
      </g>
     </g>
     <g id="text_4">
      <!-- 2500 -->
      <g transform="translate(-3.93875 261.167432) scale(0.18 -0.18)">
       <defs>
        <path id="ArialMT-32" d="M 3222 541 
L 3222 0 
L 194 0 
Q 188 203 259 391 
Q 375 700 629 1000 
Q 884 1300 1366 1694 
Q 2113 2306 2375 2664 
Q 2638 3022 2638 3341 
Q 2638 3675 2398 3904 
Q 2159 4134 1775 4134 
Q 1369 4134 1125 3890 
Q 881 3647 878 3216 
L 300 3275 
Q 359 3922 746 4261 
Q 1134 4600 1788 4600 
Q 2447 4600 2831 4234 
Q 3216 3869 3216 3328 
Q 3216 3053 3103 2787 
Q 2991 2522 2730 2228 
Q 2469 1934 1863 1422 
Q 1356 997 1212 845 
Q 1069 694 975 541 
L 3222 541 
z
" transform="scale(0.015625)"/>
       </defs>
       <use xlink:href="#ArialMT-32"/>
       <use xlink:href="#ArialMT-35" transform="translate(55.615234 0)"/>
       <use xlink:href="#ArialMT-30" transform="translate(111.230469 0)"/>
       <use xlink:href="#ArialMT-30" transform="translate(166.845703 0)"/>
      </g>
     </g>
    </g>
    <g id="ytick_2">
     <g id="line2d_4">
      <g>
       <use xlink:href="#mb7634e0f73" x="39.6" y="212.471929" style="stroke: #000000; stroke-width: 0.8"/>
      </g>
     </g>
     <g id="text_5">
      <!-- 5000 -->
      <g transform="translate(-3.93875 218.91396) scale(0.18 -0.18)">
       <use xlink:href="#ArialMT-35"/>
       <use xlink:href="#ArialMT-30" transform="translate(55.615234 0)"/>
       <use xlink:href="#ArialMT-30" transform="translate(111.230469 0)"/>
       <use xlink:href="#ArialMT-30" transform="translate(166.845703 0)"/>
      </g>
     </g>
    </g>
    <g id="ytick_3">
     <g id="line2d_5">
      <g>
       <use xlink:href="#mb7634e0f73" x="39.6" y="170.218457" style="stroke: #000000; stroke-width: 0.8"/>
      </g>
     </g>
     <g id="text_6">
      <!-- 7500 -->
      <g transform="translate(-3.93875 176.660488) scale(0.18 -0.18)">
       <defs>
        <path id="ArialMT-37" d="M 303 3981 
L 303 4522 
L 3269 4522 
L 3269 4084 
Q 2831 3619 2401 2847 
Q 1972 2075 1738 1259 
Q 1569 684 1522 0 
L 944 0 
Q 953 541 1156 1306 
Q 1359 2072 1739 2783 
Q 2119 3494 2547 3981 
L 303 3981 
z
" transform="scale(0.015625)"/>
       </defs>
       <use xlink:href="#ArialMT-37"/>
       <use xlink:href="#ArialMT-35" transform="translate(55.615234 0)"/>
       <use xlink:href="#ArialMT-30" transform="translate(111.230469 0)"/>
       <use xlink:href="#ArialMT-30" transform="translate(166.845703 0)"/>
      </g>
     </g>
    </g>
    <g id="ytick_4">
     <g id="line2d_6">
      <g>
       <use xlink:href="#mb7634e0f73" x="39.6" y="127.964985" style="stroke: #000000; stroke-width: 0.8"/>
      </g>
     </g>
     <g id="text_7">
      <!-- 10000 -->
      <g transform="translate(-13.948437 134.407017) scale(0.18 -0.18)">
       <use xlink:href="#ArialMT-31"/>
       <use xlink:href="#ArialMT-30" transform="translate(55.615234 0)"/>
       <use xlink:href="#ArialMT-30" transform="translate(111.230469 0)"/>
       <use xlink:href="#ArialMT-30" transform="translate(166.845703 0)"/>
       <use xlink:href="#ArialMT-30" transform="translate(222.460938 0)"/>
      </g>
     </g>
    </g>
    <g id="ytick_5">
     <g id="line2d_7">
      <g>
       <use xlink:href="#mb7634e0f73" x="39.6" y="85.711513" style="stroke: #000000; stroke-width: 0.8"/>
      </g>
     </g>
     <g id="text_8">
      <!-- 12500 -->
      <g transform="translate(-13.948437 92.153545) scale(0.18 -0.18)">
       <use xlink:href="#ArialMT-31"/>
       <use xlink:href="#ArialMT-32" transform="translate(55.615234 0)"/>
       <use xlink:href="#ArialMT-35" transform="translate(111.230469 0)"/>
       <use xlink:href="#ArialMT-30" transform="translate(166.845703 0)"/>
       <use xlink:href="#ArialMT-30" transform="translate(222.460938 0)"/>
      </g>
     </g>
    </g>
    <g id="ytick_6">
     <g id="line2d_8">
      <g>
       <use xlink:href="#mb7634e0f73" x="39.6" y="43.458042" style="stroke: #000000; stroke-width: 0.8"/>
      </g>
     </g>
     <g id="text_9">
      <!-- 15000 -->
      <g transform="translate(-13.948437 49.900073) scale(0.18 -0.18)">
       <use xlink:href="#ArialMT-31"/>
       <use xlink:href="#ArialMT-35" transform="translate(55.615234 0)"/>
       <use xlink:href="#ArialMT-30" transform="translate(111.230469 0)"/>
       <use xlink:href="#ArialMT-30" transform="translate(166.845703 0)"/>
       <use xlink:href="#ArialMT-30" transform="translate(222.460938 0)"/>
      </g>
     </g>
    </g>
    <g id="text_10">
     <!-- $Q_{\mathrm{NN}}$ -->
     <g transform="translate(-21.525937 162.27) rotate(-90) scale(0.18 -0.18)">
      <defs>
       <path id="DejaVuSans-4e" d="M 628 4666 
L 1478 4666 
L 3547 763 
L 3547 4666 
L 4159 4666 
L 4159 0 
L 3309 0 
L 1241 3903 
L 1241 0 
L 628 0 
L 628 4666 
z
" transform="scale(0.015625)"/>
      </defs>
      <use xlink:href="#DejaVuSans-Oblique-51" transform="translate(0 0.78125)"/>
      <use xlink:href="#DejaVuSans-4e" transform="translate(78.710938 -15.625) scale(0.7)"/>
      <use xlink:href="#DejaVuSans-4e" transform="translate(131.074219 -15.625) scale(0.7)"/>
     </g>
    </g>
   </g>
   <g id="line2d_9">
    <path d="M 104.794843 197.551576 
L 150.753772 156.063957 
L 188.71763 121.757538 
L 142.893358 163.16334 
L 64.651836 233.735002 
L 84.72272 215.651536 
L 111.712395 191.310664 
L 115.856684 187.57105 
L 123.832602 180.372676 
L 62.439365 235.727274 
L 78.526618 221.23591 
L 111.397944 191.594357 
L 75.842283 223.654731 
L 80.876285 219.118392 
L 122.397714 181.667803 
L 164.359871 143.771877 
L 100.779356 201.17359 
L 109.335594 193.455152 
L 135.134173 170.16994 
L 105.449477 196.961043 
L 105.82728 196.620201 
L 103.525324 198.696752 
L 111.712974 191.310144 
L 98.203834 203.496491 
L 87.872412 212.812259 
L 142.342801 163.660562 
L 109.136153 193.6351 
L 100.334309 201.57499 
L 115.520744 187.874244 
L 157.476856 149.990647 
L 62.645967 235.541244 
L 88.129083 212.580864 
L 76.596495 222.975144 
L 80.699033 219.27813 
L 87.932726 212.757858 
L 77.865027 221.83208 
L 106.501645 196.011825 
L 60.676315 237.314664 
L 124.354259 179.901798 
L 61.311032 236.743231 
L 109.059476 193.704232 
L 134.684685 170.575771 
L 94.662834 206.689789 
L 142.122992 163.859046 
L 117.892715 185.733668 
L 94.195474 207.111259 
L 130.176383 174.64606 
L 232.655324 82.020904 
L 87.140342 213.472206 
L 68.756951 230.037811 
L 94.519474 206.819066 
L 127.675555 176.903707 
L 104.67914 197.655939 
L 104.358329 197.945326 
L 87.167144 213.448042 
L 126.961119 177.548634 
L 101.694998 200.347724 
L 189.120935 121.392788 
L 74.033264 225.284684 
L 111.785409 191.24475 
L 134.042589 171.155535 
L 64.349068 234.007657 
L 104.906114 197.451208 
L 273.96 44.64 
L 119.401993 184.371571 
L 87.947409 212.744629 
L 117.235415 186.326859 
L 129.199895 175.527606 
L 183.039577 126.890278 
L 50.76 246.24 
L 122.032144 181.997776 
L 127.519231 177.044827 
L 98.733321 203.018977 
L 64.475349 233.893923 
L 242.875067 72.774012 
L 126.487116 177.976533 
L 78.672787 221.104198 
L 108.492339 194.215945 
L 145.970633 160.384168 
L 125.598362 178.778804 
L 129.941361 174.858227 
L 106.241548 196.246513 
L 200.604978 111.009855 
L 68.602833 230.176612 
L 102.027122 200.04817 
L 92.531106 208.612 
L 184.876879 125.229486 
L 103.160637 199.025702 
L 104.143161 198.139444 
L 129.050224 175.662751 
L 92.700831 208.458955 
L 97.513714 204.118871 
L 86.154771 214.360651 
L 114.40735 188.87896 
L 62.773249 235.426631 
L 124.449718 179.81564 
L 125.055758 179.268614 
L 210.461467 102.096552 
L 111.14449 191.823037 
L 121.917902 182.100868 
" clip-path="url(#pf45db06035)" style="fill: none; stroke: #0000ff; stroke-width: 1.5; stroke-linecap: square"/>
   </g>
   <g id="patch_3">
    <path d="M 39.6 256.32 
L 39.6 34.56 
" style="fill: none; stroke: #000000; stroke-width: 0.8; stroke-linejoin: miter; stroke-linecap: square"/>
   </g>
   <g id="patch_4">
    <path d="M 285.12 256.32 
L 285.12 34.56 
" style="fill: none; stroke: #000000; stroke-width: 0.8; stroke-linejoin: miter; stroke-linecap: square"/>
   </g>
   <g id="patch_5">
    <path d="M 39.6 256.32 
L 285.12 256.32 
" style="fill: none; stroke: #000000; stroke-width: 0.8; stroke-linejoin: miter; stroke-linecap: square"/>
   </g>
   <g id="patch_6">
    <path d="M 39.6 34.56 
L 285.12 34.56 
" style="fill: none; stroke: #000000; stroke-width: 0.8; stroke-linejoin: miter; stroke-linecap: square"/>
   </g>
   <g id="text_11">
    <!-- $\mathrm{R}^2 = $0.826 -->
    <g transform="translate(51.876 83.3472) scale(0.18 -0.18)">
     <defs>
      <path id="DejaVuSans-52" d="M 2841 2188 
Q 3044 2119 3236 1894 
Q 3428 1669 3622 1275 
L 4263 0 
L 3584 0 
L 2988 1197 
Q 2756 1666 2539 1819 
Q 2322 1972 1947 1972 
L 1259 1972 
L 1259 0 
L 628 0 
L 628 4666 
L 2053 4666 
Q 2853 4666 3247 4331 
Q 3641 3997 3641 3322 
Q 3641 2881 3436 2590 
Q 3231 2300 2841 2188 
z
M 1259 4147 
L 1259 2491 
L 2053 2491 
Q 2509 2491 2742 2702 
Q 2975 2913 2975 3322 
Q 2975 3731 2742 3939 
Q 2509 4147 2053 4147 
L 1259 4147 
z
" transform="scale(0.015625)"/>
      <path id="DejaVuSans-32" d="M 1228 531 
L 3431 531 
L 3431 0 
L 469 0 
L 469 531 
Q 828 903 1448 1529 
Q 2069 2156 2228 2338 
Q 2531 2678 2651 2914 
Q 2772 3150 2772 3378 
Q 2772 3750 2511 3984 
Q 2250 4219 1831 4219 
Q 1534 4219 1204 4116 
Q 875 4013 500 3803 
L 500 4441 
Q 881 4594 1212 4672 
Q 1544 4750 1819 4750 
Q 2544 4750 2975 4387 
Q 3406 4025 3406 3419 
Q 3406 3131 3298 2873 
Q 3191 2616 2906 2266 
Q 2828 2175 2409 1742 
Q 1991 1309 1228 531 
z
" transform="scale(0.015625)"/>
      <path id="DejaVuSans-3d" d="M 678 2906 
L 4684 2906 
L 4684 2381 
L 678 2381 
L 678 2906 
z
M 678 1631 
L 4684 1631 
L 4684 1100 
L 678 1100 
L 678 1631 
z
" transform="scale(0.015625)"/>
      <path id="ArialMT-2e" d="M 581 0 
L 581 641 
L 1222 641 
L 1222 0 
L 581 0 
z
" transform="scale(0.015625)"/>
      <path id="ArialMT-38" d="M 1131 2484 
Q 781 2613 612 2850 
Q 444 3088 444 3419 
Q 444 3919 803 4259 
Q 1163 4600 1759 4600 
Q 2359 4600 2725 4251 
Q 3091 3903 3091 3403 
Q 3091 3084 2923 2848 
Q 2756 2613 2416 2484 
Q 2838 2347 3058 2040 
Q 3278 1734 3278 1309 
Q 3278 722 2862 322 
Q 2447 -78 1769 -78 
Q 1091 -78 675 323 
Q 259 725 259 1325 
Q 259 1772 486 2073 
Q 713 2375 1131 2484 
z
M 1019 3438 
Q 1019 3113 1228 2906 
Q 1438 2700 1772 2700 
Q 2097 2700 2305 2904 
Q 2513 3109 2513 3406 
Q 2513 3716 2298 3927 
Q 2084 4138 1766 4138 
Q 1444 4138 1231 3931 
Q 1019 3725 1019 3438 
z
M 838 1322 
Q 838 1081 952 856 
Q 1066 631 1291 507 
Q 1516 384 1775 384 
Q 2178 384 2440 643 
Q 2703 903 2703 1303 
Q 2703 1709 2433 1975 
Q 2163 2241 1756 2241 
Q 1359 2241 1098 1978 
Q 838 1716 838 1322 
z
" transform="scale(0.015625)"/>
      <path id="ArialMT-36" d="M 3184 3459 
L 2625 3416 
Q 2550 3747 2413 3897 
Q 2184 4138 1850 4138 
Q 1581 4138 1378 3988 
Q 1113 3794 959 3422 
Q 806 3050 800 2363 
Q 1003 2672 1297 2822 
Q 1591 2972 1913 2972 
Q 2475 2972 2870 2558 
Q 3266 2144 3266 1488 
Q 3266 1056 3080 686 
Q 2894 316 2569 119 
Q 2244 -78 1831 -78 
Q 1128 -78 684 439 
Q 241 956 241 2144 
Q 241 3472 731 4075 
Q 1159 4600 1884 4600 
Q 2425 4600 2770 4297 
Q 3116 3994 3184 3459 
z
M 888 1484 
Q 888 1194 1011 928 
Q 1134 663 1356 523 
Q 1578 384 1822 384 
Q 2178 384 2434 671 
Q 2691 959 2691 1453 
Q 2691 1928 2437 2201 
Q 2184 2475 1800 2475 
Q 1419 2475 1153 2201 
Q 888 1928 888 1484 
z
" transform="scale(0.015625)"/>
     </defs>
     <use xlink:href="#DejaVuSans-52" transform="translate(0 0.765625)"/>
     <use xlink:href="#DejaVuSans-32" transform="translate(70.439453 39.046875) scale(0.7)"/>
     <use xlink:href="#DejaVuSans-3d" transform="translate(137.192383 0.765625)"/>
     <use xlink:href="#ArialMT-30" transform="translate(240.463867 0.765625)"/>
     <use xlink:href="#ArialMT-2e" transform="translate(296.079102 0.765625)"/>
     <use xlink:href="#ArialMT-38" transform="translate(323.862305 0.765625)"/>
     <use xlink:href="#ArialMT-32" transform="translate(379.477539 0.765625)"/>
     <use xlink:href="#ArialMT-36" transform="translate(435.092773 0.765625)"/>
    </g>
   </g>
   <g id="text_12">
    <!-- $Q_{\mathrm{NN}} = $1.019$Q_{\mathrm{FEM}}$ -->
    <g transform="translate(51.876 56.736) scale(0.18 -0.18)">
     <defs>
      <path id="ArialMT-39" d="M 350 1059 
L 891 1109 
Q 959 728 1153 556 
Q 1347 384 1650 384 
Q 1909 384 2104 503 
Q 2300 622 2425 820 
Q 2550 1019 2634 1356 
Q 2719 1694 2719 2044 
Q 2719 2081 2716 2156 
Q 2547 1888 2255 1720 
Q 1963 1553 1622 1553 
Q 1053 1553 659 1965 
Q 266 2378 266 3053 
Q 266 3750 677 4175 
Q 1088 4600 1706 4600 
Q 2153 4600 2523 4359 
Q 2894 4119 3086 3673 
Q 3278 3228 3278 2384 
Q 3278 1506 3087 986 
Q 2897 466 2520 194 
Q 2144 -78 1638 -78 
Q 1100 -78 759 220 
Q 419 519 350 1059 
z
M 2653 3081 
Q 2653 3566 2395 3850 
Q 2138 4134 1775 4134 
Q 1400 4134 1122 3828 
Q 844 3522 844 3034 
Q 844 2597 1108 2323 
Q 1372 2050 1759 2050 
Q 2150 2050 2401 2323 
Q 2653 2597 2653 3081 
z
" transform="scale(0.015625)"/>
     </defs>
     <use xlink:href="#DejaVuSans-Oblique-51" transform="translate(0 0.78125)"/>
     <use xlink:href="#DejaVuSans-4e" transform="translate(78.710938 -15.625) scale(0.7)"/>
     <use xlink:href="#DejaVuSans-4e" transform="translate(131.074219 -15.625) scale(0.7)"/>
     <use xlink:href="#DejaVuSans-3d" transform="translate(205.654297 0.78125)"/>
     <use xlink:href="#ArialMT-31" transform="translate(308.925781 0.78125)"/>
     <use xlink:href="#ArialMT-2e" transform="translate(364.541016 0.78125)"/>
     <use xlink:href="#ArialMT-30" transform="translate(392.324219 0.78125)"/>
     <use xlink:href="#ArialMT-31" transform="translate(447.939453 0.78125)"/>
     <use xlink:href="#ArialMT-39" transform="translate(503.554688 0.78125)"/>
     <use xlink:href="#DejaVuSans-Oblique-51" transform="translate(559.169922 0.78125)"/>
     <use xlink:href="#DejaVuSans-46" transform="translate(637.880859 -15.625) scale(0.7)"/>
     <use xlink:href="#DejaVuSans-45" transform="translate(678.144531 -15.625) scale(0.7)"/>
     <use xlink:href="#DejaVuSans-4d" transform="translate(722.373047 -15.625) scale(0.7)"/>
    </g>
   </g>
  </g>
 </g>
 <defs>
  <clipPath id="pf45db06035">
   <rect x="39.6" y="34.56" width="245.52" height="221.76"/>
  </clipPath>
 </defs>
</svg>
