<?xml version="1.0" encoding="utf-8" standalone="no"?>
<!DOCTYPE svg PUBLIC "-//W3C//DTD SVG 1.1//EN"
  "http://www.w3.org/Graphics/SVG/1.1/DTD/svg11.dtd">
<svg xmlns:xlink="http://www.w3.org/1999/xlink" width="316.8pt" height="288pt" viewBox="0 0 316.8 288" xmlns="http://www.w3.org/2000/svg" version="1.1">
 <metadata>
  <rdf:RDF xmlns:dc="http://purl.org/dc/elements/1.1/" xmlns:cc="http://creativecommons.org/ns#" xmlns:rdf="http://www.w3.org/1999/02/22-rdf-syntax-ns#">
   <cc:Work>
    <dc:type rdf:resource="http://purl.org/dc/dcmitype/StillImage"/>
    <dc:date>2025-08-01T17:51:44.847344</dc:date>
    <dc:format>image/svg+xml</dc:format>
    <dc:creator>
     <cc:Agent>
      <dc:title>Matplotlib v3.10.5, https://matplotlib.org/</dc:title>
     </cc:Agent>
    </dc:creator>
   </cc:Work>
  </rdf:RDF>
 </metadata>
 <defs>
  <style type="text/css">*{stroke-linejoin: round; stroke-linecap: butt}</style>
 </defs>
 <g id="figure_1">
  <g id="patch_1">
   <path d="M 0 288 
L 316.8 288 
L 316.8 0 
L 0 0 
L 0 288 
z
" style="fill: none"/>
  </g>
  <g id="axes_1">
   <g id="patch_2">
    <path d="M 39.6 256.32 
L 285.12 256.32 
L 285.12 34.56 
L 39.6 34.56 
L 39.6 256.32 
z
" style="fill: none"/>
   </g>
   <g id="PathCollection_1">
    <defs>
     <path id="m1c1c4207d3" d="M 0 3 
C 0.795609 3 1.55874 2.683901 2.12132 2.12132 
C 2.683901 1.55874 3 0.795609 3 0 
C 3 -0.795609 2.683901 -1.55874 2.12132 -2.12132 
C 1.55874 -2.683901 0.795609 -3 0 -3 
C -0.795609 -3 -1.55874 -2.683901 -2.12132 -2.12132 
C -2.683901 -1.55874 -3 -0.795609 -3 0 
C -3 0.795609 -2.683901 1.55874 -2.12132 2.12132 
C -1.55874 2.683901 -0.795609 3 0 3 
z
" style="stroke: #000000"/>
    </defs>
    <g clip-path="url(#pac729eee48)">
     <use xlink:href="#m1c1c4207d3" x="104.794843" y="200.834385" style="stroke: #000000"/>
     <use xlink:href="#m1c1c4207d3" x="150.753772" y="154.098137" style="stroke: #000000"/>
     <use xlink:href="#m1c1c4207d3" x="188.71763" y="137.300525" style="stroke: #000000"/>
     <use xlink:href="#m1c1c4207d3" x="142.893358" y="179.585681" style="stroke: #000000"/>
     <use xlink:href="#m1c1c4207d3" x="64.651836" y="235.242494" style="stroke: #000000"/>
     <use xlink:href="#m1c1c4207d3" x="84.72272" y="209.018535" style="stroke: #000000"/>
     <use xlink:href="#m1c1c4207d3" x="111.712395" y="195.301756" style="stroke: #000000"/>
     <use xlink:href="#m1c1c4207d3" x="115.856684" y="188.23268" style="stroke: #000000"/>
     <use xlink:href="#m1c1c4207d3" x="123.832602" y="169.372546" style="stroke: #000000"/>
     <use xlink:href="#m1c1c4207d3" x="62.439365" y="231.183401" style="stroke: #000000"/>
     <use xlink:href="#m1c1c4207d3" x="78.526618" y="211.620689" style="stroke: #000000"/>
     <use xlink:href="#m1c1c4207d3" x="111.397944" y="190.584245" style="stroke: #000000"/>
     <use xlink:href="#m1c1c4207d3" x="75.842283" y="221.814846" style="stroke: #000000"/>
     <use xlink:href="#m1c1c4207d3" x="80.876285" y="207.832455" style="stroke: #000000"/>
     <use xlink:href="#m1c1c4207d3" x="122.397714" y="182.564539" style="stroke: #000000"/>
     <use xlink:href="#m1c1c4207d3" x="164.359871" y="142.799447" style="stroke: #000000"/>
     <use xlink:href="#m1c1c4207d3" x="100.779356" y="204.29426" style="stroke: #000000"/>
     <use xlink:href="#m1c1c4207d3" x="109.335594" y="185.815391" style="stroke: #000000"/>
     <use xlink:href="#m1c1c4207d3" x="135.134173" y="161.018811" style="stroke: #000000"/>
     <use xlink:href="#m1c1c4207d3" x="105.449477" y="199.363591" style="stroke: #000000"/>
     <use xlink:href="#m1c1c4207d3" x="105.82728" y="184.823845" style="stroke: #000000"/>
     <use xlink:href="#m1c1c4207d3" x="103.525324" y="204.611169" style="stroke: #000000"/>
     <use xlink:href="#m1c1c4207d3" x="111.712974" y="184.784041" style="stroke: #000000"/>
     <use xlink:href="#m1c1c4207d3" x="98.203834" y="197.460679" style="stroke: #000000"/>
     <use xlink:href="#m1c1c4207d3" x="87.872412" y="216.659367" style="stroke: #000000"/>
     <use xlink:href="#m1c1c4207d3" x="142.342801" y="160.800365" style="stroke: #000000"/>
     <use xlink:href="#m1c1c4207d3" x="109.136153" y="167.272983" style="stroke: #000000"/>
     <use xlink:href="#m1c1c4207d3" x="100.334309" y="200.016414" style="stroke: #000000"/>
     <use xlink:href="#m1c1c4207d3" x="115.520744" y="183.507835" style="stroke: #000000"/>
     <use xlink:href="#m1c1c4207d3" x="157.476856" y="158.101323" style="stroke: #000000"/>
     <use xlink:href="#m1c1c4207d3" x="62.645967" y="239.104857" style="stroke: #000000"/>
     <use xlink:href="#m1c1c4207d3" x="88.129083" y="198.908441" style="stroke: #000000"/>
     <use xlink:href="#m1c1c4207d3" x="76.596495" y="212.902361" style="stroke: #000000"/>
     <use xlink:href="#m1c1c4207d3" x="80.699033" y="210.272936" style="stroke: #000000"/>
     <use xlink:href="#m1c1c4207d3" x="87.932726" y="208.452807" style="stroke: #000000"/>
     <use xlink:href="#m1c1c4207d3" x="77.865027" y="216.802835" style="stroke: #000000"/>
     <use xlink:href="#m1c1c4207d3" x="106.501645" y="197.452083" style="stroke: #000000"/>
     <use xlink:href="#m1c1c4207d3" x="60.676315" y="230.554983" style="stroke: #000000"/>
     <use xlink:href="#m1c1c4207d3" x="124.354259" y="179.082033" style="stroke: #000000"/>
     <use xlink:href="#m1c1c4207d3" x="61.311032" y="234.446266" style="stroke: #000000"/>
     <use xlink:href="#m1c1c4207d3" x="109.059476" y="196.405658" style="stroke: #000000"/>
     <use xlink:href="#m1c1c4207d3" x="134.684685" y="158.024718" style="stroke: #000000"/>
     <use xlink:href="#m1c1c4207d3" x="94.662834" y="202.035203" style="stroke: #000000"/>
     <use xlink:href="#m1c1c4207d3" x="142.122992" y="158.587949" style="stroke: #000000"/>
     <use xlink:href="#m1c1c4207d3" x="117.892715" y="178.727461" style="stroke: #000000"/>
     <use xlink:href="#m1c1c4207d3" x="94.195474" y="206.681336" style="stroke: #000000"/>
     <use xlink:href="#m1c1c4207d3" x="130.176383" y="177.796334" style="stroke: #000000"/>
     <use xlink:href="#m1c1c4207d3" x="232.655324" y="197.028196" style="stroke: #000000"/>
     <use xlink:href="#m1c1c4207d3" x="87.140342" y="218.292499" style="stroke: #000000"/>
     <use xlink:href="#m1c1c4207d3" x="68.756951" y="224.311914" style="stroke: #000000"/>
     <use xlink:href="#m1c1c4207d3" x="94.519474" y="210.994444" style="stroke: #000000"/>
     <use xlink:href="#m1c1c4207d3" x="127.675555" y="197.028196" style="stroke: #000000"/>
     <use xlink:href="#m1c1c4207d3" x="104.67914" y="196.488236" style="stroke: #000000"/>
     <use xlink:href="#m1c1c4207d3" x="104.358329" y="190.248171" style="stroke: #000000"/>
     <use xlink:href="#m1c1c4207d3" x="87.167144" y="211.03872" style="stroke: #000000"/>
     <use xlink:href="#m1c1c4207d3" x="126.961119" y="175.939236" style="stroke: #000000"/>
     <use xlink:href="#m1c1c4207d3" x="101.694998" y="194.651289" style="stroke: #000000"/>
     <use xlink:href="#m1c1c4207d3" x="189.120935" y="136.525764" style="stroke: #000000"/>
     <use xlink:href="#m1c1c4207d3" x="74.033264" y="207.396959" style="stroke: #000000"/>
     <use xlink:href="#m1c1c4207d3" x="111.785409" y="188.55678" style="stroke: #000000"/>
     <use xlink:href="#m1c1c4207d3" x="134.042589" y="177.795605" style="stroke: #000000"/>
     <use xlink:href="#m1c1c4207d3" x="64.349068" y="217.347834" style="stroke: #000000"/>
     <use xlink:href="#m1c1c4207d3" x="104.906114" y="197.028196" style="stroke: #000000"/>
     <use xlink:href="#m1c1c4207d3" x="273.96" y="89.170791" style="stroke: #000000"/>
     <use xlink:href="#m1c1c4207d3" x="119.401993" y="135.397488" style="stroke: #000000"/>
     <use xlink:href="#m1c1c4207d3" x="87.947409" y="208.923699" style="stroke: #000000"/>
     <use xlink:href="#m1c1c4207d3" x="117.235415" y="181.108537" style="stroke: #000000"/>
     <use xlink:href="#m1c1c4207d3" x="129.199895" y="197.028196" style="stroke: #000000"/>
     <use xlink:href="#m1c1c4207d3" x="183.039577" y="197.028196" style="stroke: #000000"/>
     <use xlink:href="#m1c1c4207d3" x="50.76" y="212.228515" style="stroke: #000000"/>
     <use xlink:href="#m1c1c4207d3" x="122.032144" y="179.702251" style="stroke: #000000"/>
     <use xlink:href="#m1c1c4207d3" x="127.519231" y="177.227583" style="stroke: #000000"/>
     <use xlink:href="#m1c1c4207d3" x="98.733321" y="197.028196" style="stroke: #000000"/>
     <use xlink:href="#m1c1c4207d3" x="64.475349" y="231.875113" style="stroke: #000000"/>
     <use xlink:href="#m1c1c4207d3" x="242.875067" y="102.952016" style="stroke: #000000"/>
     <use xlink:href="#m1c1c4207d3" x="126.487116" y="164.347921" style="stroke: #000000"/>
     <use xlink:href="#m1c1c4207d3" x="78.672787" y="225.989349" style="stroke: #000000"/>
     <use xlink:href="#m1c1c4207d3" x="108.492339" y="197.028196" style="stroke: #000000"/>
     <use xlink:href="#m1c1c4207d3" x="145.970633" y="147.317152" style="stroke: #000000"/>
     <use xlink:href="#m1c1c4207d3" x="125.598362" y="167.904037" style="stroke: #000000"/>
     <use xlink:href="#m1c1c4207d3" x="129.941361" y="169.851838" style="stroke: #000000"/>
     <use xlink:href="#m1c1c4207d3" x="106.241548" y="199.178496" style="stroke: #000000"/>
     <use xlink:href="#m1c1c4207d3" x="200.604978" y="197.028196" style="stroke: #000000"/>
     <use xlink:href="#m1c1c4207d3" x="68.602833" y="229.65487" style="stroke: #000000"/>
     <use xlink:href="#m1c1c4207d3" x="102.027122" y="201.35662" style="stroke: #000000"/>
     <use xlink:href="#m1c1c4207d3" x="92.531106" y="213.100033" style="stroke: #000000"/>
     <use xlink:href="#m1c1c4207d3" x="184.876879" y="138.617762" style="stroke: #000000"/>
     <use xlink:href="#m1c1c4207d3" x="103.160637" y="210.004196" style="stroke: #000000"/>
     <use xlink:href="#m1c1c4207d3" x="104.143161" y="187.268868" style="stroke: #000000"/>
     <use xlink:href="#m1c1c4207d3" x="129.050224" y="170.001582" style="stroke: #000000"/>
     <use xlink:href="#m1c1c4207d3" x="92.700831" y="208.639075" style="stroke: #000000"/>
     <use xlink:href="#m1c1c4207d3" x="97.513714" y="192.425521" style="stroke: #000000"/>
     <use xlink:href="#m1c1c4207d3" x="86.154771" y="211.496065" style="stroke: #000000"/>
     <use xlink:href="#m1c1c4207d3" x="114.40735" y="197.92566" style="stroke: #000000"/>
     <use xlink:href="#m1c1c4207d3" x="62.773249" y="233.552215" style="stroke: #000000"/>
     <use xlink:href="#m1c1c4207d3" x="124.449718" y="188.155284" style="stroke: #000000"/>
     <use xlink:href="#m1c1c4207d3" x="125.055758" y="173.714437" style="stroke: #000000"/>
     <use xlink:href="#m1c1c4207d3" x="210.461467" y="121.482894" style="stroke: #000000"/>
     <use xlink:href="#m1c1c4207d3" x="111.14449" y="189.306377" style="stroke: #000000"/>
     <use xlink:href="#m1c1c4207d3" x="121.917902" y="178.607772" style="stroke: #000000"/>
    </g>
   </g>
   <g id="matplotlib.axis_1">
    <g id="xtick_1">
     <g id="line2d_1">
      <defs>
       <path id="mcb5989add5" d="M 0 0 
L 0 -3.5 
" style="stroke: #000000; stroke-width: 0.8"/>
      </defs>
      <g>
       <use xlink:href="#mcb5989add5" x="91.341395" y="256.32" style="stroke: #000000; stroke-width: 0.8"/>
      </g>
     </g>
     <g id="text_1">
      <!-- 5000 -->
      <g transform="translate(71.32202 272.704063) scale(0.18 -0.18)">
       <defs>
        <path id="ArialMT-35" d="M 266 1200 
L 856 1250 
Q 922 819 1161 601 
Q 1400 384 1738 384 
Q 2144 384 2425 690 
Q 2706 997 2706 1503 
Q 2706 1984 2436 2262 
Q 2166 2541 1728 2541 
Q 1456 2541 1237 2417 
Q 1019 2294 894 2097 
L 366 2166 
L 809 4519 
L 3088 4519 
L 3088 3981 
L 1259 3981 
L 1013 2750 
Q 1425 3038 1878 3038 
Q 2478 3038 2890 2622 
Q 3303 2206 3303 1553 
Q 3303 931 2941 478 
Q 2500 -78 1738 -78 
Q 1113 -78 717 272 
Q 322 622 266 1200 
z
" transform="scale(0.015625)"/>
        <path id="ArialMT-30" d="M 266 2259 
Q 266 3072 433 3567 
Q 600 4063 929 4331 
Q 1259 4600 1759 4600 
Q 2128 4600 2406 4451 
Q 2684 4303 2865 4023 
Q 3047 3744 3150 3342 
Q 3253 2941 3253 2259 
Q 3253 1453 3087 958 
Q 2922 463 2592 192 
Q 2263 -78 1759 -78 
Q 1097 -78 719 397 
Q 266 969 266 2259 
z
M 844 2259 
Q 844 1131 1108 757 
Q 1372 384 1759 384 
Q 2147 384 2411 759 
Q 2675 1134 2675 2259 
Q 2675 3391 2411 3762 
Q 2147 4134 1753 4134 
Q 1366 4134 1134 3806 
Q 844 3388 844 2259 
z
" transform="scale(0.015625)"/>
       </defs>
       <use xlink:href="#ArialMT-35"/>
       <use xlink:href="#ArialMT-30" transform="translate(55.615234 0)"/>
       <use xlink:href="#ArialMT-30" transform="translate(111.230469 0)"/>
       <use xlink:href="#ArialMT-30" transform="translate(166.845703 0)"/>
      </g>
     </g>
    </g>
    <g id="xtick_2">
     <g id="line2d_2">
      <g>
       <use xlink:href="#mcb5989add5" x="188.528021" y="256.32" style="stroke: #000000; stroke-width: 0.8"/>
      </g>
     </g>
     <g id="text_2">
      <!-- 10000 -->
      <g transform="translate(163.503802 272.704063) scale(0.18 -0.18)">
       <defs>
        <path id="ArialMT-31" d="M 2384 0 
L 1822 0 
L 1822 3584 
Q 1619 3391 1289 3197 
Q 959 3003 697 2906 
L 697 3450 
Q 1169 3672 1522 3987 
Q 1875 4303 2022 4600 
L 2384 4600 
L 2384 0 
z
" transform="scale(0.015625)"/>
       </defs>
       <use xlink:href="#ArialMT-31"/>
       <use xlink:href="#ArialMT-30" transform="translate(55.615234 0)"/>
       <use xlink:href="#ArialMT-30" transform="translate(111.230469 0)"/>
       <use xlink:href="#ArialMT-30" transform="translate(166.845703 0)"/>
       <use xlink:href="#ArialMT-30" transform="translate(222.460938 0)"/>
      </g>
     </g>
    </g>
    <g id="text_3">
     <!-- $Q_{\mathrm{FEM}}$ -->
     <g transform="translate(141.93 293.264063) scale(0.18 -0.18)">
      <defs>
       <path id="DejaVuSans-Oblique-51" d="M 2309 -84 
Q 2275 -88 2237 -89 
Q 2200 -91 2125 -91 
Q 1250 -91 756 411 
Q 263 913 263 1797 
Q 263 2319 452 2844 
Q 641 3369 978 3788 
Q 1369 4269 1858 4509 
Q 2347 4750 2938 4750 
Q 3794 4750 4287 4245 
Q 4781 3741 4781 2869 
Q 4781 1928 4265 1147 
Q 3750 366 2919 44 
L 3553 -825 
L 2847 -825 
L 2309 -84 
z
M 2919 4238 
Q 2400 4238 2003 3986 
Q 1606 3734 1313 3219 
Q 1125 2891 1026 2522 
Q 928 2153 928 1778 
Q 928 1128 1239 775 
Q 1550 422 2119 422 
Q 2631 422 3032 676 
Q 3434 931 3719 1434 
Q 3909 1772 4009 2142 
Q 4109 2513 4109 2881 
Q 4109 3528 3796 3883 
Q 3484 4238 2919 4238 
z
" transform="scale(0.015625)"/>
       <path id="DejaVuSans-46" d="M 628 4666 
L 3309 4666 
L 3309 4134 
L 1259 4134 
L 1259 2759 
L 3109 2759 
L 3109 2228 
L 1259 2228 
L 1259 0 
L 628 0 
L 628 4666 
z
" transform="scale(0.015625)"/>
       <path id="DejaVuSans-45" d="M 628 4666 
L 3578 4666 
L 3578 4134 
L 1259 4134 
L 1259 2753 
L 3481 2753 
L 3481 2222 
L 1259 2222 
L 1259 531 
L 3634 531 
L 3634 0 
L 628 0 
L 628 4666 
z
" transform="scale(0.015625)"/>
       <path id="DejaVuSans-4d" d="M 628 4666 
L 1569 4666 
L 2759 1491 
L 3956 4666 
L 4897 4666 
L 4897 0 
L 4281 0 
L 4281 4097 
L 3078 897 
L 2444 897 
L 1241 4097 
L 1241 0 
L 628 0 
L 628 4666 
z
" transform="scale(0.015625)"/>
      </defs>
      <use xlink:href="#DejaVuSans-Oblique-51" transform="translate(0 0.78125)"/>
      <use xlink:href="#DejaVuSans-46" transform="translate(78.710938 -15.625) scale(0.7)"/>
      <use xlink:href="#DejaVuSans-45" transform="translate(118.974609 -15.625) scale(0.7)"/>
      <use xlink:href="#DejaVuSans-4d" transform="translate(163.203125 -15.625) scale(0.7)"/>
     </g>
    </g>
   </g>
   <g id="matplotlib.axis_2">
    <g id="ytick_1">
     <g id="line2d_3">
      <defs>
       <path id="m140d2ea2a4" d="M 0 0 
L 3.5 0 
" style="stroke: #000000; stroke-width: 0.8"/>
      </defs>
      <g>
       <use xlink:href="#m140d2ea2a4" x="39.6" y="252.229539" style="stroke: #000000; stroke-width: 0.8"/>
      </g>
     </g>
     <g id="text_4">
      <!-- 2500 -->
      <g transform="translate(-3.93875 258.67157) scale(0.18 -0.18)">
       <defs>
        <path id="ArialMT-32" d="M 3222 541 
L 3222 0 
L 194 0 
Q 188 203 259 391 
Q 375 700 629 1000 
Q 884 1300 1366 1694 
Q 2113 2306 2375 2664 
Q 2638 3022 2638 3341 
Q 2638 3675 2398 3904 
Q 2159 4134 1775 4134 
Q 1369 4134 1125 3890 
Q 881 3647 878 3216 
L 300 3275 
Q 359 3922 746 4261 
Q 1134 4600 1788 4600 
Q 2447 4600 2831 4234 
Q 3216 3869 3216 3328 
Q 3216 3053 3103 2787 
Q 2991 2522 2730 2228 
Q 2469 1934 1863 1422 
Q 1356 997 1212 845 
Q 1069 694 975 541 
L 3222 541 
z
" transform="scale(0.015625)"/>
       </defs>
       <use xlink:href="#ArialMT-32"/>
       <use xlink:href="#ArialMT-35" transform="translate(55.615234 0)"/>
       <use xlink:href="#ArialMT-30" transform="translate(111.230469 0)"/>
       <use xlink:href="#ArialMT-30" transform="translate(166.845703 0)"/>
      </g>
     </g>
    </g>
    <g id="ytick_2">
     <g id="line2d_4">
      <g>
       <use xlink:href="#m140d2ea2a4" x="39.6" y="206.718082" style="stroke: #000000; stroke-width: 0.8"/>
      </g>
     </g>
     <g id="text_5">
      <!-- 5000 -->
      <g transform="translate(-3.93875 213.160114) scale(0.18 -0.18)">
       <use xlink:href="#ArialMT-35"/>
       <use xlink:href="#ArialMT-30" transform="translate(55.615234 0)"/>
       <use xlink:href="#ArialMT-30" transform="translate(111.230469 0)"/>
       <use xlink:href="#ArialMT-30" transform="translate(166.845703 0)"/>
      </g>
     </g>
    </g>
    <g id="ytick_3">
     <g id="line2d_5">
      <g>
       <use xlink:href="#m140d2ea2a4" x="39.6" y="161.206626" style="stroke: #000000; stroke-width: 0.8"/>
      </g>
     </g>
     <g id="text_6">
      <!-- 7500 -->
      <g transform="translate(-3.93875 167.648657) scale(0.18 -0.18)">
       <defs>
        <path id="ArialMT-37" d="M 303 3981 
L 303 4522 
L 3269 4522 
L 3269 4084 
Q 2831 3619 2401 2847 
Q 1972 2075 1738 1259 
Q 1569 684 1522 0 
L 944 0 
Q 953 541 1156 1306 
Q 1359 2072 1739 2783 
Q 2119 3494 2547 3981 
L 303 3981 
z
" transform="scale(0.015625)"/>
       </defs>
       <use xlink:href="#ArialMT-37"/>
       <use xlink:href="#ArialMT-35" transform="translate(55.615234 0)"/>
       <use xlink:href="#ArialMT-30" transform="translate(111.230469 0)"/>
       <use xlink:href="#ArialMT-30" transform="translate(166.845703 0)"/>
      </g>
     </g>
    </g>
    <g id="ytick_4">
     <g id="line2d_6">
      <g>
       <use xlink:href="#m140d2ea2a4" x="39.6" y="115.69517" style="stroke: #000000; stroke-width: 0.8"/>
      </g>
     </g>
     <g id="text_7">
      <!-- 10000 -->
      <g transform="translate(-13.948437 122.137201) scale(0.18 -0.18)">
       <use xlink:href="#ArialMT-31"/>
       <use xlink:href="#ArialMT-30" transform="translate(55.615234 0)"/>
       <use xlink:href="#ArialMT-30" transform="translate(111.230469 0)"/>
       <use xlink:href="#ArialMT-30" transform="translate(166.845703 0)"/>
       <use xlink:href="#ArialMT-30" transform="translate(222.460938 0)"/>
      </g>
     </g>
    </g>
    <g id="ytick_5">
     <g id="line2d_7">
      <g>
       <use xlink:href="#m140d2ea2a4" x="39.6" y="70.183714" style="stroke: #000000; stroke-width: 0.8"/>
      </g>
     </g>
     <g id="text_8">
      <!-- 12500 -->
      <g transform="translate(-13.948437 76.625745) scale(0.18 -0.18)">
       <use xlink:href="#ArialMT-31"/>
       <use xlink:href="#ArialMT-32" transform="translate(55.615234 0)"/>
       <use xlink:href="#ArialMT-35" transform="translate(111.230469 0)"/>
       <use xlink:href="#ArialMT-30" transform="translate(166.845703 0)"/>
       <use xlink:href="#ArialMT-30" transform="translate(222.460938 0)"/>
      </g>
     </g>
    </g>
    <g id="text_9">
     <!-- $Q_{\mathrm{NN}}$ -->
     <g transform="translate(-21.525937 162.27) rotate(-90) scale(0.18 -0.18)">
      <defs>
       <path id="DejaVuSans-4e" d="M 628 4666 
L 1478 4666 
L 3547 763 
L 3547 4666 
L 4159 4666 
L 4159 0 
L 3309 0 
L 1241 3903 
L 1241 0 
L 628 0 
L 628 4666 
z
" transform="scale(0.015625)"/>
      </defs>
      <use xlink:href="#DejaVuSans-Oblique-51" transform="translate(0 0.78125)"/>
      <use xlink:href="#DejaVuSans-4e" transform="translate(78.710938 -15.625) scale(0.7)"/>
      <use xlink:href="#DejaVuSans-4e" transform="translate(131.074219 -15.625) scale(0.7)"/>
     </g>
    </g>
   </g>
   <g id="line2d_8">
    <path d="M 104.794843 197.322402 
L 150.753772 155.788665 
L 188.71763 121.514539 
L 142.893358 162.888648 
L 64.651836 233.651931 
L 84.72272 215.480345 
L 111.712395 191.067413 
L 115.856684 187.320771 
L 123.832602 180.111338 
L 62.439365 235.656102 
L 78.526618 221.088378 
L 111.397944 191.351762 
L 75.842283 223.518405 
L 80.876285 218.961562 
L 122.397714 181.408184 
L 164.359871 143.501799 
L 100.779356 200.953905 
L 109.335594 193.216407 
L 135.134173 169.898594 
L 105.449477 196.730407 
L 105.82728 196.388742 
L 103.525324 198.470491 
L 111.712974 191.066888 
L 98.203834 203.283443 
L 87.872412 212.630163 
L 142.342801 163.386029 
L 109.136153 193.396773 
L 100.334309 201.35646 
L 115.520744 187.624409 
L 157.476856 149.716975 
L 62.645967 235.468945 
L 88.129083 212.397912 
L 76.596495 222.835627 
L 80.699033 219.122017 
L 87.932726 212.575576 
L 77.865027 221.68728 
L 106.501645 195.778933 
L 60.676315 237.253336 
L 124.354259 179.639824 
L 61.311032 236.67831 
L 109.059476 193.466062 
L 134.684685 170.304722 
L 94.662834 206.486516 
L 142.122992 163.584591 
L 117.892715 185.480197 
L 94.195474 206.909346 
L 130.176383 174.378353 
L 232.655324 81.877509 
L 87.140342 213.292595 
L 68.756951 229.933921 
L 94.519474 206.616224 
L 127.675555 176.638254 
L 104.67914 197.427034 
L 104.358329 197.717161 
L 87.167144 213.268346 
L 126.961119 177.283868 
L 101.694998 200.125793 
L 189.120935 121.150589 
L 74.033264 225.156213 
L 111.785409 191.001394 
L 134.042589 170.884842 
L 64.349068 233.926196 
L 104.906114 197.221797 
L 273.96 44.64 
L 119.401993 184.115956 
L 87.947409 212.562296 
L 117.235415 186.074379 
L 129.199895 175.260733 
L 183.039577 126.639057 
L 50.76 246.24 
L 122.032144 181.738595 
L 127.519231 176.779518 
L 98.733321 202.804497 
L 64.475349 233.811817 
L 242.875067 72.662115 
L 126.487116 177.71228 
L 78.672787 220.956093 
L 108.492339 193.978919 
L 145.970633 160.108947 
L 125.598362 178.515451 
L 129.941361 174.590683 
L 106.241548 196.014152 
L 200.604978 110.787737 
L 68.602833 230.073482 
L 102.027122 199.825399 
L 92.531106 208.415055 
L 184.876879 124.980894 
L 103.160637 198.800307 
L 104.143161 197.91174 
L 129.050224 175.396005 
L 92.700831 208.26149 
L 97.513714 203.907679 
L 86.154771 214.184424 
L 114.40735 188.630959 
L 62.773249 235.353664 
L 124.449718 179.553565 
L 125.055758 179.005863 
L 210.461467 101.895421 
L 111.14449 191.580874 
L 121.917902 181.841849 
" clip-path="url(#pac729eee48)" style="fill: none; stroke: #0000ff; stroke-width: 1.5; stroke-linecap: square"/>
   </g>
   <g id="patch_3">
    <path d="M 39.6 256.32 
L 39.6 34.56 
" style="fill: none; stroke: #000000; stroke-width: 0.8; stroke-linejoin: miter; stroke-linecap: square"/>
   </g>
   <g id="patch_4">
    <path d="M 285.12 256.32 
L 285.12 34.56 
" style="fill: none; stroke: #000000; stroke-width: 0.8; stroke-linejoin: miter; stroke-linecap: square"/>
   </g>
   <g id="patch_5">
    <path d="M 39.6 256.32 
L 285.12 256.32 
" style="fill: none; stroke: #000000; stroke-width: 0.8; stroke-linejoin: miter; stroke-linecap: square"/>
   </g>
   <g id="patch_6">
    <path d="M 39.6 34.56 
L 285.12 34.56 
" style="fill: none; stroke: #000000; stroke-width: 0.8; stroke-linejoin: miter; stroke-linecap: square"/>
   </g>
   <g id="text_10">
    <!-- $\mathrm{R}^2 = $0.535 -->
    <g transform="translate(51.876 83.3472) scale(0.18 -0.18)">
     <defs>
      <path id="DejaVuSans-52" d="M 2841 2188 
Q 3044 2119 3236 1894 
Q 3428 1669 3622 1275 
L 4263 0 
L 3584 0 
L 2988 1197 
Q 2756 1666 2539 1819 
Q 2322 1972 1947 1972 
L 1259 1972 
L 1259 0 
L 628 0 
L 628 4666 
L 2053 4666 
Q 2853 4666 3247 4331 
Q 3641 3997 3641 3322 
Q 3641 2881 3436 2590 
Q 3231 2300 2841 2188 
z
M 1259 4147 
L 1259 2491 
L 2053 2491 
Q 2509 2491 2742 2702 
Q 2975 2913 2975 3322 
Q 2975 3731 2742 3939 
Q 2509 4147 2053 4147 
L 1259 4147 
z
" transform="scale(0.015625)"/>
      <path id="DejaVuSans-32" d="M 1228 531 
L 3431 531 
L 3431 0 
L 469 0 
L 469 531 
Q 828 903 1448 1529 
Q 2069 2156 2228 2338 
Q 2531 2678 2651 2914 
Q 2772 3150 2772 3378 
Q 2772 3750 2511 3984 
Q 2250 4219 1831 4219 
Q 1534 4219 1204 4116 
Q 875 4013 500 3803 
L 500 4441 
Q 881 4594 1212 4672 
Q 1544 4750 1819 4750 
Q 2544 4750 2975 4387 
Q 3406 4025 3406 3419 
Q 3406 3131 3298 2873 
Q 3191 2616 2906 2266 
Q 2828 2175 2409 1742 
Q 1991 1309 1228 531 
z
" transform="scale(0.015625)"/>
      <path id="DejaVuSans-3d" d="M 678 2906 
L 4684 2906 
L 4684 2381 
L 678 2381 
L 678 2906 
z
M 678 1631 
L 4684 1631 
L 4684 1100 
L 678 1100 
L 678 1631 
z
" transform="scale(0.015625)"/>
      <path id="ArialMT-2e" d="M 581 0 
L 581 641 
L 1222 641 
L 1222 0 
L 581 0 
z
" transform="scale(0.015625)"/>
      <path id="ArialMT-33" d="M 269 1209 
L 831 1284 
Q 928 806 1161 595 
Q 1394 384 1728 384 
Q 2125 384 2398 659 
Q 2672 934 2672 1341 
Q 2672 1728 2419 1979 
Q 2166 2231 1775 2231 
Q 1616 2231 1378 2169 
L 1441 2663 
Q 1497 2656 1531 2656 
Q 1891 2656 2178 2843 
Q 2466 3031 2466 3422 
Q 2466 3731 2256 3934 
Q 2047 4138 1716 4138 
Q 1388 4138 1169 3931 
Q 950 3725 888 3313 
L 325 3413 
Q 428 3978 793 4289 
Q 1159 4600 1703 4600 
Q 2078 4600 2393 4439 
Q 2709 4278 2876 4000 
Q 3044 3722 3044 3409 
Q 3044 3113 2884 2869 
Q 2725 2625 2413 2481 
Q 2819 2388 3044 2092 
Q 3269 1797 3269 1353 
Q 3269 753 2831 336 
Q 2394 -81 1725 -81 
Q 1122 -81 723 278 
Q 325 638 269 1209 
z
" transform="scale(0.015625)"/>
     </defs>
     <use xlink:href="#DejaVuSans-52" transform="translate(0 0.765625)"/>
     <use xlink:href="#DejaVuSans-32" transform="translate(70.439453 39.046875) scale(0.7)"/>
     <use xlink:href="#DejaVuSans-3d" transform="translate(137.192383 0.765625)"/>
     <use xlink:href="#ArialMT-30" transform="translate(240.463867 0.765625)"/>
     <use xlink:href="#ArialMT-2e" transform="translate(296.079102 0.765625)"/>
     <use xlink:href="#ArialMT-35" transform="translate(323.862305 0.765625)"/>
     <use xlink:href="#ArialMT-33" transform="translate(379.477539 0.765625)"/>
     <use xlink:href="#ArialMT-35" transform="translate(435.092773 0.765625)"/>
    </g>
   </g>
   <g id="text_11">
    <!-- $Q_{\mathrm{NN}} = $0.925$Q_{\mathrm{FEM}}$ -->
    <g transform="translate(51.876 56.736) scale(0.18 -0.18)">
     <defs>
      <path id="ArialMT-39" d="M 350 1059 
L 891 1109 
Q 959 728 1153 556 
Q 1347 384 1650 384 
Q 1909 384 2104 503 
Q 2300 622 2425 820 
Q 2550 1019 2634 1356 
Q 2719 1694 2719 2044 
Q 2719 2081 2716 2156 
Q 2547 1888 2255 1720 
Q 1963 1553 1622 1553 
Q 1053 1553 659 1965 
Q 266 2378 266 3053 
Q 266 3750 677 4175 
Q 1088 4600 1706 4600 
Q 2153 4600 2523 4359 
Q 2894 4119 3086 3673 
Q 3278 3228 3278 2384 
Q 3278 1506 3087 986 
Q 2897 466 2520 194 
Q 2144 -78 1638 -78 
Q 1100 -78 759 220 
Q 419 519 350 1059 
z
M 2653 3081 
Q 2653 3566 2395 3850 
Q 2138 4134 1775 4134 
Q 1400 4134 1122 3828 
Q 844 3522 844 3034 
Q 844 2597 1108 2323 
Q 1372 2050 1759 2050 
Q 2150 2050 2401 2323 
Q 2653 2597 2653 3081 
z
" transform="scale(0.015625)"/>
     </defs>
     <use xlink:href="#DejaVuSans-Oblique-51" transform="translate(0 0.78125)"/>
     <use xlink:href="#DejaVuSans-4e" transform="translate(78.710938 -15.625) scale(0.7)"/>
     <use xlink:href="#DejaVuSans-4e" transform="translate(131.074219 -15.625) scale(0.7)"/>
     <use xlink:href="#DejaVuSans-3d" transform="translate(205.654297 0.78125)"/>
     <use xlink:href="#ArialMT-30" transform="translate(308.925781 0.78125)"/>
     <use xlink:href="#ArialMT-2e" transform="translate(364.541016 0.78125)"/>
     <use xlink:href="#ArialMT-39" transform="translate(392.324219 0.78125)"/>
     <use xlink:href="#ArialMT-32" transform="translate(447.939453 0.78125)"/>
     <use xlink:href="#ArialMT-35" transform="translate(503.554688 0.78125)"/>
     <use xlink:href="#DejaVuSans-Oblique-51" transform="translate(559.169922 0.78125)"/>
     <use xlink:href="#DejaVuSans-46" transform="translate(637.880859 -15.625) scale(0.7)"/>
     <use xlink:href="#DejaVuSans-45" transform="translate(678.144531 -15.625) scale(0.7)"/>
     <use xlink:href="#DejaVuSans-4d" transform="translate(722.373047 -15.625) scale(0.7)"/>
    </g>
   </g>
  </g>
 </g>
 <defs>
  <clipPath id="pac729eee48">
   <rect x="39.6" y="34.56" width="245.52" height="221.76"/>
  </clipPath>
 </defs>
</svg>
