<?xml version="1.0" encoding="utf-8" standalone="no"?>
<!DOCTYPE svg PUBLIC "-//W3C//DTD SVG 1.1//EN"
  "http://www.w3.org/Graphics/SVG/1.1/DTD/svg11.dtd">
<svg xmlns:xlink="http://www.w3.org/1999/xlink" width="316.8pt" height="288pt" viewBox="0 0 316.8 288" xmlns="http://www.w3.org/2000/svg" version="1.1">
 <metadata>
  <rdf:RDF xmlns:dc="http://purl.org/dc/elements/1.1/" xmlns:cc="http://creativecommons.org/ns#" xmlns:rdf="http://www.w3.org/1999/02/22-rdf-syntax-ns#">
   <cc:Work>
    <dc:type rdf:resource="http://purl.org/dc/dcmitype/StillImage"/>
    <dc:date>2025-08-01T17:51:44.507874</dc:date>
    <dc:format>image/svg+xml</dc:format>
    <dc:creator>
     <cc:Agent>
      <dc:title>Matplotlib v3.10.5, https://matplotlib.org/</dc:title>
     </cc:Agent>
    </dc:creator>
   </cc:Work>
  </rdf:RDF>
 </metadata>
 <defs>
  <style type="text/css">*{stroke-linejoin: round; stroke-linecap: butt}</style>
 </defs>
 <g id="figure_1">
  <g id="patch_1">
   <path d="M 0 288 
L 316.8 288 
L 316.8 0 
L 0 0 
L 0 288 
z
" style="fill: none"/>
  </g>
  <g id="axes_1">
   <g id="patch_2">
    <path d="M 39.6 256.32 
L 285.12 256.32 
L 285.12 34.56 
L 39.6 34.56 
L 39.6 256.32 
z
" style="fill: none"/>
   </g>
   <g id="PathCollection_1">
    <defs>
     <path id="m450331af6a" d="M 0 3 
C 0.795609 3 1.55874 2.683901 2.12132 2.12132 
C 2.683901 1.55874 3 0.795609 3 0 
C 3 -0.795609 2.683901 -1.55874 2.12132 -2.12132 
C 1.55874 -2.683901 0.795609 -3 0 -3 
C -0.795609 -3 -1.55874 -2.683901 -2.12132 -2.12132 
C -2.683901 -1.55874 -3 -0.795609 -3 0 
C -3 0.795609 -2.683901 1.55874 -2.12132 2.12132 
C -1.55874 2.683901 -0.795609 3 0 3 
z
" style="stroke: #000000"/>
    </defs>
    <g clip-path="url(#pd657e772a8)">
     <use xlink:href="#m450331af6a" x="144.367705" y="166.198696" style="stroke: #000000"/>
     <use xlink:href="#m450331af6a" x="192.891731" y="116.363993" style="stroke: #000000"/>
     <use xlink:href="#m450331af6a" x="223.210602" y="102.360909" style="stroke: #000000"/>
     <use xlink:href="#m450331af6a" x="185.698724" y="141.096342" style="stroke: #000000"/>
     <use xlink:href="#m450331af6a" x="81.414494" y="221.734117" style="stroke: #000000"/>
     <use xlink:href="#m450331af6a" x="116.407244" y="177.370815" style="stroke: #000000"/>
     <use xlink:href="#m450331af6a" x="152.838488" y="159.168586" style="stroke: #000000"/>
     <use xlink:href="#m450331af6a" x="157.677686" y="150.719273" style="stroke: #000000"/>
     <use xlink:href="#m450331af6a" x="166.544055" y="130.599103" style="stroke: #000000"/>
     <use xlink:href="#m450331af6a" x="76.960683" y="213.766654" style="stroke: #000000"/>
     <use xlink:href="#m450331af6a" x="106.508932" y="181.139967" style="stroke: #000000"/>
     <use xlink:href="#m450331af6a" x="152.464372" y="153.467868" style="stroke: #000000"/>
     <use xlink:href="#m450331af6a" x="101.992858" y="197.091854" style="stroke: #000000"/>
     <use xlink:href="#m450331af6a" x="110.345555" y="175.689349" style="stroke: #000000"/>
     <use xlink:href="#m450331af6a" x="164.989929" y="144.329496" style="stroke: #000000"/>
     <use xlink:href="#m450331af6a" x="204.528888" y="106.77672" style="stroke: #000000"/>
     <use xlink:href="#m450331af6a" x="139.204155" y="170.802047" style="stroke: #000000"/>
     <use xlink:href="#m450331af6a" x="149.985577" y="147.954691" style="stroke: #000000"/>
     <use xlink:href="#m450331af6a" x="178.21541" y="122.616278" style="stroke: #000000"/>
     <use xlink:href="#m450331af6a" x="145.191695" y="164.29139" style="stroke: #000000"/>
     <use xlink:href="#m450331af6a" x="145.665033" y="146.837931" style="stroke: #000000"/>
     <use xlink:href="#m450331af6a" x="142.755763" y="171.23218" style="stroke: #000000"/>
     <use xlink:href="#m450331af6a" x="152.839178" y="146.793305" style="stroke: #000000"/>
     <use xlink:href="#m450331af6a" x="135.788882" y="161.865603" style="stroke: #000000"/>
     <use xlink:href="#m450331af6a" x="121.182185" y="188.773639" style="stroke: #000000"/>
     <use xlink:href="#m450331af6a" x="185.180759" y="122.41414" style="stroke: #000000"/>
     <use xlink:href="#m450331af6a" x="149.743502" y="128.544921" style="stroke: #000000"/>
     <use xlink:href="#m450331af6a" x="138.619939" y="165.134417" style="stroke: #000000"/>
     <use xlink:href="#m450331af6a" x="157.291609" y="145.370767" style="stroke: #000000"/>
     <use xlink:href="#m450331af6a" x="198.763103" y="119.942824" style="stroke: #000000"/>
     <use xlink:href="#m450331af6a" x="77.382646" y="229.811269" style="stroke: #000000"/>
     <use xlink:href="#m450331af6a" x="121.564199" y="163.706944" style="stroke: #000000"/>
     <use xlink:href="#m450331af6a" x="103.276537" y="183.038514" style="stroke: #000000"/>
     <use xlink:href="#m450331af6a" x="110.059773" y="179.173785" style="stroke: #000000"/>
     <use xlink:href="#m450331af6a" x="121.272053" y="176.566019" style="stroke: #000000"/>
     <use xlink:href="#m450331af6a" x="105.409358" y="188.997881" style="stroke: #000000"/>
     <use xlink:href="#m450331af6a" x="146.50597" y="161.85476" style="stroke: #000000"/>
     <use xlink:href="#m450331af6a" x="73.307015" y="212.576768" style="stroke: #000000"/>
     <use xlink:href="#m450331af6a" x="167.104807" y="140.557772" style="stroke: #000000"/>
     <use xlink:href="#m450331af6a" x="74.633405" y="220.131199" style="stroke: #000000"/>
     <use xlink:href="#m450331af6a" x="149.650337" y="160.54045" style="stroke: #000000"/>
     <use xlink:href="#m450331af6a" x="177.76937" y="119.873383" style="stroke: #000000"/>
     <use xlink:href="#m450331af6a" x="130.952674" y="167.777494" style="stroke: #000000"/>
     <use xlink:href="#m450331af6a" x="184.973419" y="120.384843" style="stroke: #000000"/>
     <use xlink:href="#m450331af6a" x="159.995073" y="140.179981" style="stroke: #000000"/>
     <use xlink:href="#m450331af6a" x="130.301671" y="174.078507" style="stroke: #000000"/>
     <use xlink:href="#m450331af6a" x="173.215033" y="139.193206" style="stroke: #000000"/>
     <use xlink:href="#m450331af6a" x="251.650766" y="161.320708" style="stroke: #000000"/>
     <use xlink:href="#m450331af6a" x="120.086829" y="191.349987" style="stroke: #000000"/>
     <use xlink:href="#m450331af6a" x="89.319924" y="201.326103" style="stroke: #000000"/>
     <use xlink:href="#m450331af6a" x="130.753309" y="180.222564" style="stroke: #000000"/>
     <use xlink:href="#m450331af6a" x="170.623137" y="161.320708" style="stroke: #000000"/>
     <use xlink:href="#m450331af6a" x="144.221555" y="160.643674" style="stroke: #000000"/>
     <use xlink:href="#m450331af6a" x="143.815541" y="153.071379" style="stroke: #000000"/>
     <use xlink:href="#m450331af6a" x="120.127085" y="180.287209" style="stroke: #000000"/>
     <use xlink:href="#m450331af6a" x="169.873755" y="137.247808" style="stroke: #000000"/>
     <use xlink:href="#m450331af6a" x="140.398504" y="158.367126" style="stroke: #000000"/>
     <use xlink:href="#m450331af6a" x="223.499834" y="101.750952" style="stroke: #000000"/>
     <use xlink:href="#m450331af6a" x="98.8649" y="175.077515" style="stroke: #000000"/>
     <use xlink:href="#m450331af6a" x="152.925211" y="151.094562" style="stroke: #000000"/>
     <use xlink:href="#m450331af6a" x="177.129715" y="139.192442" style="stroke: #000000"/>
     <use xlink:href="#m450331af6a" x="80.813332" y="189.85335" style="stroke: #000000"/>
     <use xlink:href="#m450331af6a" x="144.508104" y="161.320708" style="stroke: #000000"/>
     <use xlink:href="#m450331af6a" x="273.96" y="69.142268" style="stroke: #000000"/>
     <use xlink:href="#m450331af6a" x="161.688447" y="100.867887" style="stroke: #000000"/>
     <use xlink:href="#m450331af6a" x="121.293906" y="177.235547" style="stroke: #000000"/>
     <use xlink:href="#m450331af6a" x="159.251135" y="142.738881" style="stroke: #000000"/>
     <use xlink:href="#m450331af6a" x="172.208701" y="161.320708" style="stroke: #000000"/>
     <use xlink:href="#m450331af6a" x="219.073704" y="161.320708" style="stroke: #000000"/>
     <use xlink:href="#m450331af6a" x="50.76" y="182.036795" style="stroke: #000000"/>
     <use xlink:href="#m450331af6a" x="164.591199" y="141.221322" style="stroke: #000000"/>
     <use xlink:href="#m450331af6a" x="170.459504" y="138.594232" style="stroke: #000000"/>
     <use xlink:href="#m450331af6a" x="136.497854" y="161.320708" style="stroke: #000000"/>
     <use xlink:href="#m450331af6a" x="81.064379" y="215.089444" style="stroke: #000000"/>
     <use xlink:href="#m450331af6a" x="257.511172" y="77.797749" style="stroke: #000000"/>
     <use xlink:href="#m450331af6a" x="169.374346" y="125.73752" style="stroke: #000000"/>
     <use xlink:href="#m450331af6a" x="106.7507" y="204.252159" style="stroke: #000000"/>
     <use xlink:href="#m450331af6a" x="148.959231" y="161.320708" style="stroke: #000000"/>
     <use xlink:href="#m450331af6a" x="188.558996" y="110.523489" style="stroke: #000000"/>
     <use xlink:href="#m450331af6a" x="168.433114" y="129.15884" style="stroke: #000000"/>
     <use xlink:href="#m450331af6a" x="172.973495" y="131.07275" style="stroke: #000000"/>
     <use xlink:href="#m450331af6a" x="146.182232" y="164.053385" style="stroke: #000000"/>
     <use xlink:href="#m450331af6a" x="231.493905" y="161.320708" style="stroke: #000000"/>
     <use xlink:href="#m450331af6a" x="89.031075" y="210.891688" style="stroke: #000000"/>
     <use xlink:href="#m450331af6a" x="140.829209" y="166.882891" style="stroke: #000000"/>
     <use xlink:href="#m450331af6a" x="127.958367" y="183.333866" style="stroke: #000000"/>
     <use xlink:href="#m450331af6a" x="220.425782" y="103.404752" style="stroke: #000000"/>
     <use xlink:href="#m450331af6a" x="142.28925" y="178.785359" style="stroke: #000000"/>
     <use xlink:href="#m450331af6a" x="143.542565" y="149.609743" style="stroke: #000000"/>
     <use xlink:href="#m450331af6a" x="172.053809" y="131.221085" style="stroke: #000000"/>
     <use xlink:href="#m450331af6a" x="128.199138" y="176.830438" style="stroke: #000000"/>
     <use xlink:href="#m450331af6a" x="134.859381" y="155.662462" style="stroke: #000000"/>
     <use xlink:href="#m450331af6a" x="118.598494" y="180.956875" style="stroke: #000000"/>
     <use xlink:href="#m450331af6a" x="156.004325" y="162.454082" style="stroke: #000000"/>
     <use xlink:href="#m450331af6a" x="77.641974" y="218.355199" style="stroke: #000000"/>
     <use xlink:href="#m450331af6a" x="167.207173" y="150.629813" style="stroke: #000000"/>
     <use xlink:href="#m450331af6a" x="167.855339" y="134.955899" style="stroke: #000000"/>
     <use xlink:href="#m450331af6a" x="238.008075" y="90.455452" style="stroke: #000000"/>
     <use xlink:href="#m450331af6a" x="152.162104" y="151.966853" style="stroke: #000000"/>
     <use xlink:href="#m450331af6a" x="164.466366" y="140.052707" style="stroke: #000000"/>
    </g>
   </g>
   <g id="matplotlib.axis_1">
    <g id="xtick_1">
     <g id="line2d_1">
      <defs>
       <path id="mbfec686439" d="M 0 0 
L 0 -3.5 
" style="stroke: #000000; stroke-width: 0.8"/>
      </defs>
      <g>
       <use xlink:href="#mbfec686439" x="94.428756" y="256.32" style="stroke: #000000; stroke-width: 0.8"/>
      </g>
     </g>
     <g id="text_1">
      <!-- 3.6 -->
      <g transform="translate(81.918756 272.704063) scale(0.18 -0.18)">
       <defs>
        <path id="ArialMT-33" d="M 269 1209 
L 831 1284 
Q 928 806 1161 595 
Q 1394 384 1728 384 
Q 2125 384 2398 659 
Q 2672 934 2672 1341 
Q 2672 1728 2419 1979 
Q 2166 2231 1775 2231 
Q 1616 2231 1378 2169 
L 1441 2663 
Q 1497 2656 1531 2656 
Q 1891 2656 2178 2843 
Q 2466 3031 2466 3422 
Q 2466 3731 2256 3934 
Q 2047 4138 1716 4138 
Q 1388 4138 1169 3931 
Q 950 3725 888 3313 
L 325 3413 
Q 428 3978 793 4289 
Q 1159 4600 1703 4600 
Q 2078 4600 2393 4439 
Q 2709 4278 2876 4000 
Q 3044 3722 3044 3409 
Q 3044 3113 2884 2869 
Q 2725 2625 2413 2481 
Q 2819 2388 3044 2092 
Q 3269 1797 3269 1353 
Q 3269 753 2831 336 
Q 2394 -81 1725 -81 
Q 1122 -81 723 278 
Q 325 638 269 1209 
z
" transform="scale(0.015625)"/>
        <path id="ArialMT-2e" d="M 581 0 
L 581 641 
L 1222 641 
L 1222 0 
L 581 0 
z
" transform="scale(0.015625)"/>
        <path id="ArialMT-36" d="M 3184 3459 
L 2625 3416 
Q 2550 3747 2413 3897 
Q 2184 4138 1850 4138 
Q 1581 4138 1378 3988 
Q 1113 3794 959 3422 
Q 806 3050 800 2363 
Q 1003 2672 1297 2822 
Q 1591 2972 1913 2972 
Q 2475 2972 2870 2558 
Q 3266 2144 3266 1488 
Q 3266 1056 3080 686 
Q 2894 316 2569 119 
Q 2244 -78 1831 -78 
Q 1128 -78 684 439 
Q 241 956 241 2144 
Q 241 3472 731 4075 
Q 1159 4600 1884 4600 
Q 2425 4600 2770 4297 
Q 3116 3994 3184 3459 
z
M 888 1484 
Q 888 1194 1011 928 
Q 1134 663 1356 523 
Q 1578 384 1822 384 
Q 2178 384 2434 671 
Q 2691 959 2691 1453 
Q 2691 1928 2437 2201 
Q 2184 2475 1800 2475 
Q 1419 2475 1153 2201 
Q 888 1928 888 1484 
z
" transform="scale(0.015625)"/>
       </defs>
       <use xlink:href="#ArialMT-33"/>
       <use xlink:href="#ArialMT-2e" transform="translate(55.615234 0)"/>
       <use xlink:href="#ArialMT-36" transform="translate(83.398438 0)"/>
      </g>
     </g>
    </g>
    <g id="xtick_2">
     <g id="line2d_2">
      <g>
       <use xlink:href="#mbfec686439" x="158.751588" y="256.32" style="stroke: #000000; stroke-width: 0.8"/>
      </g>
     </g>
     <g id="text_2">
      <!-- 3.8 -->
      <g transform="translate(146.241588 272.704063) scale(0.18 -0.18)">
       <defs>
        <path id="ArialMT-38" d="M 1131 2484 
Q 781 2613 612 2850 
Q 444 3088 444 3419 
Q 444 3919 803 4259 
Q 1163 4600 1759 4600 
Q 2359 4600 2725 4251 
Q 3091 3903 3091 3403 
Q 3091 3084 2923 2848 
Q 2756 2613 2416 2484 
Q 2838 2347 3058 2040 
Q 3278 1734 3278 1309 
Q 3278 722 2862 322 
Q 2447 -78 1769 -78 
Q 1091 -78 675 323 
Q 259 725 259 1325 
Q 259 1772 486 2073 
Q 713 2375 1131 2484 
z
M 1019 3438 
Q 1019 3113 1228 2906 
Q 1438 2700 1772 2700 
Q 2097 2700 2305 2904 
Q 2513 3109 2513 3406 
Q 2513 3716 2298 3927 
Q 2084 4138 1766 4138 
Q 1444 4138 1231 3931 
Q 1019 3725 1019 3438 
z
M 838 1322 
Q 838 1081 952 856 
Q 1066 631 1291 507 
Q 1516 384 1775 384 
Q 2178 384 2440 643 
Q 2703 903 2703 1303 
Q 2703 1709 2433 1975 
Q 2163 2241 1756 2241 
Q 1359 2241 1098 1978 
Q 838 1716 838 1322 
z
" transform="scale(0.015625)"/>
       </defs>
       <use xlink:href="#ArialMT-33"/>
       <use xlink:href="#ArialMT-2e" transform="translate(55.615234 0)"/>
       <use xlink:href="#ArialMT-38" transform="translate(83.398438 0)"/>
      </g>
     </g>
    </g>
    <g id="xtick_3">
     <g id="line2d_3">
      <g>
       <use xlink:href="#mbfec686439" x="223.07442" y="256.32" style="stroke: #000000; stroke-width: 0.8"/>
      </g>
     </g>
     <g id="text_3">
      <!-- 4.0 -->
      <g transform="translate(210.56442 272.704063) scale(0.18 -0.18)">
       <defs>
        <path id="ArialMT-34" d="M 2069 0 
L 2069 1097 
L 81 1097 
L 81 1613 
L 2172 4581 
L 2631 4581 
L 2631 1613 
L 3250 1613 
L 3250 1097 
L 2631 1097 
L 2631 0 
L 2069 0 
z
M 2069 1613 
L 2069 3678 
L 634 1613 
L 2069 1613 
z
" transform="scale(0.015625)"/>
        <path id="ArialMT-30" d="M 266 2259 
Q 266 3072 433 3567 
Q 600 4063 929 4331 
Q 1259 4600 1759 4600 
Q 2128 4600 2406 4451 
Q 2684 4303 2865 4023 
Q 3047 3744 3150 3342 
Q 3253 2941 3253 2259 
Q 3253 1453 3087 958 
Q 2922 463 2592 192 
Q 2263 -78 1759 -78 
Q 1097 -78 719 397 
Q 266 969 266 2259 
z
M 844 2259 
Q 844 1131 1108 757 
Q 1372 384 1759 384 
Q 2147 384 2411 759 
Q 2675 1134 2675 2259 
Q 2675 3391 2411 3762 
Q 2147 4134 1753 4134 
Q 1366 4134 1134 3806 
Q 844 3388 844 2259 
z
" transform="scale(0.015625)"/>
       </defs>
       <use xlink:href="#ArialMT-34"/>
       <use xlink:href="#ArialMT-2e" transform="translate(55.615234 0)"/>
       <use xlink:href="#ArialMT-30" transform="translate(83.398438 0)"/>
      </g>
     </g>
    </g>
    <g id="text_4">
     <!-- $\log_{10}Q_{\mathrm{FEM}}$ -->
     <g transform="translate(118.44 293.961563) scale(0.18 -0.18)">
      <defs>
       <path id="DejaVuSans-6c" d="M 603 4863 
L 1178 4863 
L 1178 0 
L 603 0 
L 603 4863 
z
" transform="scale(0.015625)"/>
       <path id="DejaVuSans-6f" d="M 1959 3097 
Q 1497 3097 1228 2736 
Q 959 2375 959 1747 
Q 959 1119 1226 758 
Q 1494 397 1959 397 
Q 2419 397 2687 759 
Q 2956 1122 2956 1747 
Q 2956 2369 2687 2733 
Q 2419 3097 1959 3097 
z
M 1959 3584 
Q 2709 3584 3137 3096 
Q 3566 2609 3566 1747 
Q 3566 888 3137 398 
Q 2709 -91 1959 -91 
Q 1206 -91 779 398 
Q 353 888 353 1747 
Q 353 2609 779 3096 
Q 1206 3584 1959 3584 
z
" transform="scale(0.015625)"/>
       <path id="DejaVuSans-67" d="M 2906 1791 
Q 2906 2416 2648 2759 
Q 2391 3103 1925 3103 
Q 1463 3103 1205 2759 
Q 947 2416 947 1791 
Q 947 1169 1205 825 
Q 1463 481 1925 481 
Q 2391 481 2648 825 
Q 2906 1169 2906 1791 
z
M 3481 434 
Q 3481 -459 3084 -895 
Q 2688 -1331 1869 -1331 
Q 1566 -1331 1297 -1286 
Q 1028 -1241 775 -1147 
L 775 -588 
Q 1028 -725 1275 -790 
Q 1522 -856 1778 -856 
Q 2344 -856 2625 -561 
Q 2906 -266 2906 331 
L 2906 616 
Q 2728 306 2450 153 
Q 2172 0 1784 0 
Q 1141 0 747 490 
Q 353 981 353 1791 
Q 353 2603 747 3093 
Q 1141 3584 1784 3584 
Q 2172 3584 2450 3431 
Q 2728 3278 2906 2969 
L 2906 3500 
L 3481 3500 
L 3481 434 
z
" transform="scale(0.015625)"/>
       <path id="DejaVuSans-31" d="M 794 531 
L 1825 531 
L 1825 4091 
L 703 3866 
L 703 4441 
L 1819 4666 
L 2450 4666 
L 2450 531 
L 3481 531 
L 3481 0 
L 794 0 
L 794 531 
z
" transform="scale(0.015625)"/>
       <path id="DejaVuSans-30" d="M 2034 4250 
Q 1547 4250 1301 3770 
Q 1056 3291 1056 2328 
Q 1056 1369 1301 889 
Q 1547 409 2034 409 
Q 2525 409 2770 889 
Q 3016 1369 3016 2328 
Q 3016 3291 2770 3770 
Q 2525 4250 2034 4250 
z
M 2034 4750 
Q 2819 4750 3233 4129 
Q 3647 3509 3647 2328 
Q 3647 1150 3233 529 
Q 2819 -91 2034 -91 
Q 1250 -91 836 529 
Q 422 1150 422 2328 
Q 422 3509 836 4129 
Q 1250 4750 2034 4750 
z
" transform="scale(0.015625)"/>
       <path id="DejaVuSans-Oblique-51" d="M 2309 -84 
Q 2275 -88 2237 -89 
Q 2200 -91 2125 -91 
Q 1250 -91 756 411 
Q 263 913 263 1797 
Q 263 2319 452 2844 
Q 641 3369 978 3788 
Q 1369 4269 1858 4509 
Q 2347 4750 2938 4750 
Q 3794 4750 4287 4245 
Q 4781 3741 4781 2869 
Q 4781 1928 4265 1147 
Q 3750 366 2919 44 
L 3553 -825 
L 2847 -825 
L 2309 -84 
z
M 2919 4238 
Q 2400 4238 2003 3986 
Q 1606 3734 1313 3219 
Q 1125 2891 1026 2522 
Q 928 2153 928 1778 
Q 928 1128 1239 775 
Q 1550 422 2119 422 
Q 2631 422 3032 676 
Q 3434 931 3719 1434 
Q 3909 1772 4009 2142 
Q 4109 2513 4109 2881 
Q 4109 3528 3796 3883 
Q 3484 4238 2919 4238 
z
" transform="scale(0.015625)"/>
       <path id="DejaVuSans-46" d="M 628 4666 
L 3309 4666 
L 3309 4134 
L 1259 4134 
L 1259 2759 
L 3109 2759 
L 3109 2228 
L 1259 2228 
L 1259 0 
L 628 0 
L 628 4666 
z
" transform="scale(0.015625)"/>
       <path id="DejaVuSans-45" d="M 628 4666 
L 3578 4666 
L 3578 4134 
L 1259 4134 
L 1259 2753 
L 3481 2753 
L 3481 2222 
L 1259 2222 
L 1259 531 
L 3634 531 
L 3634 0 
L 628 0 
L 628 4666 
z
" transform="scale(0.015625)"/>
       <path id="DejaVuSans-4d" d="M 628 4666 
L 1569 4666 
L 2759 1491 
L 3956 4666 
L 4897 4666 
L 4897 0 
L 4281 0 
L 4281 4097 
L 3078 897 
L 2444 897 
L 1241 4097 
L 1241 0 
L 628 0 
L 628 4666 
z
" transform="scale(0.015625)"/>
      </defs>
      <use xlink:href="#DejaVuSans-6c" transform="translate(0 0.015625)"/>
      <use xlink:href="#DejaVuSans-6f" transform="translate(27.783203 0.015625)"/>
      <use xlink:href="#DejaVuSans-67" transform="translate(88.964844 0.015625)"/>
      <use xlink:href="#DejaVuSans-31" transform="translate(153.398438 -16.390625) scale(0.7)"/>
      <use xlink:href="#DejaVuSans-30" transform="translate(197.93457 -16.390625) scale(0.7)"/>
      <use xlink:href="#DejaVuSans-Oblique-51" transform="translate(261.440754 0.015625)"/>
      <use xlink:href="#DejaVuSans-46" transform="translate(340.151692 -16.390625) scale(0.7)"/>
      <use xlink:href="#DejaVuSans-45" transform="translate(380.415364 -16.390625) scale(0.7)"/>
      <use xlink:href="#DejaVuSans-4d" transform="translate(424.643879 -16.390625) scale(0.7)"/>
     </g>
    </g>
   </g>
   <g id="matplotlib.axis_2">
    <g id="ytick_1">
     <g id="line2d_4">
      <defs>
       <path id="mac34b3e769" d="M 0 0 
L 3.5 0 
" style="stroke: #000000; stroke-width: 0.8"/>
      </defs>
      <g>
       <use xlink:href="#mac34b3e769" x="39.6" y="202.984254" style="stroke: #000000; stroke-width: 0.8"/>
      </g>
     </g>
     <g id="text_5">
      <!-- 3.6 -->
      <g transform="translate(11.08 209.426286) scale(0.18 -0.18)">
       <use xlink:href="#ArialMT-33"/>
       <use xlink:href="#ArialMT-2e" transform="translate(55.615234 0)"/>
       <use xlink:href="#ArialMT-36" transform="translate(83.398438 0)"/>
      </g>
     </g>
    </g>
    <g id="ytick_2">
     <g id="line2d_5">
      <g>
       <use xlink:href="#mac34b3e769" x="39.6" y="144.674394" style="stroke: #000000; stroke-width: 0.8"/>
      </g>
     </g>
     <g id="text_6">
      <!-- 3.8 -->
      <g transform="translate(11.08 151.116426) scale(0.18 -0.18)">
       <use xlink:href="#ArialMT-33"/>
       <use xlink:href="#ArialMT-2e" transform="translate(55.615234 0)"/>
       <use xlink:href="#ArialMT-38" transform="translate(83.398438 0)"/>
      </g>
     </g>
    </g>
    <g id="ytick_3">
     <g id="line2d_6">
      <g>
       <use xlink:href="#mac34b3e769" x="39.6" y="86.364535" style="stroke: #000000; stroke-width: 0.8"/>
      </g>
     </g>
     <g id="text_7">
      <!-- 4.0 -->
      <g transform="translate(11.08 92.806566) scale(0.18 -0.18)">
       <use xlink:href="#ArialMT-34"/>
       <use xlink:href="#ArialMT-2e" transform="translate(55.615234 0)"/>
       <use xlink:href="#ArialMT-30" transform="translate(83.398438 0)"/>
      </g>
     </g>
    </g>
    <g id="text_8">
     <!-- $\log_{10}Q_{\mathrm{NN}}$ -->
     <g transform="translate(3.3 185.76) rotate(-90) scale(0.18 -0.18)">
      <defs>
       <path id="DejaVuSans-4e" d="M 628 4666 
L 1478 4666 
L 3547 763 
L 3547 4666 
L 4159 4666 
L 4159 0 
L 3309 0 
L 1241 3903 
L 1241 0 
L 628 0 
L 628 4666 
z
" transform="scale(0.015625)"/>
      </defs>
      <use xlink:href="#DejaVuSans-6c" transform="translate(0 0.015625)"/>
      <use xlink:href="#DejaVuSans-6f" transform="translate(27.783203 0.015625)"/>
      <use xlink:href="#DejaVuSans-67" transform="translate(88.964844 0.015625)"/>
      <use xlink:href="#DejaVuSans-31" transform="translate(153.398438 -16.390625) scale(0.7)"/>
      <use xlink:href="#DejaVuSans-30" transform="translate(197.93457 -16.390625) scale(0.7)"/>
      <use xlink:href="#DejaVuSans-Oblique-51" transform="translate(261.440754 0.015625)"/>
      <use xlink:href="#DejaVuSans-4e" transform="translate(340.151692 -16.390625) scale(0.7)"/>
      <use xlink:href="#DejaVuSans-4e" transform="translate(392.514973 -16.390625) scale(0.7)"/>
     </g>
    </g>
   </g>
   <g id="line2d_7">
    <path d="M 144.367705 161.691131 
L 192.891731 117.862992 
L 223.210602 90.478182 
L 185.698724 124.359886 
L 81.414494 218.552053 
L 116.407244 186.945715 
L 152.838488 154.040081 
L 157.677686 149.669244 
L 166.544055 141.660908 
L 76.960683 222.57485 
L 106.508932 195.88612 
L 152.464372 154.378042 
L 101.992858 199.965151 
L 110.345555 192.4208 
L 164.989929 143.064608 
L 204.528888 107.351991 
L 139.204155 166.354956 
L 149.985577 156.616915 
L 178.21541 131.119044 
L 145.191695 160.94688 
L 145.665033 160.519319 
L 142.755763 163.147104 
L 152.839178 154.039455 
L 135.788882 169.439775 
L 121.182185 182.632919 
L 185.180759 124.827763 
L 149.743502 156.835596 
L 138.619939 166.882682 
L 157.291609 150.01791 
L 198.763103 112.559807 
L 77.382646 222.193722 
L 121.564199 182.287868 
L 103.276537 198.805712 
L 110.059773 192.678963 
L 121.272053 182.55173 
L 105.409358 196.87929 
L 146.50597 159.759775 
L 73.307015 225.874943 
L 167.104807 141.154383 
L 74.633405 224.676925 
L 149.650337 156.919704 
L 177.76937 131.521928 
L 130.952674 173.807901 
L 184.973419 125.015025 
L 159.995073 147.576066 
L 130.301671 174.395962 
L 173.215033 135.635506 
L 251.650766 64.790338 
L 120.086829 183.622266 
L 89.319924 211.411698 
L 130.753309 173.988004 
L 170.623137 137.976559 
L 144.221555 161.823132 
L 143.815541 162.189871 
L 120.127085 183.585912 
L 169.873755 138.653386 
L 140.398504 165.276219 
L 223.499834 90.21696 
L 98.8649 202.790417 
L 152.925211 153.961742 
L 177.129715 132.099632 
L 80.813332 219.095071 
L 144.508104 161.564344 
L 273.96 44.64 
L 161.688447 146.04662 
L 121.293906 182.531989 
L 159.251135 148.248027 
L 172.208701 136.544429 
L 219.073704 94.214733 
L 50.76 246.24 
L 164.591199 143.424744 
L 170.459504 138.124339 
L 136.497854 168.799372 
L 81.064379 218.868327 
L 257.511172 59.497093 
L 169.374346 139.10451 
L 106.7507 195.667787 
L 148.959231 157.54398 
L 188.558996 121.776449 
L 168.433114 139.954627 
L 172.973495 135.853631 
L 146.182232 160.052206 
L 231.493905 82.99646 
L 89.031075 211.672572 
L 140.829209 164.887167 
L 127.958367 176.512496 
L 220.425782 92.993568 
L 142.28925 163.568478 
L 143.542565 162.436426 
L 172.053809 136.684354 
L 128.199138 176.294997 
L 134.859381 170.279326 
L 118.598494 184.966535 
L 156.004325 151.180616 
L 77.641974 221.959541 
L 167.207173 141.061934 
L 167.855339 140.476514 
L 238.008075 77.11279 
L 152.162104 154.651011 
L 164.466366 143.53749 
" clip-path="url(#pd657e772a8)" style="fill: none; stroke: #0000ff; stroke-width: 1.5; stroke-linecap: square"/>
   </g>
   <g id="patch_3">
    <path d="M 39.6 256.32 
L 39.6 34.56 
" style="fill: none; stroke: #000000; stroke-width: 0.8; stroke-linejoin: miter; stroke-linecap: square"/>
   </g>
   <g id="patch_4">
    <path d="M 285.12 256.32 
L 285.12 34.56 
" style="fill: none; stroke: #000000; stroke-width: 0.8; stroke-linejoin: miter; stroke-linecap: square"/>
   </g>
   <g id="patch_5">
    <path d="M 39.6 256.32 
L 285.12 256.32 
" style="fill: none; stroke: #000000; stroke-width: 0.8; stroke-linejoin: miter; stroke-linecap: square"/>
   </g>
   <g id="patch_6">
    <path d="M 39.6 34.56 
L 285.12 34.56 
" style="fill: none; stroke: #000000; stroke-width: 0.8; stroke-linejoin: miter; stroke-linecap: square"/>
   </g>
   <g id="text_9">
    <!-- $\mathrm{R}^2 = $0.639 -->
    <g transform="translate(51.876 83.3472) scale(0.18 -0.18)">
     <defs>
      <path id="DejaVuSans-52" d="M 2841 2188 
Q 3044 2119 3236 1894 
Q 3428 1669 3622 1275 
L 4263 0 
L 3584 0 
L 2988 1197 
Q 2756 1666 2539 1819 
Q 2322 1972 1947 1972 
L 1259 1972 
L 1259 0 
L 628 0 
L 628 4666 
L 2053 4666 
Q 2853 4666 3247 4331 
Q 3641 3997 3641 3322 
Q 3641 2881 3436 2590 
Q 3231 2300 2841 2188 
z
M 1259 4147 
L 1259 2491 
L 2053 2491 
Q 2509 2491 2742 2702 
Q 2975 2913 2975 3322 
Q 2975 3731 2742 3939 
Q 2509 4147 2053 4147 
L 1259 4147 
z
" transform="scale(0.015625)"/>
      <path id="DejaVuSans-32" d="M 1228 531 
L 3431 531 
L 3431 0 
L 469 0 
L 469 531 
Q 828 903 1448 1529 
Q 2069 2156 2228 2338 
Q 2531 2678 2651 2914 
Q 2772 3150 2772 3378 
Q 2772 3750 2511 3984 
Q 2250 4219 1831 4219 
Q 1534 4219 1204 4116 
Q 875 4013 500 3803 
L 500 4441 
Q 881 4594 1212 4672 
Q 1544 4750 1819 4750 
Q 2544 4750 2975 4387 
Q 3406 4025 3406 3419 
Q 3406 3131 3298 2873 
Q 3191 2616 2906 2266 
Q 2828 2175 2409 1742 
Q 1991 1309 1228 531 
z
" transform="scale(0.015625)"/>
      <path id="DejaVuSans-3d" d="M 678 2906 
L 4684 2906 
L 4684 2381 
L 678 2381 
L 678 2906 
z
M 678 1631 
L 4684 1631 
L 4684 1100 
L 678 1100 
L 678 1631 
z
" transform="scale(0.015625)"/>
      <path id="ArialMT-39" d="M 350 1059 
L 891 1109 
Q 959 728 1153 556 
Q 1347 384 1650 384 
Q 1909 384 2104 503 
Q 2300 622 2425 820 
Q 2550 1019 2634 1356 
Q 2719 1694 2719 2044 
Q 2719 2081 2716 2156 
Q 2547 1888 2255 1720 
Q 1963 1553 1622 1553 
Q 1053 1553 659 1965 
Q 266 2378 266 3053 
Q 266 3750 677 4175 
Q 1088 4600 1706 4600 
Q 2153 4600 2523 4359 
Q 2894 4119 3086 3673 
Q 3278 3228 3278 2384 
Q 3278 1506 3087 986 
Q 2897 466 2520 194 
Q 2144 -78 1638 -78 
Q 1100 -78 759 220 
Q 419 519 350 1059 
z
M 2653 3081 
Q 2653 3566 2395 3850 
Q 2138 4134 1775 4134 
Q 1400 4134 1122 3828 
Q 844 3522 844 3034 
Q 844 2597 1108 2323 
Q 1372 2050 1759 2050 
Q 2150 2050 2401 2323 
Q 2653 2597 2653 3081 
z
" transform="scale(0.015625)"/>
     </defs>
     <use xlink:href="#DejaVuSans-52" transform="translate(0 0.765625)"/>
     <use xlink:href="#DejaVuSans-32" transform="translate(70.439453 39.046875) scale(0.7)"/>
     <use xlink:href="#DejaVuSans-3d" transform="translate(137.192383 0.765625)"/>
     <use xlink:href="#ArialMT-30" transform="translate(240.463867 0.765625)"/>
     <use xlink:href="#ArialMT-2e" transform="translate(296.079102 0.765625)"/>
     <use xlink:href="#ArialMT-36" transform="translate(323.862305 0.765625)"/>
     <use xlink:href="#ArialMT-33" transform="translate(379.477539 0.765625)"/>
     <use xlink:href="#ArialMT-39" transform="translate(435.092773 0.765625)"/>
    </g>
   </g>
   <g id="text_10">
    <!-- $Q_{\mathrm{NN}} = $0.996$Q_{\mathrm{FEM}}$ -->
    <g transform="translate(51.876 56.736) scale(0.18 -0.18)">
     <use xlink:href="#DejaVuSans-Oblique-51" transform="translate(0 0.78125)"/>
     <use xlink:href="#DejaVuSans-4e" transform="translate(78.710938 -15.625) scale(0.7)"/>
     <use xlink:href="#DejaVuSans-4e" transform="translate(131.074219 -15.625) scale(0.7)"/>
     <use xlink:href="#DejaVuSans-3d" transform="translate(205.654297 0.78125)"/>
     <use xlink:href="#ArialMT-30" transform="translate(308.925781 0.78125)"/>
     <use xlink:href="#ArialMT-2e" transform="translate(364.541016 0.78125)"/>
     <use xlink:href="#ArialMT-39" transform="translate(392.324219 0.78125)"/>
     <use xlink:href="#ArialMT-39" transform="translate(447.939453 0.78125)"/>
     <use xlink:href="#ArialMT-36" transform="translate(503.554688 0.78125)"/>
     <use xlink:href="#DejaVuSans-Oblique-51" transform="translate(559.169922 0.78125)"/>
     <use xlink:href="#DejaVuSans-46" transform="translate(637.880859 -15.625) scale(0.7)"/>
     <use xlink:href="#DejaVuSans-45" transform="translate(678.144531 -15.625) scale(0.7)"/>
     <use xlink:href="#DejaVuSans-4d" transform="translate(722.373047 -15.625) scale(0.7)"/>
    </g>
   </g>
  </g>
 </g>
 <defs>
  <clipPath id="pd657e772a8">
   <rect x="39.6" y="34.56" width="245.52" height="221.76"/>
  </clipPath>
 </defs>
</svg>
